G04 DipTrace 3.3.1.0*
G04 BottomSilk.gbr*
%MOIN*%
G04 #@! TF.FileFunction,Legend,Bot*
G04 #@! TF.Part,Single*
%ADD10C,0.015*%
%ADD119C,0.009264*%
%ADD120C,0.015439*%
%FSLAX26Y26*%
G04*
G70*
G90*
G75*
G01*
G04 BotSilk*
%LPD*%
X659055Y1673197D2*
D10*
Y1610268D1*
X651606Y1673197D2*
Y1610268D1*
Y1673197D2*
X675165D1*
X651606Y1610268D2*
X675165D1*
X1777591Y1661024D2*
X1840520D1*
X1777591Y1653575D2*
X1840520D1*
X1777591D2*
Y1677134D1*
X1840520Y1653575D2*
Y1677134D1*
X784646Y1354362D2*
Y1417291D1*
X792094Y1354362D2*
Y1417291D1*
Y1354362D2*
X768535D1*
X792094Y1417291D2*
X768535D1*
X3681071Y2445276D2*
X3618142D1*
X3681071Y2452724D2*
X3618142D1*
X3681071D2*
Y2429165D1*
X3618142Y2452724D2*
Y2429165D1*
X3316142Y2436976D2*
Y2374047D1*
X3308693Y2436976D2*
Y2374047D1*
Y2436976D2*
X3332252D1*
X3308693Y2374047D2*
X3332252D1*
X3374803Y1940976D2*
Y2003906D1*
X3382252Y1940976D2*
Y2003906D1*
Y1940976D2*
X3358693D1*
X3382252Y2003906D2*
X3358693D1*
X1525165Y1760236D2*
X1462236D1*
X1525165Y1767685D2*
X1462236D1*
X1525165D2*
Y1744126D1*
X1462236Y1767685D2*
Y1744126D1*
X2597606Y1740551D2*
X2534677D1*
X2597606Y1748000D2*
X2534677D1*
X2597606D2*
Y1724441D1*
X2534677Y1748000D2*
Y1724441D1*
X3377953Y2106331D2*
Y2169260D1*
X3385402Y2106331D2*
Y2169260D1*
Y2106331D2*
X3361843D1*
X3385402Y2169260D2*
X3361843D1*
X4301969Y1338614D2*
Y1401543D1*
X4309417Y1338614D2*
Y1401543D1*
Y1338614D2*
X4285858D1*
X4309417Y1401543D2*
X4285858D1*
X4306693Y1488220D2*
Y1551150D1*
X4314142Y1488220D2*
Y1551150D1*
Y1488220D2*
X4290583D1*
X4314142Y1551150D2*
X4290583D1*
X704362Y1832673D2*
X727921D1*
X704362Y1931106D2*
X727921D1*
X658324Y1661165D2*
D119*
X661175Y1666869D1*
X666946Y1672639D1*
X672649Y1675491D1*
X684123D1*
X689893Y1672639D1*
X695597Y1666869D1*
X698516Y1661165D1*
X701367Y1652543D1*
Y1638151D1*
X698516Y1629595D1*
X695597Y1623825D1*
X689893Y1618121D1*
X684123Y1615203D1*
X672649D1*
X666946Y1618121D1*
X661175Y1623825D1*
X658324Y1629595D1*
X639796Y1663951D2*
X634026Y1666869D1*
X625404Y1675425D1*
Y1615203D1*
X815887Y1571557D2*
Y1574409D1*
X813035Y1580179D1*
X810184Y1583031D1*
X804413Y1585882D1*
X792939D1*
X787236Y1583031D1*
X784384Y1580179D1*
X781466Y1574409D1*
Y1568705D1*
X784384Y1562935D1*
X790088Y1554379D1*
X818806Y1525661D1*
X778614D1*
X757168Y1571557D2*
Y1574409D1*
X754316Y1580179D1*
X751464Y1583031D1*
X745694Y1585882D1*
X734220D1*
X728517Y1583031D1*
X725665Y1580179D1*
X722746Y1574409D1*
Y1568705D1*
X725665Y1562935D1*
X731368Y1554379D1*
X760087Y1525661D1*
X719895D1*
X684123Y1585882D2*
X692745Y1583031D1*
X698516Y1574409D1*
X701367Y1560083D1*
Y1551461D1*
X698516Y1537135D1*
X692745Y1528513D1*
X684123Y1525661D1*
X678420D1*
X669797Y1528513D1*
X664094Y1537135D1*
X661175Y1551461D1*
Y1560083D1*
X664094Y1574409D1*
X669797Y1583031D1*
X678420Y1585882D1*
X684123D1*
X664094Y1574409D2*
X698516Y1537135D1*
X625404Y1585882D2*
X634026Y1583031D1*
X639796Y1574409D1*
X642648Y1560083D1*
Y1551461D1*
X639796Y1537135D1*
X634026Y1528513D1*
X625404Y1525661D1*
X619700D1*
X611078Y1528513D1*
X605375Y1537135D1*
X602456Y1551461D1*
Y1560083D1*
X605375Y1574409D1*
X611078Y1583031D1*
X619700Y1585882D1*
X625404D1*
X605375Y1574409D2*
X639796Y1537135D1*
X583929Y1565853D2*
Y1505565D1*
Y1557231D2*
X578159Y1562935D1*
X572455Y1565853D1*
X563833D1*
X558063Y1562935D1*
X552359Y1557231D1*
X549441Y1548609D1*
Y1542839D1*
X552359Y1534283D1*
X558063Y1528513D1*
X563833Y1525661D1*
X572455D1*
X578159Y1528513D1*
X583929Y1534283D1*
X507966Y1585949D2*
X513670D1*
X519440Y1583097D1*
X522292Y1574475D1*
Y1525661D1*
X530914Y1565853D2*
X510818D1*
X1789622Y1673192D2*
X1783919Y1676044D1*
X1778148Y1681814D1*
X1775297Y1687518D1*
Y1698992D1*
X1778148Y1704762D1*
X1783919Y1710466D1*
X1789622Y1713384D1*
X1798244Y1716236D1*
X1812637D1*
X1821192Y1713384D1*
X1826962Y1710466D1*
X1832666Y1704762D1*
X1835585Y1698992D1*
Y1687518D1*
X1832666Y1681814D1*
X1826963Y1676044D1*
X1821192Y1673192D1*
X1789689Y1651747D2*
X1786837D1*
X1781067Y1648895D1*
X1778215Y1646043D1*
X1775363Y1640273D1*
Y1628799D1*
X1778215Y1623095D1*
X1781067Y1620243D1*
X1786837Y1617325D1*
X1792541D1*
X1798311Y1620243D1*
X1806866Y1625947D1*
X1835585Y1654665D1*
X1835584Y1614473D1*
X788153Y1405260D2*
X791004Y1410963D1*
X796775Y1416733D1*
X802478Y1419585D1*
X813952D1*
X819723Y1416733D1*
X825426Y1410963D1*
X828345Y1405260D1*
X831196Y1396637D1*
Y1382245D1*
X828345Y1373690D1*
X825426Y1367919D1*
X819723Y1362216D1*
X813952Y1359297D1*
X802478D1*
X796775Y1362216D1*
X791004Y1367919D1*
X788153Y1373690D1*
X763855Y1419519D2*
X732352D1*
X749529Y1396571D1*
X740907D1*
X735204Y1393719D1*
X732352Y1390867D1*
X729433Y1382245D1*
Y1376541D1*
X732352Y1367919D1*
X738056Y1362149D1*
X746678Y1359297D1*
X755300D1*
X763855Y1362149D1*
X766707Y1365068D1*
X769625Y1370771D1*
X3630174Y2450209D2*
X3624470Y2453060D1*
X3618700Y2458831D1*
X3615848Y2464534D1*
Y2476008D1*
X3618700Y2481778D1*
X3624470Y2487482D1*
X3630174Y2490400D1*
X3638796Y2493252D1*
X3653188D1*
X3661744Y2490400D1*
X3667514Y2487482D1*
X3673217Y2481778D1*
X3676136Y2476008D1*
Y2464534D1*
X3673217Y2458830D1*
X3667514Y2453060D1*
X3661744Y2450208D1*
X3676136Y2402963D2*
X3615914D1*
X3656040Y2431681D1*
Y2388638D1*
X3328310Y2424945D2*
X3331162Y2430648D1*
X3336932Y2436419D1*
X3342636Y2439270D1*
X3354110D1*
X3359880Y2436419D1*
X3365584Y2430648D1*
X3368502Y2424945D1*
X3371354Y2416323D1*
Y2401930D1*
X3368502Y2393375D1*
X3365584Y2387604D1*
X3359880Y2381901D1*
X3354110Y2378982D1*
X3342636D1*
X3336932Y2381901D1*
X3331162Y2387604D1*
X3328310Y2393375D1*
X3275361Y2439204D2*
X3304013D1*
X3306865Y2413404D1*
X3304013Y2416256D1*
X3295391Y2419174D1*
X3286835D1*
X3278213Y2416256D1*
X3272443Y2410552D1*
X3269591Y2401930D1*
Y2396227D1*
X3272443Y2387604D1*
X3278213Y2381834D1*
X3286835Y2378982D1*
X3295391D1*
X3304013Y2381834D1*
X3306865Y2384753D1*
X3309783Y2390456D1*
X3376851Y1991874D2*
X3379703Y1997578D1*
X3385473Y2003348D1*
X3391177Y2006200D1*
X3402651D1*
X3408421Y2003348D1*
X3414125Y1997578D1*
X3417043Y1991874D1*
X3419895Y1983252D1*
Y1968859D1*
X3417043Y1960304D1*
X3414125Y1954534D1*
X3408421Y1948830D1*
X3402651Y1945912D1*
X3391177D1*
X3385473Y1948830D1*
X3379703Y1954534D1*
X3376851Y1960304D1*
X3323902Y1997578D2*
X3326754Y2003281D1*
X3335376Y2006133D1*
X3341080D1*
X3349702Y2003281D1*
X3355472Y1994659D1*
X3358324Y1980333D1*
Y1966008D1*
X3355472Y1954534D1*
X3349702Y1948763D1*
X3341080Y1945912D1*
X3338228D1*
X3329672Y1948763D1*
X3323902Y1954534D1*
X3321050Y1963156D1*
Y1966008D1*
X3323902Y1974630D1*
X3329672Y1980333D1*
X3338228Y1983185D1*
X3341080D1*
X3349702Y1980333D1*
X3355472Y1974630D1*
X3358324Y1966008D1*
X1474268Y1763743D2*
X1468564Y1766595D1*
X1462794Y1772365D1*
X1459942Y1778069D1*
Y1789543D1*
X1462794Y1795313D1*
X1468564Y1801017D1*
X1474268Y1803935D1*
X1482890Y1806787D1*
X1497282D1*
X1505838Y1803935D1*
X1511608Y1801017D1*
X1517312Y1795313D1*
X1520230Y1789543D1*
Y1778069D1*
X1517312Y1772365D1*
X1511608Y1766595D1*
X1505838Y1763743D1*
X1520230Y1733742D2*
X1460008Y1705024D1*
X1460009Y1745216D1*
X2546709Y1744025D2*
X2541005Y1746877D1*
X2535235Y1752647D1*
X2532383Y1758351D1*
Y1769825D1*
X2535235Y1775595D1*
X2541005Y1781299D1*
X2546709Y1784217D1*
X2555331Y1787069D1*
X2569723D1*
X2578279Y1784217D1*
X2584049Y1781299D1*
X2589753Y1775595D1*
X2592671Y1769825D1*
Y1758351D1*
X2589753Y1752647D1*
X2584049Y1746877D1*
X2578279Y1744025D1*
X2532449Y1711172D2*
X2535301Y1719728D1*
X2541005Y1722646D1*
X2546775D1*
X2552479Y1719728D1*
X2555397Y1714024D1*
X2558249Y1702550D1*
X2561101Y1693928D1*
X2566871Y1688224D1*
X2572575Y1685372D1*
X2581197D1*
X2586901Y1688224D1*
X2589819Y1691076D1*
X2592671Y1699698D1*
Y1711172D1*
X2589819Y1719728D1*
X2586901Y1722646D1*
X2581197Y1725498D1*
X2572575D1*
X2566871Y1722646D1*
X2561101Y1716876D1*
X2558249Y1708320D1*
X2555397Y1696846D1*
X2552479Y1691076D1*
X2546775Y1688224D1*
X2541005D1*
X2535301Y1691076D1*
X2532449Y1699698D1*
Y1711172D1*
X3380034Y2157228D2*
X3382886Y2162932D1*
X3388656Y2168702D1*
X3394360Y2171554D1*
X3405834D1*
X3411604Y2168702D1*
X3417307Y2162932D1*
X3420226Y2157228D1*
X3423078Y2148606D1*
Y2134214D1*
X3420226Y2125658D1*
X3417307Y2119888D1*
X3411604Y2114184D1*
X3405834Y2111266D1*
X3394360D1*
X3388656Y2114184D1*
X3382886Y2119888D1*
X3380034Y2125658D1*
X3324166Y2151458D2*
X3327085Y2142836D1*
X3332789Y2137066D1*
X3341411Y2134214D1*
X3344262D1*
X3352885Y2137066D1*
X3358588Y2142836D1*
X3361507Y2151458D1*
Y2154310D1*
X3358588Y2162932D1*
X3352885Y2168636D1*
X3344262Y2171488D1*
X3341411D1*
X3332789Y2168636D1*
X3327085Y2162932D1*
X3324166Y2151458D1*
Y2137066D1*
X3327085Y2122740D1*
X3332789Y2114118D1*
X3341411Y2111266D1*
X3347114D1*
X3355736Y2114118D1*
X3358588Y2119888D1*
X4321935Y1389512D2*
X4324787Y1395215D1*
X4330557Y1400985D1*
X4336261Y1403837D1*
X4347735D1*
X4353505Y1400985D1*
X4359209Y1395215D1*
X4362127Y1389512D1*
X4364979Y1380889D1*
Y1366497D1*
X4362127Y1357942D1*
X4359209Y1352171D1*
X4353505Y1346468D1*
X4347735Y1343549D1*
X4336261D1*
X4330557Y1346468D1*
X4324787Y1352171D1*
X4321935Y1357942D1*
X4303408Y1392297D2*
X4297638Y1395215D1*
X4289016Y1403771D1*
Y1343549D1*
X4253245Y1403771D2*
X4261867Y1400919D1*
X4267637Y1392297D1*
X4270489Y1377971D1*
Y1369349D1*
X4267637Y1355023D1*
X4261867Y1346401D1*
X4253245Y1343549D1*
X4247541D1*
X4238919Y1346401D1*
X4233215Y1355023D1*
X4230297Y1369349D1*
Y1377971D1*
X4233215Y1392297D1*
X4238919Y1400919D1*
X4247541Y1403771D1*
X4253245D1*
X4233215Y1392297D2*
X4267637Y1355023D1*
X4313760Y1539118D2*
X4316611Y1544822D1*
X4322382Y1550592D1*
X4328085Y1553444D1*
X4339559D1*
X4345329Y1550592D1*
X4351033Y1544822D1*
X4353952Y1539118D1*
X4356803Y1530496D1*
Y1516104D1*
X4353952Y1507548D1*
X4351033Y1501778D1*
X4345329Y1496074D1*
X4339559Y1493156D1*
X4328085D1*
X4322382Y1496074D1*
X4316611Y1501778D1*
X4313760Y1507548D1*
X4295232Y1541903D2*
X4289462Y1544822D1*
X4280840Y1553377D1*
Y1493156D1*
X4262313Y1541903D2*
X4256543Y1544822D1*
X4247921Y1553377D1*
Y1493156D1*
X782057Y1886930D2*
X756257D1*
X747635Y1889849D1*
X744717Y1892700D1*
X741865Y1898404D1*
Y1904174D1*
X744717Y1909878D1*
X747635Y1912796D1*
X756257Y1915648D1*
X782057D1*
Y1855360D1*
X761961Y1886930D2*
X741865Y1855360D1*
X688916Y1915582D2*
X717568D1*
X720420Y1889782D1*
X717568Y1892634D1*
X708946Y1895552D1*
X700390D1*
X691768Y1892634D1*
X685998Y1886930D1*
X683146Y1878308D1*
Y1872604D1*
X685998Y1863982D1*
X691768Y1858212D1*
X700390Y1855360D1*
X708946D1*
X717568Y1858212D1*
X720420Y1861131D1*
X723338Y1866834D1*
X664619Y1904108D2*
X658849Y1907026D1*
X650227Y1915582D1*
Y1855360D1*
X823173Y1896924D2*
Y1925575D1*
X848973Y1928427D1*
X846121Y1925575D1*
X843202Y1916953D1*
Y1908397D1*
X846121Y1899775D1*
X851824Y1894005D1*
X860446Y1891153D1*
X866150D1*
X874772Y1894005D1*
X880542Y1899775D1*
X883394Y1908397D1*
Y1916953D1*
X880542Y1925575D1*
X877624Y1928427D1*
X871920Y1931345D1*
X823173Y1855382D2*
X826025Y1864004D1*
X834647Y1869774D1*
X848973Y1872626D1*
X857595D1*
X871920Y1869774D1*
X880542Y1864004D1*
X883394Y1855382D1*
Y1849678D1*
X880542Y1841056D1*
X871920Y1835353D1*
X857595Y1832434D1*
X848972D1*
X834647Y1835353D1*
X826025Y1841056D1*
X823173Y1849678D1*
Y1855382D1*
X834647Y1835353D2*
X871920Y1869774D1*
X5332853Y2587975D2*
D120*
Y2487495D1*
X5289743D1*
X5275373Y2492359D1*
X5270620Y2497112D1*
X5265867Y2506619D1*
Y2520989D1*
X5270620Y2530606D1*
X5275373Y2535359D1*
X5289743Y2540112D1*
X5275373Y2544976D1*
X5270620Y2549729D1*
X5265867Y2559235D1*
Y2568852D1*
X5270620Y2578359D1*
X5275373Y2583222D1*
X5289743Y2587975D1*
X5332853D1*
Y2540112D2*
X5289743D1*
X5206248Y2587975D2*
X5215865Y2583222D1*
X5225371Y2573605D1*
X5230235Y2564099D1*
X5234988Y2549729D1*
Y2525742D1*
X5230235Y2511482D1*
X5225371Y2501866D1*
X5215865Y2492359D1*
X5206248Y2487495D1*
X5187125D1*
X5177618Y2492359D1*
X5168001Y2501866D1*
X5163248Y2511482D1*
X5158495Y2525742D1*
Y2549729D1*
X5163248Y2564099D1*
X5168001Y2573605D1*
X5177618Y2583222D1*
X5187125Y2587975D1*
X5206248D1*
X5094123D2*
Y2487495D1*
X5127617Y2587975D2*
X5060630D1*
M02*
