M48
INCH
T01C0.0276
T02C0.028
T03C0.0315
T04C0.0354
T05C0.0394
T06C0.04
T07C0.0433
T08C0.0472
T09C0.0591
T10C0.065
T11C0.1496
T12C0.1575
%
T01
X+020961Y+016575
X+021591Y+016575
X+022220Y+016575
X+013689Y+005709
X+013059Y+005709
X+012429Y+005709
T02
X+039744Y+005118
X+039744Y+006118
T03
X+013087Y+015512
X+013756Y+014370
X+012098Y+012835
X+011016Y+014173
X+012098Y+016772
X+013087Y+019449
X+014469Y+019370
X+015094Y+020551
X+016134Y+020591
X+018406Y+019370
X+019661Y+019528
X+020071Y+020591
X+021319Y+020748
X+023598Y+019528
X+024248Y+018228
X+025437Y+019134
X+026602Y+019134
X+027374Y+019528
X+028453Y+019488
X+029976Y+020315
X+028453Y+023425
X+027374Y+023465
X+028177Y+025354
X+028165Y+026417
X+029976Y+024252
X+031236Y+024094
X+032114Y+025354
X+032102Y+026417
X+033945Y+026102
X+033941Y+025039
X+035173Y+024094
X+036622Y+022874
X+037878Y+025039
X+037882Y+026102
X+041224Y+022087
X+042280Y+022087
X+043343Y+022087
X+044406Y+022087
X+044406Y+018150
X+043343Y+018150
X+042280Y+018150
X+041224Y+018150
X+034307Y+011969
X+034291Y+010945
X+032902Y+009252
X+031685Y+009213
X+029717Y+008701
X+029870Y+007126
X+031685Y+005276
X+032902Y+005315
X+030354Y+010945
X+030370Y+011969
X+026602Y+015197
X+025437Y+015197
X+023654Y+014921
X+023669Y+013937
X+024031Y+011654
X+024004Y+010669
X+023980Y+009606
X+025780Y+008701
X+025933Y+007126
X+020043Y+009606
X+020067Y+010669
X+020094Y+011654
X+019732Y+013937
X+019717Y+014921
X+020311Y+018228
X+025256Y+020748
X+032685Y+022874
X+040925Y+007047
X+044862Y+007047
X+013756Y+010433
X+011016Y+010236
X+010370Y+008858
X+010461Y+007362
X+011134Y+006260
X+011528Y+005197
X+007591Y+005197
X+007197Y+006260
X+006524Y+007362
X+006433Y+008858
X+011157Y+020551
X+011323Y+021654
X+011323Y+025591
T04
X+038535Y+007953
X+038535Y+008953
X+038535Y+009953
X+038535Y+010953
X+038535Y+011953
X+038535Y+012953
X+038535Y+013953
X+038535Y+014953
X+038535Y+015953
X+038535Y+016953
X+038535Y+017953
X+038535Y+018953
X+038535Y+019953
X+038535Y+020953
X+035535Y+020953
X+035535Y+019953
X+035535Y+018953
X+035535Y+017953
X+035535Y+016953
X+035535Y+015953
X+035535Y+014953
X+035535Y+013953
X+035535Y+012953
X+035535Y+011953
X+035535Y+010953
X+035535Y+009953
X+035535Y+008953
X+035535Y+007953
X+041996Y+009803
X+043965Y+009803
X+045874Y+011969
X+045874Y+013937
X+047717Y+010039
X+047717Y+008071
X+040843Y+014134
X+040843Y+016034
X+028587Y+013709
X+028587Y+012709
X+028587Y+011709
X+028587Y+010709
X+025587Y+010709
X+025587Y+011709
X+025587Y+012709
X+025587Y+013709
X+018209Y+013465
X+017209Y+013465
X+016209Y+013465
X+015209Y+013465
X+015209Y+010465
X+016209Y+010465
X+017209Y+010465
X+018209Y+010465
X+013795Y+008701
X+012811Y+008701
X+011827Y+008701
T05
X+034142Y+016614
X+033142Y+016614
X+032142Y+016614
X+032142Y+015614
X+033142Y+015614
X+034142Y+015614
X+023583Y+008031
X+022583Y+008031
X+021583Y+008031
X+021583Y+005031
X+022583Y+005031
X+023583Y+005031
X+017878Y+015228
X+016878Y+015228
X+015878Y+015228
X+015878Y+018228
X+016878Y+018228
X+017878Y+018228
T06
X+051756Y+017835
X+049756Y+017835
X+049756Y+015835
X+051756Y+015835
T07
X+034630Y+005630
X+035630Y+005630
X+036630Y+005630
X+037630Y+005630
X+042673Y+005512
X+043673Y+005512
X+044673Y+005512
X+047193Y+005984
X+048193Y+005984
X+049193Y+005984
X+051957Y+008157
X+051957Y+009157
X+051957Y+010157
X+046311Y+018173
X+046311Y+019173
X+046311Y+020173
X+046311Y+021173
X+046311Y+022173
X+047850Y+027205
X+047850Y+029961
X+036992Y+030197
X+036992Y+027441
X+029858Y+005433
X+028858Y+005433
X+027858Y+005433
X+026858Y+005433
X+017138Y+005394
X+017138Y+008465
T08
X+025917Y+022008
X+024020Y+022795
X+024020Y+025748
X+025917Y+026358
X+016146Y+025748
X+014177Y+025748
X+014177Y+022858
X+016146Y+022795
T09
X+008988Y+011220G85X+008988Y+012008
X+004988Y+017717G85X+004988Y+018504
X+008988Y+024213G85X+008988Y+025000
T10
X+013677Y+028543
X+013677Y+030551
X+010654Y+030551
X+010654Y+028543
X+007382Y+028543
X+007382Y+030551
X+016917Y+030575
X+016917Y+028567
X+021327Y+028543
X+021327Y+030551
X+024835Y+030551
X+024835Y+028543
X+029913Y+028567
X+029913Y+030575
X+033760Y+030575
X+033760Y+028567
X+040146Y+030591
X+042154Y+030591
X+042177Y+026181
X+040169Y+026181
X+049831Y+020512
X+051839Y+020512
X+051827Y+013071
X+049819Y+013071
T11
X+005118Y+031102
X+005118Y+005512
X+051969Y+005512
X+051969Y+030709
T12
X+011539Y+018937
T00
M30
