G04 DipTrace 3.3.1.0*
G04 BottomSilk.gbr*
%MOIN*%
G04 #@! TF.FileFunction,Legend,Bot*
G04 #@! TF.Part,Single*
%ADD10C,0.015*%
%ADD119C,0.009264*%
%FSLAX26Y26*%
G04*
G70*
G90*
G75*
G01*
G04 BotSilk*
%LPD*%
X659055Y1673197D2*
D10*
Y1610268D1*
X651606Y1673197D2*
Y1610268D1*
Y1673197D2*
X675165D1*
X651606Y1610268D2*
X675165D1*
X1777591Y1661024D2*
X1840520D1*
X1777591Y1653575D2*
X1840520D1*
X1777591D2*
Y1677134D1*
X1840520Y1653575D2*
Y1677134D1*
X784646Y1354362D2*
Y1417291D1*
X792094Y1354362D2*
Y1417291D1*
Y1354362D2*
X768535D1*
X792094Y1417291D2*
X768535D1*
X3681071Y2445276D2*
X3618142D1*
X3681071Y2452724D2*
X3618142D1*
X3681071D2*
Y2429165D1*
X3618142Y2452724D2*
Y2429165D1*
X3316142Y2436976D2*
Y2374047D1*
X3308693Y2436976D2*
Y2374047D1*
Y2436976D2*
X3332252D1*
X3308693Y2374047D2*
X3332252D1*
X3374803Y1940976D2*
Y2003906D1*
X3382252Y1940976D2*
Y2003906D1*
Y1940976D2*
X3358693D1*
X3382252Y2003906D2*
X3358693D1*
X1525165Y1760236D2*
X1462236D1*
X1525165Y1767685D2*
X1462236D1*
X1525165D2*
Y1744126D1*
X1462236Y1767685D2*
Y1744126D1*
X2597606Y1740551D2*
X2534677D1*
X2597606Y1748000D2*
X2534677D1*
X2597606D2*
Y1724441D1*
X2534677Y1748000D2*
Y1724441D1*
X3377953Y2106331D2*
Y2169260D1*
X3385402Y2106331D2*
Y2169260D1*
Y2106331D2*
X3361843D1*
X3385402Y2169260D2*
X3361843D1*
X4301969Y1338614D2*
Y1401543D1*
X4309417Y1338614D2*
Y1401543D1*
Y1338614D2*
X4285858D1*
X4309417Y1401543D2*
X4285858D1*
X4306693Y1488220D2*
Y1551150D1*
X4314142Y1488220D2*
Y1551150D1*
Y1488220D2*
X4290583D1*
X4314142Y1551150D2*
X4290583D1*
X704362Y1832673D2*
X727921D1*
X704362Y1931106D2*
X727921D1*
X658324Y1750707D2*
D119*
X661175Y1756411D1*
X666946Y1762181D1*
X672649Y1765033D1*
X684123D1*
X689893Y1762181D1*
X695597Y1756411D1*
X698516Y1750707D1*
X701367Y1742085D1*
Y1727693D1*
X698516Y1719137D1*
X695597Y1713367D1*
X689893Y1707663D1*
X684123Y1704745D1*
X672649D1*
X666946Y1707663D1*
X661175Y1713367D1*
X658324Y1719137D1*
X639796Y1753493D2*
X634026Y1756411D1*
X625404Y1764967D1*
Y1704745D1*
X815887Y1571557D2*
Y1574409D1*
X813035Y1580179D1*
X810184Y1583031D1*
X804413Y1585882D1*
X792939D1*
X787236Y1583031D1*
X784384Y1580179D1*
X781466Y1574409D1*
Y1568705D1*
X784384Y1562935D1*
X790088Y1554379D1*
X818806Y1525661D1*
X778614D1*
X757168Y1571557D2*
Y1574409D1*
X754316Y1580179D1*
X751464Y1583031D1*
X745694Y1585882D1*
X734220D1*
X728517Y1583031D1*
X725665Y1580179D1*
X722746Y1574409D1*
Y1568705D1*
X725665Y1562935D1*
X731368Y1554379D1*
X760087Y1525661D1*
X719895D1*
X684123Y1585882D2*
X692745Y1583031D1*
X698516Y1574409D1*
X701367Y1560083D1*
Y1551461D1*
X698516Y1537135D1*
X692745Y1528513D1*
X684123Y1525661D1*
X678420D1*
X669797Y1528513D1*
X664094Y1537135D1*
X661175Y1551461D1*
Y1560083D1*
X664094Y1574409D1*
X669797Y1583031D1*
X678420Y1585882D1*
X684123D1*
X664094Y1574409D2*
X698516Y1537135D1*
X625404Y1585882D2*
X634026Y1583031D1*
X639796Y1574409D1*
X642648Y1560083D1*
Y1551461D1*
X639796Y1537135D1*
X634026Y1528513D1*
X625404Y1525661D1*
X619700D1*
X611078Y1528513D1*
X605375Y1537135D1*
X602456Y1551461D1*
Y1560083D1*
X605375Y1574409D1*
X611078Y1583031D1*
X619700Y1585882D1*
X625404D1*
X605375Y1574409D2*
X639796Y1537135D1*
X583929Y1565853D2*
Y1505565D1*
Y1557231D2*
X578159Y1562935D1*
X572455Y1565853D1*
X563833D1*
X558063Y1562935D1*
X552359Y1557231D1*
X549441Y1548609D1*
Y1542839D1*
X552359Y1534283D1*
X558063Y1528513D1*
X563833Y1525661D1*
X572455D1*
X578159Y1528513D1*
X583929Y1534283D1*
X507966Y1585949D2*
X513670D1*
X519440Y1583097D1*
X522292Y1574475D1*
Y1525661D1*
X530914Y1565853D2*
X510818D1*
X1920756Y1828296D2*
X1914986Y1831214D1*
X1906364Y1839770D1*
Y1779548D1*
X1870593Y1839770D2*
X1879215Y1836918D1*
X1884985Y1828296D1*
X1887837Y1813970D1*
Y1805348D1*
X1884985Y1791022D1*
X1879215Y1782400D1*
X1870593Y1779548D1*
X1864889D1*
X1856267Y1782400D1*
X1850563Y1791022D1*
X1847645Y1805348D1*
Y1813970D1*
X1850563Y1828296D1*
X1856267Y1836918D1*
X1864889Y1839770D1*
X1870593D1*
X1850563Y1828296D2*
X1884985Y1791022D1*
X1811874Y1839770D2*
X1820496Y1836918D1*
X1826266Y1828296D1*
X1829118Y1813970D1*
Y1805348D1*
X1826266Y1791022D1*
X1820496Y1782400D1*
X1811874Y1779548D1*
X1806170D1*
X1797548Y1782400D1*
X1791844Y1791022D1*
X1788926Y1805348D1*
Y1813970D1*
X1791844Y1828296D1*
X1797548Y1836918D1*
X1806170Y1839770D1*
X1811874D1*
X1791844Y1828296D2*
X1826266Y1791022D1*
X1770399Y1819740D2*
Y1779548D1*
Y1808266D2*
X1761777Y1816888D1*
X1756007Y1819740D1*
X1747451D1*
X1741681Y1816888D1*
X1738829Y1808266D1*
Y1779548D1*
X1697354Y1839836D2*
X1703058D1*
X1708828Y1836984D1*
X1711680Y1828362D1*
Y1779548D1*
X1720302Y1819740D2*
X1700206D1*
X932817Y1494735D2*
Y1497587D1*
X929965Y1503357D1*
X927113Y1506209D1*
X921343Y1509061D1*
X909869D1*
X904165Y1506209D1*
X901313Y1503357D1*
X898395Y1497587D1*
Y1491883D1*
X901313Y1486113D1*
X907017Y1477558D1*
X935735Y1448840D1*
X895543D1*
X874097Y1494735D2*
Y1497587D1*
X871246Y1503357D1*
X868394Y1506209D1*
X862623Y1509061D1*
X851150D1*
X845446Y1506209D1*
X842594Y1503357D1*
X839676Y1497587D1*
Y1491883D1*
X842594Y1486113D1*
X848298Y1477558D1*
X877016Y1448840D1*
X836824D1*
X801052Y1509061D2*
X809675Y1506209D1*
X815445Y1497587D1*
X818297Y1483261D1*
Y1474639D1*
X815445Y1460313D1*
X809675Y1451691D1*
X801052Y1448840D1*
X795349D1*
X786727Y1451691D1*
X781023Y1460313D1*
X778105Y1474639D1*
Y1483261D1*
X781023Y1497587D1*
X786727Y1506209D1*
X795349Y1509061D1*
X801052D1*
X781023Y1497587D2*
X815445Y1460313D1*
X742333Y1509061D2*
X750955Y1506209D1*
X756726Y1497587D1*
X759577Y1483261D1*
Y1474639D1*
X756726Y1460313D1*
X750955Y1451691D1*
X742333Y1448840D1*
X736630D1*
X728007Y1451691D1*
X722304Y1460313D1*
X719385Y1474639D1*
Y1483261D1*
X722304Y1497587D1*
X728007Y1506209D1*
X736630Y1509061D1*
X742333D1*
X722304Y1497587D2*
X756726Y1460313D1*
X700858Y1489032D2*
Y1428744D1*
Y1480409D2*
X695088Y1486113D1*
X689384Y1489032D1*
X680762D1*
X674992Y1486113D1*
X669288Y1480409D1*
X666370Y1471787D1*
Y1466017D1*
X669288Y1457462D1*
X674992Y1451691D1*
X680762Y1448840D1*
X689384D1*
X695088Y1451691D1*
X700858Y1457462D1*
X624895Y1509128D2*
X630599D1*
X636369Y1506276D1*
X639221Y1497654D1*
Y1448840D1*
X647843Y1489032D2*
X627747D1*
X3802108Y2319588D2*
Y2322440D1*
X3799256Y2328210D1*
X3796404Y2331062D1*
X3790634Y2333914D1*
X3779160D1*
X3773456Y2331062D1*
X3770604Y2328210D1*
X3767686Y2322440D1*
Y2316736D1*
X3770604Y2310966D1*
X3776308Y2302410D1*
X3805026Y2273692D1*
X3764834D1*
X3743389Y2319588D2*
Y2322440D1*
X3740537Y2328210D1*
X3737685Y2331062D1*
X3731915Y2333914D1*
X3720441D1*
X3714737Y2331062D1*
X3711885Y2328210D1*
X3708967Y2322440D1*
Y2316736D1*
X3711885Y2310966D1*
X3717589Y2302410D1*
X3746307Y2273692D1*
X3706115D1*
X3670344Y2333914D2*
X3678966Y2331062D1*
X3684736Y2322440D1*
X3687588Y2308114D1*
Y2299492D1*
X3684736Y2285166D1*
X3678966Y2276544D1*
X3670344Y2273692D1*
X3664640D1*
X3656018Y2276544D1*
X3650314Y2285166D1*
X3647396Y2299492D1*
Y2308114D1*
X3650314Y2322440D1*
X3656018Y2331062D1*
X3664640Y2333914D1*
X3670344D1*
X3650314Y2322440D2*
X3684736Y2285166D1*
X3611625Y2333914D2*
X3620247Y2331062D1*
X3626017Y2322440D1*
X3628869Y2308114D1*
Y2299492D1*
X3626017Y2285166D1*
X3620247Y2276544D1*
X3611625Y2273692D1*
X3605921D1*
X3597299Y2276544D1*
X3591595Y2285166D1*
X3588677Y2299492D1*
Y2308114D1*
X3591595Y2322440D1*
X3597299Y2331062D1*
X3605921Y2333914D1*
X3611625D1*
X3591595Y2322440D2*
X3626017Y2285166D1*
X3570150Y2313884D2*
Y2253596D1*
Y2305262D2*
X3564380Y2310966D1*
X3558676Y2313884D1*
X3550054D1*
X3544284Y2310966D1*
X3538580Y2305262D1*
X3535662Y2296640D1*
Y2290870D1*
X3538580Y2282314D1*
X3544284Y2276544D1*
X3550054Y2273692D1*
X3558676D1*
X3564380Y2276544D1*
X3570150Y2282314D1*
X3494187Y2333980D2*
X3499890D1*
X3505660Y2331128D1*
X3508512Y2322506D1*
Y2273692D1*
X3517134Y2313884D2*
X3497038D1*
X3472974Y2335336D2*
Y2338188D1*
X3470122Y2343958D1*
X3467270Y2346810D1*
X3461500Y2349662D1*
X3450026D1*
X3444322Y2346810D1*
X3441470Y2343958D1*
X3438552Y2338188D1*
Y2332484D1*
X3441470Y2326714D1*
X3447174Y2318158D1*
X3475892Y2289440D1*
X3435700D1*
X3414255Y2335336D2*
Y2338188D1*
X3411403Y2343958D1*
X3408551Y2346810D1*
X3402781Y2349662D1*
X3391307D1*
X3385603Y2346810D1*
X3382751Y2343958D1*
X3379833Y2338188D1*
Y2332484D1*
X3382751Y2326714D1*
X3388455Y2318158D1*
X3417173Y2289440D1*
X3376981D1*
X3341210Y2349662D2*
X3349832Y2346810D1*
X3355602Y2338188D1*
X3358454Y2323862D1*
Y2315240D1*
X3355602Y2300914D1*
X3349832Y2292292D1*
X3341210Y2289440D1*
X3335506D1*
X3326884Y2292292D1*
X3321180Y2300914D1*
X3318262Y2315240D1*
Y2323862D1*
X3321180Y2338188D1*
X3326884Y2346810D1*
X3335506Y2349662D1*
X3341210D1*
X3321180Y2338188D2*
X3355602Y2300914D1*
X3282491Y2349662D2*
X3291113Y2346810D1*
X3296883Y2338188D1*
X3299735Y2323862D1*
Y2315240D1*
X3296883Y2300914D1*
X3291113Y2292292D1*
X3282491Y2289440D1*
X3276787D1*
X3268165Y2292292D1*
X3262461Y2300914D1*
X3259543Y2315240D1*
Y2323862D1*
X3262461Y2338188D1*
X3268165Y2346810D1*
X3276787Y2349662D1*
X3282491D1*
X3262461Y2338188D2*
X3296883Y2300914D1*
X3241016Y2329632D2*
Y2269344D1*
Y2321010D2*
X3235246Y2326714D1*
X3229542Y2329632D1*
X3220920D1*
X3215150Y2326714D1*
X3209446Y2321010D1*
X3206528Y2312388D1*
Y2306618D1*
X3209446Y2298062D1*
X3215150Y2292292D1*
X3220920Y2289440D1*
X3229542D1*
X3235246Y2292292D1*
X3241016Y2298062D1*
X3165053Y2349728D2*
X3170756D1*
X3176527Y2346876D1*
X3179379Y2338254D1*
Y2289440D1*
X3188001Y2329632D2*
X3167905D1*
X3482174Y2084201D2*
X3476404Y2087120D1*
X3467781Y2095675D1*
Y2035454D1*
X3432010Y2095675D2*
X3440632Y2092823D1*
X3446402Y2084201D1*
X3449254Y2069876D1*
Y2061254D1*
X3446402Y2046928D1*
X3440632Y2038306D1*
X3432010Y2035454D1*
X3426306D1*
X3417684Y2038306D1*
X3411981Y2046928D1*
X3409062Y2061254D1*
Y2069876D1*
X3411981Y2084201D1*
X3417684Y2092823D1*
X3426306Y2095675D1*
X3432010D1*
X3411981Y2084201D2*
X3446402Y2046928D1*
X3373291Y2095675D2*
X3381913Y2092823D1*
X3387683Y2084201D1*
X3390535Y2069876D1*
Y2061254D1*
X3387683Y2046928D1*
X3381913Y2038306D1*
X3373291Y2035454D1*
X3367587D1*
X3358965Y2038306D1*
X3353262Y2046928D1*
X3350343Y2061254D1*
Y2069876D1*
X3353262Y2084201D1*
X3358965Y2092823D1*
X3367587Y2095675D1*
X3373291D1*
X3353262Y2084201D2*
X3387683Y2046928D1*
X3331816Y2075646D2*
Y2035454D1*
Y2064172D2*
X3323194Y2072794D1*
X3317424Y2075646D1*
X3308868D1*
X3303098Y2072794D1*
X3300246Y2064172D1*
Y2035454D1*
X3258771Y2095742D2*
X3264475D1*
X3270245Y2092890D1*
X3273097Y2084268D1*
Y2035454D1*
X3281719Y2075646D2*
X3261623D1*
X1646202Y1634549D2*
Y1637401D1*
X1643350Y1643171D1*
X1640499Y1646023D1*
X1634728Y1648875D1*
X1623254D1*
X1617551Y1646023D1*
X1614699Y1643171D1*
X1611780Y1637401D1*
Y1631697D1*
X1614699Y1625927D1*
X1620403Y1617371D1*
X1649121Y1588653D1*
X1608929D1*
X1587483Y1634549D2*
Y1637401D1*
X1584631Y1643171D1*
X1581779Y1646023D1*
X1576009Y1648875D1*
X1564535D1*
X1558832Y1646023D1*
X1555980Y1643171D1*
X1553061Y1637401D1*
Y1631697D1*
X1555980Y1625927D1*
X1561683Y1617371D1*
X1590401Y1588653D1*
X1550209D1*
X1514438Y1648875D2*
X1523060Y1646023D1*
X1528830Y1637401D1*
X1531682Y1623075D1*
Y1614453D1*
X1528830Y1600127D1*
X1523060Y1591505D1*
X1514438Y1588653D1*
X1508734D1*
X1500112Y1591505D1*
X1494409Y1600127D1*
X1491490Y1614453D1*
Y1623075D1*
X1494409Y1637401D1*
X1500112Y1646023D1*
X1508734Y1648875D1*
X1514438D1*
X1494409Y1637401D2*
X1528830Y1600127D1*
X1455719Y1648875D2*
X1464341Y1646023D1*
X1470111Y1637401D1*
X1472963Y1623075D1*
Y1614453D1*
X1470111Y1600127D1*
X1464341Y1591505D1*
X1455719Y1588653D1*
X1450015D1*
X1441393Y1591505D1*
X1435690Y1600127D1*
X1432771Y1614453D1*
Y1623075D1*
X1435690Y1637401D1*
X1441393Y1646023D1*
X1450015Y1648875D1*
X1455719D1*
X1435690Y1637401D2*
X1470111Y1600127D1*
X1414244Y1628845D2*
Y1568557D1*
Y1620223D2*
X1408474Y1625927D1*
X1402770Y1628845D1*
X1394148D1*
X1388378Y1625927D1*
X1382674Y1620223D1*
X1379756Y1611601D1*
Y1605831D1*
X1382674Y1597275D1*
X1388378Y1591505D1*
X1394148Y1588653D1*
X1402770D1*
X1408474Y1591505D1*
X1414244Y1597275D1*
X1338281Y1648941D2*
X1343985D1*
X1349755Y1646089D1*
X1352607Y1637467D1*
Y1588653D1*
X1361229Y1628845D2*
X1341133D1*
X2777698Y1575494D2*
Y1578346D1*
X2774847Y1584116D1*
X2771995Y1586968D1*
X2766224Y1589819D1*
X2754751D1*
X2749047Y1586968D1*
X2746195Y1584116D1*
X2743277Y1578346D1*
Y1572642D1*
X2746195Y1566872D1*
X2751899Y1558316D1*
X2780617Y1529598D1*
X2740425D1*
X2718979Y1575494D2*
Y1578346D1*
X2716127Y1584116D1*
X2713276Y1586968D1*
X2707505Y1589819D1*
X2696031D1*
X2690328Y1586968D1*
X2687476Y1584116D1*
X2684557Y1578346D1*
Y1572642D1*
X2687476Y1566872D1*
X2693179Y1558316D1*
X2721898Y1529598D1*
X2681706D1*
X2645934Y1589819D2*
X2654556Y1586968D1*
X2660327Y1578346D1*
X2663178Y1564020D1*
Y1555398D1*
X2660327Y1541072D1*
X2654556Y1532450D1*
X2645934Y1529598D1*
X2640231D1*
X2631608Y1532450D1*
X2625905Y1541072D1*
X2622986Y1555398D1*
Y1564020D1*
X2625905Y1578346D1*
X2631608Y1586968D1*
X2640231Y1589819D1*
X2645934D1*
X2625905Y1578346D2*
X2660327Y1541072D1*
X2587215Y1589819D2*
X2595837Y1586968D1*
X2601607Y1578346D1*
X2604459Y1564020D1*
Y1555398D1*
X2601607Y1541072D1*
X2595837Y1532450D1*
X2587215Y1529598D1*
X2581511D1*
X2572889Y1532450D1*
X2567186Y1541072D1*
X2564267Y1555398D1*
Y1564020D1*
X2567186Y1578346D1*
X2572889Y1586968D1*
X2581511Y1589819D1*
X2587215D1*
X2567186Y1578346D2*
X2601607Y1541072D1*
X2545740Y1569790D2*
Y1509502D1*
Y1561168D2*
X2539970Y1566872D1*
X2534266Y1569790D1*
X2525644D1*
X2519874Y1566872D1*
X2514170Y1561168D1*
X2511252Y1552546D1*
Y1546776D1*
X2514170Y1538220D1*
X2519874Y1532450D1*
X2525644Y1529598D1*
X2534266D1*
X2539970Y1532450D1*
X2545740Y1538220D1*
X2469777Y1589886D2*
X2475481D1*
X2481251Y1587034D1*
X2484103Y1578412D1*
Y1529598D1*
X2492725Y1569790D2*
X2472629D1*
X3485323Y2249556D2*
X3479553Y2252474D1*
X3470931Y2261030D1*
Y2200808D1*
X3435160Y2261030D2*
X3443782Y2258178D1*
X3449552Y2249556D1*
X3452404Y2235230D1*
Y2226608D1*
X3449552Y2212282D1*
X3443782Y2203660D1*
X3435160Y2200808D1*
X3429456D1*
X3420834Y2203660D1*
X3415130Y2212282D1*
X3412212Y2226608D1*
Y2235230D1*
X3415130Y2249556D1*
X3420834Y2258178D1*
X3429456Y2261030D1*
X3435160D1*
X3415130Y2249556D2*
X3449552Y2212282D1*
X3376441Y2261030D2*
X3385063Y2258178D1*
X3390833Y2249556D1*
X3393685Y2235230D1*
Y2226608D1*
X3390833Y2212282D1*
X3385063Y2203660D1*
X3376441Y2200808D1*
X3370737D1*
X3362115Y2203660D1*
X3356411Y2212282D1*
X3353493Y2226608D1*
Y2235230D1*
X3356411Y2249556D1*
X3362115Y2258178D1*
X3370737Y2261030D1*
X3376441D1*
X3356411Y2249556D2*
X3390833Y2212282D1*
X3334966Y2241000D2*
Y2200808D1*
Y2229526D2*
X3326344Y2238148D1*
X3320574Y2241000D1*
X3312018D1*
X3306248Y2238148D1*
X3303396Y2229526D1*
Y2200808D1*
X3261921Y2261096D2*
X3267625D1*
X3273395Y2258244D1*
X3276247Y2249622D1*
Y2200808D1*
X3284869Y2241000D2*
X3264773D1*
X4391420Y1299903D2*
Y1302755D1*
X4388568Y1308525D1*
X4385716Y1311377D1*
X4379946Y1314229D1*
X4368472D1*
X4362769Y1311377D1*
X4359917Y1308525D1*
X4356998Y1302755D1*
Y1297051D1*
X4359917Y1291281D1*
X4365620Y1282725D1*
X4394338Y1254007D1*
X4354146D1*
X4332701Y1299903D2*
Y1302755D1*
X4329849Y1308525D1*
X4326997Y1311377D1*
X4321227Y1314229D1*
X4309753D1*
X4304049Y1311377D1*
X4301198Y1308525D1*
X4298279Y1302755D1*
Y1297051D1*
X4301198Y1291281D1*
X4306901Y1282725D1*
X4335619Y1254007D1*
X4295427D1*
X4276900Y1294199D2*
Y1233911D1*
Y1285577D2*
X4271130Y1291281D1*
X4265426Y1294199D1*
X4256804D1*
X4251034Y1291281D1*
X4245330Y1285577D1*
X4242412Y1276955D1*
Y1271185D1*
X4245330Y1262629D1*
X4251034Y1256859D1*
X4256804Y1254007D1*
X4265426D1*
X4271130Y1256859D1*
X4276900Y1262629D1*
X4200937Y1314295D2*
X4206641D1*
X4212411Y1311443D1*
X4215263Y1302821D1*
Y1254007D1*
X4223885Y1294199D2*
X4203789D1*
X4396145Y1628594D2*
Y1631446D1*
X4393293Y1637216D1*
X4390441Y1640068D1*
X4384671Y1642919D1*
X4373197D1*
X4367493Y1640068D1*
X4364641Y1637216D1*
X4361723Y1631446D1*
Y1625742D1*
X4364641Y1619972D1*
X4370345Y1611416D1*
X4399063Y1582698D1*
X4358871D1*
X4337426Y1628594D2*
Y1631446D1*
X4334574Y1637216D1*
X4331722Y1640068D1*
X4325952Y1642919D1*
X4314478D1*
X4308774Y1640068D1*
X4305922Y1637216D1*
X4303004Y1631446D1*
Y1625742D1*
X4305922Y1619972D1*
X4311626Y1611416D1*
X4340344Y1582698D1*
X4300152D1*
X4281625Y1622890D2*
Y1562602D1*
Y1614268D2*
X4275855Y1619972D1*
X4270151Y1622890D1*
X4261529D1*
X4255759Y1619972D1*
X4250055Y1614268D1*
X4247137Y1605646D1*
Y1599876D1*
X4250055Y1591320D1*
X4255759Y1585550D1*
X4261529Y1582698D1*
X4270151D1*
X4275855Y1585550D1*
X4281625Y1591320D1*
X4205662Y1642986D2*
X4211365D1*
X4217135Y1640134D1*
X4219987Y1631512D1*
Y1582698D1*
X4228609Y1622890D2*
X4208513D1*
X939218Y1994189D2*
X913418D1*
X904796Y1997107D1*
X901878Y1999959D1*
X899026Y2005663D1*
Y2011433D1*
X901878Y2017137D1*
X904796Y2020055D1*
X913418Y2022907D1*
X939218D1*
Y1962619D1*
X919122Y1994189D2*
X899026Y1962619D1*
X846077Y2022841D2*
X874729D1*
X877581Y1997041D1*
X874729Y1999893D1*
X866107Y2002811D1*
X857551D1*
X848929Y1999893D1*
X843159Y1994189D1*
X840307Y1985567D1*
Y1979863D1*
X843159Y1971241D1*
X848929Y1965471D1*
X857551Y1962619D1*
X866107D1*
X874729Y1965471D1*
X877581Y1968389D1*
X880499Y1974093D1*
X821780Y2011367D2*
X816010Y2014285D1*
X807388Y2022841D1*
Y1962619D1*
X823173Y1896924D2*
Y1925575D1*
X848973Y1928427D1*
X846121Y1925575D1*
X843202Y1916953D1*
Y1908397D1*
X846121Y1899775D1*
X851824Y1894005D1*
X860446Y1891153D1*
X866150D1*
X874772Y1894005D1*
X880542Y1899775D1*
X883394Y1908397D1*
Y1916953D1*
X880542Y1925575D1*
X877624Y1928427D1*
X871920Y1931345D1*
X823173Y1855382D2*
X826025Y1864004D1*
X834647Y1869774D1*
X848973Y1872626D1*
X857595D1*
X871920Y1869774D1*
X880542Y1864004D1*
X883394Y1855382D1*
Y1849678D1*
X880542Y1841056D1*
X871920Y1835353D1*
X857595Y1832434D1*
X848972D1*
X834647Y1835353D1*
X826025Y1841056D1*
X823173Y1849678D1*
Y1855382D1*
X834647Y1835353D2*
X871920Y1869774D1*
M02*
