G04 DipTrace 3.3.1.0*
G04 Bottom.gbr*
%MOIN*%
G04 #@! TF.FileFunction,Copper,L2,Bot*
G04 #@! TF.Part,Single*
%AMOUTLINE0*
4,1,20,
0.0,0.035433,
0.012166,0.033699,
0.023141,0.028666,
0.031851,0.020827,
0.037443,0.010949,
0.03937,0.0,
0.037443,-0.010949,
0.031851,-0.020827,
0.023141,-0.028666,
0.012166,-0.033699,
0.0,-0.035433,
-0.012166,-0.033699,
-0.023141,-0.028666,
-0.031851,-0.020827,
-0.037443,-0.010949,
-0.03937,0.0,
-0.037443,0.010949,
-0.031851,0.020827,
-0.023141,0.028666,
-0.012166,0.033699,
0.0,0.035433,
0*%
%AMOUTLINE3*
4,1,8,
0.019685,0.029528,
0.009843,0.03937,
-0.009843,0.03937,
-0.019685,0.029528,
-0.019685,-0.029528,
-0.009843,-0.03937,
0.009843,-0.03937,
0.019685,-0.029528,
0.019685,0.029528,
0*%
%AMOUTLINE6*
4,1,20,
0.0,0.03937,
0.009733,0.037443,
0.018513,0.031851,
0.025481,0.023141,
0.029955,0.012166,
0.031496,0.0,
0.029955,-0.012166,
0.025481,-0.023141,
0.018513,-0.031851,
0.009733,-0.037443,
0.0,-0.03937,
-0.009733,-0.037443,
-0.018513,-0.031851,
-0.025481,-0.023141,
-0.029955,-0.012166,
-0.031496,0.0,
-0.029955,0.012166,
-0.025481,0.023141,
-0.018513,0.031851,
-0.009733,0.037443,
0.0,0.03937,
0*%
G04 #@! TA.AperFunction,Conductor*
%ADD14C,0.03937*%
%ADD15C,0.019685*%
%ADD16C,0.031496*%
%ADD17C,0.11811*%
%ADD18C,0.07874*%
%ADD19C,0.19685*%
%ADD20C,0.15748*%
G04 #@! TA.AperFunction,CopperBalancing*
%ADD21C,0.025*%
G04 #@! TA.AperFunction,ComponentPad*
%ADD22R,0.062992X0.062992*%
%ADD23R,0.062992X0.070866*%
%ADD24R,0.070866X0.062992*%
G04 #@! TA.AperFunction,ComponentPad*
%ADD25O,0.11811X0.07874*%
%ADD26C,0.05*%
%ADD27R,0.05X0.05*%
%ADD28O,0.07874X0.11811*%
%ADD29R,0.07874X0.07874*%
%ADD30C,0.07874*%
%ADD31O,0.11811X0.098425*%
%ADD32O,0.03937X0.07874*%
%ADD34O,0.07874X0.098425*%
%ADD35O,0.098425X0.07874*%
%ADD36R,0.059055X0.059055*%
%ADD37C,0.059055*%
%ADD38O,0.137795X0.07874*%
%ADD39R,0.062992X0.106299*%
G04 #@! TA.AperFunction,ComponentPad*
%ADD40O,0.11811X0.19685*%
%ADD41R,0.200787X0.200787*%
%ADD42O,0.15748X0.19685*%
%ADD43O,0.070866X0.066929*%
%ADD44O,0.062992X0.07874*%
%ADD45R,0.11811X0.074803*%
%ADD46O,0.11811X0.074803*%
%ADD47R,0.074803X0.11811*%
%ADD48O,0.074803X0.11811*%
%ADD49O,0.098425X0.137795*%
%ADD50O,0.137795X0.098425*%
%ADD51O,0.07874X0.059055*%
%ADD122OUTLINE0*%
%ADD125OUTLINE3*%
%ADD128OUTLINE6*%
%FSLAX26Y26*%
G04*
G70*
G90*
G75*
G01*
G04 Bottom*
%LPD*%
X2401969Y2279528D2*
D14*
X2512992D1*
X2591732Y2200787D1*
X4919291Y598425D2*
X4978346D1*
X5195669Y815748D1*
X4267323Y551181D2*
Y496850D1*
X4315354Y448819D1*
X4868110D1*
X4919291Y500000D1*
Y598425D1*
X1820866Y1046457D2*
D15*
Y866142D1*
X1713780D1*
Y846457D1*
X4267323Y551181D2*
D16*
Y526378D1*
X4177953Y437008D1*
X3113780D1*
X3082283Y468504D1*
Y920472D1*
X3050000Y952756D1*
X2597244D1*
X2558661Y991339D1*
Y1070866D1*
X4467323Y551181D2*
D14*
Y685827D1*
X4486220Y704724D1*
X4719291Y598425D2*
X4514567D1*
X4467323Y551181D1*
X1809055Y1610236D2*
X1687795D1*
X1407087D1*
X1367717D1*
X1308661Y1551181D1*
X1446850Y1937008D2*
X1407087D1*
Y1610236D1*
X1687795Y1522835D2*
Y1610236D1*
X4199606Y980315D2*
Y1094094D1*
X3898425Y1395276D1*
X3853543D1*
X3553543Y1595276D2*
D15*
Y1495276D1*
X2885827Y543307D2*
X2785827D1*
X1182677Y870079D2*
Y826772D1*
X1304724Y704724D1*
X1966929D1*
X2092913Y578740D1*
X2190157D1*
X2258268Y510630D1*
Y503150D1*
X3662205Y2287402D2*
D14*
Y2223228D1*
X3631890Y2192913D1*
X3483858D1*
X3428740Y2137795D1*
D15*
Y1975591D1*
X3425591Y1972441D1*
X3662205Y2287402D2*
D14*
Y1543307D1*
X3614173Y1495276D1*
X3553543D1*
X718504Y1641732D2*
D16*
Y1392520D1*
X725197Y1385827D1*
X1687795Y1822835D2*
Y1720472D1*
X1809055D1*
X4587402Y1196850D2*
D14*
Y1171260D1*
X4396457Y980315D1*
X4587402Y1196850D2*
Y1188189D1*
X4771654Y1003937D1*
X4819291Y598425D2*
Y671654D1*
X4938976Y791339D1*
Y898031D1*
X4833071Y1003937D1*
X4771654D1*
X5195669Y915748D2*
X4904915D1*
X4833071Y1003937D1*
X4367323Y551181D2*
Y810927D1*
Y951181D1*
X4396457Y980315D1*
X1809055Y1720472D2*
D15*
X1493701D1*
Y1700787D1*
X2096064Y1657497D2*
Y1690157D1*
X2065748Y1720472D1*
X1809055D1*
X1242914Y570891D2*
D16*
Y531496D1*
X1164567D1*
X1152756Y519685D1*
X1007874D1*
X791339Y736220D1*
X652362D1*
X2593307Y712598D2*
D15*
X2292126D1*
X2258268Y746457D1*
Y803150D1*
Y947231D1*
X2271667Y960630D1*
X2398031D1*
X2006693Y1066929D2*
X2258268D1*
Y947231D1*
X2366929Y1393701D2*
X2283858D1*
X2258268Y1368110D1*
Y1248031D1*
Y1066929D1*
X1520866Y1346457D2*
Y1314567D1*
X1587402Y1248031D1*
X2096063D1*
X2258268D1*
X652362Y736220D2*
D14*
X627953D1*
X488976Y875197D1*
Y1301575D1*
X573228Y1385827D1*
X725197D1*
X4357480Y1519685D2*
D15*
Y1374803D1*
X4352756Y1370079D1*
D16*
Y1230709D1*
X4386614Y1196850D1*
X4587402D1*
X3853543Y1495276D2*
X3876772D1*
X4175197Y1196850D1*
X4386614D1*
X3290157Y531496D2*
D15*
X3431496D1*
X3462992Y562992D1*
X2096064Y1657497D2*
X2096063Y1248031D1*
X3553543Y1395276D2*
D14*
X3638976D1*
X3738976Y1495276D1*
X3853543D1*
X3375591Y2405512D2*
D15*
Y2330709D1*
X3572835D1*
X3608268Y2366142D1*
X3629921D1*
X3649606Y2385827D1*
X2566142Y1681102D2*
Y1676378D1*
X2511811Y1622047D1*
X2508268D1*
X2453150Y1566929D1*
Y1453937D1*
X2392913Y1393701D1*
X2366929D1*
X3318504Y2137795D2*
Y2143701D1*
X3375591Y2200787D1*
Y2405512D1*
X3649606Y2385827D2*
D14*
X4588583D1*
X4631102Y2343307D1*
Y2217323D1*
X2845276Y1948819D2*
D15*
X2863780D1*
Y1727953D1*
X2816929Y1681102D1*
X2566142D1*
X2858661Y1370866D2*
Y1639370D1*
X2816929Y1681102D1*
X4367323Y810927D2*
X4054627D1*
X3909055Y665354D1*
X3478346D1*
X3457874Y644882D1*
Y602362D1*
X3462992D1*
Y562992D1*
X3315354Y1972441D2*
Y2134646D1*
X3318504Y2137795D1*
X1379528Y870079D2*
X1400000D1*
X1451181Y921260D1*
Y1276772D1*
X1520866Y1346457D1*
X2403150Y1165354D2*
Y1069685D1*
X2400394Y1066929D1*
X3553543Y1095276D2*
X3466142Y1007874D1*
X2732677D1*
X2699606Y1040945D1*
Y1390551D1*
X2657087Y1433071D1*
X2522835D1*
X2445669Y1355906D1*
Y1165354D1*
X2403150D1*
X3414173Y1661417D2*
Y1757874D1*
X3451575Y1795276D1*
X3553543D1*
X3314173Y1561417D2*
Y1476772D1*
X3282283Y1444882D1*
X3152362D1*
X3137008Y1460236D1*
Y1838583D1*
X3193701Y1895276D1*
X3553543D1*
X4975591Y1783465D2*
D17*
Y2043701D1*
X4983071Y2051181D1*
X5183858D2*
D15*
X4983071D1*
X4227953Y1814961D2*
D16*
Y1875197D1*
X4193701Y1909449D1*
X3839370D1*
X3853543Y1895276D1*
X5175591Y1783465D2*
D14*
Y1731102D1*
X5129528Y1685039D1*
X4878740D1*
X4587402Y1393701D1*
X5195669Y1015748D2*
X4965354D1*
X4587402Y1393701D1*
X1367717Y3055118D2*
D16*
Y2854331D1*
D17*
X1383071Y2574803D1*
X1417717D1*
Y2285787D2*
D16*
Y2574803D1*
X5182677Y1307087D2*
D15*
X4981890D1*
X5182677D2*
D3*
X5175591Y1583465D2*
D17*
Y1500787D1*
X4981890Y1307087D1*
X1281102Y870079D2*
D16*
Y829921D1*
X1331496Y779528D1*
X1464961D1*
X1620866Y935433D1*
Y1046457D1*
X4217727Y2618110D2*
D18*
X4016940D1*
X3699213Y2744096D2*
X3788189D1*
Y2610236D1*
X4217727Y2618110D2*
X4682676D1*
X4785039Y2720474D1*
X3788189Y2610236D2*
X4009066D1*
X4016940Y2618110D1*
X2991339Y3057491D2*
D19*
Y2856703D1*
X3375984Y3057491D2*
Y2856703D1*
X2816535Y2641732D2*
D14*
Y2681900D1*
X2991339Y2856703D1*
X3699213Y3019685D2*
D20*
Y3057491D1*
X3375984D1*
X2991339D2*
D19*
X3375984D1*
X1113386Y625984D2*
D16*
Y649606D1*
X1290551D1*
X1305906Y634252D1*
Y570866D1*
X3210236Y2641732D2*
D15*
Y2536614D1*
X3211417Y2535433D1*
X3787795Y2503937D2*
X3757874D1*
X3651575Y2610236D1*
X3394488D1*
X3649606Y2496063D2*
D16*
X3518476D1*
X3394094D1*
Y2503937D1*
X3517323Y2409449D2*
X3518476Y2496063D1*
X2817717Y2535433D2*
X2965748D1*
X2997638Y2503543D1*
Y2425197D1*
X3265354Y2405512D2*
D15*
X3259449D1*
X3184646Y2330709D1*
X3050394D1*
X2981890Y2399213D1*
Y2425197D1*
X2997638D1*
X2858661Y1270866D2*
X2874409D1*
X2934646Y1331102D1*
Y1993307D1*
X2653150Y2274803D1*
Y2421654D1*
X2692126Y2460630D1*
X2838583D1*
X3011811Y2287402D1*
X3268504D1*
X3430709Y1196850D2*
X3424016D1*
X3345942Y1274924D1*
X2992520D1*
X2957601D1*
X2853543Y1170866D1*
X2858661D1*
X2997638Y2031496D2*
D16*
X2992520Y1274924D1*
X3037008Y1196850D2*
D15*
Y1096063D1*
X3035433Y1094488D1*
X2858661Y1070866D2*
X3011811D1*
X3035433Y1094488D1*
X1065354Y3055118D2*
D16*
Y2854331D1*
X738189Y3055118D2*
Y2854331D1*
X1132283Y2559055D2*
D14*
Y2787402D1*
X1065354Y2854331D1*
Y3055118D2*
D19*
X738189D1*
X1115748Y2055118D2*
D14*
Y2080315D1*
X1122047Y2086614D1*
Y2165354D1*
X1132283D1*
X1613386Y2059055D2*
D16*
X1541732D1*
X1537795Y2055118D1*
X1509449D1*
X1493701Y1811024D2*
D15*
X1483465D1*
X1527165Y1854724D1*
Y2072835D1*
X1509449Y2055118D1*
X2543701Y1913386D2*
Y1937008D1*
X2375591D1*
X2359843Y1952756D1*
X2566142Y1791339D2*
Y1890945D1*
X2543701Y1913386D1*
X1840551Y1937008D2*
D14*
Y2043701D1*
X1855906Y2059055D1*
X2007087D1*
X2985827Y543307D2*
D15*
Y711417D1*
X2987008Y712598D1*
X2009449Y1165354D2*
X1801575D1*
X1720866Y1084646D1*
Y1046457D1*
X2737402Y1952756D2*
D14*
X2699606D1*
X2660236Y1913386D1*
X4215354Y3059055D2*
D15*
X4014567D1*
X4215354D2*
D19*
X4722047D1*
D15*
X4785039Y2996063D1*
X3853543Y1995276D2*
D16*
X4274409D1*
X4334252Y1935433D1*
Y1814961D1*
X3853543Y2095276D2*
X4359843D1*
X4440551Y2014567D1*
Y1814961D1*
X1308661Y1944882D2*
X1301575D1*
Y1768898D1*
X1209843Y1677165D1*
X1101575Y1023622D2*
Y1039370D1*
X1371654D1*
X1375591Y1043307D1*
X1101575Y1417323D2*
D14*
X1117323D1*
Y1425197D1*
X999606D1*
X972835Y1451969D1*
Y2371260D1*
X883465Y2460630D1*
X898819D1*
X661024Y1881890D2*
Y2222835D1*
X898819Y2460630D1*
X661024Y1881890D2*
D16*
X646063D1*
Y1679528D1*
X608268Y1641732D1*
X835433Y1385827D2*
Y1224803D1*
X898819Y1161417D1*
X835433Y1385827D2*
Y1858268D1*
X811811Y1881890D1*
X771260D1*
X898819Y1161417D2*
D14*
Y1248031D1*
X1127953D1*
X1163386Y1283465D1*
X1209843D1*
X2132677Y3055118D2*
D16*
Y2854331D1*
X2483465Y3055118D2*
Y2854331D1*
X2132677Y3055118D2*
D19*
X2483465D1*
X1037008Y885827D2*
D16*
X1012205D1*
Y1079528D1*
X1086220Y1153543D1*
X1268898D1*
X1375591Y1260236D1*
Y1437008D1*
X1820866Y1346457D2*
D15*
Y1381890D1*
X1777559Y1425197D1*
X1375591D1*
Y1437008D1*
X2004331Y960630D2*
X2038976D1*
Y792520D1*
X2166142Y665354D1*
X2512205D1*
X2685827Y491732D1*
Y543307D1*
X2591732Y2635827D2*
D16*
X2462992D1*
X2401969Y2574803D1*
X2333465D1*
X2233071Y2474409D1*
Y1657495D1*
X2222047D1*
X1973228Y1393701D2*
D15*
Y1490551D1*
X1971654Y1492126D1*
X719685Y625984D2*
D16*
X742126D1*
Y536614D1*
X759055Y519685D1*
D15*
Y472047D1*
X782283Y448819D1*
X2103937D1*
X2158268Y503150D1*
X1787795Y1822835D2*
X2031102D1*
X4247244Y1519685D2*
X4235827D1*
X4211417Y1544094D1*
Y1548819D1*
X4156850Y1603386D1*
X4084252D1*
X4242520Y1370079D2*
X4127559D1*
X4084252Y1413386D1*
X1691732Y3057491D2*
D16*
Y2856703D1*
X1614567Y2574803D2*
D17*
X1648819D1*
Y2813790D1*
X1691732Y2856703D1*
X1614567Y2279528D2*
D16*
Y2574803D1*
Y2279528D2*
D14*
X1955906D1*
X2131890Y2103543D1*
Y2074803D1*
X643307Y885827D2*
D16*
Y870079D1*
X807874D1*
X941732Y736220D1*
X1046063D1*
X2845276Y2342520D2*
D15*
X2737402D1*
Y2346457D1*
X2845276Y2342520D2*
Y2358268D1*
X3072835Y2130709D1*
Y1369291D1*
X3111417Y1330709D1*
X3418110D1*
X3553543Y1195276D1*
X3168504Y921260D2*
Y750000D1*
X3194094Y724409D1*
X3782677D1*
X3853543Y795276D1*
X644939Y3131923D2*
D21*
X1154303D1*
X644939Y3107054D2*
X1154303D1*
X644939Y3082185D2*
X1154303D1*
X644939Y3057316D2*
X1154303D1*
X644939Y3032448D2*
X1154303D1*
X644939Y3007579D2*
X1154303D1*
X644939Y2982710D2*
X1154303D1*
X644939Y2957841D2*
X1154303D1*
X644939Y2932972D2*
X1154303D1*
X644939Y2908104D2*
X1154303D1*
X644939Y2883235D2*
X1154303D1*
X644939Y2858366D2*
X1154303D1*
X644939Y2833497D2*
X1154303D1*
X644939Y2808629D2*
X1154303D1*
X644939Y2783760D2*
X1154303D1*
X644939Y2758891D2*
X1154303D1*
X644939Y2734022D2*
X1154303D1*
X644939Y2709154D2*
X1154303D1*
X1156820Y3152945D2*
X642398Y3156700D1*
X642421Y2697522D1*
X1156809Y2697539D1*
X1156791Y3152933D1*
X1230372Y3124049D2*
X1464935D1*
X1230372Y3099180D2*
X1464935D1*
X1230372Y3074311D2*
X1464935D1*
X1230372Y3049442D2*
X1464935D1*
X1230372Y3024573D2*
X1464935D1*
X1230372Y2999705D2*
X1464935D1*
X1230372Y2974836D2*
X1464935D1*
X1230372Y2949967D2*
X1464935D1*
X1230372Y2925098D2*
X1464935D1*
X1230372Y2900230D2*
X1464935D1*
X1230372Y2875361D2*
X1464935D1*
X1230372Y2850492D2*
X1464935D1*
X1230372Y2825623D2*
X1464935D1*
X1230372Y2800755D2*
X1464935D1*
X1230372Y2775886D2*
X1464935D1*
X1230372Y2751017D2*
X1464935D1*
X1230372Y2726148D2*
X1464935D1*
X1230372Y2701280D2*
X1464935D1*
X1230372Y2676411D2*
X1464935D1*
X1230372Y2651542D2*
X1464935D1*
X1230372Y2626673D2*
X1464935D1*
X1230372Y2601804D2*
X1464935D1*
X1230372Y2576936D2*
X1464935D1*
X1230372Y2552067D2*
X1464935D1*
X1230372Y2527198D2*
X1464935D1*
X1230372Y2502329D2*
X1464935D1*
X1230372Y2477461D2*
X1464935D1*
X1230372Y2452592D2*
X1464935D1*
X1230372Y2427723D2*
X1464935D1*
X1230372Y2402854D2*
X1464935D1*
X1230372Y2377986D2*
X1464935D1*
X1230372Y2353117D2*
X1464935D1*
X1230372Y2328248D2*
X1464935D1*
X1230372Y2303379D2*
X1464935D1*
X1230372Y2278510D2*
X1464935D1*
X1230372Y2253642D2*
X1464935D1*
X1230372Y2228773D2*
X1464935D1*
X1230372Y2203904D2*
X1464935D1*
X1230372Y2179035D2*
X1464935D1*
X1467398Y3148917D2*
X1227835D1*
X1227854Y2173920D1*
X1467441Y2173917D1*
X1467421Y3148914D1*
X1569742Y3135860D2*
X1854687D1*
X1569742Y3110991D2*
X1854651D1*
X1569742Y3086122D2*
X1854651D1*
X1569742Y3061253D2*
X1854651D1*
X1569742Y3036385D2*
X1854615D1*
X1569742Y3011516D2*
X1854615D1*
X1569742Y2986647D2*
X1854615D1*
X1569742Y2961778D2*
X1854615D1*
X1569742Y2936909D2*
X1854579D1*
X1569742Y2912041D2*
X1854579D1*
X1569742Y2887172D2*
X1854579D1*
X1569742Y2862303D2*
X1854579D1*
X1569742Y2837434D2*
X1854543D1*
X1569742Y2812566D2*
X1854543D1*
X1569742Y2787697D2*
X1854543D1*
X1569742Y2762828D2*
X1854507D1*
X1569742Y2737959D2*
X1854507D1*
X1569742Y2713091D2*
X1854507D1*
X1569742Y2688222D2*
X1854507D1*
X1569742Y2663353D2*
X1854471D1*
X1569742Y2638484D2*
X1854471D1*
X1569742Y2613615D2*
X1854471D1*
X1569742Y2588747D2*
X1854471D1*
X1569742Y2563878D2*
X1854435D1*
X1569742Y2539009D2*
X1854435D1*
X1569742Y2514140D2*
X1854435D1*
X1569742Y2489272D2*
X1854400D1*
X1569742Y2464403D2*
X1854400D1*
X1569742Y2439534D2*
X1854400D1*
X1569742Y2414665D2*
X1854400D1*
X1569742Y2389797D2*
X1854364D1*
X1569742Y2364928D2*
X1854364D1*
X1569742Y2340059D2*
X1854364D1*
X1569742Y2315190D2*
X1854364D1*
X1569742Y2290322D2*
X1854328D1*
X1569742Y2265453D2*
X1854328D1*
X1569742Y2240584D2*
X1854328D1*
X1569742Y2215715D2*
X1854292D1*
X1569742Y2190846D2*
X1854292D1*
X1567224Y3160705D2*
Y2189679D1*
X1856762Y2189665D1*
X1857180Y3160720D1*
X1567217Y3160728D1*
X2030766Y3151608D2*
X2583442D1*
X2030766Y3126739D2*
X2583442D1*
X2030766Y3101870D2*
X2583442D1*
X2030766Y3077001D2*
X2583442D1*
X2030766Y3052133D2*
X2583442D1*
X2030766Y3027264D2*
X2583442D1*
X2030766Y3002395D2*
X2583442D1*
X2030766Y2977526D2*
X2583442D1*
X2030766Y2952657D2*
X2583442D1*
X2030766Y2927789D2*
X2583442D1*
X2030766Y2902920D2*
X2583442D1*
X2030766Y2878051D2*
X2583442D1*
X2030766Y2853182D2*
X2583442D1*
X2030766Y2828314D2*
X2583442D1*
X2030766Y2803445D2*
X2583442D1*
X2030766Y2778576D2*
X2583442D1*
X2030766Y2753707D2*
X2583442D1*
X2585902Y3176476D2*
X2028261D1*
X2028248Y2748713D1*
X2585912Y2748720D1*
X2585925Y3176484D1*
X2775648Y3143734D2*
X3802713D1*
X2775684Y3118865D2*
X3802713D1*
X2775684Y3093996D2*
X3802713D1*
X2775720Y3069127D2*
X3802713D1*
X2775720Y3044259D2*
X3802713D1*
X2775756Y3019390D2*
X3802713D1*
X2775756Y2994521D2*
X3802713D1*
X2775756Y2969652D2*
X3802713D1*
X2775791Y2944783D2*
X3508570D1*
X2775791Y2919915D2*
X3505843D1*
X2775827Y2895046D2*
X3505771D1*
X2775827Y2870177D2*
X3505735D1*
X2775863Y2845308D2*
X3505664D1*
X2775863Y2820440D2*
X3505628D1*
X2775899Y2795571D2*
X3505556D1*
X2775899Y2770702D2*
X3505520D1*
X2775935Y2745833D2*
X3075161D1*
X2775935Y2720965D2*
X3075018D1*
X2775971Y2696096D2*
X3074874D1*
X2775971Y2671227D2*
X3074766D1*
X2776007Y2646358D2*
X3074623D1*
X2776007Y2621490D2*
X3074515D1*
X2795978Y2606986D2*
X2802181Y2607765D1*
X2826247Y2607988D1*
X2833252Y2607765D1*
X2839455Y2606986D1*
X3076912Y2606988D1*
X3077811Y2749987D1*
X3078609Y2752815D1*
X3080045Y2755379D1*
X3082039Y2757537D1*
X3084483Y2759169D1*
X3087239Y2760186D1*
X3090157Y2760532D1*
X3508029D1*
X3508405Y2937989D1*
X3508978Y2940871D1*
X3510208Y2943539D1*
X3512027Y2945847D1*
X3514335Y2947666D1*
X3517003Y2948896D1*
X3519885Y2949469D1*
X3805248Y2949508D1*
X3805216Y3168569D1*
X2773164Y3168602D1*
X2773515Y2607000D1*
X2795867Y2606988D1*
X3624682Y2769718D2*
X4980554D1*
X3624574Y2744849D2*
X4980482D1*
X3630424Y2719980D2*
X4980375D1*
X3656152Y2695112D2*
X4980303D1*
X3681881Y2670243D2*
X4980231D1*
X3707610Y2645374D2*
X4980159D1*
X3733303Y2620505D2*
X4980052D1*
X3759032Y2595636D2*
X4979980D1*
X3894926Y2570768D2*
X4979908D1*
X3895141Y2545899D2*
X4979800D1*
X3895392Y2521030D2*
X4979729D1*
X3895608Y2496161D2*
X4979657D1*
X3895859Y2471293D2*
X4979585D1*
X4983146Y2794587D2*
X3622274D1*
X3621973Y2725753D1*
X3769231Y2583364D1*
X3881877Y2583212D1*
X3884705Y2582415D1*
X3887269Y2580979D1*
X3889426Y2578984D1*
X3891059Y2576541D1*
X3892076Y2573784D1*
X3892383Y2571843D1*
X3893486Y2457415D1*
X4981993Y2457382D1*
X4983128Y2794612D1*
X3918491Y3147671D2*
X4941429D1*
X3918706Y3122802D2*
X4941537D1*
X3918921Y3097933D2*
X4941608D1*
X3919136Y3073064D2*
X4941716D1*
X3919352Y3048196D2*
X4941824D1*
X3919567Y3023327D2*
X4941895D1*
X3919782Y2998458D2*
X4942003D1*
X3919998Y2973589D2*
X4942075D1*
X3920213Y2948720D2*
X4942182D1*
X3920428Y2923852D2*
X4942290D1*
X3920644Y2898983D2*
X4942362D1*
X4943847Y3172539D2*
X3915765D1*
X3918297Y2882549D1*
X4944932Y2882579D1*
X4943846Y3172569D1*
X1572679Y1931135D2*
X1755891D1*
X2047749D2*
X2181621D1*
X2811508D2*
X2889114D1*
X3717584D2*
X3788587D1*
X4492001D2*
X4537705D1*
X4724530D2*
X4846991D1*
X5319921D2*
X5359022D1*
X1572679Y1906266D2*
X1762494D1*
X2034185D2*
X2181621D1*
X2802537D2*
X2889114D1*
X3717584D2*
X3779365D1*
X4492001D2*
X4537203D1*
X4724997D2*
X4880866D1*
X5070346D2*
X5359022D1*
X1630488Y1881398D2*
X1745126D1*
X2086289D2*
X2181621D1*
X2284513D2*
X2334380D1*
X2778387D2*
X2889114D1*
X3717584D2*
X3779903D1*
X4492001D2*
X4545887D1*
X4716313D2*
X4880866D1*
X5070346D2*
X5359022D1*
X1649614Y1856529D2*
X1726000D1*
X2107712D2*
X2181621D1*
X2284513D2*
X2348196D1*
X2717994D2*
X2889114D1*
X3717584D2*
X3790489D1*
X3916598D2*
X4054704D1*
X4508292D2*
X4547860D1*
X4714339D2*
X4880866D1*
X5070346D2*
X5359022D1*
X1654961Y1831660D2*
X1720617D1*
X2115463D2*
X2181621D1*
X2284513D2*
X2340445D1*
X2672601D2*
X2889114D1*
X3717584D2*
X3788946D1*
X3918141D2*
X4047707D1*
X4515290D2*
X4537777D1*
X4724423D2*
X4880866D1*
X5070346D2*
X5099185D1*
X5252028D2*
X5359022D1*
X1654459Y1806791D2*
X1721119D1*
X2114207D2*
X2181621D1*
X2284513D2*
X2341701D1*
X2637255D2*
X2889114D1*
X3717584D2*
X3779472D1*
X3927614D2*
X4047384D1*
X4515613D2*
X4537131D1*
X4725069D2*
X4880866D1*
X5070346D2*
X5084688D1*
X5266489D2*
X5359022D1*
X697499Y1781923D2*
X784004D1*
X1645918D2*
X1729696D1*
X2103370D2*
X2181621D1*
X2284513D2*
X2352538D1*
X2637255D2*
X2889114D1*
X3717584D2*
X3779795D1*
X3927291D2*
X4051187D1*
X4511809D2*
X4545600D1*
X4716636D2*
X4880866D1*
X5270329D2*
X5359022D1*
X697499Y1757054D2*
X784004D1*
X1619113D2*
X1756465D1*
X1819095D2*
X1988134D1*
X2074053D2*
X2181621D1*
X2284513D2*
X2381855D1*
X2467774D2*
X2495034D1*
X2637255D2*
X2889114D1*
X3717584D2*
X3790130D1*
X3916957D2*
X4065577D1*
X4497419D2*
X4568530D1*
X4693670D2*
X4884705D1*
X5066471D2*
X5085836D1*
X5265341D2*
X5359022D1*
X697499Y1732185D2*
X784004D1*
X1462442D2*
X2181621D1*
X2284513D2*
X2495034D1*
X2637255D2*
X2889114D1*
X3717584D2*
X3789269D1*
X3917818D2*
X4852302D1*
X5249121D2*
X5359022D1*
X697499Y1707316D2*
X784004D1*
X1462442D2*
X2113118D1*
X2284513D2*
X2889114D1*
X3717584D2*
X3779544D1*
X3927543D2*
X4823738D1*
X5225294D2*
X5359022D1*
X428404Y1682448D2*
X470448D1*
X527193D2*
X541104D1*
X697499D2*
X784004D1*
X1462442D2*
X2103932D1*
X2284513D2*
X2889114D1*
X3717584D2*
X3779688D1*
X3927399D2*
X4798870D1*
X5204194D2*
X5359022D1*
X428404Y1657579D2*
X541104D1*
X692296D2*
X784004D1*
X1880170D2*
X2103681D1*
X2284513D2*
X2889114D1*
X3717584D2*
X3789771D1*
X3917316D2*
X4013832D1*
X4154689D2*
X4774003D1*
X5233009D2*
X5359022D1*
X428404Y1632710D2*
X541104D1*
X675466D2*
X784004D1*
X1880170D2*
X2103932D1*
X2277767D2*
X2889114D1*
X3717584D2*
X3789592D1*
X3917495D2*
X3995710D1*
X4190861D2*
X4749135D1*
X5256083D2*
X5359022D1*
X428404Y1607841D2*
X541104D1*
X675466D2*
X784004D1*
X1880170D2*
X2113011D1*
X2268114D2*
X2889114D1*
X3717584D2*
X3779652D1*
X3927435D2*
X3989646D1*
X4215728D2*
X4724267D1*
X4878796D2*
X5084114D1*
X5267063D2*
X5359022D1*
X428404Y1582972D2*
X541104D1*
X675466D2*
X784004D1*
X1880170D2*
X2492127D1*
X2595270D2*
X2608679D1*
X2711822D2*
X2889114D1*
X3182551D2*
X3242394D1*
X3717584D2*
X3779616D1*
X3927471D2*
X3992445D1*
X4314410D2*
X4699399D1*
X4853929D2*
X5080848D1*
X5270329D2*
X5359022D1*
X428404Y1558104D2*
X784004D1*
X1880170D2*
X1929140D1*
X2014198D2*
X2322826D1*
X2407883D2*
X2474508D1*
X2729441D2*
X2889114D1*
X3182551D2*
X3239200D1*
X3717584D2*
X3789412D1*
X3917674D2*
X4005363D1*
X4314410D2*
X4674532D1*
X4829061D2*
X5080848D1*
X5270329D2*
X5359022D1*
X428404Y1533235D2*
X784004D1*
X1854944D2*
X1899536D1*
X2043766D2*
X2293221D1*
X2437488D2*
X2468731D1*
X2735183D2*
X2889114D1*
X3182551D2*
X3244798D1*
X3716615D2*
X3817797D1*
X3889290D2*
X4043544D1*
X4124977D2*
X4163648D1*
X4314410D2*
X4649664D1*
X4804193D2*
X5075107D1*
X5270329D2*
X5359022D1*
X428404Y1508366D2*
X784004D1*
X1854657D2*
X1888591D1*
X2054711D2*
X2282312D1*
X2448396D2*
X2468659D1*
X2735290D2*
X2889114D1*
X3182551D2*
X3262166D1*
X3466180D2*
X3479732D1*
X3704379D2*
X4180047D1*
X4314410D2*
X4624796D1*
X4779325D2*
X5050239D1*
X5270329D2*
X5359022D1*
X428404Y1483497D2*
X784004D1*
X1846798D2*
X1887263D1*
X2056039D2*
X2280985D1*
X2449724D2*
X2473611D1*
X2730338D2*
X2889114D1*
X3359711D2*
X3479516D1*
X3679655D2*
X4043400D1*
X4125121D2*
X4180047D1*
X4314410D2*
X4599928D1*
X4754458D2*
X5025335D1*
X5268678D2*
X5359022D1*
X428404Y1458629D2*
X784004D1*
X1822074D2*
X1894942D1*
X2048359D2*
X2288664D1*
X2442045D2*
X2485058D1*
X2714119D2*
X2889114D1*
X3355692D2*
X3489097D1*
X3654787D2*
X3820739D1*
X3886348D2*
X4005363D1*
X4163158D2*
X4180047D1*
X4314410D2*
X4514488D1*
X4729590D2*
X5000468D1*
X5260138D2*
X5359022D1*
X428404Y1433760D2*
X768251D1*
X1832337D2*
X1900397D1*
X2046063D2*
X2309907D1*
X2420801D2*
X2460190D1*
X2719753D2*
X2889114D1*
X3334520D2*
X3516692D1*
X3590375D2*
X3790309D1*
X3937160D2*
X3992445D1*
X4309709D2*
X4493209D1*
X4704722D2*
X4845807D1*
X5318772D2*
X5359022D1*
X428404Y1408891D2*
X768251D1*
X1856881D2*
X1889955D1*
X2056505D2*
X2435322D1*
X2741032D2*
X2889114D1*
X3308361D2*
X3779867D1*
X3962063D2*
X3989646D1*
X4309709D2*
X4484238D1*
X4690584D2*
X4845807D1*
X5318772D2*
X5359022D1*
X428404Y1384022D2*
X768251D1*
X2057474D2*
X2410598D1*
X2745123D2*
X2889114D1*
X3121440D2*
X3779401D1*
X4309709D2*
X4483376D1*
X4691409D2*
X4845807D1*
X5318772D2*
X5359022D1*
X428404Y1359154D2*
X768251D1*
X1427025D2*
X1550957D1*
X2049364D2*
X2400264D1*
X2745123D2*
X2889114D1*
X3453010D2*
X3522039D1*
X3585028D2*
X3788766D1*
X4309709D2*
X4490410D1*
X4699232D2*
X4845807D1*
X5318772D2*
X5359022D1*
X428404Y1334285D2*
X768251D1*
X1427025D2*
X1550885D1*
X1890864D2*
X1919236D1*
X2027224D2*
X2400156D1*
X2745123D2*
X2874473D1*
X3477878D2*
X3490640D1*
X3616427D2*
X3790668D1*
X4036702D2*
X4101174D1*
X4309709D2*
X4508137D1*
X4724100D2*
X4845807D1*
X5318772D2*
X5359022D1*
X428404Y1309416D2*
X784004D1*
X1427025D2*
X1561004D1*
X1880744D2*
X2400156D1*
X2745123D2*
X2796856D1*
X3627120D2*
X3779975D1*
X4061570D2*
X4175347D1*
X4309709D2*
X4594402D1*
X4748967D2*
X4845807D1*
X5318772D2*
X5359022D1*
X428404Y1284547D2*
X784004D1*
X1427025D2*
X1591721D1*
X1650009D2*
X1691694D1*
X1750018D2*
X1791704D1*
X1850028D2*
X2400156D1*
X2745123D2*
X2785121D1*
X3627766D2*
X3779329D1*
X4086438D2*
X4619270D1*
X4773835D2*
X4845807D1*
X5318772D2*
X5359022D1*
X428404Y1259678D2*
X784004D1*
X1427025D2*
X2400156D1*
X2745123D2*
X2784619D1*
X3618651D2*
X3788443D1*
X3918643D2*
X3956740D1*
X4111305D2*
X4644138D1*
X4798703D2*
X4845807D1*
X5318772D2*
X5359022D1*
X428404Y1234810D2*
X784004D1*
X1419884D2*
X1976113D1*
X2042762D2*
X2369834D1*
X2745123D2*
X2795026D1*
X3616068D2*
X3791027D1*
X3916060D2*
X3981608D1*
X4136173D2*
X4669005D1*
X4823571D2*
X4845807D1*
X5318772D2*
X5359022D1*
X428404Y1209941D2*
X786301D1*
X1396990D2*
X1939869D1*
X2079040D2*
X2333555D1*
X2745123D2*
X2797250D1*
X3627012D2*
X3780082D1*
X3927004D2*
X4006476D1*
X4161041D2*
X4693909D1*
X5318772D2*
X5359022D1*
X428404Y1185072D2*
X784470D1*
X1372122D2*
X1757937D1*
X2091600D2*
X2320995D1*
X2745123D2*
X2785229D1*
X3627838D2*
X3779257D1*
X3927830D2*
X4031343D1*
X4185909D2*
X4718777D1*
X5318772D2*
X5359022D1*
X428404Y1160203D2*
X784399D1*
X1347254D2*
X1733069D1*
X2094148D2*
X2318448D1*
X2745123D2*
X2784511D1*
X3618974D2*
X3788120D1*
X3918966D2*
X4056211D1*
X4210776D2*
X4743645D1*
X4898174D2*
X5359022D1*
X428404Y1135335D2*
X784578D1*
X1322387D2*
X1708201D1*
X2087832D2*
X2324763D1*
X2481553D2*
X2494639D1*
X2745123D2*
X2794631D1*
X3615709D2*
X3791386D1*
X3915701D2*
X4081079D1*
X4235644D2*
X4768512D1*
X4923042D2*
X5359022D1*
X428404Y1110466D2*
X788848D1*
X1294612D2*
X1328618D1*
X1422575D2*
X1497812D1*
X1543900D2*
X1597821D1*
X1643909D2*
X1683943D1*
X1843891D2*
X1949666D1*
X2069244D2*
X2330002D1*
X2470788D2*
X2497689D1*
X2745123D2*
X2797681D1*
X3626905D2*
X3780190D1*
X3926897D2*
X4105983D1*
X4252366D2*
X4793380D1*
X4947909D2*
X5359022D1*
X428404Y1085597D2*
X799506D1*
X1442993D2*
X1462466D1*
X1879273D2*
X2317945D1*
X2745123D2*
X2785373D1*
X3627910D2*
X3779185D1*
X3927901D2*
X4130850D1*
X4254986D2*
X4818248D1*
X4972777D2*
X5100943D1*
X5290424D2*
X5359022D1*
X428404Y1060728D2*
X819099D1*
X1890433D2*
X2315756D1*
X2745123D2*
X2784440D1*
X3619262D2*
X3787833D1*
X3919253D2*
X4141400D1*
X4257785D2*
X4843115D1*
X5290424D2*
X5359022D1*
X428404Y1035860D2*
X860007D1*
X937636D2*
X960769D1*
X1891151D2*
X2322503D1*
X2478288D2*
X2494280D1*
X3615314D2*
X3791781D1*
X3915306D2*
X4122920D1*
X4276301D2*
X4867983D1*
X5290424D2*
X5359022D1*
X428404Y1010991D2*
X960769D1*
X1447084D2*
X1459954D1*
X1881749D2*
X1939762D1*
X2068921D2*
X2341844D1*
X2458946D2*
X2507234D1*
X3626761D2*
X3780298D1*
X3926789D2*
X4115456D1*
X4283765D2*
X4892851D1*
X5290424D2*
X5359022D1*
X428404Y986122D2*
X960769D1*
X1171135D2*
X1318104D1*
X1433089D2*
X1488088D1*
X1553660D2*
X1569437D1*
X1866391D2*
X1924045D1*
X2084603D2*
X2507521D1*
X3627981D2*
X3779113D1*
X3927973D2*
X4114702D1*
X4284518D2*
X4917719D1*
X5290424D2*
X5359022D1*
X428404Y961253D2*
X960769D1*
X1154126D2*
X1366045D1*
X1385148D2*
X1569437D1*
X1866391D2*
X1919451D1*
X2089232D2*
X2517569D1*
X3619584D2*
X3787510D1*
X3919576D2*
X4114702D1*
X4284518D2*
X5100943D1*
X5290424D2*
X5359022D1*
X428404Y936385D2*
X578926D1*
X707690D2*
X960769D1*
X1101376D2*
X1550131D1*
X1866391D2*
X1923614D1*
X2085069D2*
X2536157D1*
X3614920D2*
X3792175D1*
X3914911D2*
X4118363D1*
X4280858D2*
X5359022D1*
X428404Y911516D2*
X563101D1*
X836407D2*
X956822D1*
X1330676D2*
X1525264D1*
X1866391D2*
X1938578D1*
X2084495D2*
X2506050D1*
X3626654D2*
X3780441D1*
X3926645D2*
X4130958D1*
X4268263D2*
X5359022D1*
X428404Y886647D2*
X558400D1*
X862997D2*
X952121D1*
X1344096D2*
X1500396D1*
X1866391D2*
X1993445D1*
X2084495D2*
X2494962D1*
X2660938D2*
X2888683D1*
X3628053D2*
X3779042D1*
X3928045D2*
X4160814D1*
X4238371D2*
X4728035D1*
X4815281D2*
X5359022D1*
X428404Y861778D2*
X562527D1*
X887865D2*
X956212D1*
X1345747D2*
X1475492D1*
X1866175D2*
X1993445D1*
X2084495D2*
X2115666D1*
X2200867D2*
X2315685D1*
X2400850D2*
X2493527D1*
X2662374D2*
X2887248D1*
X3619872D2*
X3787223D1*
X3919863D2*
X4687845D1*
X4855472D2*
X5117988D1*
X5273343D2*
X5359022D1*
X428404Y836909D2*
X577383D1*
X912733D2*
X971068D1*
X1102919D2*
X1117476D1*
X1345819D2*
X1450624D1*
X1594030D2*
X1619603D1*
X1854944D2*
X1993445D1*
X2220029D2*
X2296487D1*
X2420048D2*
X2501098D1*
X2654838D2*
X2894784D1*
X3614525D2*
X3786362D1*
X3920725D2*
X4672666D1*
X4870651D2*
X5104173D1*
X5287158D2*
X5359022D1*
X428404Y812041D2*
X794195D1*
X937600D2*
X1117476D1*
X1569162D2*
X1626565D1*
X1800974D2*
X1993445D1*
X2225448D2*
X2291104D1*
X2425431D2*
X2522055D1*
X2633846D2*
X2915776D1*
X3626510D2*
X3786362D1*
X3920725D2*
X4667211D1*
X4876069D2*
X5101015D1*
X5290316D2*
X5359022D1*
X428404Y787172D2*
X819063D1*
X962468D2*
X982049D1*
X1110060D2*
X1158922D1*
X1544294D2*
X1644220D1*
X1783355D2*
X1993768D1*
X2224946D2*
X2291606D1*
X2424928D2*
X3030856D1*
X3628125D2*
X3782092D1*
X3920725D2*
X4669508D1*
X4873809D2*
X5089819D1*
X5284360D2*
X5359022D1*
X428404Y762303D2*
X843931D1*
X1126100D2*
X1183790D1*
X1519427D2*
X2005861D1*
X2216405D2*
X2300111D1*
X2416424D2*
X2921804D1*
X3920725D2*
X4036044D1*
X4149020D2*
X4429730D1*
X4542705D2*
X4680309D1*
X4863007D2*
X5064952D1*
X5265915D2*
X5359022D1*
X428404Y737434D2*
X868834D1*
X1130944D2*
X1208657D1*
X1997368D2*
X2030728D1*
X2189707D2*
X2326809D1*
X2389726D2*
X2906482D1*
X3920725D2*
X4015411D1*
X4169617D2*
X4409132D1*
X4563339D2*
X4705464D1*
X4837853D2*
X5040084D1*
X5194613D2*
X5359022D1*
X428404Y712566D2*
X893702D1*
X1126997D2*
X1233525D1*
X2022451D2*
X2055596D1*
X2182279D2*
X2902104D1*
X3834172D2*
X4008055D1*
X4177009D2*
X4401740D1*
X4570695D2*
X5015216D1*
X5169745D2*
X5359022D1*
X428404Y687697D2*
X669175D1*
X770165D2*
X932923D1*
X2047319D2*
X2080464D1*
X2553214D2*
X2906518D1*
X3133713D2*
X3169154D1*
X3807618D2*
X4009633D1*
X4175395D2*
X4403355D1*
X4569080D2*
X4696529D1*
X4742042D2*
X4846202D1*
X5144878D2*
X5359022D1*
X428404Y662828D2*
X644845D1*
X794530D2*
X1038530D1*
X2072187D2*
X2105331D1*
X2578082D2*
X2921876D1*
X3133713D2*
X3913715D1*
X4164091D2*
X4411967D1*
X4557812D2*
X4660608D1*
X4777962D2*
X4846202D1*
X5120010D2*
X5359022D1*
X428404Y637959D2*
X445042D1*
X578579D2*
X635766D1*
X803573D2*
X1029488D1*
X1394837D2*
X1970335D1*
X2097054D2*
X2130199D1*
X2602950D2*
X2940285D1*
X3133713D2*
X3513499D1*
X3812498D2*
X3913715D1*
X4035087D2*
X4051762D1*
X4133267D2*
X4237211D1*
X4297437D2*
X4411967D1*
X4790091D2*
X4846202D1*
X5095142D2*
X5130081D1*
X5263618D2*
X5359022D1*
X602801Y613091D2*
X635946D1*
X803429D2*
X1029631D1*
X1419238D2*
X1664638D1*
X1762937D2*
X1995203D1*
X2218558D2*
X2501134D1*
X3133713D2*
X3494624D1*
X3831373D2*
X3913715D1*
X4035087D2*
X4205812D1*
X4328835D2*
X4405831D1*
X4792387D2*
X4846202D1*
X5070274D2*
X5105859D1*
X5287840D2*
X5359022D1*
X615755Y588222D2*
X645383D1*
X795212D2*
X1039105D1*
X1187677D2*
X1250534D1*
X1424262D2*
X1635069D1*
X1792469D2*
X2020071D1*
X2244036D2*
X2526002D1*
X3222777D2*
X3488164D1*
X3837832D2*
X3913715D1*
X4035087D2*
X4194365D1*
X4340282D2*
X4394384D1*
X4792387D2*
X4846202D1*
X5045407D2*
X5092905D1*
X5300794D2*
X5359022D1*
X621604Y563353D2*
X670718D1*
X829338D2*
X1064403D1*
X1162343D2*
X1250534D1*
X1424262D2*
X1622617D1*
X1804957D2*
X2044938D1*
X2298795D2*
X2317766D1*
X2398769D2*
X2550870D1*
X3238746D2*
X3487949D1*
X3838047D2*
X3913715D1*
X4035087D2*
X4192284D1*
X4342364D2*
X4392267D1*
X4791095D2*
X4846202D1*
X5020539D2*
X5087056D1*
X5306644D2*
X5359022D1*
X621532Y538484D2*
X676638D1*
X841467D2*
X1252077D1*
X1422719D2*
X1619029D1*
X1808510D2*
X2075225D1*
X2419330D2*
X2575737D1*
X3243554D2*
X3488093D1*
X3837904D2*
X3920210D1*
X4028628D2*
X4192284D1*
X4342364D2*
X4392267D1*
X4542382D2*
X4657487D1*
X4781084D2*
X4846202D1*
X4992370D2*
X5087128D1*
X5306572D2*
X5359022D1*
X615540Y513615D2*
X674414D1*
X843691D2*
X1266216D1*
X1408580D2*
X1623156D1*
X1804383D2*
X2091121D1*
X2425395D2*
X2600605D1*
X3243446D2*
X3494301D1*
X3831696D2*
X3913751D1*
X4035052D2*
X4182846D1*
X4340139D2*
X4394491D1*
X4540157D2*
X4685261D1*
X4753309D2*
X4846202D1*
X4992370D2*
X5093121D1*
X5300579D2*
X5359022D1*
X602406Y488747D2*
X681088D1*
X2425108D2*
X2619695D1*
X3237526D2*
X3512673D1*
X3813323D2*
X3918488D1*
X4030315D2*
X4157979D1*
X4973459D2*
X5106254D1*
X5287446D2*
X5359022D1*
X428404Y463878D2*
X445760D1*
X577861D2*
X700358D1*
X2417321D2*
X2642159D1*
X2729513D2*
X2742168D1*
X2829486D2*
X2842141D1*
X2929496D2*
X2942151D1*
X4960397D2*
X5130799D1*
X5262901D2*
X5359022D1*
X428404Y439009D2*
X728742D1*
X2192686D2*
X2223857D1*
X2292659D2*
X2323866D1*
X2392668D2*
X3040725D1*
X4935565D2*
X5359022D1*
X3916287Y859957D2*
X3918224D1*
Y730594D1*
X3849722D1*
X3810621Y691691D1*
X3805159Y687722D1*
X3799143Y684657D1*
X3792722Y682571D1*
X3786053Y681514D1*
X3745932Y681382D1*
X3190719Y681514D1*
X3184050Y682571D1*
X3177629Y684657D1*
X3171613Y687722D1*
X3166150Y691691D1*
X3138079Y719575D1*
X3133694Y724709D1*
X3131810Y727530D1*
X3131217Y727559D1*
Y599632D1*
X3140738Y604434D1*
X3151566Y607952D1*
X3162811Y609733D1*
X3174197D1*
X3185442Y607952D1*
X3196270Y604434D1*
X3206414Y599265D1*
X3215625Y592573D1*
X3223675Y584522D1*
X3230367Y575312D1*
X3235536Y565167D1*
X3239054Y554339D1*
X3240835Y543094D1*
X3241059Y519029D1*
X3240835Y512024D1*
X3239054Y500779D1*
X3235536Y489951D1*
X3233682Y485929D1*
X3518589Y485941D1*
X3511688Y492003D1*
X3504294Y500660D1*
X3498345Y510368D1*
X3493988Y520886D1*
X3491330Y531957D1*
X3490438Y543329D1*
X3490661Y588370D1*
X3492442Y599615D1*
X3495960Y610443D1*
X3501129Y620587D1*
X3507821Y629798D1*
X3515871Y637849D1*
X3525082Y644541D1*
X3535226Y649709D1*
X3546054Y653228D1*
X3557300Y655009D1*
X3568685D1*
X3579930Y653228D1*
X3590758Y649709D1*
X3600902Y644541D1*
X3610113Y637849D1*
X3612973Y635205D1*
X3620345Y641375D1*
X3630053Y647324D1*
X3640571Y651681D1*
X3651642Y654339D1*
X3662992Y655232D1*
X3674342Y654339D1*
X3685413Y651681D1*
X3695931Y647324D1*
X3705639Y641375D1*
X3712973Y635205D1*
X3720345Y641375D1*
X3730053Y647324D1*
X3740571Y651681D1*
X3751642Y654339D1*
X3762992Y655232D1*
X3774342Y654339D1*
X3785413Y651681D1*
X3795931Y647324D1*
X3805639Y641375D1*
X3814296Y633981D1*
X3821690Y625324D1*
X3827639Y615616D1*
X3831996Y605098D1*
X3834654Y594027D1*
X3835548Y582677D1*
X3835324Y537614D1*
X3833543Y526369D1*
X3830024Y515541D1*
X3824856Y505397D1*
X3818163Y496186D1*
X3810113Y488136D1*
X3807334Y485945D1*
X3922286Y485941D1*
X3919072Y493831D1*
X3916941Y502709D1*
X3916224Y511811D1*
X3916941Y520913D1*
X3919072Y529791D1*
X3922566Y538226D1*
X3927337Y546011D1*
X3933266Y552954D1*
X3933987Y553620D1*
X3916225Y553626D1*
Y669996D1*
X4018961D1*
X4015645Y676959D1*
X4012127Y687787D1*
X4010346Y699032D1*
Y710417D1*
X4012127Y721662D1*
X4015645Y732490D1*
X4020814Y742634D1*
X4027506Y751845D1*
X4035556Y759896D1*
X4044767Y766588D1*
X4054912Y771757D1*
X4065740Y775275D1*
X4076985Y777056D1*
X4101050Y777279D1*
X4108055Y777056D1*
X4119300Y775275D1*
X4130128Y771757D1*
X4140272Y766588D1*
X4149483Y759896D1*
X4157534Y751845D1*
X4164226Y742634D1*
X4169394Y732490D1*
X4172913Y721662D1*
X4174694Y710417D1*
Y699032D1*
X4172913Y687787D1*
X4169394Y676959D1*
X4164226Y666814D1*
X4157534Y657604D1*
X4149483Y649553D1*
X4140272Y642861D1*
X4130128Y637692D1*
X4119300Y634174D1*
X4108055Y632393D1*
X4083990Y632169D1*
X4076985Y632393D1*
X4065740Y634174D1*
X4054912Y637692D1*
X4044767Y642861D1*
X4035556Y649553D1*
X4032599Y652287D1*
X4032595Y553626D1*
X4014904D1*
X4021482Y546011D1*
X4026253Y538226D1*
X4029747Y529791D1*
X4031878Y520913D1*
X4032594Y511811D1*
X4031878Y502709D1*
X4029747Y493831D1*
X4026499Y485930D1*
X4157686Y485941D1*
X4195191Y523448D1*
X4194769Y531518D1*
X4194991Y576558D1*
X4196772Y587803D1*
X4200291Y598631D1*
X4205459Y608776D1*
X4212151Y617987D1*
X4220202Y626037D1*
X4229413Y632729D1*
X4239557Y637898D1*
X4250385Y641416D1*
X4261630Y643197D1*
X4273015D1*
X4284260Y641416D1*
X4295088Y637898D1*
X4305233Y632729D1*
X4314444Y626037D1*
X4322494Y617987D1*
X4329186Y608776D1*
X4334355Y598631D1*
X4337873Y587803D1*
X4339654Y576558D1*
X4339878Y552493D1*
X4339654Y525803D1*
X4337873Y514558D1*
X4334594Y504377D1*
X4337262Y501680D1*
X4401153Y501689D1*
X4398319Y509075D1*
X4395661Y520146D1*
X4394769Y531518D1*
X4394991Y576558D1*
X4396772Y587803D1*
X4400291Y598631D1*
X4405459Y608776D1*
X4412151Y617987D1*
X4414463Y620487D1*
X4414453Y666908D1*
X4409346Y676959D1*
X4405828Y687787D1*
X4404046Y699032D1*
Y710417D1*
X4405828Y721662D1*
X4409346Y732490D1*
X4414515Y742634D1*
X4421207Y751845D1*
X4429257Y759896D1*
X4438468Y766588D1*
X4448612Y771757D1*
X4459440Y775275D1*
X4470685Y777056D1*
X4494751Y777279D1*
X4501756Y777056D1*
X4513001Y775275D1*
X4523829Y771757D1*
X4533973Y766588D1*
X4543184Y759896D1*
X4551234Y751845D1*
X4557926Y742634D1*
X4563095Y732490D1*
X4566613Y721662D1*
X4568394Y710417D1*
Y699032D1*
X4566613Y687787D1*
X4563095Y676959D1*
X4557926Y666814D1*
X4551234Y657604D1*
X4545063Y651290D1*
X4655987Y651295D1*
X4659106Y656960D1*
X4665617Y665921D1*
X4673449Y673753D1*
X4682410Y680264D1*
X4692279Y685292D1*
X4702813Y688715D1*
X4713753Y690448D1*
X4724830D1*
X4735769Y688715D1*
X4746304Y685292D1*
X4756173Y680264D1*
X4765134Y673753D1*
X4772966Y665921D1*
X4779476Y656960D1*
X4784505Y647091D1*
X4787928Y636557D1*
X4789660Y625617D1*
X4789878Y601706D1*
X4789660Y571233D1*
X4787928Y560294D1*
X4784505Y549759D1*
X4779476Y539890D1*
X4772966Y530929D1*
X4765134Y523097D1*
X4756173Y516587D1*
X4746304Y511558D1*
X4735769Y508135D1*
X4724830Y506403D1*
X4713753D1*
X4702813Y508135D1*
X4692279Y511558D1*
X4682410Y516587D1*
X4673449Y523097D1*
X4665617Y530929D1*
X4659106Y539890D1*
X4656008Y545571D1*
X4539906Y545555D1*
X4539654Y525803D1*
X4537873Y514558D1*
X4534355Y503730D1*
X4533414Y501689D1*
X4846189D1*
X4850695Y506173D1*
X4848705Y506185D1*
Y690665D1*
X4989878D1*
Y684744D1*
X5105207Y800056D1*
X5103647Y810210D1*
Y821286D1*
X5105379Y832226D1*
X5108802Y842760D1*
X5113831Y852629D1*
X5120341Y861590D1*
X5128173Y869423D1*
X5137134Y875933D1*
X5147003Y880962D1*
X5157538Y884384D1*
X5168478Y886117D1*
X5192388Y886335D1*
X5222861Y886117D1*
X5233801Y884384D1*
X5244335Y880962D1*
X5254204Y875933D1*
X5263165Y869423D1*
X5270997Y861590D1*
X5277508Y852629D1*
X5282536Y842760D1*
X5285959Y832226D1*
X5287692Y821286D1*
Y810210D1*
X5285959Y799270D1*
X5282536Y788736D1*
X5277508Y778867D1*
X5270997Y769906D1*
X5263165Y762074D1*
X5254204Y755563D1*
X5244335Y750535D1*
X5233801Y747112D1*
X5222861Y745379D1*
X5199847Y745161D1*
X5012683Y558222D1*
X5005971Y553346D1*
X4998579Y549580D1*
X4990673Y547013D1*
X4989878Y543684D1*
Y506185D1*
X4972187D1*
X4971999Y495852D1*
X4970701Y487658D1*
X4968137Y479767D1*
X4964371Y472375D1*
X4959494Y465664D1*
X4937189Y443128D1*
X4919960Y425899D1*
X5361492Y425886D1*
X5361516Y1956011D1*
X5317426Y1956004D1*
X5317437Y1917602D1*
X5067863D1*
X5067831Y1783465D1*
X5067546Y1776227D1*
X5066695Y1769035D1*
X5065282Y1761932D1*
X5063316Y1754961D1*
X5060809Y1748166D1*
X5055717Y1737910D1*
X5099464D1*
X5094042Y1745555D1*
X5088873Y1755699D1*
X5085355Y1766527D1*
X5083574Y1777772D1*
Y1789157D1*
X5085355Y1800402D1*
X5088873Y1811230D1*
X5094042Y1821375D1*
X5100734Y1830585D1*
X5108785Y1838636D1*
X5117996Y1845328D1*
X5128140Y1850497D1*
X5138968Y1854015D1*
X5150213Y1855796D1*
X5174278Y1856019D1*
X5200968Y1855796D1*
X5212213Y1854015D1*
X5223041Y1850497D1*
X5233186Y1845328D1*
X5242396Y1838636D1*
X5250447Y1830585D1*
X5257139Y1821375D1*
X5262308Y1811230D1*
X5265826Y1800402D1*
X5267607Y1789157D1*
Y1777772D1*
X5265826Y1766527D1*
X5262308Y1755699D1*
X5257139Y1745555D1*
X5250447Y1736344D1*
X5242396Y1728293D1*
X5233186Y1721601D1*
X5226861Y1718193D1*
X5224436Y1710870D1*
X5220670Y1703478D1*
X5215793Y1696766D1*
X5193260Y1674002D1*
X5204094Y1671190D1*
X5210889Y1668683D1*
X5217467Y1665651D1*
X5223786Y1662112D1*
X5229808Y1658088D1*
X5235496Y1653605D1*
X5240814Y1648688D1*
X5245731Y1643370D1*
X5250214Y1637682D1*
X5254238Y1631660D1*
X5257777Y1625341D1*
X5260809Y1618763D1*
X5263316Y1611968D1*
X5265282Y1604998D1*
X5266695Y1597894D1*
X5267546Y1590702D1*
X5267831Y1574278D1*
Y1500787D1*
X5267546Y1493550D1*
X5266695Y1486358D1*
X5265282Y1479254D1*
X5263316Y1472284D1*
X5260809Y1465489D1*
X5257777Y1458911D1*
X5254238Y1452592D1*
X5250214Y1446570D1*
X5245711Y1440861D1*
X5269571Y1440665D1*
X5316256D1*
Y1173508D1*
X4882329D1*
X4987253Y1068619D1*
X5103401Y1068618D1*
X5103429Y1086335D1*
X5287909D1*
Y945161D1*
X5103429D1*
Y962852D1*
X4961206Y963041D1*
X4953012Y964339D1*
X4945122Y966902D1*
X4937730Y970669D1*
X4931018Y975545D1*
X4908482Y997850D1*
X4595038Y1311295D1*
X4567717Y1311303D1*
X4561252Y1311557D1*
X4554827Y1312318D1*
X4548481Y1313580D1*
X4542254Y1315336D1*
X4536184Y1317575D1*
X4530309Y1320284D1*
X4524664Y1323445D1*
X4519284Y1327040D1*
X4514204Y1331045D1*
X4509453Y1335437D1*
X4505061Y1340188D1*
X4501055Y1345269D1*
X4497461Y1350648D1*
X4494300Y1356293D1*
X4491591Y1362169D1*
X4489352Y1368239D1*
X4487596Y1374465D1*
X4486333Y1380811D1*
X4485573Y1387236D1*
X4485319Y1393701D1*
X4485573Y1400166D1*
X4486333Y1406591D1*
X4487596Y1412936D1*
X4489352Y1419163D1*
X4491591Y1425233D1*
X4494300Y1431109D1*
X4497461Y1436753D1*
X4501055Y1442133D1*
X4505061Y1447214D1*
X4509453Y1451965D1*
X4514204Y1456356D1*
X4519284Y1460362D1*
X4524664Y1463956D1*
X4530309Y1467118D1*
X4536184Y1469826D1*
X4542254Y1472066D1*
X4548481Y1473822D1*
X4554827Y1475084D1*
X4561252Y1475844D1*
X4576903Y1476098D1*
X4595024D1*
X4844404Y1725242D1*
X4851116Y1730119D1*
X4858508Y1733885D1*
X4866398Y1736449D1*
X4874592Y1737747D1*
X4895355Y1737910D1*
X4890372Y1748166D1*
X4887865Y1754961D1*
X4885899Y1761932D1*
X4884486Y1769035D1*
X4883635Y1776227D1*
X4883350Y1792651D1*
Y1917636D1*
X4849492Y1917602D1*
Y1956034D1*
X4712204Y1956004D1*
X4715434Y1950262D1*
X4719791Y1939744D1*
X4722449Y1928673D1*
X4723343Y1917323D1*
X4722449Y1905973D1*
X4719791Y1894902D1*
X4715434Y1884384D1*
X4709486Y1874676D1*
X4703315Y1867342D1*
X4709486Y1859970D1*
X4715434Y1850262D1*
X4719791Y1839744D1*
X4722449Y1828673D1*
X4723343Y1817323D1*
X4722449Y1805973D1*
X4719791Y1794902D1*
X4715434Y1784384D1*
X4709486Y1774676D1*
X4702092Y1766019D1*
X4693434Y1758625D1*
X4683727Y1752676D1*
X4673208Y1748319D1*
X4662138Y1745661D1*
X4650787Y1744768D1*
X4611417D1*
X4600067Y1745661D1*
X4588997Y1748319D1*
X4578478Y1752676D1*
X4568770Y1758625D1*
X4560113Y1766019D1*
X4552719Y1774676D1*
X4546770Y1784384D1*
X4542413Y1794902D1*
X4539755Y1805973D1*
X4538862Y1817323D1*
X4539755Y1828673D1*
X4542413Y1839744D1*
X4546770Y1850262D1*
X4552719Y1859970D1*
X4558890Y1867303D1*
X4552719Y1874676D1*
X4546770Y1884384D1*
X4542413Y1894902D1*
X4539755Y1905973D1*
X4538862Y1917323D1*
X4539755Y1928673D1*
X4542413Y1939744D1*
X4546770Y1950262D1*
X4550061Y1955991D1*
X4489506Y1956004D1*
X4489484Y1878386D1*
X4495723Y1871924D1*
X4502415Y1862713D1*
X4507583Y1852569D1*
X4511102Y1841741D1*
X4512883Y1830496D1*
X4513107Y1806430D1*
X4512883Y1799426D1*
X4511102Y1788180D1*
X4507583Y1777352D1*
X4502415Y1767208D1*
X4495723Y1757997D1*
X4487672Y1749947D1*
X4478461Y1743255D1*
X4468317Y1738086D1*
X4457489Y1734568D1*
X4446244Y1732787D1*
X4434859D1*
X4423614Y1734568D1*
X4412786Y1738086D1*
X4402641Y1743255D1*
X4393430Y1749947D1*
X4387449Y1755759D1*
X4381373Y1749947D1*
X4372162Y1743255D1*
X4362018Y1738086D1*
X4351190Y1734568D1*
X4339945Y1732787D1*
X4328559D1*
X4317314Y1734568D1*
X4306486Y1738086D1*
X4296342Y1743255D1*
X4287131Y1749947D1*
X4281150Y1755759D1*
X4275074Y1749947D1*
X4265863Y1743255D1*
X4255718Y1738086D1*
X4244890Y1734568D1*
X4233645Y1732787D1*
X4222260D1*
X4211015Y1734568D1*
X4200187Y1738086D1*
X4190043Y1743255D1*
X4180832Y1749947D1*
X4175244Y1755334D1*
X4169562Y1749947D1*
X4160351Y1743255D1*
X4150207Y1738086D1*
X4139379Y1734568D1*
X4128134Y1732787D1*
X4116748D1*
X4105503Y1734568D1*
X4094675Y1738086D1*
X4084531Y1743255D1*
X4075320Y1749947D1*
X4067270Y1757997D1*
X4060578Y1767208D1*
X4055409Y1777352D1*
X4051891Y1788180D1*
X4050109Y1799426D1*
X4049886Y1823491D1*
X4050109Y1830496D1*
X4051891Y1841741D1*
X4055409Y1852569D1*
X4059349Y1860519D1*
X3916639Y1860516D1*
X3912994Y1854943D1*
X3906001Y1846755D1*
X3904440Y1845312D1*
X3909658Y1839839D1*
X3915987Y1831128D1*
X3920875Y1821535D1*
X3924203Y1811294D1*
X3925887Y1800659D1*
Y1789892D1*
X3924203Y1779257D1*
X3920875Y1769017D1*
X3915987Y1759423D1*
X3909658Y1750712D1*
X3904440Y1745312D1*
X3909658Y1739839D1*
X3915987Y1731128D1*
X3920875Y1721535D1*
X3924203Y1711294D1*
X3925887Y1700659D1*
Y1689892D1*
X3924203Y1679257D1*
X3920875Y1669017D1*
X3915987Y1659423D1*
X3909658Y1650712D1*
X3904440Y1645312D1*
X3909658Y1639839D1*
X3915987Y1631128D1*
X3920875Y1621535D1*
X3924203Y1611294D1*
X3925887Y1600659D1*
Y1589892D1*
X3924203Y1579257D1*
X3920875Y1569017D1*
X3915987Y1559423D1*
X3909658Y1550712D1*
X3902044Y1543098D1*
X3893333Y1536769D1*
X3883739Y1531881D1*
X3873499Y1528553D1*
X3862864Y1526869D1*
X3849606Y1526657D1*
X3838872Y1527502D1*
X3828402Y1530016D1*
X3818454Y1534136D1*
X3809274Y1539762D1*
X3801086Y1546755D1*
X3794093Y1554943D1*
X3788467Y1564124D1*
X3784347Y1574071D1*
X3781833Y1584541D1*
X3780988Y1595276D1*
X3781833Y1606010D1*
X3784347Y1616480D1*
X3788467Y1626428D1*
X3794093Y1635608D1*
X3801086Y1643796D1*
X3802647Y1645239D1*
X3797429Y1650712D1*
X3791100Y1659423D1*
X3786211Y1669017D1*
X3782884Y1679257D1*
X3781200Y1689892D1*
Y1700659D1*
X3782884Y1711294D1*
X3786211Y1721535D1*
X3791100Y1731128D1*
X3797429Y1739839D1*
X3802647Y1745239D1*
X3797429Y1750712D1*
X3791100Y1759423D1*
X3786211Y1769017D1*
X3782884Y1779257D1*
X3781200Y1789892D1*
Y1800659D1*
X3782884Y1811294D1*
X3786211Y1821535D1*
X3791100Y1831128D1*
X3797429Y1839839D1*
X3802647Y1845239D1*
X3797429Y1850712D1*
X3791100Y1859423D1*
X3786211Y1869017D1*
X3782884Y1879257D1*
X3781200Y1889892D1*
Y1900659D1*
X3782884Y1911294D1*
X3786211Y1921535D1*
X3791100Y1931128D1*
X3797429Y1939839D1*
X3802647Y1945239D1*
X3797429Y1950712D1*
X3793380Y1956010D1*
X3715054Y1956004D1*
X3715075Y1543307D1*
X3714424Y1535036D1*
X3712487Y1526969D1*
X3709312Y1519305D1*
X3704978Y1512231D1*
X3699590Y1505922D1*
X3648510Y1455073D1*
X3641798Y1450196D1*
X3634406Y1446430D1*
X3626516Y1443866D1*
X3618321Y1442568D1*
X3601219Y1442405D1*
X3593333Y1436769D1*
X3583739Y1431881D1*
X3573499Y1428553D1*
X3562864Y1426869D1*
X3549606Y1426657D1*
X3538872Y1427502D1*
X3528402Y1430016D1*
X3518454Y1434136D1*
X3509274Y1439762D1*
X3501086Y1446755D1*
X3494093Y1454943D1*
X3488467Y1464124D1*
X3484347Y1474071D1*
X3481833Y1484541D1*
X3480988Y1495276D1*
X3481833Y1506010D1*
X3484347Y1516480D1*
X3488467Y1526428D1*
X3494093Y1535608D1*
X3501086Y1543796D1*
X3502647Y1545239D1*
X3497429Y1550712D1*
X3491100Y1559423D1*
X3486361Y1568692D1*
X3486728Y1561417D1*
X3485835Y1550067D1*
X3483177Y1538997D1*
X3478820Y1528478D1*
X3472872Y1518770D1*
X3465477Y1510113D1*
X3456820Y1502719D1*
X3447113Y1496770D1*
X3436594Y1492413D1*
X3425523Y1489755D1*
X3414173Y1488862D1*
X3402823Y1489755D1*
X3391752Y1492413D1*
X3381234Y1496770D1*
X3371526Y1502719D1*
X3364193Y1508890D1*
X3357187Y1503008D1*
X3357068Y1473396D1*
X3356012Y1466727D1*
X3353926Y1460306D1*
X3350860Y1454290D1*
X3346892Y1448827D1*
X3318615Y1420364D1*
X3310228Y1412163D1*
X3304765Y1408195D1*
X3298749Y1405130D1*
X3292328Y1403043D1*
X3285659Y1401987D1*
X3245538Y1401854D1*
X3148986Y1401987D1*
X3142318Y1403043D1*
X3135896Y1405130D1*
X3129880Y1408195D1*
X3124418Y1412163D1*
X3115873Y1420521D1*
X3115862Y1387081D1*
X3129217Y1373759D1*
X3421486Y1373604D1*
X3428155Y1372547D1*
X3434576Y1370461D1*
X3440592Y1367396D1*
X3446054Y1363427D1*
X3474518Y1335151D1*
X3486774Y1322895D1*
X3491100Y1331128D1*
X3497429Y1339839D1*
X3505042Y1347453D1*
X3513753Y1353782D1*
X3523347Y1358670D1*
X3533588Y1361998D1*
X3544223Y1363682D1*
X3557480Y1363894D1*
X3568215Y1363049D1*
X3578684Y1360535D1*
X3588632Y1356415D1*
X3597813Y1350789D1*
X3606001Y1343796D1*
X3612994Y1335608D1*
X3618619Y1326428D1*
X3622740Y1316480D1*
X3625254Y1306010D1*
X3626098Y1295276D1*
X3625254Y1284541D1*
X3622740Y1274071D1*
X3618619Y1264124D1*
X3612994Y1254943D1*
X3606001Y1246755D1*
X3604440Y1245312D1*
X3609658Y1239839D1*
X3615987Y1231128D1*
X3620875Y1221535D1*
X3624203Y1211294D1*
X3625887Y1200659D1*
Y1189892D1*
X3624203Y1179257D1*
X3620875Y1169017D1*
X3615987Y1159423D1*
X3609658Y1150712D1*
X3604440Y1145312D1*
X3609658Y1139839D1*
X3615987Y1131128D1*
X3620875Y1121535D1*
X3624203Y1111294D1*
X3625887Y1100659D1*
Y1089892D1*
X3624203Y1079257D1*
X3620875Y1069017D1*
X3615987Y1059423D1*
X3609658Y1050712D1*
X3604440Y1045312D1*
X3609658Y1039839D1*
X3615987Y1031128D1*
X3620875Y1021535D1*
X3624203Y1011294D1*
X3625887Y1000659D1*
Y989892D1*
X3624203Y979257D1*
X3620875Y969017D1*
X3615987Y959423D1*
X3609658Y950712D1*
X3604440Y945312D1*
X3609658Y939839D1*
X3615987Y931128D1*
X3620875Y921535D1*
X3624203Y911294D1*
X3625887Y900659D1*
Y889892D1*
X3624203Y879257D1*
X3620875Y869017D1*
X3615987Y859423D1*
X3609658Y850712D1*
X3604440Y845312D1*
X3609658Y839839D1*
X3615987Y831128D1*
X3620875Y821535D1*
X3624203Y811294D1*
X3625887Y800659D1*
Y789892D1*
X3624203Y779257D1*
X3620875Y769017D1*
X3620144Y767430D1*
X3764832Y767437D1*
X3788867Y791449D1*
X3788862Y859957D1*
X3790764D1*
X3786211Y869017D1*
X3782884Y879257D1*
X3781200Y889892D1*
Y900659D1*
X3782884Y911294D1*
X3786211Y921535D1*
X3791100Y931128D1*
X3797429Y939839D1*
X3802647Y945239D1*
X3797429Y950712D1*
X3791100Y959423D1*
X3786211Y969017D1*
X3782884Y979257D1*
X3781200Y989892D1*
Y1000659D1*
X3782884Y1011294D1*
X3786211Y1021535D1*
X3791100Y1031128D1*
X3797429Y1039839D1*
X3802647Y1045239D1*
X3797429Y1050712D1*
X3791100Y1059423D1*
X3786211Y1069017D1*
X3782884Y1079257D1*
X3781200Y1089892D1*
Y1100659D1*
X3782884Y1111294D1*
X3786211Y1121535D1*
X3791100Y1131128D1*
X3797429Y1139839D1*
X3802647Y1145239D1*
X3797429Y1150712D1*
X3791100Y1159423D1*
X3786211Y1169017D1*
X3782884Y1179257D1*
X3781200Y1189892D1*
Y1200659D1*
X3782884Y1211294D1*
X3786211Y1221535D1*
X3791100Y1231128D1*
X3797429Y1239839D1*
X3802647Y1245239D1*
X3797429Y1250712D1*
X3791100Y1259423D1*
X3786211Y1269017D1*
X3782884Y1279257D1*
X3781200Y1289892D1*
Y1300659D1*
X3782884Y1311294D1*
X3786211Y1321535D1*
X3791100Y1331128D1*
X3797429Y1339839D1*
X3802647Y1345239D1*
X3797429Y1350712D1*
X3791100Y1359423D1*
X3786211Y1369017D1*
X3782884Y1379257D1*
X3781200Y1389892D1*
Y1400659D1*
X3782884Y1411294D1*
X3786211Y1421535D1*
X3791100Y1431128D1*
X3797429Y1439839D1*
X3805042Y1447453D1*
X3813753Y1453782D1*
X3823347Y1458670D1*
X3833588Y1461998D1*
X3844223Y1463682D1*
X3857480Y1463894D1*
X3868215Y1463049D1*
X3878684Y1460535D1*
X3888632Y1456415D1*
X3897813Y1450789D1*
X3901267Y1448066D1*
X3906696Y1447495D1*
X3914763Y1445558D1*
X3922428Y1442383D1*
X3929502Y1438048D1*
X3935821Y1432649D1*
X4239809Y1128431D1*
X4244686Y1121719D1*
X4248452Y1114327D1*
X4251016Y1106437D1*
X4252313Y1098243D1*
X4252476Y1066535D1*
Y1063198D1*
X4257870Y1058264D1*
X4262262Y1053513D1*
X4266267Y1048432D1*
X4269862Y1043053D1*
X4273023Y1037408D1*
X4275732Y1031532D1*
X4277971Y1025462D1*
X4279727Y1019235D1*
X4280989Y1012890D1*
X4281750Y1006465D1*
X4282004Y990814D1*
X4281750Y954165D1*
X4280989Y947740D1*
X4279727Y941395D1*
X4277971Y935168D1*
X4275732Y929098D1*
X4273023Y923222D1*
X4269862Y917577D1*
X4266267Y912198D1*
X4262262Y907117D1*
X4257870Y902366D1*
X4253119Y897974D1*
X4248038Y893969D1*
X4242659Y890374D1*
X4237014Y887213D1*
X4231139Y884504D1*
X4225069Y882265D1*
X4218842Y880509D1*
X4212496Y879247D1*
X4206071Y878486D1*
X4199606Y878232D1*
X4193141Y878486D1*
X4186716Y879247D1*
X4180371Y880509D1*
X4174144Y882265D1*
X4168074Y884504D1*
X4162199Y887213D1*
X4156554Y890374D1*
X4151174Y893969D1*
X4146093Y897974D1*
X4141342Y902366D1*
X4136951Y907117D1*
X4132945Y912198D1*
X4129351Y917577D1*
X4126189Y923222D1*
X4123481Y929098D1*
X4121241Y935168D1*
X4119485Y941395D1*
X4118223Y947740D1*
X4117463Y954165D1*
X4117209Y969816D1*
X4117463Y1006465D1*
X4118223Y1012890D1*
X4119485Y1019235D1*
X4121241Y1025462D1*
X4123481Y1031532D1*
X4126189Y1037408D1*
X4129351Y1043053D1*
X4132945Y1048432D1*
X4136951Y1053513D1*
X4141342Y1058264D1*
X4146748Y1063172D1*
X4146736Y1072214D1*
X3926066Y1292865D1*
X3925254Y1284541D1*
X3922740Y1274071D1*
X3918619Y1264124D1*
X3912994Y1254943D1*
X3906001Y1246755D1*
X3904440Y1245312D1*
X3909658Y1239839D1*
X3915987Y1231128D1*
X3920875Y1221535D1*
X3924203Y1211294D1*
X3925887Y1200659D1*
Y1189892D1*
X3924203Y1179257D1*
X3920875Y1169017D1*
X3915987Y1159423D1*
X3909658Y1150712D1*
X3904440Y1145312D1*
X3909658Y1139839D1*
X3915987Y1131128D1*
X3920875Y1121535D1*
X3924203Y1111294D1*
X3925887Y1100659D1*
Y1089892D1*
X3924203Y1079257D1*
X3920875Y1069017D1*
X3915987Y1059423D1*
X3909658Y1050712D1*
X3904440Y1045312D1*
X3909658Y1039839D1*
X3915987Y1031128D1*
X3920875Y1021535D1*
X3924203Y1011294D1*
X3925887Y1000659D1*
Y989892D1*
X3924203Y979257D1*
X3920875Y969017D1*
X3915987Y959423D1*
X3909658Y950712D1*
X3904440Y945312D1*
X3909658Y939839D1*
X3915987Y931128D1*
X3920875Y921535D1*
X3924203Y911294D1*
X3925887Y900659D1*
Y889892D1*
X3924203Y879257D1*
X3920875Y869017D1*
X3916285Y859955D1*
X672949Y1637182D2*
Y1573114D1*
X543587D1*
Y1688769D1*
X533406Y1684891D1*
X524947Y1682506D1*
X516328Y1680791D1*
X507600Y1679758D1*
X498819Y1679413D1*
X490037Y1679758D1*
X481310Y1680791D1*
X472690Y1682506D1*
X464232Y1684891D1*
X455987Y1687933D1*
X448006Y1691613D1*
X440338Y1695907D1*
X433031Y1700789D1*
X425902Y1706440D1*
X425886Y616567D1*
X429696Y621314D1*
X435452Y627540D1*
X441678Y633296D1*
X448337Y638545D1*
X455387Y643256D1*
X462785Y647399D1*
X470486Y650949D1*
X478441Y653884D1*
X486602Y656186D1*
X494918Y657840D1*
X503338Y658836D1*
X511811Y659169D1*
X520284Y658836D1*
X528704Y657840D1*
X537020Y656186D1*
X545181Y653884D1*
X553136Y650949D1*
X560837Y647399D1*
X568235Y643256D1*
X575285Y638545D1*
X581944Y633296D1*
X588170Y627540D1*
X593926Y621314D1*
X599175Y614655D1*
X603886Y607605D1*
X608029Y600207D1*
X611579Y592506D1*
X614514Y584551D1*
X616815Y576390D1*
X618470Y568074D1*
X619466Y559654D1*
X619799Y551181D1*
X619466Y542708D1*
X618470Y534288D1*
X616815Y525972D1*
X614514Y517811D1*
X611579Y509856D1*
X608029Y502155D1*
X603886Y494757D1*
X599175Y487707D1*
X593926Y481048D1*
X588170Y474822D1*
X581944Y469066D1*
X575285Y463817D1*
X568235Y459106D1*
X560837Y454963D1*
X553136Y451413D1*
X545181Y448478D1*
X537020Y446177D1*
X528704Y444522D1*
X520284Y443526D1*
X511811Y443193D1*
X503338Y443526D1*
X494918Y444522D1*
X486602Y446177D1*
X478441Y448478D1*
X470486Y451413D1*
X462785Y454963D1*
X455387Y459106D1*
X448337Y463817D1*
X441678Y469066D1*
X435452Y474822D1*
X429696Y481048D1*
X425903Y485860D1*
X425886Y425879D1*
X744346Y425886D1*
X726337Y444103D1*
X722368Y449565D1*
X720712Y452525D1*
X711303Y457822D1*
X702092Y464514D1*
X694041Y472564D1*
X687349Y481775D1*
X682180Y491919D1*
X678662Y502747D1*
X676881Y513992D1*
Y525378D1*
X678662Y536623D1*
X682180Y547451D1*
X687077Y557110D1*
X676903Y561337D1*
X667196Y567286D1*
X658538Y574680D1*
X651144Y583337D1*
X645195Y593045D1*
X640839Y603563D1*
X638181Y614634D1*
X637287Y625984D1*
X638181Y637334D1*
X640839Y648405D1*
X645195Y658924D1*
X651144Y668631D1*
X658538Y677288D1*
X667196Y684683D1*
X676903Y690631D1*
X687422Y694988D1*
X698492Y697646D1*
X709865Y698538D1*
X735220Y698316D1*
X746465Y696535D1*
X757293Y693016D1*
X767438Y687848D1*
X776648Y681156D1*
X784699Y673105D1*
X791391Y663894D1*
X796560Y653750D1*
X800078Y642922D1*
X801859Y631677D1*
Y620292D1*
X800078Y609047D1*
X796560Y598219D1*
X791663Y588560D1*
X801837Y584332D1*
X811544Y578383D1*
X820202Y570989D1*
X827596Y562332D1*
X833545Y552624D1*
X837902Y542106D1*
X840559Y531035D1*
X841453Y519685D1*
X840559Y508335D1*
X837902Y497264D1*
X835902Y491859D1*
X1636650Y491847D1*
X1630520Y501962D1*
X1627812Y507838D1*
X1625572Y513908D1*
X1623816Y520135D1*
X1622554Y526480D1*
X1621793Y532905D1*
X1621539Y539370D1*
X1621793Y545835D1*
X1622554Y552260D1*
X1623816Y558605D1*
X1625572Y564832D1*
X1627812Y570902D1*
X1630520Y576778D1*
X1633681Y582423D1*
X1637276Y587802D1*
X1641281Y592883D1*
X1645673Y597634D1*
X1650424Y602026D1*
X1655505Y606031D1*
X1660884Y609626D1*
X1666529Y612787D1*
X1672405Y615496D1*
X1678475Y617735D1*
X1684702Y619491D1*
X1691047Y620753D1*
X1697472Y621514D1*
X1713123Y621768D1*
X1730087Y621514D1*
X1736512Y620753D1*
X1742857Y619491D1*
X1749084Y617735D1*
X1755154Y615496D1*
X1761030Y612787D1*
X1766675Y609626D1*
X1772054Y606031D1*
X1777135Y602026D1*
X1781886Y597634D1*
X1786278Y592883D1*
X1790283Y587802D1*
X1793878Y582423D1*
X1797039Y576778D1*
X1799748Y570902D1*
X1801987Y564832D1*
X1803743Y558605D1*
X1805005Y552260D1*
X1805766Y545835D1*
X1806020Y539370D1*
X1805766Y532905D1*
X1805005Y526480D1*
X1803743Y520135D1*
X1801987Y513908D1*
X1799748Y507838D1*
X1797039Y501962D1*
X1793878Y496317D1*
X1790887Y491842D1*
X2086135Y491847D1*
X2093583Y499315D1*
X2093786Y516098D1*
X2095374Y526123D1*
X2098490Y535720D1*
X2089537Y535845D1*
X2082869Y536901D1*
X2076447Y538988D1*
X2070431Y542053D1*
X2064969Y546022D1*
X2036505Y574298D1*
X1949092Y661711D1*
X1346384Y661697D1*
X1349505Y656467D1*
X1352444Y649373D1*
X1354238Y641892D1*
X1356556Y641985D1*
X1364750Y643283D1*
X1373046D1*
X1381241Y641985D1*
X1389131Y639422D1*
X1396523Y635655D1*
X1403235Y630779D1*
X1409101Y624913D1*
X1413977Y618201D1*
X1417744Y610809D1*
X1420308Y602918D1*
X1421605Y594724D1*
X1421768Y563017D1*
X1421605Y547058D1*
X1420308Y538864D1*
X1417744Y530974D1*
X1413977Y523582D1*
X1409101Y516870D1*
X1403235Y511003D1*
X1396523Y506127D1*
X1389131Y502361D1*
X1381241Y499797D1*
X1373046Y498499D1*
X1364750D1*
X1356556Y499797D1*
X1348666Y502361D1*
X1341274Y506127D1*
X1337427Y508745D1*
X1329909Y504099D1*
X1322244Y500924D1*
X1314177Y498987D1*
X1305906Y498336D1*
X1297635Y498987D1*
X1289568Y500924D1*
X1281904Y504099D1*
X1274830Y508433D1*
X1268521Y513821D1*
X1263133Y520130D1*
X1258799Y527204D1*
X1255624Y534868D1*
X1253687Y542935D1*
X1253037Y551222D1*
X1253199Y594724D1*
X1254051Y600676D1*
X1191260Y600673D1*
X1187875Y593045D1*
X1181927Y583337D1*
X1174533Y574680D1*
X1165875Y567286D1*
X1156168Y561337D1*
X1145649Y556980D1*
X1134578Y554322D1*
X1123228Y553429D1*
X1103543D1*
X1092193Y554322D1*
X1081123Y556980D1*
X1070604Y561337D1*
X1060896Y567286D1*
X1052239Y574680D1*
X1044845Y583337D1*
X1038896Y593045D1*
X1034539Y603563D1*
X1031881Y614634D1*
X1030988Y625984D1*
X1031881Y637334D1*
X1034539Y648405D1*
X1038896Y658924D1*
X1041560Y663681D1*
X1030528Y663889D1*
X1019283Y665670D1*
X1008455Y669188D1*
X998311Y674357D1*
X989100Y681049D1*
X982726Y687286D1*
X937893Y687438D1*
X930309Y688639D1*
X923006Y691012D1*
X916165Y694498D1*
X909953Y699011D1*
X887644Y721107D1*
X787595Y821156D1*
X686047Y821146D1*
X675570Y816823D1*
X664500Y814165D1*
X653150Y813271D1*
X633465Y813272D1*
X622114Y814165D1*
X611044Y816823D1*
X600525Y821180D1*
X590818Y827128D1*
X582160Y834523D1*
X574766Y843180D1*
X568817Y852887D1*
X564461Y863406D1*
X561803Y874477D1*
X560909Y885827D1*
X561803Y897177D1*
X564461Y908248D1*
X568817Y918766D1*
X574766Y928474D1*
X582160Y937131D1*
X590818Y944525D1*
X600525Y950474D1*
X611044Y954831D1*
X622114Y957489D1*
X633487Y958381D1*
X658842Y958158D1*
X670087Y956377D1*
X680915Y952859D1*
X691060Y947690D1*
X700270Y940998D1*
X708321Y932948D1*
X715013Y923737D1*
X717655Y919019D1*
X811713Y918861D1*
X819297Y917660D1*
X826600Y915287D1*
X833441Y911801D1*
X839654Y907288D1*
X861962Y885192D1*
X962012Y785143D1*
X982676Y785154D1*
X989100Y791392D1*
X998311Y798084D1*
X1008455Y803253D1*
X1019283Y806771D1*
X1030528Y808552D1*
X1054593Y808776D1*
X1061598Y808552D1*
X1072843Y806771D1*
X1083671Y803253D1*
X1093815Y798084D1*
X1103026Y791392D1*
X1111077Y783341D1*
X1117769Y774130D1*
X1122938Y763986D1*
X1126456Y753158D1*
X1128237Y741913D1*
Y730528D1*
X1126456Y719283D1*
X1122938Y708455D1*
X1117889Y698524D1*
X1250069Y698539D1*
X1149959Y798827D1*
X1145990Y804290D1*
X1144334Y807249D1*
X1119965Y807366D1*
Y932791D1*
X1245390D1*
Y921631D1*
X1252631Y925956D1*
X1261723Y929722D1*
X1271292Y932019D1*
X1281102Y932791D1*
X1290913Y932019D1*
X1300482Y929722D1*
X1309573Y925956D1*
X1317964Y920814D1*
X1325447Y914423D1*
X1331838Y906940D1*
X1336980Y898550D1*
X1340746Y889458D1*
X1343043Y879889D1*
X1343815Y870079D1*
X1343043Y860268D1*
X1340746Y850699D1*
X1337503Y842743D1*
X1351760Y828466D1*
X1444711Y828461D1*
X1571921Y955690D1*
X1571769Y999328D1*
X1570895Y1000274D1*
X1566120Y995776D1*
X1557659Y989629D1*
X1548340Y984880D1*
X1538394Y981649D1*
X1528064Y980013D1*
X1518898Y979807D1*
X1508471Y980628D1*
X1498302Y983069D1*
X1488639Y987071D1*
X1479722Y992536D1*
X1471769Y999328D1*
X1464977Y1007281D1*
X1459512Y1016198D1*
X1455510Y1025861D1*
X1453069Y1036030D1*
X1452248Y1046457D1*
X1453069Y1056883D1*
X1455510Y1067053D1*
X1459512Y1076715D1*
X1464977Y1085632D1*
X1471769Y1093585D1*
X1479722Y1100377D1*
X1488639Y1105842D1*
X1498302Y1109844D1*
X1508471Y1112286D1*
X1518918Y1113105D1*
X1528064Y1112901D1*
X1538394Y1111265D1*
X1548340Y1108033D1*
X1557659Y1103285D1*
X1566120Y1097137D1*
X1570837Y1092639D1*
X1575612Y1097137D1*
X1584073Y1103285D1*
X1593392Y1108033D1*
X1603339Y1111265D1*
X1613668Y1112901D1*
X1622835Y1113106D1*
X1633261Y1112286D1*
X1643431Y1109844D1*
X1653093Y1105842D1*
X1662010Y1100377D1*
X1669963Y1093585D1*
X1670837Y1092639D1*
X1675612Y1097137D1*
X1681235Y1101388D1*
X1684179Y1107128D1*
X1688148Y1112590D1*
X1716424Y1141054D1*
X1773631Y1198073D1*
X1779093Y1202041D1*
X1785109Y1205107D1*
X1791530Y1207193D1*
X1798199Y1208249D1*
X1838320Y1208382D1*
X1941200D1*
X1948302Y1216659D1*
X1956959Y1224053D1*
X1966667Y1230001D1*
X1977186Y1234358D1*
X1988256Y1237016D1*
X1999629Y1237909D1*
X2024984Y1237686D1*
X2036229Y1235905D1*
X2047057Y1232387D1*
X2057201Y1227218D1*
X2066412Y1220526D1*
X2074463Y1212475D1*
X2081155Y1203264D1*
X2086324Y1193120D1*
X2089842Y1182292D1*
X2091623Y1171047D1*
Y1159662D1*
X2089842Y1148417D1*
X2086324Y1137589D1*
X2081155Y1127444D1*
X2074463Y1118234D1*
X2066412Y1110183D1*
X2057201Y1103491D1*
X2047057Y1098322D1*
X2036229Y1094804D1*
X2024984Y1093023D1*
X2000919Y1092799D1*
X1993914Y1093023D1*
X1982669Y1094804D1*
X1971841Y1098322D1*
X1961696Y1103491D1*
X1952486Y1110183D1*
X1944435Y1118234D1*
X1941197Y1122340D1*
X1819370Y1122327D1*
X1809493Y1112422D1*
X1818918Y1113105D1*
X1828064Y1112901D1*
X1838394Y1111265D1*
X1848340Y1108033D1*
X1857659Y1103285D1*
X1866120Y1097137D1*
X1873515Y1089742D1*
X1879663Y1081281D1*
X1884411Y1071962D1*
X1887643Y1062016D1*
X1889279Y1051686D1*
Y1041227D1*
X1887643Y1030898D1*
X1884411Y1020951D1*
X1879663Y1011632D1*
X1873515Y1003171D1*
X1866120Y995776D1*
X1863889Y994017D1*
X1863761Y862766D1*
X1862705Y856097D1*
X1860619Y849676D1*
X1857553Y843660D1*
X1853585Y838198D1*
X1848810Y833423D1*
X1843348Y829455D1*
X1837332Y826389D1*
X1830911Y824303D1*
X1824242Y823247D1*
X1802673Y823114D1*
X1799748Y814924D1*
X1797039Y809049D1*
X1793878Y803404D1*
X1790283Y798025D1*
X1786278Y792944D1*
X1781886Y788193D1*
X1777135Y783801D1*
X1772054Y779796D1*
X1766675Y776201D1*
X1761030Y773040D1*
X1755154Y770331D1*
X1749084Y768092D1*
X1742857Y766336D1*
X1736512Y765074D1*
X1730087Y764313D1*
X1714436Y764059D1*
X1697472Y764313D1*
X1691047Y765074D1*
X1684702Y766336D1*
X1678475Y768092D1*
X1672405Y770331D1*
X1666529Y773040D1*
X1660884Y776201D1*
X1655505Y779796D1*
X1650424Y783801D1*
X1645673Y788193D1*
X1641281Y792944D1*
X1637276Y798025D1*
X1633681Y803404D1*
X1630520Y809049D1*
X1627812Y814924D1*
X1625572Y820994D1*
X1623816Y827221D1*
X1622554Y833567D1*
X1621793Y839992D1*
X1621539Y846457D1*
X1621793Y852922D1*
X1622554Y859347D1*
X1625181Y870532D1*
X1502386Y747751D1*
X1970305Y747619D1*
X1976974Y746563D1*
X1983395Y744477D1*
X1989411Y741412D1*
X1994873Y737443D1*
X2023337Y709167D1*
X2110751Y621753D1*
X2193533Y621635D1*
X2200202Y620579D1*
X2206623Y618492D1*
X2212639Y615427D1*
X2218102Y611459D1*
X2246565Y583182D1*
X2254152Y575596D1*
X2263343Y575505D1*
X2273367Y573918D1*
X2283020Y570781D1*
X2292063Y566173D1*
X2300275Y560208D1*
X2307452Y553031D1*
X2308250Y552018D1*
X2312531Y556760D1*
X2320249Y563352D1*
X2328903Y568655D1*
X2338280Y572539D1*
X2348149Y574908D1*
X2358268Y575705D1*
X2368386Y574908D1*
X2378255Y572539D1*
X2387632Y568655D1*
X2396286Y563352D1*
X2404004Y556760D1*
X2410596Y549042D1*
X2415899Y540388D1*
X2419783Y531011D1*
X2422152Y521142D1*
X2422949Y511023D1*
X2422749Y490201D1*
X2421162Y480176D1*
X2418025Y470523D1*
X2413417Y461480D1*
X2407452Y453269D1*
X2400275Y446092D1*
X2392063Y440126D1*
X2383020Y435518D1*
X2373367Y432382D1*
X2363343Y430794D1*
X2353193D1*
X2343168Y432382D1*
X2333515Y435518D1*
X2324472Y440126D1*
X2316261Y446092D1*
X2309084Y453269D1*
X2308285Y454281D1*
X2304004Y449539D1*
X2296286Y442947D1*
X2287632Y437644D1*
X2278255Y433760D1*
X2268386Y431391D1*
X2258268Y430594D1*
X2248149Y431391D1*
X2238280Y433760D1*
X2228903Y437644D1*
X2220249Y442947D1*
X2212531Y449539D1*
X2208285Y454281D1*
X2204004Y449539D1*
X2196286Y442947D1*
X2187632Y437644D1*
X2178255Y433760D1*
X2168386Y431391D1*
X2158268Y430594D1*
X2148149Y431391D1*
X2147507Y431519D1*
X2141878Y425910D1*
X3055718Y425886D1*
X3045074Y436724D1*
X3040561Y442936D1*
X3037075Y449778D1*
X3034702Y457081D1*
X3033501Y464665D1*
X3033350Y468827D1*
X3028474Y464924D1*
X3018766Y458975D1*
X3008248Y454618D1*
X2997177Y451960D1*
X2985827Y451067D1*
X2974477Y451960D1*
X2963406Y454618D1*
X2952887Y458975D1*
X2943180Y464924D1*
X2935846Y471094D1*
X2928474Y464924D1*
X2918766Y458975D1*
X2908248Y454618D1*
X2897177Y451960D1*
X2885827Y451067D1*
X2874477Y451960D1*
X2863406Y454618D1*
X2852887Y458975D1*
X2843180Y464924D1*
X2835846Y471094D1*
X2828474Y464924D1*
X2818766Y458975D1*
X2808248Y454618D1*
X2797177Y451960D1*
X2785827Y451067D1*
X2774477Y451960D1*
X2763406Y454618D1*
X2752887Y458975D1*
X2743180Y464924D1*
X2735846Y471094D1*
X2728474Y464924D1*
X2718766Y458975D1*
X2708248Y454618D1*
X2702293Y451980D1*
X2695871Y449894D1*
X2689203Y448837D1*
X2682451D1*
X2675782Y449894D1*
X2669361Y451980D1*
X2663406Y454618D1*
X2652887Y458975D1*
X2643180Y464924D1*
X2634523Y472318D1*
X2627128Y480975D1*
X2621180Y490683D1*
X2617585Y499134D1*
X2494404Y622305D1*
X2162766Y622459D1*
X2156097Y623516D1*
X2149676Y625602D1*
X2143660Y628667D1*
X2138198Y632636D1*
X2109734Y660912D1*
X2006258Y764575D1*
X2002289Y770038D1*
X1999224Y776054D1*
X1997138Y782475D1*
X1996081Y789144D1*
X1995949Y829265D1*
X1995801Y888075D1*
X1988796Y888298D1*
X1977551Y890080D1*
X1966723Y893598D1*
X1956578Y898767D1*
X1947367Y905459D1*
X1939317Y913509D1*
X1932625Y922720D1*
X1927456Y932864D1*
X1923938Y943692D1*
X1922157Y954937D1*
Y966323D1*
X1923938Y977568D1*
X1927456Y988396D1*
X1932625Y998540D1*
X1939317Y1007751D1*
X1947367Y1015801D1*
X1956578Y1022493D1*
X1966723Y1027662D1*
X1977551Y1031180D1*
X1988796Y1032961D1*
X2012861Y1033185D1*
X2019866Y1032961D1*
X2031111Y1031180D1*
X2041939Y1027662D1*
X2052083Y1022493D1*
X2061294Y1015801D1*
X2069345Y1007751D1*
X2076037Y998540D1*
X2081205Y988396D1*
X2084724Y977568D1*
X2086505Y966323D1*
Y954937D1*
X2084724Y943692D1*
X2081999Y935015D1*
X2082004Y810311D1*
X2093583Y798763D1*
X2093786Y816098D1*
X2095374Y826123D1*
X2098510Y835776D1*
X2103118Y844819D1*
X2109084Y853031D1*
X2116261Y860208D1*
X2124472Y866173D1*
X2133515Y870781D1*
X2143168Y873918D1*
X2153193Y875505D1*
X2163343D1*
X2173367Y873918D1*
X2183020Y870781D1*
X2192063Y866173D1*
X2200275Y860208D1*
X2207452Y853031D1*
X2213417Y844819D1*
X2218025Y835776D1*
X2221162Y826123D1*
X2222749Y816098D1*
X2222949Y795275D1*
X2222749Y790201D1*
X2221162Y780176D1*
X2218025Y770523D1*
X2213417Y761480D1*
X2207452Y753269D1*
X2200275Y746092D1*
X2192063Y740126D1*
X2183020Y735518D1*
X2173367Y732382D1*
X2163343Y730794D1*
X2161618Y730726D1*
X2183965Y708381D1*
X2515581Y708249D1*
X2522249Y707193D1*
X2528671Y705107D1*
X2534687Y702041D1*
X2540149Y698073D1*
X2568613Y669796D1*
X2629586Y608823D1*
X2634523Y614296D1*
X2643180Y621690D1*
X2652887Y627639D1*
X2663406Y631996D1*
X2674477Y634654D1*
X2685827Y635547D1*
X2697177Y634654D1*
X2708248Y631996D1*
X2718766Y627639D1*
X2728474Y621690D1*
X2735807Y615520D1*
X2743180Y621690D1*
X2752887Y627639D1*
X2763406Y631996D1*
X2774477Y634654D1*
X2785827Y635547D1*
X2797177Y634654D1*
X2808248Y631996D1*
X2818766Y627639D1*
X2828474Y621690D1*
X2835807Y615520D1*
X2843180Y621690D1*
X2852887Y627639D1*
X2863406Y631996D1*
X2874477Y634654D1*
X2885827Y635547D1*
X2897177Y634654D1*
X2908248Y631996D1*
X2918766Y627639D1*
X2928474Y621690D1*
X2935807Y615520D1*
X2942813Y621401D1*
X2942799Y648699D1*
X2934519Y653900D1*
X2925861Y661294D1*
X2918467Y669952D1*
X2912518Y679659D1*
X2908161Y690178D1*
X2905504Y701248D1*
X2904610Y712598D1*
X2905504Y723949D1*
X2908161Y735019D1*
X2912518Y745538D1*
X2918467Y755245D1*
X2925861Y763903D1*
X2934519Y771297D1*
X2944226Y777246D1*
X2954745Y781602D1*
X2965815Y784260D1*
X2977188Y785153D1*
X3002543Y784930D1*
X3013788Y783149D1*
X3024616Y779631D1*
X3033343Y775256D1*
X3033350Y819344D1*
X3028617Y814907D1*
X3019406Y808215D1*
X3009262Y803047D1*
X2998434Y799528D1*
X2987189Y797747D1*
X2963123Y797524D1*
X2956118Y797747D1*
X2944873Y799528D1*
X2934045Y803047D1*
X2923901Y808215D1*
X2914690Y814907D1*
X2906640Y822958D1*
X2899948Y832169D1*
X2894779Y842313D1*
X2891261Y853141D1*
X2889480Y864386D1*
Y875771D1*
X2891261Y887016D1*
X2894779Y897844D1*
X2897610Y903814D1*
X2652008Y903823D1*
X2654827Y897844D1*
X2658346Y887016D1*
X2660127Y875771D1*
Y864386D1*
X2658346Y853141D1*
X2654827Y842313D1*
X2649659Y832169D1*
X2642967Y822958D1*
X2634916Y814907D1*
X2625705Y808215D1*
X2615561Y803047D1*
X2604733Y799528D1*
X2593488Y797747D1*
X2569423Y797524D1*
X2562418Y797747D1*
X2551173Y799528D1*
X2540345Y803047D1*
X2530200Y808215D1*
X2520989Y814907D1*
X2512939Y822958D1*
X2506247Y832169D1*
X2501078Y842313D1*
X2497560Y853141D1*
X2495779Y864386D1*
Y875771D1*
X2497560Y887016D1*
X2501078Y897844D1*
X2506247Y907989D1*
X2512939Y917200D1*
X2520989Y925250D1*
X2530200Y931942D1*
X2540345Y937111D1*
X2542787Y938012D1*
X2521452Y959559D1*
X2516939Y965771D1*
X2513453Y972613D1*
X2511080Y979915D1*
X2509879Y987499D1*
X2509728Y1021804D1*
X2504474Y1026522D1*
X2498083Y1034005D1*
X2492942Y1042395D1*
X2489176Y1051487D1*
X2486878Y1061056D1*
X2486106Y1070866D1*
X2486878Y1080677D1*
X2489176Y1090245D1*
X2492942Y1099337D1*
X2498083Y1107728D1*
X2504474Y1115211D1*
X2511006Y1120851D1*
X2504474Y1126522D1*
X2498083Y1134005D1*
X2492942Y1142395D1*
X2489176Y1151487D1*
X2487783Y1156509D1*
X2485422Y1148888D1*
X2482349Y1142861D1*
X2477639Y1132415D1*
X2471690Y1122708D1*
X2464885Y1114687D1*
X2468935Y1109576D1*
X2474883Y1099868D1*
X2479240Y1089350D1*
X2481898Y1078279D1*
X2482791Y1066929D1*
X2481898Y1055579D1*
X2479240Y1044508D1*
X2474883Y1033990D1*
X2468935Y1024282D1*
X2461540Y1015625D1*
X2452883Y1008231D1*
X2443176Y1002282D1*
X2432657Y997925D1*
X2421586Y995267D1*
X2410236Y994374D1*
X2390551D1*
X2379201Y995267D1*
X2368130Y997925D1*
X2357612Y1002282D1*
X2347904Y1008231D1*
X2339247Y1015625D1*
X2331853Y1024282D1*
X2325904Y1033990D1*
X2321547Y1044508D1*
X2318889Y1055579D1*
X2317996Y1066929D1*
X2318889Y1078279D1*
X2321547Y1089350D1*
X2325904Y1099868D1*
X2331853Y1109576D1*
X2338658Y1117596D1*
X2334609Y1122708D1*
X2328660Y1132415D1*
X2324303Y1142934D1*
X2321645Y1154004D1*
X2320752Y1165354D1*
X2321645Y1176704D1*
X2324303Y1187775D1*
X2328660Y1198294D1*
X2334609Y1208001D1*
X2342003Y1216659D1*
X2350660Y1224053D1*
X2360368Y1230001D1*
X2370886Y1234358D1*
X2381957Y1237016D1*
X2393329Y1237909D1*
X2402673D1*
X2402774Y1359281D1*
X2403830Y1365950D1*
X2405917Y1372371D1*
X2408982Y1378387D1*
X2412951Y1383850D1*
X2441227Y1412314D1*
X2489977Y1461064D1*
X2485002Y1467196D1*
X2479054Y1476903D1*
X2474697Y1487422D1*
X2472039Y1498492D1*
X2471147Y1509865D1*
X2471369Y1535220D1*
X2473150Y1546465D1*
X2476669Y1557293D1*
X2481837Y1567438D1*
X2488529Y1576648D1*
X2496580Y1584699D1*
X2505791Y1591391D1*
X2515935Y1596560D1*
X2526763Y1600078D1*
X2538008Y1601859D1*
X2549393D1*
X2560638Y1600078D1*
X2571466Y1596560D1*
X2581611Y1591391D1*
X2590822Y1584699D1*
X2598872Y1576648D1*
X2601944Y1572751D1*
X2608932Y1580832D1*
X2617589Y1588226D1*
X2627297Y1594175D1*
X2637815Y1598532D1*
X2648886Y1601189D1*
X2660236Y1602083D1*
X2671586Y1601189D1*
X2682657Y1598532D1*
X2693176Y1594175D1*
X2702883Y1588226D1*
X2711540Y1580832D1*
X2718935Y1572174D1*
X2724883Y1562467D1*
X2729240Y1551948D1*
X2731898Y1540878D1*
X2732791Y1529528D1*
X2732568Y1504150D1*
X2730787Y1492905D1*
X2727268Y1482077D1*
X2722100Y1471933D1*
X2715408Y1462722D1*
X2707357Y1454671D1*
X2701088Y1449945D1*
X2732325Y1418495D1*
X2736293Y1413033D1*
X2739359Y1407017D1*
X2741445Y1400596D1*
X2742501Y1393927D1*
X2742634Y1353806D1*
Y1058802D1*
X2750508Y1050893D1*
X2789338Y1050902D1*
X2786878Y1061056D1*
X2786106Y1070866D1*
X2786878Y1080677D1*
X2789176Y1090245D1*
X2792942Y1099337D1*
X2798083Y1107728D1*
X2804474Y1115211D1*
X2811006Y1120851D1*
X2804474Y1126522D1*
X2798083Y1134005D1*
X2792942Y1142395D1*
X2789176Y1151487D1*
X2786878Y1161056D1*
X2786106Y1170866D1*
X2786878Y1180677D1*
X2789176Y1190245D1*
X2792942Y1199337D1*
X2798083Y1207728D1*
X2804474Y1215211D1*
X2811006Y1220851D1*
X2804474Y1226522D1*
X2798083Y1234005D1*
X2792942Y1242395D1*
X2789176Y1251487D1*
X2786878Y1261056D1*
X2786106Y1270866D1*
X2786878Y1280677D1*
X2789176Y1290245D1*
X2792942Y1299337D1*
X2798083Y1307728D1*
X2804474Y1315211D1*
X2811957Y1321602D1*
X2820348Y1326743D1*
X2829440Y1330509D1*
X2839008Y1332807D1*
X2848838Y1333578D1*
X2873424Y1333385D1*
X2875812Y1333103D1*
X2891611Y1348918D1*
X2891618Y1956025D1*
X2809983Y1956004D1*
X2809733Y1937221D1*
X2807952Y1925976D1*
X2804434Y1915148D1*
X2799265Y1905003D1*
X2792573Y1895793D1*
X2784522Y1887742D1*
X2775312Y1881050D1*
X2765167Y1875881D1*
X2754339Y1872363D1*
X2743094Y1870582D1*
X2731709D1*
X2725288Y1871403D1*
X2722100Y1865633D1*
X2715408Y1856423D1*
X2707357Y1848372D1*
X2698146Y1841680D1*
X2688002Y1836511D1*
X2677174Y1832993D1*
X2665929Y1831212D1*
X2654544D1*
X2643299Y1832993D1*
X2634746Y1835672D1*
X2634760Y1726657D1*
X2497524D1*
Y1786620D1*
X2493344Y1780188D1*
X2485950Y1771530D1*
X2477292Y1764136D1*
X2467585Y1758188D1*
X2457066Y1753831D1*
X2445996Y1751173D1*
X2434646Y1750279D1*
X2414961Y1750280D1*
X2403611Y1751173D1*
X2392540Y1753831D1*
X2382021Y1758188D1*
X2372314Y1764136D1*
X2363656Y1771530D1*
X2356262Y1780188D1*
X2350314Y1789895D1*
X2345957Y1800414D1*
X2343299Y1811485D1*
X2342406Y1822835D1*
X2343299Y1834185D1*
X2345957Y1845255D1*
X2350314Y1855774D1*
X2356262Y1865481D1*
X2363656Y1874139D1*
X2370619Y1880197D1*
X2350000Y1880201D1*
X2338650Y1881094D1*
X2327579Y1883752D1*
X2317061Y1888109D1*
X2307353Y1894058D1*
X2298696Y1901452D1*
X2291302Y1910109D1*
X2285353Y1919817D1*
X2282005Y1927600D1*
X2281853Y1653656D1*
X2280652Y1646072D1*
X2278279Y1638769D1*
X2274785Y1631915D1*
X2272330Y1621475D1*
X2269155Y1613810D1*
X2264821Y1606736D1*
X2259433Y1600428D1*
X2253124Y1595040D1*
X2246050Y1590705D1*
X2238386Y1587530D1*
X2230319Y1585593D1*
X2222048Y1584942D1*
X2213777Y1585593D1*
X2205710Y1587530D1*
X2198045Y1590705D1*
X2190577Y1595351D1*
X2183058Y1590705D1*
X2175394Y1587530D1*
X2167326Y1585593D1*
X2159056Y1584942D1*
X2150785Y1585593D1*
X2142718Y1587530D1*
X2135053Y1590705D1*
X2127980Y1595040D1*
X2121671Y1600428D1*
X2116283Y1606736D1*
X2111948Y1613810D1*
X2108773Y1621475D1*
X2106837Y1629542D1*
X2106186Y1637829D1*
X2106349Y1681331D1*
X2107646Y1689525D1*
X2110210Y1697415D1*
X2113977Y1704807D1*
X2118853Y1711519D1*
X2124719Y1717385D1*
X2131431Y1722262D1*
X2138823Y1726028D1*
X2146713Y1728592D1*
X2154908Y1729890D1*
X2163204D1*
X2171398Y1728592D1*
X2179288Y1726028D1*
X2184148Y1723680D1*
X2184138Y1956015D1*
X2048449Y1956004D1*
X2048316Y1947063D1*
X2046535Y1935818D1*
X2043016Y1924990D1*
X2037848Y1914846D1*
X2031156Y1905635D1*
X2023105Y1897585D1*
X2020326Y1895394D1*
X2046637Y1895166D1*
X2057883Y1893385D1*
X2068711Y1889867D1*
X2078855Y1884698D1*
X2088066Y1878006D1*
X2096116Y1869955D1*
X2102808Y1860745D1*
X2107977Y1850600D1*
X2111495Y1839772D1*
X2113276Y1828527D1*
Y1817142D1*
X2111495Y1805897D1*
X2107977Y1795069D1*
X2102808Y1784925D1*
X2096116Y1775714D1*
X2088066Y1767663D1*
X2078855Y1760971D1*
X2068711Y1755802D1*
X2057883Y1752284D1*
X2046637Y1750503D1*
X2022572Y1750279D1*
X2015567Y1750503D1*
X2004322Y1752284D1*
X1993494Y1755802D1*
X1983350Y1760971D1*
X1974139Y1767663D1*
X1966088Y1775714D1*
X1962851Y1779821D1*
X1842100Y1779807D1*
X1836979Y1772954D1*
X1829802Y1765777D1*
X1821591Y1759811D1*
X1812548Y1755203D1*
X1802895Y1752067D1*
X1792870Y1750479D1*
X1782720D1*
X1772696Y1752067D1*
X1763043Y1755203D1*
X1753999Y1759811D1*
X1745788Y1765777D1*
X1738611Y1772954D1*
X1732646Y1781165D1*
X1728038Y1790208D1*
X1724901Y1799861D1*
X1723314Y1809886D1*
X1723114Y1830709D1*
X1723911Y1840827D1*
X1726280Y1850696D1*
X1730164Y1860073D1*
X1735467Y1868727D1*
X1742059Y1876445D1*
X1749777Y1883037D1*
X1758431Y1888340D1*
X1767808Y1892224D1*
X1772600Y1893576D1*
X1768845Y1899098D1*
X1763676Y1909242D1*
X1760158Y1920070D1*
X1758377Y1931315D1*
Y1942700D1*
X1760158Y1953946D1*
X1760744Y1956023D1*
X1570184Y1956004D1*
X1570193Y1892947D1*
X1577677Y1894593D1*
X1587795Y1895390D1*
X1597914Y1894593D1*
X1607783Y1892224D1*
X1617160Y1888340D1*
X1625814Y1883037D1*
X1633532Y1876445D1*
X1640123Y1868727D1*
X1645427Y1860073D1*
X1649311Y1850696D1*
X1651680Y1840827D1*
X1652477Y1830709D1*
X1652277Y1809886D1*
X1650689Y1799861D1*
X1647553Y1790208D1*
X1642945Y1781165D1*
X1636979Y1772954D1*
X1629802Y1765777D1*
X1621591Y1759811D1*
X1612548Y1755203D1*
X1602895Y1752067D1*
X1592870Y1750479D1*
X1582720D1*
X1572696Y1752067D1*
X1563043Y1755203D1*
X1562304Y1755544D1*
X1562319Y1746342D1*
X1459941D1*
X1459957Y1663104D1*
X1740437Y1663106D1*
Y1674917D1*
X1877673D1*
Y1545555D1*
X1850724D1*
X1852277Y1535783D1*
X1852477Y1514960D1*
X1852277Y1509886D1*
X1850689Y1499861D1*
X1847553Y1490208D1*
X1842945Y1481165D1*
X1836979Y1472954D1*
X1829802Y1465777D1*
X1821591Y1459811D1*
X1812548Y1455203D1*
X1809514Y1454084D1*
X1853585Y1409834D1*
X1857560Y1404360D1*
X1866120Y1397137D1*
X1873515Y1389742D1*
X1879663Y1381281D1*
X1884411Y1371962D1*
X1887643Y1362016D1*
X1889279Y1351686D1*
Y1341227D1*
X1887643Y1330898D1*
X1884411Y1320951D1*
X1879663Y1311632D1*
X1873515Y1303171D1*
X1866120Y1295776D1*
X1857659Y1289629D1*
X1848340Y1284880D1*
X1838394Y1281649D1*
X1828064Y1280013D1*
X1818898Y1279807D1*
X1808471Y1280628D1*
X1798302Y1283069D1*
X1788639Y1287071D1*
X1779722Y1292536D1*
X1771769Y1299328D1*
X1770895Y1300274D1*
X1766120Y1295776D1*
X1757659Y1289629D1*
X1748340Y1284880D1*
X1738394Y1281649D1*
X1728064Y1280013D1*
X1718898Y1279807D1*
X1708471Y1280628D1*
X1698302Y1283069D1*
X1688639Y1287071D1*
X1679722Y1292536D1*
X1671769Y1299328D1*
X1670895Y1300274D1*
X1666120Y1295776D1*
X1657659Y1289629D1*
X1648340Y1284880D1*
X1638394Y1281649D1*
X1628064Y1280013D1*
X1618898Y1279807D1*
X1608471Y1280628D1*
X1598302Y1283069D1*
X1588639Y1287071D1*
X1579722Y1292536D1*
X1571769Y1299328D1*
X1564977Y1307281D1*
X1559512Y1316198D1*
X1555510Y1325861D1*
X1553069Y1336030D1*
X1552248Y1346457D1*
X1553069Y1356883D1*
X1555510Y1367053D1*
X1559512Y1376715D1*
X1562671Y1382182D1*
X1432533Y1382169D1*
X1426895Y1375861D1*
X1424525Y1373671D1*
X1424373Y1256397D1*
X1423172Y1248813D1*
X1420799Y1241510D1*
X1417313Y1234669D1*
X1412800Y1228457D1*
X1390704Y1206148D1*
X1300677Y1116334D1*
X1294465Y1111821D1*
X1287624Y1108335D1*
X1280321Y1105962D1*
X1272737Y1104761D1*
X1241339Y1104610D1*
X1115780D1*
X1123996Y1102469D1*
X1134514Y1098112D1*
X1144222Y1092163D1*
X1149071Y1088288D1*
X1312107Y1088303D1*
X1316892Y1095796D1*
X1324286Y1104454D1*
X1332944Y1111848D1*
X1342651Y1117797D1*
X1353170Y1122154D1*
X1364240Y1124811D1*
X1375591Y1125705D1*
X1386941Y1124811D1*
X1398011Y1122154D1*
X1408530Y1117797D1*
X1418237Y1111848D1*
X1426895Y1104454D1*
X1434289Y1095796D1*
X1440238Y1086089D1*
X1444595Y1075570D1*
X1447252Y1064500D1*
X1448146Y1053150D1*
X1447922Y1027772D1*
X1446141Y1016527D1*
X1442623Y1005699D1*
X1437454Y995555D1*
X1430762Y986344D1*
X1422711Y978293D1*
X1413500Y971601D1*
X1403356Y966432D1*
X1392528Y962914D1*
X1381283Y961133D1*
X1369898D1*
X1358653Y962914D1*
X1347825Y966432D1*
X1337681Y971601D1*
X1328470Y978293D1*
X1320419Y986344D1*
X1317182Y990451D1*
X1170307Y990437D1*
X1166222Y980840D1*
X1160273Y971133D1*
X1152879Y962475D1*
X1144222Y955081D1*
X1134514Y949132D1*
X1123996Y944776D1*
X1112925Y942118D1*
X1101575Y941224D1*
X1093031Y941785D1*
X1098155Y937131D1*
X1105549Y928474D1*
X1111497Y918766D1*
X1115854Y908248D1*
X1118512Y897177D1*
X1119406Y885827D1*
X1118512Y874477D1*
X1115854Y863406D1*
X1111497Y852887D1*
X1105549Y843180D1*
X1098155Y834523D1*
X1089497Y827128D1*
X1079790Y821180D1*
X1069271Y816823D1*
X1058201Y814165D1*
X1046851Y813271D1*
X1027165Y813272D1*
X1015815Y814165D1*
X1004745Y816823D1*
X994226Y821180D1*
X984519Y827128D1*
X975861Y834523D1*
X968467Y843180D1*
X962518Y852887D1*
X958161Y863406D1*
X955504Y874477D1*
X954610Y885827D1*
X955504Y897177D1*
X958161Y908248D1*
X962518Y918766D1*
X963269Y920106D1*
X963272Y1050212D1*
X957300Y1046300D1*
X949632Y1042006D1*
X941651Y1038327D1*
X933406Y1035285D1*
X924947Y1032900D1*
X916328Y1031185D1*
X907600Y1030152D1*
X898819Y1029807D1*
X890037Y1030152D1*
X881310Y1031185D1*
X872690Y1032900D1*
X864232Y1035285D1*
X855987Y1038327D1*
X848006Y1042006D1*
X840338Y1046300D1*
X833031Y1051183D1*
X826129Y1056624D1*
X819676Y1062589D1*
X813710Y1069043D1*
X808270Y1075944D1*
X803387Y1083252D1*
X799093Y1090919D1*
X795413Y1098900D1*
X792372Y1107145D1*
X789986Y1115604D1*
X788272Y1124223D1*
X787239Y1132951D1*
X786894Y1150918D1*
Y1181102D1*
X787239Y1189884D1*
X788272Y1198611D1*
X789913Y1206860D1*
X787852Y1213380D1*
X786651Y1220964D1*
X786500Y1252362D1*
Y1317205D1*
X770752Y1317209D1*
Y1454445D1*
X786505D1*
X786500Y1795588D1*
X695024Y1795555D1*
X694845Y1675688D1*
X693644Y1668104D1*
X691271Y1660802D1*
X687785Y1653960D1*
X683272Y1647748D1*
X672925Y1637187D1*
X4187025Y1438697D2*
X4307201D1*
Y1301460D1*
X4177839D1*
Y1327046D1*
X4124183Y1327184D1*
X4117514Y1328240D1*
X4111093Y1330326D1*
X4105077Y1333392D1*
X4099615Y1337360D1*
X4095941Y1340846D1*
X4064567Y1340831D1*
X4053217Y1341724D1*
X4042146Y1344382D1*
X4031628Y1348739D1*
X4021920Y1354688D1*
X4013263Y1362082D1*
X4005869Y1370739D1*
X3999920Y1380446D1*
X3995563Y1390965D1*
X3992905Y1402036D1*
X3992012Y1413386D1*
X3992905Y1424736D1*
X3995563Y1435807D1*
X3999920Y1446325D1*
X4005869Y1456033D1*
X4013263Y1464690D1*
X4021920Y1472084D1*
X4031628Y1478033D1*
X4042146Y1482390D1*
X4053217Y1485048D1*
X4064589Y1485940D1*
X4109630Y1485717D1*
X4120875Y1483936D1*
X4131703Y1480418D1*
X4141847Y1475249D1*
X4151058Y1468557D1*
X4159108Y1460507D1*
X4165800Y1451296D1*
X4170969Y1441151D1*
X4174487Y1430323D1*
X4176268Y1419078D1*
X4176481Y1413097D1*
X4177839Y1420883D1*
Y1438697D1*
X4187025D1*
X4232765Y1588303D2*
X4311925D1*
Y1451067D1*
X4182563D1*
Y1512106D1*
X4178699Y1516150D1*
X4174730Y1521613D1*
X4171660Y1527641D1*
X4151058Y1548214D1*
X4141847Y1541522D1*
X4131703Y1536354D1*
X4120875Y1532835D1*
X4109630Y1531054D1*
X4085564Y1530831D1*
X4064567D1*
X4053217Y1531724D1*
X4042146Y1534382D1*
X4031628Y1538739D1*
X4021920Y1544688D1*
X4013263Y1552082D1*
X4005869Y1560739D1*
X3999920Y1570446D1*
X3995563Y1580965D1*
X3992905Y1592036D1*
X3992012Y1603386D1*
X3992905Y1614736D1*
X3995563Y1625807D1*
X3999920Y1636325D1*
X4005869Y1646033D1*
X4013263Y1654690D1*
X4021920Y1662084D1*
X4031628Y1668033D1*
X4042146Y1672390D1*
X4053217Y1675048D1*
X4064589Y1675940D1*
X4109630Y1675717D1*
X4120875Y1673936D1*
X4131703Y1670418D1*
X4141847Y1665249D1*
X4151058Y1658557D1*
X4159108Y1650507D1*
X4162648Y1646014D1*
X4170147Y1644308D1*
X4176385Y1641724D1*
X4182141Y1638196D1*
X4187285Y1633801D1*
X4232771Y1588316D1*
X5304506Y542708D2*
X5303509Y534288D1*
X5301855Y525972D1*
X5299553Y517811D1*
X5296618Y509856D1*
X5293069Y502155D1*
X5288925Y494757D1*
X5284215Y487707D1*
X5278965Y481048D1*
X5273210Y474822D1*
X5266983Y469066D1*
X5260324Y463817D1*
X5253274Y459106D1*
X5245876Y454963D1*
X5238176Y451413D1*
X5230221Y448478D1*
X5222060Y446177D1*
X5213743Y444522D1*
X5205323Y443526D1*
X5196850Y443193D1*
X5188378Y443526D1*
X5179957Y444522D1*
X5171641Y446177D1*
X5163480Y448478D1*
X5155525Y451413D1*
X5147825Y454963D1*
X5140427Y459106D1*
X5133377Y463817D1*
X5126718Y469066D1*
X5120491Y474822D1*
X5114736Y481048D1*
X5109486Y487707D1*
X5104775Y494757D1*
X5100632Y502155D1*
X5097082Y509856D1*
X5094148Y517811D1*
X5091846Y525972D1*
X5090192Y534288D1*
X5089195Y542708D1*
X5088862Y551181D1*
X5089195Y559654D1*
X5090192Y568074D1*
X5091846Y576390D1*
X5094148Y584551D1*
X5097082Y592506D1*
X5100632Y600207D1*
X5104775Y607605D1*
X5109486Y614655D1*
X5114736Y621314D1*
X5120491Y627540D1*
X5126718Y633296D1*
X5133377Y638545D1*
X5140427Y643256D1*
X5147825Y647399D1*
X5155525Y650949D1*
X5163480Y653884D1*
X5171641Y656186D1*
X5179957Y657840D1*
X5188378Y658836D1*
X5196850Y659169D1*
X5205323Y658836D1*
X5213743Y657840D1*
X5222060Y656186D1*
X5230221Y653884D1*
X5238176Y650949D1*
X5245876Y647399D1*
X5253274Y643256D1*
X5260324Y638545D1*
X5266983Y633296D1*
X5273210Y627540D1*
X5278965Y621314D1*
X5284215Y614655D1*
X5288925Y607605D1*
X5293069Y600207D1*
X5296618Y592506D1*
X5299553Y584551D1*
X5301855Y576390D1*
X5303509Y568074D1*
X5304506Y559654D1*
X5304839Y551181D1*
X5304506Y542708D1*
X3252694Y1599962D2*
X3247113Y1596770D1*
X3236594Y1592413D1*
X3225523Y1589755D1*
X3214173Y1588862D1*
X3202823Y1589755D1*
X3191752Y1592413D1*
X3181234Y1596770D1*
X3180049Y1597434D1*
X3180035Y1487887D1*
X3264429Y1487909D1*
X3271168Y1494617D1*
X3271146Y1503003D1*
X3262869Y1510113D1*
X3255475Y1518770D1*
X3249526Y1528478D1*
X3245169Y1538997D1*
X3242511Y1550067D1*
X3241618Y1561417D1*
X3242511Y1572767D1*
X3245169Y1583838D1*
X3249526Y1594357D1*
X3252718Y1599938D1*
X1909344Y1442080D2*
X1903113Y1449479D1*
X1897164Y1459187D1*
X1892807Y1469705D1*
X1890149Y1480776D1*
X1889256Y1492126D1*
X1890149Y1503476D1*
X1892807Y1514547D1*
X1897164Y1525065D1*
X1903113Y1534773D1*
X1910507Y1543430D1*
X1919164Y1550824D1*
X1928872Y1556773D1*
X1939390Y1561130D1*
X1950461Y1563788D1*
X1961833Y1564680D1*
X1987189Y1564457D1*
X1998434Y1562676D1*
X2009262Y1559158D1*
X2019406Y1553989D1*
X2028617Y1547297D1*
X2036667Y1539247D1*
X2043359Y1530036D1*
X2048528Y1519892D1*
X2052046Y1509064D1*
X2053828Y1497819D1*
Y1486433D1*
X2052046Y1475188D1*
X2048528Y1464360D1*
X2043359Y1454216D1*
X2036667Y1445005D1*
X2035565Y1443812D1*
X2041769Y1436348D1*
X2047718Y1426640D1*
X2052075Y1416122D1*
X2054733Y1405051D1*
X2055626Y1393701D1*
X2054733Y1382351D1*
X2052075Y1371280D1*
X2047718Y1360761D1*
X2041769Y1351054D1*
X2034375Y1342397D1*
X2025718Y1335002D1*
X2016010Y1329054D1*
X2005492Y1324697D1*
X1994421Y1322039D1*
X1983071Y1321146D1*
X1963386D1*
X1952036Y1322039D1*
X1940965Y1324697D1*
X1930446Y1329054D1*
X1920739Y1335002D1*
X1912082Y1342397D1*
X1904688Y1351054D1*
X1898739Y1360761D1*
X1894382Y1371280D1*
X1891724Y1382351D1*
X1890831Y1393701D1*
X1891724Y1405051D1*
X1894382Y1416122D1*
X1898739Y1426640D1*
X1904688Y1436348D1*
X1909317Y1442015D1*
X2355534Y1419572D2*
X2344162Y1420464D1*
X2333091Y1423122D1*
X2322572Y1427479D1*
X2312865Y1433428D1*
X2304208Y1440822D1*
X2296813Y1449479D1*
X2290865Y1459187D1*
X2286508Y1469705D1*
X2283850Y1480776D1*
X2282957Y1492126D1*
X2283850Y1503476D1*
X2286508Y1514547D1*
X2290865Y1525065D1*
X2296813Y1534773D1*
X2304208Y1543430D1*
X2312865Y1550824D1*
X2322572Y1556773D1*
X2333091Y1561130D1*
X2344162Y1563788D1*
X2355512Y1564681D1*
X2375197D1*
X2386547Y1563788D1*
X2397618Y1561130D1*
X2408136Y1556773D1*
X2417844Y1550824D1*
X2426501Y1543430D1*
X2433895Y1534773D1*
X2439844Y1525065D1*
X2444201Y1514547D1*
X2446859Y1503476D1*
X2447752Y1492126D1*
X2446859Y1480776D1*
X2444201Y1469705D1*
X2439844Y1459187D1*
X2433895Y1449479D1*
X2426501Y1440822D1*
X2417844Y1433428D1*
X2408136Y1427479D1*
X2397618Y1423122D1*
X2386547Y1420464D1*
X2375197Y1419571D1*
X2355512Y1419607D1*
X2293587Y811004D2*
X2294383Y821142D1*
X2296752Y831011D1*
X2300636Y840388D1*
X2305940Y849042D1*
X2312531Y856760D1*
X2320249Y863352D1*
X2328903Y868655D1*
X2338280Y872539D1*
X2348149Y874908D1*
X2358268Y875705D1*
X2368386Y874908D1*
X2378255Y872539D1*
X2387632Y868655D1*
X2396286Y863352D1*
X2404004Y856760D1*
X2410596Y849042D1*
X2415899Y840388D1*
X2419783Y831011D1*
X2422152Y821142D1*
X2422949Y811023D1*
X2422749Y790201D1*
X2421162Y780176D1*
X2418025Y770523D1*
X2413417Y761480D1*
X2407452Y753269D1*
X2400275Y746092D1*
X2392063Y740126D1*
X2383020Y735518D1*
X2373367Y732382D1*
X2363343Y730794D1*
X2353193D1*
X2343168Y732382D1*
X2333515Y735518D1*
X2324472Y740126D1*
X2316261Y746092D1*
X2309084Y753269D1*
X2303118Y761480D1*
X2298510Y770523D1*
X2295374Y780176D1*
X2293786Y790201D1*
X2293587Y810844D1*
X4857498Y1440665D2*
X4984994D1*
X5083348Y1538992D1*
X5083350Y1583465D1*
X5083635Y1590702D1*
X5084486Y1597894D1*
X5085899Y1604998D1*
X5087865Y1611968D1*
X5090372Y1618763D1*
X5093404Y1625341D1*
X5097273Y1632154D1*
X4900622Y1632169D1*
X4685958Y1417487D1*
X4688470Y1406591D1*
X4689230Y1400166D1*
X4689484Y1393701D1*
X4689230Y1387236D1*
X4688470Y1380811D1*
X4685925Y1369917D1*
X4848306Y1207567D1*
X4848311Y1440665D1*
X4857498D1*
X4751994Y724690D2*
X4745504Y724943D1*
X4739079Y725703D1*
X4732733Y726966D1*
X4726506Y728722D1*
X4720436Y730961D1*
X4714561Y733670D1*
X4708916Y736831D1*
X4703536Y740426D1*
X4698456Y744431D1*
X4693705Y748823D1*
X4689313Y753574D1*
X4685307Y758654D1*
X4681713Y764034D1*
X4678552Y769679D1*
X4675843Y775554D1*
X4673604Y781624D1*
X4671848Y787851D1*
X4670585Y794197D1*
X4669825Y800622D1*
X4669571Y807087D1*
X4669825Y813551D1*
X4670585Y819976D1*
X4671848Y826322D1*
X4673604Y832549D1*
X4675843Y838619D1*
X4678552Y844494D1*
X4681713Y850139D1*
X4685307Y855519D1*
X4689313Y860600D1*
X4693705Y865351D1*
X4698456Y869742D1*
X4703536Y873748D1*
X4708916Y877342D1*
X4714561Y880503D1*
X4720436Y883212D1*
X4726506Y885451D1*
X4732733Y887208D1*
X4739079Y888470D1*
X4745504Y889230D1*
X4761155Y889484D1*
X4797803Y889230D1*
X4804228Y888470D1*
X4810574Y887208D1*
X4816801Y885451D1*
X4822871Y883212D1*
X4828746Y880503D1*
X4834391Y877342D1*
X4839771Y873748D1*
X4844852Y869742D1*
X4849603Y865351D1*
X4853994Y860600D1*
X4858000Y855519D1*
X4861594Y850139D1*
X4864755Y844494D1*
X4867464Y838619D1*
X4869703Y832549D1*
X4871460Y826322D1*
X4872722Y819976D1*
X4873482Y813551D1*
X4873736Y807087D1*
X4873482Y800622D1*
X4872722Y794197D1*
X4871460Y787851D1*
X4869703Y781624D1*
X4867464Y775554D1*
X4864755Y769679D1*
X4861594Y764034D1*
X4858000Y758654D1*
X4853994Y753574D1*
X4849603Y748823D1*
X4844852Y744431D1*
X4839771Y740426D1*
X4834391Y736831D1*
X4828746Y733670D1*
X4822871Y730961D1*
X4816801Y728722D1*
X4810574Y726966D1*
X4804228Y725703D1*
X4797803Y724943D1*
X4782152Y724689D1*
X4751969Y724725D1*
D22*
X3853543Y795276D3*
D122*
Y895276D3*
Y995276D3*
Y1095276D3*
Y1195276D3*
Y1295276D3*
Y1395276D3*
Y1495276D3*
Y1595276D3*
Y1695276D3*
Y1795276D3*
Y1895276D3*
Y1995276D3*
Y2095276D3*
X3553543D3*
Y1995276D3*
Y1895276D3*
Y1795276D3*
Y1695276D3*
Y1595276D3*
Y1495276D3*
Y1395276D3*
Y1295276D3*
Y1195276D3*
Y1095276D3*
Y995276D3*
Y895276D3*
Y795276D3*
D23*
X608268Y1641732D3*
X718504D3*
D24*
X1809055Y1610236D3*
Y1720472D3*
D23*
X835433Y1385827D3*
X725197D3*
D24*
X3649606Y2496063D3*
Y2385827D3*
D23*
X3265354Y2405512D3*
X3375591D3*
X3425591Y1972441D3*
X3315354D3*
D24*
X1493701Y1811024D3*
Y1700787D3*
X2566142Y1791339D3*
Y1681102D3*
D23*
X3428740Y2137795D3*
X3318504D3*
X4352756Y1370079D3*
X4242520D3*
X4357480Y1519685D3*
X4247244D3*
D25*
X5175591Y1783465D3*
Y1583465D3*
X4975591D3*
Y1783465D3*
X2591732Y2200787D3*
Y2635827D3*
D26*
X3974409Y511811D3*
D27*
Y611811D3*
D28*
X3462992Y562992D3*
X3562992D3*
X3662992D3*
X3762992D3*
D25*
X4631102Y1917323D3*
Y2017323D3*
Y2117323D3*
Y2217323D3*
Y1817323D3*
D29*
X3414173Y1661417D3*
D30*
X3314173D3*
X3214173D3*
X3414173Y1561417D3*
X3314173D3*
X3214173D3*
D31*
X1713780Y846457D3*
Y539370D3*
D125*
X2096064Y1657497D3*
D32*
X2159056D3*
X2222048D3*
D125*
X1242914Y570891D3*
D32*
X1305906D3*
X1368898D3*
D34*
X1308661Y1551181D3*
Y1944882D3*
D35*
X2424803Y1822835D3*
X2031102D3*
D34*
X1209843Y1283465D3*
Y1677165D3*
D35*
X4486220Y704724D3*
X4092520D3*
X1037008Y885827D3*
X643307D3*
D34*
X1101575Y1417323D3*
Y1023622D3*
D35*
X1971654Y1492126D3*
X2365354D3*
X2366929Y1393701D3*
X1973228D3*
D34*
X1375591Y1043307D3*
Y1437008D3*
D35*
X652362Y736220D3*
X1046063D3*
X2971654Y870079D3*
X2577953D3*
X1152756Y519685D3*
X759055D3*
X3268504Y2287402D3*
X3662205D3*
X3788189Y2610236D3*
X3394488D3*
X3787795Y2503937D3*
X3394094D3*
X3517323Y2409449D3*
X3123622D3*
X3035433Y1094488D3*
X3429134D3*
X2816535Y2641732D3*
X3210236D3*
X3211417Y2535433D3*
X2817717D3*
D34*
X2997638Y2425197D3*
Y2031496D3*
D35*
X3430709Y1196850D3*
X3037008D3*
D34*
X3290157Y531496D3*
Y925197D3*
X4122441Y1814961D3*
Y2208661D3*
X4227953Y1814961D3*
Y2208661D3*
X4334252Y1814961D3*
Y2208661D3*
X4440551Y1814961D3*
Y2208661D3*
D35*
X1446850Y1937008D3*
X1840551D3*
D34*
X1132283Y2559055D3*
Y2165354D3*
D35*
X1115748Y2055118D3*
X1509449D3*
X1613386Y2059055D3*
X2007087D3*
D34*
X2737402Y1952756D3*
Y2346457D3*
D35*
X2131890Y2074803D3*
X2525591D3*
X1966142Y1952756D3*
X2359843D3*
D34*
X2543701Y1913386D3*
Y1519685D3*
X2660236D3*
Y1913386D3*
X2845276Y1948819D3*
Y2342520D3*
D35*
X719685Y625984D3*
X1113386D3*
D36*
X1182677Y870079D3*
D37*
X1281102D3*
X1379528D3*
D35*
X2398031Y960630D3*
X2004331D3*
X2593307Y712598D3*
X2987008D3*
X2009449Y1165354D3*
X2403150D3*
X2006693Y1066929D3*
X2400394D3*
D38*
X4785039Y2996063D3*
Y2720474D3*
D34*
X3168504Y921260D3*
Y527559D3*
D39*
X661024Y1881890D3*
X771260D3*
D40*
X2401969Y2279528D3*
Y2574803D3*
X1614567Y2279528D3*
X1417717Y2285787D3*
X1614567Y2574803D3*
X1417717D3*
D41*
X1367717Y2854331D3*
Y3055118D3*
D42*
X898819Y1161417D3*
Y2460630D3*
X498819Y1811024D3*
D43*
X1820866Y1346457D3*
X1720866D3*
X1620866D3*
X1520866D3*
Y1046457D3*
X1620866D3*
X1720866D3*
X1820866D3*
D44*
X1787795Y1822835D3*
X1687795D3*
X1587795D3*
Y1522835D3*
X1687795D3*
X1787795D3*
D41*
X2483465Y2854331D3*
Y3055118D3*
X2132677Y2854331D3*
Y3055118D3*
D128*
X2358268Y803150D3*
X2258268D3*
X2158268D3*
Y503150D3*
X2258268D3*
X2358268D3*
D41*
X4981890Y1307087D3*
X5182677D3*
X4014567Y3059055D3*
X4215354D3*
D45*
X5195669Y1015748D3*
D46*
Y915748D3*
Y815748D3*
D47*
X4919291Y598425D3*
D48*
X4819291D3*
X4719291D3*
D49*
X4199606Y980315D3*
X4396457D3*
D50*
X4771654Y807087D3*
Y1003937D3*
D41*
X4217727Y2618110D3*
X4016940D3*
D50*
X4587402Y1393701D3*
Y1196850D3*
D41*
X4983071Y2051181D3*
X5183858D3*
D51*
X2858661Y1070866D3*
Y1170866D3*
Y1270866D3*
Y1370866D3*
X2558661D3*
Y1270866D3*
Y1170866D3*
Y1070866D3*
D38*
X3699213Y3019685D3*
Y2744096D3*
D41*
X2991339Y3057491D3*
Y2856703D3*
X3375984Y3057491D3*
Y2856703D3*
D28*
X4467323Y551181D3*
X4367323D3*
X4267323D3*
D41*
X1065354Y2854331D3*
Y3055118D3*
X738189Y2854331D3*
Y3055118D3*
X1691732Y3057491D3*
Y2856703D3*
D28*
X2685827Y543307D3*
X2785827D3*
X2885827D3*
X2985827D3*
D25*
X4084252Y1413386D3*
Y1603386D3*
M02*
