G04 DipTrace 3.3.1.0*
G04 Bottom.gbr*
%MOIN*%
G04 #@! TF.FileFunction,Copper,L2,Bot*
G04 #@! TF.Part,Single*
%AMOUTLINE0*
4,1,20,
0.029528,0.0,
0.028082,-0.012166,
0.023888,-0.023141,
0.017356,-0.031851,
0.009125,-0.037443,
0.0,-0.03937,
-0.009125,-0.037443,
-0.017356,-0.031851,
-0.023888,-0.023141,
-0.028082,-0.012166,
-0.029528,0.0,
-0.028082,0.012166,
-0.023888,0.023141,
-0.017356,0.031851,
-0.009125,0.037443,
0.0,0.03937,
0.009125,0.037443,
0.017356,0.031851,
0.023888,0.023141,
0.028082,0.012166,
0.029528,0.0,
0*%
G04 #@! TA.AperFunction,Conductor*
%ADD14C,0.031496*%
%ADD15C,0.03937*%
G04 #@! TA.AperFunction,CopperBalancing*
%ADD16C,0.025*%
G04 #@! TA.AperFunction,ComponentPad*
%ADD17R,0.059055X0.059055*%
%ADD18O,0.059055X0.086614*%
%ADD19O,0.23622X0.137795*%
%ADD31OUTLINE0*%
%FSLAX26Y26*%
G04*
G70*
G90*
G75*
G01*
G04 Bottom*
%LPD*%
X781201Y1081201D2*
D14*
Y1043701D1*
X834252Y990650D1*
Y937402D1*
X881201Y1081201D2*
Y1043701D1*
X934252Y990650D1*
Y937402D1*
X981201Y1081201D2*
Y1049950D1*
X1034252Y996900D1*
Y937402D1*
X1081201Y1081201D2*
Y1049950D1*
X1134252Y996900D1*
Y937402D1*
X1181201Y1081201D2*
D15*
X1218701D1*
X1244094Y1055807D1*
Y681594D1*
X1199902Y637402D1*
X1134252D1*
X1034252D1*
X934252D2*
X1034252D1*
X834252D2*
X934252D1*
X763050Y1131923D2*
D16*
X796014D1*
X763050Y1107054D2*
X796014D1*
X763050Y1082185D2*
X796014D1*
X763050Y1057316D2*
X796014D1*
X760531Y1082642D2*
Y1055801D1*
X798521Y1055807D1*
X798524Y1156808D1*
X760534Y1156791D1*
X760531Y1082673D1*
X865412Y1131923D2*
X898377D1*
X865412Y1107054D2*
X898377D1*
X865412Y1082185D2*
X898377D1*
X865412Y1057316D2*
X898377D1*
X862894Y1082642D2*
Y1051853D1*
X900883Y1051870D1*
X900886Y1156819D1*
X862896Y1156791D1*
X862894Y1082673D1*
X963837Y1131923D2*
X996802D1*
X963837Y1107054D2*
X996802D1*
X963837Y1082185D2*
X996802D1*
X963837Y1057316D2*
X996802D1*
X961319Y1082642D2*
Y1051853D1*
X999308Y1051870D1*
X999311Y1156819D1*
X961322Y1156791D1*
X961319Y1082673D1*
X1062262Y1131923D2*
X1099175D1*
X1062262Y1107054D2*
X1099175D1*
X1062262Y1082185D2*
X1099175D1*
X1062262Y1057316D2*
X1099175D1*
X1059744Y1082642D2*
Y1055801D1*
X1101680Y1055807D1*
X1101673Y1156808D1*
X1059738Y1156791D1*
X1059744Y1082673D1*
X1164625Y1131923D2*
X1193678D1*
X1164625Y1107054D2*
X1193678D1*
X1164625Y1082185D2*
X1193678D1*
X1164625Y1057316D2*
X1193678D1*
X1162106Y1082642D2*
Y1051853D1*
X1196148Y1051870D1*
X1196161Y1156819D1*
X1162119Y1156791D1*
X1162106Y1082673D1*
D31*
X781201Y1081201D3*
X881201D3*
X981201D3*
X1081201D3*
X1181201D3*
D17*
X834252Y637402D3*
D18*
X934252D3*
X1034252D3*
X1134252D3*
Y937402D3*
X1034252D3*
X934252D3*
X834252D3*
D19*
X551181Y1082677D3*
X1417323D3*
X551181Y492126D3*
X1417323D3*
M02*
