G04 DipTrace 3.3.1.0*
G04 Bottom.gbr*
%MOMM*%
G04 #@! TF.FileFunction,Copper,L2,Bot*
G04 #@! TF.Part,Single*
%AMOUTLINE0*
4,1,20,
0.75,0.0,
0.71329,-0.30902,
0.60676,-0.58779,
0.44084,-0.80902,
0.23176,-0.95106,
0.0,-1.0,
-0.23176,-0.95106,
-0.44084,-0.80902,
-0.60676,-0.58779,
-0.71329,-0.30902,
-0.75,0.0,
-0.71329,0.30902,
-0.60676,0.58779,
-0.44084,0.80902,
-0.23176,0.95106,
0.0,1.0,
0.23176,0.95106,
0.44084,0.80902,
0.60676,0.58779,
0.71329,0.30902,
0.75,0.0,
0*%
G04 #@! TA.AperFunction,Conductor*
%ADD14C,0.8*%
%ADD15C,1.0*%
G04 #@! TA.AperFunction,CopperBalancing*
%ADD16C,0.635*%
G04 #@! TA.AperFunction,ComponentPad*
%ADD17R,1.5X1.5*%
%ADD18O,1.5X2.2*%
%ADD19O,6.0X3.5*%
%ADD32OUTLINE0*%
%FSLAX35Y35*%
G04*
G71*
G90*
G75*
G01*
G04 Bottom*
%LPD*%
X1984250Y2746250D2*
D14*
Y2651000D1*
X2119000Y2516250D1*
Y2381000D1*
X2238250Y2746250D2*
Y2651000D1*
X2373000Y2516250D1*
Y2381000D1*
X2492250Y2746250D2*
Y2666877D1*
X2627000Y2532127D1*
Y2381000D1*
X2746250Y2746250D2*
Y2666877D1*
X2881000Y2532127D1*
Y2381000D1*
X3000250Y2746250D2*
D15*
X3095500D1*
X3160000Y2681750D1*
Y1731250D1*
X3047750Y1619000D1*
X2881000D1*
X2627000D1*
X2373000D2*
X2627000D1*
X2119000D2*
X2373000D1*
X1938147Y2875083D2*
D16*
X2021877D1*
X1938147Y2811917D2*
X2021877D1*
X1938147Y2748750D2*
X2021877D1*
X1938147Y2685583D2*
X2021877D1*
X1931750Y2749910D2*
Y2681733D1*
X2028243Y2681750D1*
X2028250Y2938293D1*
X1931757Y2938250D1*
X1931750Y2749990D1*
X2198147Y2875083D2*
X2281877D1*
X2198147Y2811917D2*
X2281877D1*
X2198147Y2748750D2*
X2281877D1*
X2198147Y2685583D2*
X2281877D1*
X2191750Y2749910D2*
Y2671707D1*
X2288243Y2671750D1*
X2288250Y2938320D1*
X2191757Y2938250D1*
X2191750Y2749990D1*
X2448147Y2875083D2*
X2531877D1*
X2448147Y2811917D2*
X2531877D1*
X2448147Y2748750D2*
X2531877D1*
X2448147Y2685583D2*
X2531877D1*
X2441750Y2749910D2*
Y2671707D1*
X2538243Y2671750D1*
X2538250Y2938320D1*
X2441757Y2938250D1*
X2441750Y2749990D1*
X2698147Y2875083D2*
X2791903D1*
X2698147Y2811917D2*
X2791903D1*
X2698147Y2748750D2*
X2791903D1*
X2698147Y2685583D2*
X2791903D1*
X2691750Y2749910D2*
Y2681733D1*
X2798267Y2681750D1*
X2798250Y2938293D1*
X2691733Y2938250D1*
X2691750Y2749990D1*
X2958147Y2875083D2*
X3031943D1*
X2958147Y2811917D2*
X3031943D1*
X2958147Y2748750D2*
X3031943D1*
X2958147Y2685583D2*
X3031943D1*
X2951750Y2749910D2*
Y2671707D1*
X3038217Y2671750D1*
X3038250Y2938320D1*
X2951783Y2938250D1*
X2951750Y2749990D1*
D32*
X1984250Y2746250D3*
X2238250D3*
X2492250D3*
X2746250D3*
X3000250D3*
D17*
X2119000Y1619000D3*
D18*
X2373000D3*
X2627000D3*
X2881000D3*
Y2381000D3*
X2627000D3*
X2373000D3*
X2119000D3*
D19*
X1400000Y2750000D3*
X3600000D3*
X1400000Y1250000D3*
X3600000D3*
M02*
