M48
<<<<<<< HEAD
METRIC,0000.00
T01C0.9
T02C1.0
T03C3.1
%
T02
X+001984Y+002746
X+002238Y+002746
X+002492Y+002746
X+002746Y+002746
X+003000Y+002746
T01
X+002119Y+001619
X+002373Y+001619
X+002627Y+001619
X+002881Y+001619
X+002881Y+002381
X+002627Y+002381
X+002373Y+002381
X+002119Y+002381
T03
X+001520Y+002750G85X+001280Y+002750
X+003720Y+002750G85X+003480Y+002750
X+001520Y+001250G85X+001280Y+001250
X+003720Y+001250G85X+003480Y+001250
=======
INCH
T01C0.0354
T02C0.0394
T03C0.122
%
T01
X+008343Y+006374
X+009343Y+006374
X+010343Y+006374
X+011343Y+006374
X+011343Y+009374
X+010343Y+009374
X+009343Y+009374
X+008343Y+009374
T02
X+007812Y+010812
X+008812Y+010812
X+009812Y+010812
X+010812Y+010812
X+011812Y+010812
T03
X+005984Y+010827G85X+005039Y+010827
X+005984Y+004921G85X+005039Y+004921
X+014646Y+004921G85X+013701Y+004921
X+014646Y+010827G85X+013701Y+010827
>>>>>>> f35ef66ea1ee84e665d29624839c91003037601e
T00
M30
