G04 DipTrace 3.3.1.0*
G04 TopDimension.gbr*
%MOIN*%
G04 #@! TF.FileFunction,Drawing,Top*
G04 #@! TF.Part,Single*
%ADD13C,0.0025*%
%ADD120C,0.012351*%
%ADD121C,0.006176*%
%FSLAX26Y26*%
G04*
G70*
G90*
G75*
G01*
G04 TopDimension*
%LPD*%
X393701Y3228346D2*
D13*
Y3763780D1*
X5393701Y3228346D2*
Y3763780D1*
X2893701Y3744094D2*
X433071D1*
G36*
X393701D2*
X433071Y3751969D1*
Y3736220D1*
X393701Y3744094D1*
G37*
X2893701D2*
D13*
X5354331D1*
G36*
X5393701D2*
X5354331Y3736220D1*
Y3751969D1*
X5393701Y3744094D1*
G37*
X511811Y3110236D2*
D13*
Y3559055D1*
X5196850Y3070866D2*
Y3559055D1*
X2854331Y3539370D2*
X551181D1*
G36*
X511811D2*
X551181Y3547244D1*
Y3531496D1*
X511811Y3539370D1*
G37*
X2854331D2*
D13*
X5157480D1*
G36*
X5196850D2*
X5157480Y3531496D1*
Y3547244D1*
X5196850Y3539370D1*
G37*
Y3070866D2*
D13*
X5817717D1*
X5196850Y551181D2*
X5817717D1*
X5798031Y1811024D2*
Y3031496D1*
G36*
Y3070866D2*
X5805906Y3031496D1*
X5790157D1*
X5798031Y3070866D1*
G37*
Y1811024D2*
D13*
Y590551D1*
G36*
Y551181D2*
X5790157Y590551D1*
X5805906D1*
X5798031Y551181D1*
G37*
X5393701Y3228346D2*
D13*
X6040157D1*
X5393701Y393701D2*
X6040157D1*
X6020472Y1811024D2*
Y3188976D1*
G36*
Y3228346D2*
X6028346Y3188976D1*
X6012598D1*
X6020472Y3228346D1*
G37*
Y1811024D2*
D13*
Y433071D1*
G36*
Y393701D2*
X6012598Y433071D1*
X6028346D1*
X6020472Y393701D1*
G37*
X1153937Y1972441D2*
D13*
X-2756D1*
X1153937Y1814961D2*
X-2756D1*
X16929Y1893701D2*
Y1933071D1*
G36*
Y1972441D2*
X24803Y1933071D1*
X9055D1*
X16929Y1972441D1*
G37*
Y1893701D2*
D13*
Y1854331D1*
G36*
Y1814961D2*
X9055Y1854331D1*
X24803D1*
X16929Y1814961D1*
G37*
Y2364920D2*
D13*
Y1972441D1*
X4893307Y2791339D2*
X5062598D1*
X4898425Y2472441D2*
X5062598D1*
X5042913Y2631890D2*
Y2751969D1*
G36*
Y2791339D2*
X5050787Y2751969D1*
X5035039D1*
X5042913Y2791339D1*
G37*
Y2631890D2*
D13*
Y2511811D1*
G36*
Y2472441D2*
X5035039Y2511811D1*
X5050787D1*
X5042913Y2472441D1*
G37*
X4785039Y3173228D2*
D13*
X5049606D1*
X4798031Y2854331D2*
X5049606D1*
X5029921Y3013780D2*
Y3133858D1*
G36*
Y3173228D2*
X5037795Y3133858D1*
X5022047D1*
X5029921Y3173228D1*
G37*
Y3013780D2*
D13*
Y2893701D1*
G36*
Y2854331D2*
X5022047Y2893701D1*
X5037795D1*
X5029921Y2854331D1*
G37*
X1555118Y3153543D2*
D13*
Y3334646D1*
X1863386Y3141732D2*
Y3334646D1*
X1709252Y3314961D2*
X1594488D1*
G36*
X1555118D2*
X1594488Y3322835D1*
Y3307087D1*
X1555118Y3314961D1*
G37*
X1709252D2*
D13*
X1824016D1*
G36*
X1863386D2*
X1824016Y3307087D1*
Y3322835D1*
X1863386Y3314961D1*
G37*
X1247244Y3141732D2*
D13*
Y3342520D1*
X1497638Y3122047D2*
Y3342520D1*
X1372441Y3322835D2*
X1286614D1*
G36*
X1247244D2*
X1286614Y3330709D1*
Y3314961D1*
X1247244Y3322835D1*
G37*
X1372441D2*
D13*
X1458268D1*
G36*
X1497638D2*
X1458268Y3314961D1*
Y3330709D1*
X1497638Y3322835D1*
G37*
X1181102Y3161417D2*
D13*
Y3480315D1*
X1247244Y3161417D2*
Y3480315D1*
X1181102Y3460630D2*
X1247244D1*
X1122047D2*
X1141732D1*
G36*
X1181102D2*
X1141732Y3452756D1*
Y3468504D1*
X1181102Y3460630D1*
G37*
X1306299D2*
D13*
X1286614D1*
G36*
X1247244D2*
X1286614Y3468504D1*
Y3452756D1*
X1247244Y3460630D1*
G37*
X1388710D2*
D13*
X1247244D1*
X1498031Y3334646D2*
Y3480315D1*
X1555906Y3330709D2*
Y3480315D1*
X1498031Y3460630D2*
X1555906D1*
X1438976D2*
X1458661D1*
G36*
X1498031D2*
X1458661Y3452756D1*
Y3468504D1*
X1498031Y3460630D1*
G37*
X1614961D2*
D13*
X1595276D1*
G36*
X1555906D2*
X1595276Y3468504D1*
Y3452756D1*
X1555906Y3460630D1*
G37*
X1701262D2*
D13*
X1555906D1*
X5029528Y2854331D2*
X5249213D1*
X5033858Y2791339D2*
X5249213D1*
X5229528Y2854331D2*
Y2791339D1*
Y2913386D2*
Y2893701D1*
G36*
Y2854331D2*
X5221654Y2893701D1*
X5237402D1*
X5229528Y2854331D1*
G37*
Y2732283D2*
D13*
Y2751969D1*
G36*
Y2791339D2*
X5237402Y2751969D1*
X5221654D1*
X5229528Y2791339D1*
G37*
Y2688975D2*
D13*
Y2854331D1*
X2664131Y3833513D2*
D120*
X2671825Y3837404D1*
X2683321Y3848812D1*
Y3768516D1*
X2711914Y3829710D2*
Y3833513D1*
X2715717Y3841206D1*
X2719519Y3845009D1*
X2727213Y3848812D1*
X2742512D1*
X2750117Y3845009D1*
X2753919Y3841206D1*
X2757810Y3833513D1*
Y3825908D1*
X2753919Y3818214D1*
X2746314Y3806807D1*
X2708023Y3768516D1*
X2761613D1*
X2801614D2*
X2839905Y3848812D1*
X2786316D1*
X2942369Y3822105D2*
Y3768516D1*
Y3806807D2*
X2953865Y3818303D1*
X2961559Y3822105D1*
X2972966D1*
X2980660Y3818303D1*
X2984462Y3806807D1*
Y3768516D1*
Y3806807D2*
X2995959Y3818303D1*
X3003652Y3822105D1*
X3015060D1*
X3022753Y3818303D1*
X3026644Y3806807D1*
Y3768516D1*
X3051347Y3822105D2*
Y3768516D1*
Y3806807D2*
X3062843Y3818303D1*
X3070537Y3822105D1*
X3081944D1*
X3089638Y3818303D1*
X3093440Y3806807D1*
Y3768516D1*
Y3806807D2*
X3104936Y3818303D1*
X3112630Y3822105D1*
X3124037D1*
X3131731Y3818303D1*
X3135622Y3806807D1*
Y3768516D1*
X2643862Y3628789D2*
X2651556Y3632680D1*
X2663052Y3644087D1*
Y3563792D1*
X2687754Y3628789D2*
X2695448Y3632680D1*
X2706944Y3644087D1*
Y3563792D1*
X2781434Y3617381D2*
X2777543Y3605885D1*
X2769938Y3598191D1*
X2758442Y3594389D1*
X2754639D1*
X2743143Y3598191D1*
X2735538Y3605885D1*
X2731647Y3617381D1*
Y3621183D1*
X2735538Y3632680D1*
X2743143Y3640285D1*
X2754639Y3644087D1*
X2758442D1*
X2769938Y3640285D1*
X2777543Y3632680D1*
X2781434Y3617381D1*
Y3598191D1*
X2777543Y3579090D1*
X2769938Y3567594D1*
X2758442Y3563792D1*
X2750836D1*
X2739340Y3567594D1*
X2735538Y3575288D1*
X2883898Y3617381D2*
Y3563792D1*
Y3602082D2*
X2895394Y3613578D1*
X2903088Y3617381D1*
X2914495D1*
X2922189Y3613578D1*
X2925991Y3602082D1*
Y3563792D1*
Y3602082D2*
X2937487Y3613578D1*
X2945181Y3617381D1*
X2956588D1*
X2964282Y3613578D1*
X2968173Y3602082D1*
Y3563792D1*
X2992876Y3617381D2*
Y3563792D1*
Y3602082D2*
X3004372Y3613578D1*
X3012065Y3617381D1*
X3023473D1*
X3031166Y3613578D1*
X3034969Y3602082D1*
Y3563792D1*
Y3602082D2*
X3046465Y3613578D1*
X3054159Y3617381D1*
X3065566D1*
X3073260Y3613578D1*
X3077151Y3602082D1*
Y3563792D1*
X5891341Y1972707D2*
X5898946Y1976510D1*
X5902749Y1988006D1*
Y1995611D1*
X5898946Y2007107D1*
X5887450Y2014800D1*
X5868349Y2018603D1*
X5849248D1*
X5833949Y2014800D1*
X5826256Y2007107D1*
X5822453Y1995611D1*
Y1991808D1*
X5826256Y1980401D1*
X5833949Y1972707D1*
X5845445Y1968905D1*
X5849248D1*
X5860744Y1972707D1*
X5868349Y1980401D1*
X5872151Y1991808D1*
Y1995611D1*
X5868349Y2007107D1*
X5860744Y2014800D1*
X5849248Y2018603D1*
X5822453Y1905911D2*
X5902749D1*
X5849248Y1944202D1*
Y1886810D1*
X5876042Y1784346D2*
X5822453D1*
X5860744D2*
X5872240Y1772850D1*
X5876042Y1765156D1*
Y1753748D1*
X5872240Y1746055D1*
X5860744Y1742252D1*
X5822453D1*
X5860744D2*
X5872240Y1730756D1*
X5876042Y1723063D1*
Y1711655D1*
X5872240Y1703962D1*
X5860744Y1700071D1*
X5822453D1*
X5876042Y1675368D2*
X5822453D1*
X5860744D2*
X5872240Y1663872D1*
X5876042Y1656178D1*
Y1644771D1*
X5872240Y1637077D1*
X5860744Y1633275D1*
X5822453D1*
X5860744D2*
X5872240Y1621778D1*
X5876042Y1614085D1*
Y1602677D1*
X5872240Y1594984D1*
X5860744Y1591093D1*
X5822453D1*
X6044894Y2003349D2*
X6125190Y1965058D1*
Y2018647D1*
X6106088Y1936464D2*
X6109891D1*
X6117584Y1932662D1*
X6121387Y1928859D1*
X6125190Y1921165D1*
Y1905867D1*
X6121387Y1898262D1*
X6117584Y1894459D1*
X6109891Y1890568D1*
X6102286D1*
X6094592Y1894459D1*
X6083185Y1902064D1*
X6044894Y1940355D1*
Y1886766D1*
X6098483Y1784301D2*
X6044894D1*
X6083185D2*
X6094681Y1772805D1*
X6098483Y1765112D1*
Y1753704D1*
X6094681Y1746011D1*
X6083185Y1742208D1*
X6044894D1*
X6083185D2*
X6094681Y1730712D1*
X6098483Y1723019D1*
Y1711611D1*
X6094681Y1703917D1*
X6083185Y1700026D1*
X6044894D1*
X6098483Y1675324D2*
X6044894D1*
X6083185D2*
X6094681Y1663828D1*
X6098483Y1656134D1*
Y1644726D1*
X6094681Y1637033D1*
X6083185Y1633230D1*
X6044894D1*
X6083185D2*
X6094681Y1621734D1*
X6098483Y1614041D1*
Y1602633D1*
X6094681Y1594940D1*
X6083185Y1591049D1*
X6044894D1*
X-7492Y2068629D2*
X-87788D1*
X-34287Y2030338D1*
Y2087730D1*
X-61082Y2190194D2*
X-7492D1*
X-45783D2*
X-57279Y2201690D1*
X-61082Y2209384D1*
Y2220792D1*
X-57279Y2228485D1*
X-45783Y2232288D1*
X-7492D1*
X-45783D2*
X-57279Y2243784D1*
X-61082Y2251477D1*
Y2262885D1*
X-57279Y2270578D1*
X-45783Y2274469D1*
X-7492D1*
X-61082Y2299172D2*
X-7492D1*
X-45783D2*
X-57279Y2310668D1*
X-61082Y2318362D1*
Y2329769D1*
X-57279Y2337463D1*
X-45783Y2341265D1*
X-7492D1*
X-45783D2*
X-57279Y2352761D1*
X-61082Y2360455D1*
Y2371863D1*
X-57279Y2379556D1*
X-45783Y2383447D1*
X-7492D1*
X5095272Y2651699D2*
D121*
X5093371Y2657403D1*
X5089568Y2659348D1*
X5085721D1*
X5081919Y2657403D1*
X5079973Y2653600D1*
X5078072Y2645951D1*
X5076171Y2640203D1*
X5072324Y2636400D1*
X5068521Y2634499D1*
X5062773D1*
X5058971Y2636400D1*
X5057025Y2638301D1*
X5055124Y2644049D1*
Y2651699D1*
X5057025Y2657403D1*
X5058971Y2659348D1*
X5062773Y2661249D1*
X5068521D1*
X5072324Y2659348D1*
X5076171Y2655501D1*
X5078072Y2649797D1*
X5079973Y2642148D1*
X5081919Y2638301D1*
X5085721Y2636400D1*
X5089568D1*
X5093371Y2638301D1*
X5095272Y2644049D1*
Y2651699D1*
X5058971Y2620246D2*
X5057025Y2622147D1*
X5055124Y2620246D1*
X5057025Y2618301D1*
X5058971Y2620246D1*
X5087623Y2605949D2*
X5089568Y2602103D1*
X5095272Y2596355D1*
X5055124D1*
X5082280Y3033589D2*
X5080379Y3039292D1*
X5076576Y3041238D1*
X5072729D1*
X5068927Y3039292D1*
X5066981Y3035490D1*
X5065080Y3027840D1*
X5063179Y3022092D1*
X5059332Y3018290D1*
X5055529Y3016389D1*
X5049781D1*
X5045979Y3018290D1*
X5044033Y3020191D1*
X5042132Y3025939D1*
Y3033589D1*
X5044033Y3039292D1*
X5045979Y3041238D1*
X5049781Y3043139D1*
X5055529D1*
X5059332Y3041238D1*
X5063179Y3037391D1*
X5065080Y3031687D1*
X5066981Y3024038D1*
X5068927Y3020191D1*
X5072729Y3018290D1*
X5076576D1*
X5080379Y3020191D1*
X5082280Y3025939D1*
Y3033589D1*
X5045979Y3002136D2*
X5044033Y3004037D1*
X5042132Y3002136D1*
X5044033Y3000190D1*
X5045979Y3002136D1*
X5074631Y2987839D2*
X5076576Y2983992D1*
X5082280Y2978244D1*
X5042132D1*
X1659369Y3327171D2*
X1678514Y3367319D1*
X1651719D1*
X1692767Y3331018D2*
X1690866Y3329073D1*
X1692767Y3327171D1*
X1694712Y3329073D1*
X1692767Y3331018D1*
X1716614Y3367319D2*
X1710910Y3365418D1*
X1708965Y3361615D1*
Y3357769D1*
X1710910Y3353966D1*
X1714713Y3352021D1*
X1722362Y3350119D1*
X1728110Y3348218D1*
X1731913Y3344371D1*
X1733814Y3340569D1*
Y3334821D1*
X1731913Y3331018D1*
X1730012Y3329073D1*
X1724264Y3327171D1*
X1716614D1*
X1710910Y3329073D1*
X1708965Y3331018D1*
X1707064Y3334821D1*
Y3340569D1*
X1708965Y3344371D1*
X1712812Y3348218D1*
X1718516Y3350119D1*
X1726165Y3352021D1*
X1730012Y3353966D1*
X1731913Y3357769D1*
Y3361615D1*
X1730012Y3365418D1*
X1724264Y3367319D1*
X1716614D1*
X1750012D2*
X1771015D1*
X1759563Y3352021D1*
X1765311D1*
X1769113Y3350119D1*
X1771015Y3348218D1*
X1772960Y3342470D1*
Y3338667D1*
X1771015Y3332919D1*
X1767212Y3329073D1*
X1761464Y3327171D1*
X1755716D1*
X1750012Y3329073D1*
X1748111Y3331018D1*
X1746166Y3334821D1*
X1339780Y3369489D2*
X1337878Y3373292D1*
X1332130Y3375193D1*
X1328328D1*
X1322580Y3373292D1*
X1318733Y3367544D1*
X1316832Y3357993D1*
Y3348443D1*
X1318733Y3340793D1*
X1322580Y3336947D1*
X1328328Y3335045D1*
X1330229D1*
X1335933Y3336947D1*
X1339780Y3340793D1*
X1341681Y3346541D1*
Y3348443D1*
X1339780Y3354191D1*
X1335933Y3357993D1*
X1330229Y3359895D1*
X1328328D1*
X1322580Y3357993D1*
X1318733Y3354191D1*
X1316832Y3348443D1*
X1355934Y3338892D2*
X1354032Y3336947D1*
X1355934Y3335045D1*
X1357879Y3336947D1*
X1355934Y3338892D1*
X1374077Y3375193D2*
X1395080D1*
X1383628Y3359895D1*
X1389376D1*
X1393178Y3357993D1*
X1395080Y3356092D1*
X1397025Y3350344D1*
Y3346541D1*
X1395080Y3340793D1*
X1391277Y3336947D1*
X1385529Y3335045D1*
X1379781D1*
X1374077Y3336947D1*
X1372176Y3338892D1*
X1370231Y3342695D1*
X1432325Y3369489D2*
X1430423Y3373292D1*
X1424675Y3375193D1*
X1420873D1*
X1415125Y3373292D1*
X1411278Y3367544D1*
X1409377Y3357993D1*
Y3348443D1*
X1411278Y3340793D1*
X1415125Y3336947D1*
X1420873Y3335045D1*
X1422774D1*
X1428478Y3336947D1*
X1432325Y3340793D1*
X1434226Y3346541D1*
Y3348443D1*
X1432325Y3354191D1*
X1428478Y3357993D1*
X1422774Y3359895D1*
X1420873D1*
X1415125Y3357993D1*
X1411278Y3354191D1*
X1409377Y3348443D1*
X1295878Y3505339D2*
X1299724Y3507285D1*
X1305473Y3512988D1*
Y3472841D1*
X1319725Y3476687D2*
X1317824Y3474742D1*
X1319725Y3472841D1*
X1321671Y3474742D1*
X1319725Y3476687D1*
X1356970Y3507285D2*
X1355069Y3511087D1*
X1349321Y3512988D1*
X1345518D1*
X1339770Y3511087D1*
X1335923Y3505339D1*
X1334022Y3495789D1*
Y3486238D1*
X1335923Y3478589D1*
X1339770Y3474742D1*
X1345518Y3472841D1*
X1347419D1*
X1353123Y3474742D1*
X1356970Y3478589D1*
X1358871Y3484337D1*
Y3486238D1*
X1356970Y3491986D1*
X1353123Y3495789D1*
X1347419Y3497690D1*
X1345518D1*
X1339770Y3495789D1*
X1335923Y3491986D1*
X1334022Y3486238D1*
X1380773Y3512988D2*
X1375069Y3511087D1*
X1373124Y3507285D1*
Y3503438D1*
X1375069Y3499635D1*
X1378872Y3497690D1*
X1386521Y3495789D1*
X1392269Y3493887D1*
X1396072Y3490041D1*
X1397973Y3486238D1*
Y3480490D1*
X1396072Y3476687D1*
X1394171Y3474742D1*
X1388423Y3472841D1*
X1380773D1*
X1375069Y3474742D1*
X1373124Y3476687D1*
X1371223Y3480490D1*
Y3486238D1*
X1373124Y3490041D1*
X1376971Y3493887D1*
X1382674Y3495789D1*
X1390324Y3497690D1*
X1394171Y3499635D1*
X1396072Y3503438D1*
Y3507285D1*
X1394171Y3511087D1*
X1388423Y3512988D1*
X1380773D1*
X1604539Y3505339D2*
X1608386Y3507285D1*
X1614134Y3512988D1*
Y3472841D1*
X1628387Y3476687D2*
X1626485Y3474742D1*
X1628387Y3472841D1*
X1630332Y3474742D1*
X1628387Y3476687D1*
X1661829Y3472841D2*
Y3512988D1*
X1642683Y3486238D1*
X1671379D1*
X1691380Y3472841D2*
X1710525Y3512988D1*
X1683731D1*
X5274237Y2742705D2*
X5276182Y2738858D1*
X5281886Y2733110D1*
X5241738D1*
X5245585Y2718857D2*
X5243640Y2720759D1*
X5241738Y2718857D1*
X5243640Y2716912D1*
X5245585Y2718857D1*
X5276182Y2681613D2*
X5279985Y2683514D1*
X5281886Y2689262D1*
Y2693065D1*
X5279985Y2698813D1*
X5274237Y2702659D1*
X5264686Y2704561D1*
X5255136D1*
X5247486Y2702659D1*
X5243640Y2698813D1*
X5241738Y2693065D1*
Y2691163D1*
X5243640Y2685459D1*
X5247486Y2681613D1*
X5253234Y2679711D1*
X5255136D1*
X5260884Y2681613D1*
X5264686Y2685459D1*
X5266587Y2691163D1*
Y2693065D1*
X5264686Y2698813D1*
X5260884Y2702659D1*
X5255136Y2704561D1*
M02*
