G04 DipTrace 3.3.1.0*
G04 TopDimension.gbr*
%MOMM*%
G04 #@! TF.FileFunction,Drawing,Top*
G04 #@! TF.Part,Single*
<<<<<<< HEAD
%ADD13C,0.035*%
%ADD31C,0.15686*%
%FSLAX35Y35*%
=======
%ADD13C,0.001378*%
%ADD31C,0.006176*%
%FSLAX26Y26*%
>>>>>>> f35ef66ea1ee84e665d29624839c91003037601e
G04*
G71*
G90*
G75*
G01*
G04 TopDimension*
%LPD*%
X4000000Y3000000D2*
D13*
X5034627D1*
X4000000Y1000000D2*
X5034627D1*
X4984627Y2000000D2*
Y2900000D1*
G36*
Y3000000D2*
X5004627Y2900000D1*
X4964627D1*
X4984627Y3000000D1*
G37*
Y2000000D2*
D13*
Y1100000D1*
G36*
Y1000000D2*
X4964627Y1100000D1*
X5004627D1*
X4984627Y1000000D1*
G37*
X1000000Y3000000D2*
D13*
Y4200000D1*
X4000000Y3000000D2*
Y4200000D1*
X2500000Y4150000D2*
X1100000D1*
G36*
X1000000D2*
X1100000Y4170000D1*
Y4130000D1*
X1000000Y4150000D1*
G37*
X2500000D2*
D13*
X3900000D1*
G36*
X4000000D2*
X3900000Y4130000D1*
Y4170000D1*
X4000000Y4150000D1*
G37*
X3600000Y2750000D2*
D13*
X4780000D1*
X3600000Y1250000D2*
X4780000D1*
X4730000Y2000000D2*
Y2650000D1*
G36*
Y2750000D2*
X4750000Y2650000D1*
X4710000D1*
X4730000Y2750000D1*
G37*
Y2000000D2*
D13*
Y1350000D1*
G36*
Y1250000D2*
X4710000Y1350000D1*
X4750000D1*
X4730000Y1250000D1*
G37*
X1000000Y2000000D2*
D13*
Y3470000D1*
X2500000Y1970000D2*
Y3470000D1*
X1750000Y3420000D2*
X1100000D1*
G36*
X1000000D2*
X1100000Y3440000D1*
Y3400000D1*
X1000000Y3420000D1*
G37*
X1750000D2*
D13*
X2400000D1*
G36*
X2500000D2*
X2400000Y3400000D1*
Y3440000D1*
X2500000Y3420000D1*
G37*
X3325000Y2750000D2*
D13*
Y3700000D1*
X3875000Y2750000D2*
Y3700000D1*
X3600000Y3650000D2*
X3425000D1*
G36*
X3325000D2*
X3425000Y3670000D1*
Y3630000D1*
X3325000Y3650000D1*
G37*
X3600000D2*
D13*
X3775000D1*
G36*
X3875000D2*
X3775000Y3630000D1*
Y3670000D1*
X3875000Y3650000D1*
G37*
X4559194D2*
D13*
X3875000D1*
X1400000Y1405000D2*
X300000D1*
X1420000Y1090000D2*
X300000D1*
X350000Y1247500D2*
Y1305000D1*
G36*
Y1405000D2*
X370000Y1305000D1*
X330000D1*
X350000Y1405000D1*
G37*
Y1247500D2*
D13*
Y1190000D1*
G36*
Y1090000D2*
X330000Y1190000D1*
X370000D1*
X350000Y1090000D1*
G37*
Y2144937D2*
D13*
Y1405000D1*
X1400000Y2750000D2*
Y3910000D1*
X3600000Y2750000D2*
Y3910000D1*
X2500000Y3860000D2*
X1500000D1*
G36*
X1400000D2*
X1500000Y3880000D1*
Y3840000D1*
X1400000Y3860000D1*
G37*
X2500000D2*
D13*
X3500000D1*
G36*
X3600000D2*
X3500000Y3840000D1*
Y3880000D1*
X3600000Y3860000D1*
G37*
<<<<<<< HEAD
X5093359Y2258740D2*
D31*
X5098188D1*
X5107959Y2253911D1*
X5112788Y2249082D1*
X5117617Y2239311D1*
Y2219882D1*
X5112788Y2210223D1*
X5107959Y2205394D1*
X5098188Y2200453D1*
X5088530D1*
X5078759Y2205394D1*
X5064271Y2215053D1*
X5015642Y2263682D1*
Y2195623D1*
X5117617Y2135051D2*
X5112788Y2149651D1*
X5098188Y2159422D1*
X5073930Y2164251D1*
X5059330D1*
X5035071Y2159422D1*
X5020471Y2149651D1*
X5015642Y2135051D1*
Y2125392D1*
X5020471Y2110792D1*
X5035071Y2101134D1*
X5059330Y2096192D1*
X5073930D1*
X5098188Y2101134D1*
X5112788Y2110792D1*
X5117617Y2125392D1*
Y2135051D1*
X5098188Y2101134D2*
X5035071Y2159422D1*
X5083700Y1966063D2*
X5015642D1*
X5064271D2*
X5078871Y1951463D1*
X5083700Y1941692D1*
Y1927204D1*
X5078871Y1917434D1*
X5064271Y1912604D1*
X5015642D1*
X5064271D2*
X5078871Y1898004D1*
X5083700Y1888234D1*
Y1873746D1*
X5078871Y1863975D1*
X5064271Y1859034D1*
X5015642D1*
X5083700Y1827661D2*
X5015642D1*
X5064271D2*
X5078871Y1813061D1*
X5083700Y1803290D1*
Y1788803D1*
X5078871Y1779032D1*
X5064271Y1774203D1*
X5015642D1*
X5064271D2*
X5078871Y1759603D1*
X5083700Y1749832D1*
Y1735344D1*
X5078871Y1725573D1*
X5064271Y1720632D1*
X5015642D1*
X2246089Y4282991D2*
X2299435D1*
X2270347Y4244132D1*
X2284947D1*
X2294606Y4239303D1*
X2299435Y4234474D1*
X2304377Y4219874D1*
Y4210215D1*
X2299435Y4195615D1*
X2289777Y4185845D1*
X2275177Y4181015D1*
X2260577D1*
X2246089Y4185845D1*
X2241260Y4190786D1*
X2236318Y4200445D1*
X2364949Y4282991D2*
X2350349Y4278161D1*
X2340578Y4263561D1*
X2335749Y4239303D1*
Y4224703D1*
X2340578Y4200445D1*
X2350349Y4185845D1*
X2364949Y4181015D1*
X2374608D1*
X2389208Y4185845D1*
X2398866Y4200445D1*
X2403808Y4224703D1*
Y4239303D1*
X2398866Y4263561D1*
X2389208Y4278161D1*
X2374608Y4282991D1*
X2364949D1*
X2398866Y4263561D2*
X2340578Y4200445D1*
X2533937Y4249074D2*
Y4181015D1*
Y4229645D2*
X2548537Y4244245D1*
X2558308Y4249074D1*
X2572796D1*
X2582566Y4244245D1*
X2587396Y4229645D1*
Y4181015D1*
Y4229645D2*
X2601996Y4244245D1*
X2611766Y4249074D1*
X2626254D1*
X2636025Y4244245D1*
X2640966Y4229645D1*
Y4181015D1*
X2672339Y4249074D2*
Y4181015D1*
Y4229645D2*
X2686939Y4244245D1*
X2696710Y4249074D1*
X2711197D1*
X2720968Y4244245D1*
X2725797Y4229645D1*
Y4181015D1*
Y4229645D2*
X2740397Y4244245D1*
X2750168Y4249074D1*
X2764656D1*
X2774427Y4244245D1*
X2779368Y4229645D1*
Y4181015D1*
X4843561Y2241838D2*
X4848503Y2232067D1*
X4862991Y2217467D1*
X4761015D1*
X4862991Y2127807D2*
Y2176324D1*
X4819303Y2181153D1*
X4824132Y2176324D1*
X4829074Y2161724D1*
Y2147236D1*
X4824132Y2132636D1*
X4814474Y2122866D1*
X4799874Y2118036D1*
X4790215D1*
X4775615Y2122866D1*
X4765845Y2132636D1*
X4761015Y2147236D1*
Y2161724D1*
X4765845Y2176324D1*
X4770786Y2181153D1*
X4780445Y2186095D1*
X4829074Y1987907D2*
X4761015D1*
X4809645D2*
X4824245Y1973307D1*
X4829074Y1963536D1*
Y1949048D1*
X4824245Y1939277D1*
X4809645Y1934448D1*
X4761015D1*
X4809645D2*
X4824245Y1919848D1*
X4829074Y1910077D1*
Y1895590D1*
X4824245Y1885819D1*
X4809645Y1880877D1*
X4761015D1*
X4829074Y1849505D2*
X4761015D1*
X4809645D2*
X4824245Y1834905D1*
X4829074Y1825134D1*
Y1810646D1*
X4824245Y1800876D1*
X4809645Y1796046D1*
X4761015D1*
X4809645D2*
X4824245Y1781446D1*
X4829074Y1771676D1*
Y1757188D1*
X4824245Y1747417D1*
X4809645Y1742476D1*
X4761015D1*
X1508162Y3533561D2*
X1517933Y3538503D1*
X1532533Y3552991D1*
Y3451015D1*
X1622193Y3552991D2*
X1573676D1*
X1568847Y3509303D1*
X1573676Y3514132D1*
X1588276Y3519074D1*
X1602764D1*
X1617364Y3514132D1*
X1627134Y3504474D1*
X1631964Y3489874D1*
Y3480215D1*
X1627134Y3465615D1*
X1617364Y3455845D1*
X1602764Y3451015D1*
X1588276D1*
X1573676Y3455845D1*
X1568847Y3460786D1*
X1563905Y3470445D1*
X1762093Y3519074D2*
Y3451015D1*
Y3499645D2*
X1776693Y3514245D1*
X1786464Y3519074D1*
X1800952D1*
X1810723Y3514245D1*
X1815552Y3499645D1*
Y3451015D1*
Y3499645D2*
X1830152Y3514245D1*
X1839923Y3519074D1*
X1854410D1*
X1864181Y3514245D1*
X1869123Y3499645D1*
Y3451015D1*
X1900495Y3519074D2*
Y3451015D1*
Y3499645D2*
X1915095Y3514245D1*
X1924866Y3519074D1*
X1939354D1*
X1949124Y3514245D1*
X1953954Y3499645D1*
Y3451015D1*
Y3499645D2*
X1968554Y3514245D1*
X1978324Y3519074D1*
X1992812D1*
X2002583Y3514245D1*
X2007524Y3499645D1*
Y3451015D1*
X4056817Y3782991D2*
X4008300D1*
X4003471Y3739303D1*
X4008300Y3744132D1*
X4022900Y3749074D1*
X4037388D1*
X4051988Y3744132D1*
X4061759Y3734474D1*
X4066588Y3719874D1*
Y3710215D1*
X4061759Y3695615D1*
X4051988Y3685845D1*
X4037388Y3681015D1*
X4022900D1*
X4008300Y3685845D1*
X4003471Y3690786D1*
X3998529Y3700445D1*
X4102790Y3690786D2*
X4097960Y3685845D1*
X4102790Y3681015D1*
X4107731Y3685845D1*
X4102790Y3690786D1*
X4197391Y3782991D2*
X4148875D1*
X4144045Y3739303D1*
X4148875Y3744132D1*
X4163475Y3749074D1*
X4177962D1*
X4192562Y3744132D1*
X4202333Y3734474D1*
X4207162Y3719874D1*
Y3710215D1*
X4202333Y3695615D1*
X4192562Y3685845D1*
X4177962Y3681015D1*
X4163475D1*
X4148875Y3685845D1*
X4144045Y3690786D1*
X4139104Y3700445D1*
X4337292Y3749074D2*
Y3681015D1*
Y3729645D2*
X4351892Y3744245D1*
X4361663Y3749074D1*
X4376150D1*
X4385921Y3744245D1*
X4390750Y3729645D1*
Y3681015D1*
Y3729645D2*
X4405350Y3744245D1*
X4415121Y3749074D1*
X4429609D1*
X4439380Y3744245D1*
X4444321Y3729645D1*
Y3681015D1*
X4475694Y3749074D2*
Y3681015D1*
Y3729645D2*
X4490294Y3744245D1*
X4500064Y3749074D1*
X4514552D1*
X4524323Y3744245D1*
X4529152Y3729645D1*
Y3681015D1*
Y3729645D2*
X4543752Y3744245D1*
X4553523Y3749074D1*
X4568011D1*
X4577781Y3744245D1*
X4582723Y3729645D1*
Y3681015D1*
X217009Y1538300D2*
Y1591646D1*
X255868Y1562559D1*
Y1577159D1*
X260697Y1586817D1*
X265526Y1591646D1*
X280126Y1596588D1*
X289785D1*
X304385Y1591646D1*
X314155Y1581988D1*
X318985Y1567388D1*
Y1552788D1*
X314155Y1538300D1*
X309214Y1533471D1*
X299555Y1528529D1*
X309214Y1632790D2*
X314155Y1627960D1*
X318985Y1632790D1*
X314155Y1637731D1*
X309214Y1632790D1*
X236439Y1669104D2*
X231497Y1678875D1*
X217009Y1693475D1*
X318985D1*
X217009Y1783135D2*
Y1734618D1*
X260697Y1729789D1*
X255868Y1734618D1*
X250926Y1749218D1*
Y1763706D1*
X255868Y1778306D1*
X265526Y1788076D1*
X280126Y1792906D1*
X289785D1*
X304385Y1788076D1*
X314155Y1778306D1*
X318985Y1763706D1*
Y1749218D1*
X314155Y1734618D1*
X309214Y1729789D1*
X299555Y1724847D1*
X250926Y1923035D2*
X318985D1*
X270355D2*
X255755Y1937635D1*
X250926Y1947406D1*
Y1961894D1*
X255755Y1971664D1*
X270355Y1976494D1*
X318985D1*
X270355D2*
X255755Y1991094D1*
X250926Y2000864D1*
Y2015352D1*
X255755Y2025123D1*
X270355Y2030064D1*
X318985D1*
X250926Y2061437D2*
X318985D1*
X270355D2*
X255755Y2076037D1*
X250926Y2085808D1*
Y2100295D1*
X255755Y2110066D1*
X270355Y2114895D1*
X318985D1*
X270355D2*
X255755Y2129495D1*
X250926Y2139266D1*
Y2153754D1*
X255755Y2163525D1*
X270355Y2168466D1*
X318985D1*
X2241260Y3968732D2*
Y3973561D1*
X2246089Y3983332D1*
X2250918Y3988161D1*
X2260689Y3992991D1*
X2280118D1*
X2289777Y3988161D1*
X2294606Y3983332D1*
X2299547Y3973561D1*
Y3963903D1*
X2294606Y3954132D1*
X2284947Y3939645D1*
X2236318Y3891015D1*
X2304377D1*
X2340691Y3968732D2*
Y3973561D1*
X2345520Y3983332D1*
X2350349Y3988161D1*
X2360120Y3992991D1*
X2379549D1*
X2389208Y3988161D1*
X2394037Y3983332D1*
X2398978Y3973561D1*
Y3963903D1*
X2394037Y3954132D1*
X2384378Y3939645D1*
X2335749Y3891015D1*
X2403808D1*
X2533937Y3959074D2*
Y3891015D1*
Y3939645D2*
X2548537Y3954245D1*
X2558308Y3959074D1*
X2572796D1*
X2582566Y3954245D1*
X2587396Y3939645D1*
Y3891015D1*
Y3939645D2*
X2601996Y3954245D1*
X2611766Y3959074D1*
X2626254D1*
X2636025Y3954245D1*
X2640966Y3939645D1*
Y3891015D1*
X2672339Y3959074D2*
Y3891015D1*
Y3939645D2*
X2686939Y3954245D1*
X2696710Y3959074D1*
X2711197D1*
X2720968Y3954245D1*
X2725797Y3939645D1*
Y3891015D1*
Y3939645D2*
X2740397Y3954245D1*
X2750168Y3959074D1*
X2764656D1*
X2774427Y3954245D1*
X2779368Y3939645D1*
Y3891015D1*
=======
X2005259Y889268D2*
D31*
X2007161D1*
X2011007Y887367D1*
X2012909Y885465D1*
X2014810Y881619D1*
Y873969D1*
X2012909Y870167D1*
X2011007Y868265D1*
X2007161Y866320D1*
X2003358D1*
X1999511Y868265D1*
X1993808Y872068D1*
X1974662Y891213D1*
Y864419D1*
X2014810Y840571D2*
X2012909Y846319D1*
X2007161Y850166D1*
X1997610Y852067D1*
X1991862D1*
X1982312Y850166D1*
X1976563Y846319D1*
X1974662Y840571D1*
Y836769D1*
X1976563Y831021D1*
X1982312Y827218D1*
X1991862Y825273D1*
X1997610D1*
X2007161Y827218D1*
X2012909Y831021D1*
X2014810Y836769D1*
Y840571D1*
X2007161Y827218D2*
X1982312Y850166D1*
X2001457Y774040D2*
X1974662D1*
X1993808D2*
X1999556Y768292D1*
X2001457Y764446D1*
Y758742D1*
X1999556Y754895D1*
X1993808Y752994D1*
X1974662D1*
X1993808D2*
X1999556Y747246D1*
X2001457Y743399D1*
Y737695D1*
X1999556Y733848D1*
X1993808Y731903D1*
X1974662D1*
X2001457Y719552D2*
X1974662D1*
X1993808D2*
X1999556Y713804D1*
X2001457Y709957D1*
Y704253D1*
X1999556Y700406D1*
X1993808Y698505D1*
X1974662D1*
X1993808D2*
X1999556Y692757D1*
X2001457Y688910D1*
Y683206D1*
X1999556Y679360D1*
X1993808Y677414D1*
X1974662D1*
X884287Y1686217D2*
X905289D1*
X893838Y1670918D1*
X899586D1*
X903388Y1669017D1*
X905289Y1667116D1*
X907235Y1661368D1*
Y1657565D1*
X905289Y1651817D1*
X901487Y1647970D1*
X895739Y1646069D1*
X889991D1*
X884287Y1647970D1*
X882386Y1649916D1*
X880440Y1653718D1*
X931082Y1686217D2*
X925334Y1684316D1*
X921488Y1678568D1*
X919586Y1669017D1*
Y1663269D1*
X921488Y1653718D1*
X925334Y1647970D1*
X931082Y1646069D1*
X934885D1*
X940633Y1647970D1*
X944435Y1653718D1*
X946381Y1663269D1*
Y1669017D1*
X944435Y1678568D1*
X940633Y1684316D1*
X934885Y1686217D1*
X931082D1*
X944435Y1678568D2*
X921488Y1653718D1*
X997613Y1672864D2*
Y1646069D1*
Y1665214D2*
X1003361Y1670962D1*
X1007208Y1672864D1*
X1012912D1*
X1016758Y1670962D1*
X1018660Y1665214D1*
Y1646069D1*
Y1665214D2*
X1024408Y1670962D1*
X1028255Y1672864D1*
X1033958D1*
X1037805Y1670962D1*
X1039751Y1665214D1*
Y1646069D1*
X1052102Y1672864D2*
Y1646069D1*
Y1665214D2*
X1057850Y1670962D1*
X1061697Y1672864D1*
X1067401D1*
X1071247Y1670962D1*
X1073149Y1665214D1*
Y1646069D1*
Y1665214D2*
X1078897Y1670962D1*
X1082743Y1672864D1*
X1088447D1*
X1092294Y1670962D1*
X1094239Y1665214D1*
Y1646069D1*
X1906914Y882613D2*
X1908859Y878767D1*
X1914563Y873019D1*
X1874415D1*
X1914563Y837719D2*
Y856820D1*
X1897363Y858722D1*
X1899265Y856820D1*
X1901210Y851072D1*
Y845369D1*
X1899265Y839621D1*
X1895462Y835774D1*
X1889714Y833873D1*
X1885912D1*
X1880164Y835774D1*
X1876317Y839621D1*
X1874415Y845369D1*
Y851072D1*
X1876317Y856820D1*
X1878262Y858722D1*
X1882065Y860667D1*
X1901210Y782640D2*
X1874415D1*
X1893561D2*
X1899309Y776892D1*
X1901210Y773046D1*
Y767342D1*
X1899309Y763495D1*
X1893561Y761594D1*
X1874415D1*
X1893561D2*
X1899309Y755846D1*
X1901210Y751999D1*
Y746295D1*
X1899309Y742448D1*
X1893561Y740503D1*
X1874415D1*
X1901210Y728152D2*
X1874415D1*
X1893561D2*
X1899309Y722403D1*
X1901210Y718557D1*
Y712853D1*
X1899309Y709006D1*
X1893561Y707105D1*
X1874415D1*
X1893561D2*
X1899309Y701357D1*
X1901210Y697510D1*
Y691806D1*
X1899309Y687960D1*
X1893561Y686014D1*
X1874415D1*
X593765Y1391166D2*
X597611Y1393111D1*
X603359Y1398815D1*
Y1358667D1*
X638659Y1398815D2*
X619557D1*
X617656Y1381615D1*
X619557Y1383517D1*
X625306Y1385462D1*
X631009D1*
X636757Y1383517D1*
X640604Y1379714D1*
X642505Y1373966D1*
Y1370164D1*
X640604Y1364415D1*
X636757Y1360569D1*
X631009Y1358667D1*
X625306D1*
X619557Y1360569D1*
X617656Y1362514D1*
X615711Y1366317D1*
X693738Y1385462D2*
Y1358667D1*
Y1377813D2*
X699486Y1383561D1*
X703332Y1385462D1*
X709036D1*
X712883Y1383561D1*
X714784Y1377813D1*
Y1358667D1*
Y1377813D2*
X720532Y1383561D1*
X724379Y1385462D1*
X730083D1*
X733930Y1383561D1*
X735875Y1377813D1*
Y1358667D1*
X748226Y1385462D2*
Y1358667D1*
Y1377813D2*
X753974Y1383561D1*
X757821Y1385462D1*
X763525D1*
X767372Y1383561D1*
X769273Y1377813D1*
Y1358667D1*
Y1377813D2*
X775021Y1383561D1*
X778868Y1385462D1*
X784572D1*
X788418Y1383561D1*
X790364Y1377813D1*
Y1358667D1*
X1597172Y1489366D2*
X1578071D1*
X1576170Y1472167D1*
X1578071Y1474068D1*
X1583819Y1476013D1*
X1589523D1*
X1595271Y1474068D1*
X1599118Y1470265D1*
X1601019Y1464517D1*
Y1460715D1*
X1599118Y1454967D1*
X1595271Y1451120D1*
X1589523Y1449219D1*
X1583819D1*
X1578071Y1451120D1*
X1576170Y1453065D1*
X1574224Y1456868D1*
X1615272Y1453065D2*
X1613370Y1451120D1*
X1615272Y1449219D1*
X1617217Y1451120D1*
X1615272Y1453065D1*
X1652516Y1489366D2*
X1633415D1*
X1631514Y1472167D1*
X1633415Y1474068D1*
X1639163Y1476013D1*
X1644867D1*
X1650615Y1474068D1*
X1654462Y1470265D1*
X1656363Y1464517D1*
Y1460715D1*
X1654462Y1454967D1*
X1650615Y1451120D1*
X1644867Y1449219D1*
X1639163D1*
X1633415Y1451120D1*
X1631514Y1453065D1*
X1629568Y1456868D1*
X1707595Y1476013D2*
Y1449219D1*
Y1468364D2*
X1713343Y1474112D1*
X1717190Y1476013D1*
X1722894D1*
X1726741Y1474112D1*
X1728642Y1468364D1*
Y1449219D1*
Y1468364D2*
X1734390Y1474112D1*
X1738237Y1476013D1*
X1743940D1*
X1747787Y1474112D1*
X1749733Y1468364D1*
Y1449219D1*
X1762084Y1476013D2*
Y1449219D1*
Y1468364D2*
X1767832Y1474112D1*
X1771679Y1476013D1*
X1777383D1*
X1781229Y1474112D1*
X1783131Y1468364D1*
Y1449219D1*
Y1468364D2*
X1788879Y1474112D1*
X1792726Y1476013D1*
X1798429D1*
X1802276Y1474112D1*
X1804222Y1468364D1*
Y1449219D1*
X85437Y605630D2*
Y626632D1*
X100735Y615181D1*
Y620929D1*
X102637Y624731D1*
X104538Y626632D1*
X110286Y628578D1*
X114088D1*
X119836Y626632D1*
X123683Y622830D1*
X125585Y617082D1*
Y611334D1*
X123683Y605630D1*
X121738Y603729D1*
X117935Y601783D1*
X121738Y642831D2*
X123683Y640929D1*
X125585Y642831D1*
X123683Y644776D1*
X121738Y642831D1*
X93086Y657127D2*
X91141Y660974D1*
X85437Y666722D1*
X125585D1*
X85437Y702022D2*
Y682920D1*
X102637Y681019D1*
X100735Y682920D1*
X98790Y688668D1*
Y694372D1*
X100735Y700120D1*
X104538Y703967D1*
X110286Y705868D1*
X114088D1*
X119836Y703967D1*
X123683Y700120D1*
X125585Y694372D1*
Y688668D1*
X123683Y682920D1*
X121738Y681019D1*
X117935Y679074D1*
X98790Y757100D2*
X125585D1*
X106439D2*
X100691Y762849D1*
X98790Y766695D1*
Y772399D1*
X100691Y776246D1*
X106439Y778147D1*
X125585D1*
X106439D2*
X100691Y783895D1*
X98790Y787742D1*
Y793446D1*
X100691Y797292D1*
X106439Y799238D1*
X125585D1*
X98790Y811589D2*
X125585D1*
X106439D2*
X100691Y817337D1*
X98790Y821184D1*
Y826888D1*
X100691Y830735D1*
X106439Y832636D1*
X125585D1*
X106439D2*
X100691Y838384D1*
X98790Y842231D1*
Y847935D1*
X100691Y851781D1*
X106439Y853727D1*
X125585D1*
X882386Y1562493D2*
Y1564394D1*
X884287Y1568241D1*
X886188Y1570142D1*
X890035Y1572044D1*
X897684D1*
X901487Y1570142D1*
X903388Y1568241D1*
X905334Y1564394D1*
Y1560592D1*
X903388Y1556745D1*
X899586Y1551041D1*
X880440Y1531896D1*
X907235D1*
X921532Y1562493D2*
Y1564394D1*
X923433Y1568241D1*
X925334Y1570142D1*
X929181Y1572044D1*
X936830D1*
X940633Y1570142D1*
X942534Y1568241D1*
X944480Y1564394D1*
Y1560592D1*
X942534Y1556745D1*
X938732Y1551041D1*
X919586Y1531896D1*
X946381D1*
X997613Y1558690D2*
Y1531896D1*
Y1551041D2*
X1003361Y1556789D1*
X1007208Y1558690D1*
X1012912D1*
X1016758Y1556789D1*
X1018660Y1551041D1*
Y1531896D1*
Y1551041D2*
X1024408Y1556789D1*
X1028255Y1558690D1*
X1033958D1*
X1037805Y1556789D1*
X1039751Y1551041D1*
Y1531896D1*
X1052102Y1558690D2*
Y1531896D1*
Y1551041D2*
X1057850Y1556789D1*
X1061697Y1558690D1*
X1067401D1*
X1071247Y1556789D1*
X1073149Y1551041D1*
Y1531896D1*
Y1551041D2*
X1078897Y1556789D1*
X1082743Y1558690D1*
X1088447D1*
X1092294Y1556789D1*
X1094239Y1551041D1*
Y1531896D1*
>>>>>>> f35ef66ea1ee84e665d29624839c91003037601e
M02*
