G04 DipTrace 3.3.1.0*
G04 TopDimension.gbr*
%MOMM*%
G04 #@! TF.FileFunction,Drawing,Top*
G04 #@! TF.Part,Single*
%ADD13C,0.035*%
%ADD31C,0.15686*%
%FSLAX35Y35*%
G04*
G71*
G90*
G75*
G01*
G04 TopDimension*
%LPD*%
X4000000Y3000000D2*
D13*
X5034627D1*
X4000000Y1000000D2*
X5034627D1*
X4984627Y2000000D2*
Y2900000D1*
G36*
Y3000000D2*
X5004627Y2900000D1*
X4964627D1*
X4984627Y3000000D1*
G37*
Y2000000D2*
D13*
Y1100000D1*
G36*
Y1000000D2*
X4964627Y1100000D1*
X5004627D1*
X4984627Y1000000D1*
G37*
X1000000Y3000000D2*
D13*
Y4200000D1*
X4000000Y3000000D2*
Y4200000D1*
X2500000Y4150000D2*
X1100000D1*
G36*
X1000000D2*
X1100000Y4170000D1*
Y4130000D1*
X1000000Y4150000D1*
G37*
X2500000D2*
D13*
X3900000D1*
G36*
X4000000D2*
X3900000Y4130000D1*
Y4170000D1*
X4000000Y4150000D1*
G37*
X3600000Y2750000D2*
D13*
X4780000D1*
X3600000Y1250000D2*
X4780000D1*
X4730000Y2000000D2*
Y2650000D1*
G36*
Y2750000D2*
X4750000Y2650000D1*
X4710000D1*
X4730000Y2750000D1*
G37*
Y2000000D2*
D13*
Y1350000D1*
G36*
Y1250000D2*
X4710000Y1350000D1*
X4750000D1*
X4730000Y1250000D1*
G37*
X1000000Y2000000D2*
D13*
Y3470000D1*
X2500000Y1970000D2*
Y3470000D1*
X1750000Y3420000D2*
X1100000D1*
G36*
X1000000D2*
X1100000Y3440000D1*
Y3400000D1*
X1000000Y3420000D1*
G37*
X1750000D2*
D13*
X2400000D1*
G36*
X2500000D2*
X2400000Y3400000D1*
Y3440000D1*
X2500000Y3420000D1*
G37*
X3325000Y2750000D2*
D13*
Y3700000D1*
X3875000Y2750000D2*
Y3700000D1*
X3600000Y3650000D2*
X3425000D1*
G36*
X3325000D2*
X3425000Y3670000D1*
Y3630000D1*
X3325000Y3650000D1*
G37*
X3600000D2*
D13*
X3775000D1*
G36*
X3875000D2*
X3775000Y3630000D1*
Y3670000D1*
X3875000Y3650000D1*
G37*
X4559194D2*
D13*
X3875000D1*
X1400000Y1405000D2*
X300000D1*
X1420000Y1090000D2*
X300000D1*
X350000Y1247500D2*
Y1305000D1*
G36*
Y1405000D2*
X370000Y1305000D1*
X330000D1*
X350000Y1405000D1*
G37*
Y1247500D2*
D13*
Y1190000D1*
G36*
Y1090000D2*
X330000Y1190000D1*
X370000D1*
X350000Y1090000D1*
G37*
Y2144937D2*
D13*
Y1405000D1*
X1400000Y2750000D2*
Y3910000D1*
X3600000Y2750000D2*
Y3910000D1*
X2500000Y3860000D2*
X1500000D1*
G36*
X1400000D2*
X1500000Y3880000D1*
Y3840000D1*
X1400000Y3860000D1*
G37*
X2500000D2*
D13*
X3500000D1*
G36*
X3600000D2*
X3500000Y3840000D1*
Y3880000D1*
X3600000Y3860000D1*
G37*
X5093359Y2258740D2*
D31*
X5098188D1*
X5107959Y2253911D1*
X5112788Y2249082D1*
X5117617Y2239311D1*
Y2219882D1*
X5112788Y2210223D1*
X5107959Y2205394D1*
X5098188Y2200453D1*
X5088530D1*
X5078759Y2205394D1*
X5064271Y2215053D1*
X5015642Y2263682D1*
Y2195623D1*
X5117617Y2135051D2*
X5112788Y2149651D1*
X5098188Y2159422D1*
X5073930Y2164251D1*
X5059330D1*
X5035071Y2159422D1*
X5020471Y2149651D1*
X5015642Y2135051D1*
Y2125392D1*
X5020471Y2110792D1*
X5035071Y2101134D1*
X5059330Y2096192D1*
X5073930D1*
X5098188Y2101134D1*
X5112788Y2110792D1*
X5117617Y2125392D1*
Y2135051D1*
X5098188Y2101134D2*
X5035071Y2159422D1*
X5083700Y1966063D2*
X5015642D1*
X5064271D2*
X5078871Y1951463D1*
X5083700Y1941692D1*
Y1927204D1*
X5078871Y1917434D1*
X5064271Y1912604D1*
X5015642D1*
X5064271D2*
X5078871Y1898004D1*
X5083700Y1888234D1*
Y1873746D1*
X5078871Y1863975D1*
X5064271Y1859034D1*
X5015642D1*
X5083700Y1827661D2*
X5015642D1*
X5064271D2*
X5078871Y1813061D1*
X5083700Y1803290D1*
Y1788803D1*
X5078871Y1779032D1*
X5064271Y1774203D1*
X5015642D1*
X5064271D2*
X5078871Y1759603D1*
X5083700Y1749832D1*
Y1735344D1*
X5078871Y1725573D1*
X5064271Y1720632D1*
X5015642D1*
X2246089Y4282991D2*
X2299435D1*
X2270347Y4244132D1*
X2284947D1*
X2294606Y4239303D1*
X2299435Y4234474D1*
X2304377Y4219874D1*
Y4210215D1*
X2299435Y4195615D1*
X2289777Y4185845D1*
X2275177Y4181015D1*
X2260577D1*
X2246089Y4185845D1*
X2241260Y4190786D1*
X2236318Y4200445D1*
X2364949Y4282991D2*
X2350349Y4278161D1*
X2340578Y4263561D1*
X2335749Y4239303D1*
Y4224703D1*
X2340578Y4200445D1*
X2350349Y4185845D1*
X2364949Y4181015D1*
X2374608D1*
X2389208Y4185845D1*
X2398866Y4200445D1*
X2403808Y4224703D1*
Y4239303D1*
X2398866Y4263561D1*
X2389208Y4278161D1*
X2374608Y4282991D1*
X2364949D1*
X2398866Y4263561D2*
X2340578Y4200445D1*
X2533937Y4249074D2*
Y4181015D1*
Y4229645D2*
X2548537Y4244245D1*
X2558308Y4249074D1*
X2572796D1*
X2582566Y4244245D1*
X2587396Y4229645D1*
Y4181015D1*
Y4229645D2*
X2601996Y4244245D1*
X2611766Y4249074D1*
X2626254D1*
X2636025Y4244245D1*
X2640966Y4229645D1*
Y4181015D1*
X2672339Y4249074D2*
Y4181015D1*
Y4229645D2*
X2686939Y4244245D1*
X2696710Y4249074D1*
X2711197D1*
X2720968Y4244245D1*
X2725797Y4229645D1*
Y4181015D1*
Y4229645D2*
X2740397Y4244245D1*
X2750168Y4249074D1*
X2764656D1*
X2774427Y4244245D1*
X2779368Y4229645D1*
Y4181015D1*
X4843561Y2241838D2*
X4848503Y2232067D1*
X4862991Y2217467D1*
X4761015D1*
X4862991Y2127807D2*
Y2176324D1*
X4819303Y2181153D1*
X4824132Y2176324D1*
X4829074Y2161724D1*
Y2147236D1*
X4824132Y2132636D1*
X4814474Y2122866D1*
X4799874Y2118036D1*
X4790215D1*
X4775615Y2122866D1*
X4765845Y2132636D1*
X4761015Y2147236D1*
Y2161724D1*
X4765845Y2176324D1*
X4770786Y2181153D1*
X4780445Y2186095D1*
X4829074Y1987907D2*
X4761015D1*
X4809645D2*
X4824245Y1973307D1*
X4829074Y1963536D1*
Y1949048D1*
X4824245Y1939277D1*
X4809645Y1934448D1*
X4761015D1*
X4809645D2*
X4824245Y1919848D1*
X4829074Y1910077D1*
Y1895590D1*
X4824245Y1885819D1*
X4809645Y1880877D1*
X4761015D1*
X4829074Y1849505D2*
X4761015D1*
X4809645D2*
X4824245Y1834905D1*
X4829074Y1825134D1*
Y1810646D1*
X4824245Y1800876D1*
X4809645Y1796046D1*
X4761015D1*
X4809645D2*
X4824245Y1781446D1*
X4829074Y1771676D1*
Y1757188D1*
X4824245Y1747417D1*
X4809645Y1742476D1*
X4761015D1*
X1508162Y3533561D2*
X1517933Y3538503D1*
X1532533Y3552991D1*
Y3451015D1*
X1622193Y3552991D2*
X1573676D1*
X1568847Y3509303D1*
X1573676Y3514132D1*
X1588276Y3519074D1*
X1602764D1*
X1617364Y3514132D1*
X1627134Y3504474D1*
X1631964Y3489874D1*
Y3480215D1*
X1627134Y3465615D1*
X1617364Y3455845D1*
X1602764Y3451015D1*
X1588276D1*
X1573676Y3455845D1*
X1568847Y3460786D1*
X1563905Y3470445D1*
X1762093Y3519074D2*
Y3451015D1*
Y3499645D2*
X1776693Y3514245D1*
X1786464Y3519074D1*
X1800952D1*
X1810723Y3514245D1*
X1815552Y3499645D1*
Y3451015D1*
Y3499645D2*
X1830152Y3514245D1*
X1839923Y3519074D1*
X1854410D1*
X1864181Y3514245D1*
X1869123Y3499645D1*
Y3451015D1*
X1900495Y3519074D2*
Y3451015D1*
Y3499645D2*
X1915095Y3514245D1*
X1924866Y3519074D1*
X1939354D1*
X1949124Y3514245D1*
X1953954Y3499645D1*
Y3451015D1*
Y3499645D2*
X1968554Y3514245D1*
X1978324Y3519074D1*
X1992812D1*
X2002583Y3514245D1*
X2007524Y3499645D1*
Y3451015D1*
X4056817Y3782991D2*
X4008300D1*
X4003471Y3739303D1*
X4008300Y3744132D1*
X4022900Y3749074D1*
X4037388D1*
X4051988Y3744132D1*
X4061759Y3734474D1*
X4066588Y3719874D1*
Y3710215D1*
X4061759Y3695615D1*
X4051988Y3685845D1*
X4037388Y3681015D1*
X4022900D1*
X4008300Y3685845D1*
X4003471Y3690786D1*
X3998529Y3700445D1*
X4102790Y3690786D2*
X4097960Y3685845D1*
X4102790Y3681015D1*
X4107731Y3685845D1*
X4102790Y3690786D1*
X4197391Y3782991D2*
X4148875D1*
X4144045Y3739303D1*
X4148875Y3744132D1*
X4163475Y3749074D1*
X4177962D1*
X4192562Y3744132D1*
X4202333Y3734474D1*
X4207162Y3719874D1*
Y3710215D1*
X4202333Y3695615D1*
X4192562Y3685845D1*
X4177962Y3681015D1*
X4163475D1*
X4148875Y3685845D1*
X4144045Y3690786D1*
X4139104Y3700445D1*
X4337292Y3749074D2*
Y3681015D1*
Y3729645D2*
X4351892Y3744245D1*
X4361663Y3749074D1*
X4376150D1*
X4385921Y3744245D1*
X4390750Y3729645D1*
Y3681015D1*
Y3729645D2*
X4405350Y3744245D1*
X4415121Y3749074D1*
X4429609D1*
X4439380Y3744245D1*
X4444321Y3729645D1*
Y3681015D1*
X4475694Y3749074D2*
Y3681015D1*
Y3729645D2*
X4490294Y3744245D1*
X4500064Y3749074D1*
X4514552D1*
X4524323Y3744245D1*
X4529152Y3729645D1*
Y3681015D1*
Y3729645D2*
X4543752Y3744245D1*
X4553523Y3749074D1*
X4568011D1*
X4577781Y3744245D1*
X4582723Y3729645D1*
Y3681015D1*
X217009Y1538300D2*
Y1591646D1*
X255868Y1562559D1*
Y1577159D1*
X260697Y1586817D1*
X265526Y1591646D1*
X280126Y1596588D1*
X289785D1*
X304385Y1591646D1*
X314155Y1581988D1*
X318985Y1567388D1*
Y1552788D1*
X314155Y1538300D1*
X309214Y1533471D1*
X299555Y1528529D1*
X309214Y1632790D2*
X314155Y1627960D1*
X318985Y1632790D1*
X314155Y1637731D1*
X309214Y1632790D1*
X236439Y1669104D2*
X231497Y1678875D1*
X217009Y1693475D1*
X318985D1*
X217009Y1783135D2*
Y1734618D1*
X260697Y1729789D1*
X255868Y1734618D1*
X250926Y1749218D1*
Y1763706D1*
X255868Y1778306D1*
X265526Y1788076D1*
X280126Y1792906D1*
X289785D1*
X304385Y1788076D1*
X314155Y1778306D1*
X318985Y1763706D1*
Y1749218D1*
X314155Y1734618D1*
X309214Y1729789D1*
X299555Y1724847D1*
X250926Y1923035D2*
X318985D1*
X270355D2*
X255755Y1937635D1*
X250926Y1947406D1*
Y1961894D1*
X255755Y1971664D1*
X270355Y1976494D1*
X318985D1*
X270355D2*
X255755Y1991094D1*
X250926Y2000864D1*
Y2015352D1*
X255755Y2025123D1*
X270355Y2030064D1*
X318985D1*
X250926Y2061437D2*
X318985D1*
X270355D2*
X255755Y2076037D1*
X250926Y2085808D1*
Y2100295D1*
X255755Y2110066D1*
X270355Y2114895D1*
X318985D1*
X270355D2*
X255755Y2129495D1*
X250926Y2139266D1*
Y2153754D1*
X255755Y2163525D1*
X270355Y2168466D1*
X318985D1*
X2241260Y3968732D2*
Y3973561D1*
X2246089Y3983332D1*
X2250918Y3988161D1*
X2260689Y3992991D1*
X2280118D1*
X2289777Y3988161D1*
X2294606Y3983332D1*
X2299547Y3973561D1*
Y3963903D1*
X2294606Y3954132D1*
X2284947Y3939645D1*
X2236318Y3891015D1*
X2304377D1*
X2340691Y3968732D2*
Y3973561D1*
X2345520Y3983332D1*
X2350349Y3988161D1*
X2360120Y3992991D1*
X2379549D1*
X2389208Y3988161D1*
X2394037Y3983332D1*
X2398978Y3973561D1*
Y3963903D1*
X2394037Y3954132D1*
X2384378Y3939645D1*
X2335749Y3891015D1*
X2403808D1*
X2533937Y3959074D2*
Y3891015D1*
Y3939645D2*
X2548537Y3954245D1*
X2558308Y3959074D1*
X2572796D1*
X2582566Y3954245D1*
X2587396Y3939645D1*
Y3891015D1*
Y3939645D2*
X2601996Y3954245D1*
X2611766Y3959074D1*
X2626254D1*
X2636025Y3954245D1*
X2640966Y3939645D1*
Y3891015D1*
X2672339Y3959074D2*
Y3891015D1*
Y3939645D2*
X2686939Y3954245D1*
X2696710Y3959074D1*
X2711197D1*
X2720968Y3954245D1*
X2725797Y3939645D1*
Y3891015D1*
Y3939645D2*
X2740397Y3954245D1*
X2750168Y3959074D1*
X2764656D1*
X2774427Y3954245D1*
X2779368Y3939645D1*
Y3891015D1*
M02*
