G04 DipTrace 3.3.1.0*
G04 TopMask.gbr*
%MOIN*%
G04 #@! TF.FileFunction,Soldermask,Top*
G04 #@! TF.Part,Single*
%AMOUTLINE1*
4,1,20,
0.0,0.03941,
0.013288,0.037516,
0.025328,0.031994,
0.034961,0.023325,
0.041203,0.012299,
0.043368,0.0,
0.041203,-0.012299,
0.034961,-0.023325,
0.025328,-0.031994,
0.013288,-0.037516,
0.0,-0.03941,
-0.013288,-0.037516,
-0.025328,-0.031994,
-0.034961,-0.023325,
-0.041203,-0.012299,
-0.043368,0.0,
-0.041203,0.012299,
-0.034961,0.023325,
-0.025328,0.031994,
-0.013288,0.037516,
0.0,0.03941,
0*%
%AMOUTLINE4*
4,1,8,
0.023622,0.031158,
0.011473,0.043307,
-0.011473,0.043307,
-0.023622,0.031158,
-0.023622,-0.031158,
-0.011473,-0.043307,
0.011473,-0.043307,
0.023622,-0.031158,
0.023622,0.031158,
0*%
%AMOUTLINE7*
4,1,20,
0.0,0.043384,
0.011223,0.041161,
0.021179,0.034821,
0.028911,0.025155,
0.033795,0.013174,
0.035465,0.0,
0.033795,-0.013174,
0.028911,-0.025155,
0.021179,-0.034821,
0.011223,-0.041161,
0.0,-0.043384,
-0.011223,-0.041161,
-0.021179,-0.034821,
-0.028911,-0.025155,
-0.033795,-0.013174,
-0.035465,0.0,
-0.033795,0.013174,
-0.028911,0.025155,
-0.021179,0.034821,
-0.011223,0.041161,
0.0,0.043384,
0*%
%ADD20C,0.15748*%
%ADD52C,0.149606*%
%ADD62O,0.086614X0.066929*%
%ADD64O,0.145669X0.106299*%
%ADD66O,0.106299X0.145669*%
%ADD68O,0.082677X0.125984*%
%ADD70R,0.082677X0.125984*%
%ADD72O,0.125984X0.082677*%
%ADD74R,0.125984X0.082677*%
%ADD76O,0.070866X0.086614*%
%ADD78O,0.07874X0.074803*%
%ADD80O,0.165354X0.204724*%
%ADD82R,0.208661X0.208661*%
%ADD84O,0.125984X0.204724*%
%ADD88O,0.145669X0.086614*%
%ADD90C,0.066929*%
%ADD92R,0.066929X0.066929*%
%ADD94O,0.106299X0.086614*%
%ADD96O,0.086614X0.106299*%
%ADD98O,0.047244X0.086614*%
%ADD100O,0.125984X0.106299*%
%ADD102C,0.086614*%
%ADD104R,0.086614X0.086614*%
%ADD105R,0.070866X0.070866*%
%ADD106O,0.086614X0.125984*%
%ADD108R,0.057874X0.057874*%
%ADD110C,0.057874*%
%ADD112O,0.125984X0.086614*%
%ADD123OUTLINE1*%
%ADD126OUTLINE4*%
%ADD129OUTLINE7*%
%FSLAX26Y26*%
G04*
G70*
G90*
G75*
G01*
G04 TopMask*
%LPD*%
D105*
X3853543Y795276D3*
D123*
Y895276D3*
Y995276D3*
Y1095276D3*
Y1195276D3*
Y1295276D3*
Y1395276D3*
Y1495276D3*
Y1595276D3*
Y1695276D3*
Y1795276D3*
Y1895276D3*
Y1995276D3*
Y2095276D3*
X3553543D3*
Y1995276D3*
Y1895276D3*
Y1795276D3*
Y1695276D3*
Y1595276D3*
Y1495276D3*
Y1395276D3*
Y1295276D3*
Y1195276D3*
Y1095276D3*
Y995276D3*
Y895276D3*
Y795276D3*
D112*
X5175591Y1783465D3*
Y1583465D3*
X4975591D3*
Y1783465D3*
X2591732Y2200787D3*
Y2635827D3*
D110*
X3974409Y511811D3*
D108*
Y611811D3*
D52*
X511811Y3110236D3*
Y551181D3*
X5196850Y3070866D3*
Y551181D3*
D20*
X1153937Y1893701D3*
D106*
X3462992Y562992D3*
X3562992D3*
X3662992D3*
X3762992D3*
D112*
X4631102Y1917323D3*
Y2017323D3*
Y2117323D3*
Y2217323D3*
Y1817323D3*
D104*
X3414173Y1661417D3*
D102*
X3314173D3*
X3214173D3*
X3414173Y1561417D3*
X3314173D3*
X3214173D3*
D100*
X1713780Y846457D3*
Y539370D3*
D126*
X2096064Y1657497D3*
D98*
X2159056D3*
X2222048D3*
D126*
X1242914Y570891D3*
D98*
X1305906D3*
X1368898D3*
D96*
X1308661Y1551181D3*
Y1944882D3*
D94*
X2424803Y1822835D3*
X2031102D3*
D96*
X1209843Y1283465D3*
Y1677165D3*
D94*
X4486220Y704724D3*
X4092520D3*
X1037008Y885827D3*
X643307D3*
D96*
X1101575Y1417323D3*
Y1023622D3*
D94*
X1971654Y1492126D3*
X2365354D3*
X2366929Y1393701D3*
X1973228D3*
D96*
X1375591Y1043307D3*
Y1437008D3*
D94*
X652362Y736220D3*
X1046063D3*
X2971654Y870079D3*
X2577953D3*
X1152756Y519685D3*
X759055D3*
X3268504Y2287402D3*
X3662205D3*
X3788189Y2610236D3*
X3394488D3*
X3787795Y2503937D3*
X3394094D3*
X3517323Y2409449D3*
X3123622D3*
X3035433Y1094488D3*
X3429134D3*
X2816535Y2641732D3*
X3210236D3*
X3211417Y2535433D3*
X2817717D3*
D96*
X2997638Y2425197D3*
Y2031496D3*
D94*
X3430709Y1196850D3*
X3037008D3*
D96*
X3290157Y531496D3*
Y925197D3*
X4122441Y1814961D3*
Y2208661D3*
X4227953Y1814961D3*
Y2208661D3*
X4334252Y1814961D3*
Y2208661D3*
X4440551Y1814961D3*
Y2208661D3*
D94*
X1446850Y1937008D3*
X1840551D3*
D96*
X1132283Y2559055D3*
Y2165354D3*
D94*
X1115748Y2055118D3*
X1509449D3*
X1613386Y2059055D3*
X2007087D3*
D96*
X2737402Y1952756D3*
Y2346457D3*
D94*
X2131890Y2074803D3*
X2525591D3*
X1966142Y1952756D3*
X2359843D3*
D96*
X2543701Y1913386D3*
Y1519685D3*
X2660236D3*
Y1913386D3*
X2845276Y1948819D3*
Y2342520D3*
D94*
X719685Y625984D3*
X1113386D3*
D92*
X1182677Y870079D3*
D90*
X1281102D3*
X1379528D3*
D94*
X2398031Y960630D3*
X2004331D3*
X2593307Y712598D3*
X2987008D3*
X2009449Y1165354D3*
X2403150D3*
X2006693Y1066929D3*
X2400394D3*
D88*
X4785039Y2996063D3*
Y2720474D3*
D96*
X3168504Y921260D3*
Y527559D3*
D84*
X2401969Y2279528D3*
Y2574803D3*
X1614567Y2279528D3*
X1417717Y2285787D3*
X1614567Y2574803D3*
X1417717D3*
D82*
X1367717Y2854331D3*
Y3055118D3*
D80*
X898819Y1161417D3*
Y2460630D3*
X498819Y1811024D3*
D78*
X1820866Y1346457D3*
X1720866D3*
X1620866D3*
X1520866D3*
Y1046457D3*
X1620866D3*
X1720866D3*
X1820866D3*
D76*
X1787795Y1822835D3*
X1687795D3*
X1587795D3*
Y1522835D3*
X1687795D3*
X1787795D3*
D82*
X2483465Y2854331D3*
Y3055118D3*
X2132677Y2854331D3*
Y3055118D3*
D129*
X2358268Y803150D3*
X2258268D3*
X2158268D3*
Y503150D3*
X2258268D3*
X2358268D3*
D82*
X4981890Y1307087D3*
X5182677D3*
X4014567Y3059055D3*
X4215354D3*
D74*
X5195669Y1015748D3*
D72*
Y915748D3*
Y815748D3*
D70*
X4919291Y598425D3*
D68*
X4819291D3*
X4719291D3*
D66*
X4199606Y980315D3*
X4396457D3*
D64*
X4771654Y807087D3*
Y1003937D3*
D82*
X4217727Y2618110D3*
X4016940D3*
D64*
X4587402Y1393701D3*
Y1196850D3*
D82*
X4983071Y2051181D3*
X5183858D3*
D62*
X2858661Y1070866D3*
Y1170866D3*
Y1270866D3*
Y1370866D3*
X2558661D3*
Y1270866D3*
Y1170866D3*
Y1070866D3*
D88*
X3699213Y3019685D3*
Y2744096D3*
D82*
X2991339Y3057491D3*
Y2856703D3*
X3375984Y3057491D3*
Y2856703D3*
D106*
X4467323Y551181D3*
X4367323D3*
X4267323D3*
D82*
X1065354Y2854331D3*
Y3055118D3*
X738189Y2854331D3*
Y3055118D3*
X1691732Y3057491D3*
Y2856703D3*
D106*
X2685827Y543307D3*
X2785827D3*
X2885827D3*
X2985827D3*
D112*
X4084252Y1413386D3*
Y1603386D3*
M02*
