G04 DipTrace 3.3.1.0*
G04 TopSilk.gbr*
%MOIN*%
G04 #@! TF.FileFunction,Legend,Top*
G04 #@! TF.Part,Single*
%ADD10C,0.009843*%
%ADD29C,0.00772*%
%FSLAX26Y26*%
G04*
G70*
G90*
G75*
G01*
G04 TopSilk*
%LPD*%
X699802Y981201D2*
D10*
X1262302D1*
Y1174951D1*
X699802D1*
Y981201D1*
X787402Y889777D2*
X1181102D1*
Y685026D2*
Y889777D1*
X787402Y685026D2*
X1181102D1*
X787402D2*
Y763779D1*
Y889777D2*
Y811024D1*
Y763779D2*
G03X787402Y811024I0J23622D01*
G01*
X950589Y1248175D2*
D29*
Y1197935D1*
X984083Y1248175D2*
Y1197935D1*
X950589Y1224243D2*
X984083D1*
X999522Y1238558D2*
X1004330Y1240989D1*
X1011516Y1248119D1*
Y1197935D1*
X987282Y1046747D2*
X982529Y1051555D1*
X975344Y1053932D1*
X965782D1*
X958597Y1051555D1*
X953789Y1046747D1*
Y1041994D1*
X956221Y1037185D1*
X958597Y1034808D1*
X963351Y1032432D1*
X977721Y1027623D1*
X982529Y1025247D1*
X984906Y1022815D1*
X987282Y1018062D1*
Y1010877D1*
X982529Y1006124D1*
X975344Y1003692D1*
X965782D1*
X958597Y1006124D1*
X953789Y1010877D1*
X1002722Y1044315D2*
X1007530Y1046747D1*
X1014715Y1053876D1*
Y1003692D1*
X1292923Y784317D2*
X1288170Y781940D1*
X1283361Y777132D1*
X1280985Y772379D1*
X1280984Y762817D1*
X1283361Y758009D1*
X1288170Y753255D1*
X1292923Y750824D1*
X1300108Y748447D1*
X1312101D1*
X1319231Y750824D1*
X1324039Y753255D1*
X1328793Y758009D1*
X1331225Y762817D1*
Y772379D1*
X1328793Y777132D1*
X1324039Y781940D1*
X1319231Y784317D1*
X1312101D1*
Y772379D1*
X1280985Y833249D2*
X1331224D1*
X1280985Y799756D1*
X1331225D1*
X1280985Y848689D2*
X1331224D1*
Y865435D1*
X1328793Y872620D1*
X1324039Y877429D1*
X1319231Y879805D1*
X1312101Y882182D1*
X1300108D1*
X1292923Y879805D1*
X1288170Y877429D1*
X1283361Y872620D1*
X1280985Y865435D1*
Y848689D1*
X734375Y474618D2*
X755930D1*
X763060Y476995D1*
X765492Y479427D1*
X767868Y484180D1*
Y491365D1*
X765492Y496118D1*
X763060Y498550D1*
X755930Y500926D1*
X734375D1*
Y450686D1*
X816801Y493741D2*
X812048Y498550D1*
X804863Y500926D1*
X795301D1*
X788116Y498550D1*
X783307Y493741D1*
Y488988D1*
X785739Y484180D1*
X788116Y481803D1*
X792869Y479427D1*
X807239Y474618D1*
X812048Y472242D1*
X814424Y469810D1*
X816801Y465057D1*
Y457872D1*
X812048Y453118D1*
X804863Y450686D1*
X795301D1*
X788116Y453118D1*
X783307Y457872D1*
X832240Y491310D2*
X837049Y493741D1*
X844234Y500871D1*
Y450686D1*
X862049Y455495D2*
X859673Y453063D1*
X862049Y450686D1*
X864481Y453063D1*
X862049Y455495D1*
X908605Y500871D2*
X884729D1*
X882352Y479371D1*
X884729Y481748D1*
X891914Y484180D1*
X899044D1*
X906229Y481748D1*
X911037Y476995D1*
X913414Y469810D1*
Y465057D1*
X911037Y457872D1*
X906229Y453063D1*
X899044Y450686D1*
X891914D1*
X884729Y453063D1*
X882352Y455495D1*
X879921Y460248D1*
X928853Y500926D2*
Y450686D1*
X962346Y500926D2*
X928853Y467433D1*
X940791Y479427D2*
X962346Y450686D1*
X1026387Y500926D2*
Y450686D1*
X1043133D1*
X1050318Y453118D1*
X1055127Y457872D1*
X1057503Y462680D1*
X1059880Y469810D1*
Y481803D1*
X1057503Y488988D1*
X1055127Y493741D1*
X1050318Y498550D1*
X1043133Y500926D1*
X1026387D1*
X1075319D2*
Y450686D1*
X1090758Y474618D2*
X1112314D1*
X1119443Y476995D1*
X1121875Y479427D1*
X1124252Y484180D1*
Y491365D1*
X1121875Y496118D1*
X1119443Y498550D1*
X1112314Y500926D1*
X1090758D1*
Y450686D1*
X1221785Y493741D2*
X1217032Y498550D1*
X1209847Y500926D1*
X1200286D1*
X1193100Y498550D1*
X1188292Y493741D1*
Y488988D1*
X1190724Y484180D1*
X1193100Y481803D1*
X1197854Y479427D1*
X1212224Y474618D1*
X1217032Y472242D1*
X1219409Y469810D1*
X1221785Y465057D1*
Y457872D1*
X1217032Y453118D1*
X1209847Y450686D1*
X1200286D1*
X1193100Y453118D1*
X1188292Y457872D1*
X1237225Y500926D2*
X1249218Y450686D1*
X1261156Y500926D1*
X1273095Y450686D1*
X1285088Y500926D1*
X1300527D2*
Y450686D1*
X1317274D1*
X1324459Y453118D1*
X1329267Y457872D1*
X1331644Y462680D1*
X1334021Y469810D1*
Y481803D1*
X1331644Y488988D1*
X1329267Y493741D1*
X1324459Y498550D1*
X1317274Y500926D1*
X1300527D1*
M02*
