G04 DipTrace 3.3.1.0*
G04 TopSilk.gbr*
%MOIN*%
G04 #@! TF.FileFunction,Legend,Top*
G04 #@! TF.Part,Single*
%ADD10C,0.009843*%
%ADD29C,0.00772*%
%ADD30C,0.004632*%
%ADD31C,0.006176*%
%FSLAX26Y26*%
G04*
G70*
G90*
G75*
G01*
G04 TopSilk*
%LPD*%
X699802Y981201D2*
D10*
X1262302D1*
Y1174951D1*
X699802D1*
Y981201D1*
X787402Y889777D2*
X1181102D1*
Y685026D2*
Y889777D1*
X787402Y685026D2*
X1181102D1*
X787402D2*
Y763779D1*
Y889777D2*
Y811024D1*
Y763779D2*
G03X787402Y811024I0J23622D01*
G01*
X626579Y929503D2*
D29*
X676819D1*
X626579Y962996D2*
X676819D1*
X650511Y929503D2*
Y962996D1*
X636196Y978436D2*
X633765Y983244D1*
X626635Y990429D1*
X676819D1*
X987282Y808349D2*
X982529Y813157D1*
X975344Y815534D1*
X965782D1*
X958597Y813157D1*
X953789Y808349D1*
Y803596D1*
X956221Y798787D1*
X958597Y796411D1*
X963351Y794034D1*
X977721Y789225D1*
X982529Y786849D1*
X984906Y784417D1*
X987282Y779664D1*
Y772479D1*
X982529Y767726D1*
X975344Y765294D1*
X965782D1*
X958597Y767726D1*
X953789Y772479D1*
X1002722Y805917D2*
X1007530Y808349D1*
X1014715Y815478D1*
Y765294D1*
X1237049Y954220D2*
D30*
X1235623Y957072D1*
X1232738Y959957D1*
X1229886Y961383D1*
X1224149D1*
X1221264Y959957D1*
X1218412Y957072D1*
X1216953Y954220D1*
X1215527Y949909D1*
Y942713D1*
X1216953Y938435D1*
X1218412Y935550D1*
X1221264Y932698D1*
X1224149Y931239D1*
X1229886D1*
X1232738Y932698D1*
X1235623Y935550D1*
X1237049Y938435D1*
Y942713D1*
X1229886D1*
X1266409Y961383D2*
Y931239D1*
X1246313Y961383D1*
Y931239D1*
X1275672Y961383D2*
Y931239D1*
X1285720D1*
X1290031Y932698D1*
X1292916Y935550D1*
X1294342Y938435D1*
X1295768Y942713D1*
Y949909D1*
X1294342Y954220D1*
X1292916Y957072D1*
X1290031Y959957D1*
X1285720Y961383D1*
X1275672D1*
X741478Y502957D2*
D31*
X758722D1*
X764426Y504859D1*
X766371Y506804D1*
X768272Y510607D1*
Y516355D1*
X766371Y520157D1*
X764426Y522103D1*
X758722Y524004D1*
X741478D1*
Y483812D1*
X807418Y518256D2*
X803616Y522103D1*
X797868Y524004D1*
X790218D1*
X784470Y522103D1*
X780624Y518256D1*
Y514453D1*
X782569Y510607D1*
X784470Y508705D1*
X788273Y506804D1*
X799769Y502957D1*
X803616Y501056D1*
X805517Y499111D1*
X807418Y495308D1*
Y489560D1*
X803616Y485757D1*
X797868Y483812D1*
X790218D1*
X784470Y485757D1*
X780624Y489560D1*
X819770Y516310D2*
X823617Y518256D1*
X829365Y523960D1*
Y483812D1*
X843617Y487659D2*
X841716Y485713D1*
X843617Y483812D1*
X845563Y485713D1*
X843617Y487659D1*
X880862Y523960D2*
X861761D1*
X859860Y506760D1*
X861761Y508661D1*
X867509Y510607D1*
X873213D1*
X878961Y508661D1*
X882807Y504859D1*
X884709Y499111D1*
Y495308D1*
X882807Y489560D1*
X878961Y485713D1*
X873213Y483812D1*
X867509D1*
X861761Y485713D1*
X859860Y487659D1*
X857914Y491461D1*
X897060Y524004D2*
Y483812D1*
X923855Y524004D2*
X897060Y497209D1*
X906611Y506804D2*
X923855Y483812D1*
X975087Y524004D2*
Y483812D1*
X988484D1*
X994232Y485757D1*
X998079Y489560D1*
X999980Y493407D1*
X1001882Y499111D1*
Y508705D1*
X999980Y514453D1*
X998079Y518256D1*
X994232Y522103D1*
X988484Y524004D1*
X975087D1*
X1014233D2*
Y483812D1*
X1026584Y502957D2*
X1043829D1*
X1049532Y504859D1*
X1051478Y506804D1*
X1053379Y510607D1*
Y516355D1*
X1051478Y520157D1*
X1049532Y522103D1*
X1043829Y524004D1*
X1026584D1*
Y483812D1*
X1131406Y518256D2*
X1127603Y522103D1*
X1121855Y524004D1*
X1114206D1*
X1108458Y522103D1*
X1104611Y518256D1*
Y514453D1*
X1106557Y510607D1*
X1108458Y508705D1*
X1112261Y506804D1*
X1123757Y502957D1*
X1127603Y501056D1*
X1129505Y499111D1*
X1131406Y495308D1*
Y489560D1*
X1127603Y485757D1*
X1121855Y483812D1*
X1114206D1*
X1108458Y485757D1*
X1104611Y489560D1*
X1143757Y524004D2*
X1153352Y483812D1*
X1162903Y524004D1*
X1172453Y483812D1*
X1182048Y524004D1*
X1194400D2*
Y483812D1*
X1207797D1*
X1213545Y485757D1*
X1217392Y489560D1*
X1219293Y493407D1*
X1221194Y499111D1*
Y508705D1*
X1219293Y514453D1*
X1217392Y518256D1*
X1213545Y522103D1*
X1207797Y524004D1*
X1194400D1*
M02*
