G04 DipTrace 3.3.1.0*
G04 TopSilk.gbr*
%MOMM*%
G04 #@! TF.FileFunction,Legend,Top*
G04 #@! TF.Part,Single*
%ADD10C,0.25*%
%ADD29C,0.19608*%
%ADD30C,0.11765*%
%FSLAX35Y35*%
G04*
G71*
G90*
G75*
G01*
G04 TopSilk*
%LPD*%
X1777498Y2492250D2*
D10*
X3206248D1*
Y2984377D1*
X1777498D1*
Y2492250D1*
X2000000Y2260034D2*
X3000000D1*
Y1739966D2*
Y2260034D1*
X2000000Y1739966D2*
X3000000D1*
X2000000D2*
Y1940000D1*
Y2260034D2*
Y2060000D1*
Y1940000D2*
G03X2000000Y2060000I0J60000D01*
G01*
X1591512Y2360938D2*
D29*
X1719121D1*
X1591512Y2446011D2*
X1719121Y2446010D1*
X1652298Y2360938D2*
Y2446011D1*
X1615939Y2485226D2*
X1609762Y2497440D1*
X1591652Y2515690D1*
X1719121Y2515689D1*
X2507697Y2053206D2*
X2495624Y2065419D1*
X2477374Y2071456D1*
X2453087D1*
X2434837Y2065419D1*
X2422624Y2053206D1*
Y2041133D1*
X2428801Y2028919D1*
X2434837Y2022883D1*
X2446910Y2016846D1*
X2483410Y2004633D1*
X2495624Y1998596D1*
X2501660Y1992419D1*
X2507697Y1980346D1*
Y1962096D1*
X2495624Y1950023D1*
X2477374Y1943846D1*
X2453087D1*
X2434837Y1950023D1*
X2422624Y1962096D1*
X2546913Y2047029D2*
X2559126Y2053206D1*
X2577376Y2071315D1*
Y1943846D1*
X3214666Y2311798D2*
D30*
X3207422Y2308176D1*
X3200094Y2300848D1*
X3196472Y2293605D1*
Y2279033D1*
X3200094Y2271705D1*
X3207422Y2264461D1*
X3214666Y2260755D1*
X3225616Y2257133D1*
X3243894D1*
X3254759Y2260755D1*
X3262088Y2264461D1*
X3269331Y2271705D1*
X3273038Y2279033D1*
Y2293604D1*
X3269331Y2300848D1*
X3262088Y2308176D1*
X3254760Y2311798D1*
X3243894D1*
Y2293605D1*
X3196472Y2386372D2*
X3273038Y2386371D1*
X3196472Y2335328D1*
X3273038D1*
X3196472Y2409901D2*
X3273038D1*
Y2435423D1*
X3269331Y2446373D1*
X3262088Y2453701D1*
X3254759Y2457323D1*
X3243894Y2460945D1*
X3225616D1*
X3214666Y2457323D1*
X3207422Y2453701D1*
X3200094Y2446373D1*
X3196472Y2435423D1*
Y2409901D1*
X1745314Y1185532D2*
D29*
X1800064D1*
X1818174Y1191568D1*
X1824350Y1197745D1*
X1830387Y1209818D1*
Y1228068D1*
X1824350Y1240141D1*
X1818174Y1246318D1*
X1800064Y1252355D1*
X1745314D1*
Y1124745D1*
X1954676Y1234105D2*
X1942603Y1246318D1*
X1924353Y1252355D1*
X1900066D1*
X1881816Y1246318D1*
X1869603Y1234105D1*
Y1222032D1*
X1875780Y1209818D1*
X1881816Y1203782D1*
X1893889Y1197745D1*
X1930389Y1185532D1*
X1942603Y1179495D1*
X1948639Y1173318D1*
X1954676Y1161245D1*
Y1142995D1*
X1942603Y1130922D1*
X1924353Y1124745D1*
X1900066D1*
X1881816Y1130922D1*
X1869603Y1142995D1*
X1993891Y1227928D2*
X2006105Y1234105D1*
X2024355Y1252215D1*
Y1124745D1*
X2069607Y1136959D2*
X2063571Y1130782D1*
X2069607Y1124745D1*
X2075784Y1130782D1*
X2069607Y1136959D1*
X2187859Y1252215D2*
X2127213D1*
X2121177Y1197605D1*
X2127213Y1203641D1*
X2145463Y1209818D1*
X2163573D1*
X2181823Y1203641D1*
X2194036Y1191568D1*
X2200073Y1173318D1*
Y1161245D1*
X2194036Y1142995D1*
X2181823Y1130782D1*
X2163573Y1124745D1*
X2145463D1*
X2127213Y1130782D1*
X2121177Y1136959D1*
X2115000Y1149032D1*
X2239289Y1252355D2*
Y1124745D1*
X2324362Y1252355D2*
X2239289Y1167282D1*
X2269612Y1197745D2*
X2324362Y1124745D1*
X2487024Y1252355D2*
Y1124745D1*
X2529560D1*
X2547810Y1130922D1*
X2560024Y1142995D1*
X2566060Y1155209D1*
X2572097Y1173318D1*
Y1203782D1*
X2566060Y1222032D1*
X2560024Y1234105D1*
X2547810Y1246318D1*
X2529560Y1252355D1*
X2487024D1*
X2611312D2*
Y1124745D1*
X2650528Y1185532D2*
X2705278D1*
X2723388Y1191568D1*
X2729565Y1197745D1*
X2735601Y1209818D1*
Y1228068D1*
X2729565Y1240141D1*
X2723388Y1246318D1*
X2705278Y1252355D1*
X2650528D1*
Y1124745D1*
X2983336Y1234105D2*
X2971263Y1246318D1*
X2953013Y1252355D1*
X2928727D1*
X2910477Y1246318D1*
X2898263Y1234105D1*
Y1222032D1*
X2904440Y1209818D1*
X2910477Y1203782D1*
X2922550Y1197745D1*
X2959050Y1185532D1*
X2971263Y1179495D1*
X2977300Y1173318D1*
X2983336Y1161245D1*
Y1142995D1*
X2971263Y1130922D1*
X2953013Y1124745D1*
X2928727D1*
X2910477Y1130922D1*
X2898263Y1142995D1*
X3022552Y1252355D2*
X3053016Y1124745D1*
X3083339Y1252355D1*
X3113662Y1124745D1*
X3144125Y1252355D1*
X3183341D2*
Y1124745D1*
X3225877D1*
X3244127Y1130922D1*
X3256341Y1142995D1*
X3262377Y1155209D1*
X3268414Y1173318D1*
Y1203782D1*
X3262377Y1222032D1*
X3256341Y1234105D1*
X3244127Y1246318D1*
X3225877Y1252355D1*
X3183341D1*
M02*
