G04 DipTrace 3.3.1.0*
G04 TopSilk.gbr*
%MOIN*%
G04 #@! TF.FileFunction,Legend,Top*
G04 #@! TF.Part,Single*
%ADD10C,0.015*%
%ADD33C,0.009843*%
%ADD119C,0.009264*%
%ADD120C,0.012351*%
%FSLAX26Y26*%
G04*
G70*
G90*
G75*
G01*
G04 TopSilk*
%LPD*%
X3805917Y736614D2*
D10*
Y2153937D1*
X3601170Y736614D2*
Y2153937D1*
X3805917D2*
X3601170D1*
X3805917Y736614D2*
X3727177D1*
X3601170D2*
X3679910D1*
X3727177D2*
G03X3679910Y736614I-23633J-106D01*
G01*
X5175574Y1843465D2*
G02X4975607Y1843465I-99983J-163286D01*
G01*
X5175574D1*
Y1733456D2*
Y1693476D1*
X5155585Y1713448D2*
X5195563D1*
X4955580Y1640973D2*
X4995635D1*
X5004710Y1722849D2*
G02X4973233Y1726787I-15086J7187D01*
G01*
X4947003Y1724162D2*
G02X4978479Y1720224I15086J-7187D01*
G01*
X5205519Y1644095D2*
G02X5174042Y1648032I-15082J7218D01*
G01*
X5147773Y1645407D2*
G02X5179250Y1641470I15082J-7218D01*
G01*
X2646854Y2323720D2*
X2536610D1*
Y2325724D2*
Y2510890D1*
X2646854Y2353571D2*
X2536610D1*
X2646854Y2510890D2*
X2536610D1*
X2646854Y2325724D2*
Y2510890D1*
X3899472Y661804D2*
X4049347D1*
X3899172Y661579D2*
G03X4049647Y661579I75238J-99796D01*
G01*
X3408268Y622047D2*
X3817717D1*
Y503937D1*
X3408268D1*
Y622047D1*
X4552362Y1767323D2*
X4706102D1*
Y2272047D1*
X4552362D1*
Y1767323D1*
X3464173Y1511417D2*
X3164173D1*
Y1711417D1*
X3464173D1*
Y1511417D1*
X1398819Y692932D2*
G02X1398819Y692932I314961J0D01*
G01*
X2070420Y1710647D2*
G03X2246084Y1713747I88929J-60598D01*
G01*
X2077286D1*
X1217270Y624040D2*
G03X1392934Y627141I88929J-60598D01*
G01*
X1224136D1*
X1261417Y1610236D2*
D33*
X1355906D1*
Y1885827D1*
X1261417D1*
Y1610236D1*
X2365748Y1775591D2*
X2090157D1*
Y1870079D1*
X2365748D1*
Y1775591D1*
X1162598Y1342520D2*
X1257087D1*
Y1618110D1*
X1162598D1*
Y1342520D1*
X4427165Y657480D2*
X4151575D1*
Y751969D1*
X4427165D1*
Y657480D1*
X977953Y838583D2*
X702362D1*
Y933071D1*
X977953D1*
Y838583D1*
X1148819Y1358268D2*
X1054331D1*
Y1082677D1*
X1148819D1*
Y1358268D1*
X2030709Y1539370D2*
X2306299D1*
Y1444882D1*
X2030709D1*
Y1539370D1*
X2307874Y1346457D2*
X2032283D1*
Y1440945D1*
X2307874D1*
Y1346457D1*
X1328346Y1102362D2*
X1422835D1*
Y1377953D1*
X1328346D1*
Y1102362D1*
X711417Y783465D2*
X987008D1*
Y688976D1*
X711417D1*
Y783465D1*
X2912598Y822835D2*
X2637008D1*
Y917323D1*
X2912598D1*
Y822835D1*
X1093701Y472441D2*
X818110D1*
Y566929D1*
X1093701D1*
Y472441D1*
X3327559Y2334646D2*
X3603150D1*
Y2240157D1*
X3327559D1*
Y2334646D1*
X3729134Y2562992D2*
X3453543D1*
Y2657480D1*
X3729134D1*
Y2562992D1*
X3728740Y2456693D2*
X3453150D1*
Y2551181D1*
X3728740D1*
Y2456693D1*
X3458268Y2362205D2*
X3182677D1*
Y2456693D1*
X3458268D1*
Y2362205D1*
X3094488Y1141732D2*
X3370079D1*
Y1047244D1*
X3094488D1*
Y1141732D1*
X2875591Y2688976D2*
X3151181D1*
Y2594488D1*
X2875591D1*
Y2688976D1*
X3152362Y2488189D2*
X2876772D1*
Y2582677D1*
X3152362D1*
Y2488189D1*
X3044882Y2366142D2*
X2950394D1*
Y2090551D1*
X3044882D1*
Y2366142D1*
X3371654Y1149606D2*
X3096063D1*
Y1244094D1*
X3371654D1*
Y1149606D1*
X3242913Y590551D2*
X3337402D1*
Y866142D1*
X3242913D1*
Y590551D1*
X4075197Y1874016D2*
X4169685D1*
Y2149606D1*
X4075197D1*
Y1874016D1*
X4180709D2*
X4275197D1*
Y2149606D1*
X4180709D1*
Y1874016D1*
X4287008D2*
X4381496D1*
Y2149606D1*
X4287008D1*
Y1874016D1*
X4393307D2*
X4487795D1*
Y2149606D1*
X4393307D1*
Y1874016D1*
X1505906Y1984252D2*
X1781496D1*
Y1889764D1*
X1505906D1*
Y1984252D1*
X1179528Y2500000D2*
X1085039D1*
Y2224409D1*
X1179528D1*
Y2500000D1*
X1174803Y2102362D2*
X1450394D1*
Y2007874D1*
X1174803D1*
Y2102362D1*
X1672441Y2106299D2*
X1948031D1*
Y2011811D1*
X1672441D1*
Y2106299D1*
X2690157Y2011811D2*
X2784646D1*
Y2287402D1*
X2690157D1*
Y2011811D1*
X2190945Y2122047D2*
X2466535D1*
Y2027559D1*
X2190945D1*
Y2122047D1*
X2025197Y2000000D2*
X2300787D1*
Y1905512D1*
X2025197D1*
Y2000000D1*
X2590945Y1854331D2*
X2496457D1*
Y1578740D1*
X2590945D1*
Y1854331D1*
X2612992Y1578740D2*
X2707480D1*
Y1854331D1*
X2612992D1*
Y1578740D1*
X2798031Y2007874D2*
X2892520D1*
Y2283465D1*
X2798031D1*
Y2007874D1*
X778740Y673228D2*
X1054331D1*
Y578740D1*
X778740D1*
Y673228D1*
X1407085Y826768D2*
D10*
Y757874D1*
X1155120Y982283D2*
Y917317D1*
X1407085Y982283D2*
Y913390D1*
Y982283D2*
X1155120D1*
Y822841D2*
Y757874D1*
X1407085D2*
X1281102D1*
X1155120D2*
X1281102D1*
X2338976Y913386D2*
D33*
X2063386D1*
Y1007874D1*
X2338976D1*
Y913386D1*
X2652362Y759843D2*
X2927953D1*
Y665354D1*
X2652362D1*
Y759843D1*
X2068504Y1212598D2*
X2344094D1*
Y1118110D1*
X2068504D1*
Y1212598D1*
X2065748Y1114173D2*
X2341339D1*
Y1019685D1*
X2065748D1*
Y1114173D1*
X4863790Y3054814D2*
D10*
X4706310D1*
Y2661113D1*
X4863790D1*
Y3054814D1*
X3215748Y862205D2*
D33*
X3121260D1*
Y586614D1*
X3215748D1*
Y862205D1*
X2500394Y2141732D2*
D10*
X1319291D1*
Y2692913D1*
X2500394D1*
Y2141732D1*
X1473976Y3157885D2*
X1267715D1*
Y2754341D1*
X1473976D1*
Y3157885D1*
X406675Y944882D2*
X1036614D1*
Y2677165D1*
X406675D1*
Y944882D1*
X1867717Y1094083D2*
X1474016D1*
Y1298830D2*
Y1094083D1*
X1867717Y1298830D2*
X1474016D1*
X1867717D2*
Y1220087D1*
Y1094083D2*
Y1172826D1*
Y1220087D2*
G03X1867717Y1172826I8J-23630D01*
G01*
X1502756Y1775208D2*
Y1570461D1*
X1872835Y1775208D2*
X1502756D1*
X1872835Y1570461D2*
X1502756D1*
X1872835Y1775208D2*
Y1696468D1*
Y1570461D2*
Y1649201D1*
Y1696468D2*
G03X1872835Y1649201I22J-23633D01*
G01*
X2589724Y3157885D2*
X2383464D1*
Y2754341D1*
X2589724D1*
Y3157885D1*
X2238937D2*
X2032676D1*
Y2754341D1*
X2238937D1*
Y3157885D1*
X2073228Y755523D2*
Y550776D1*
X2443307Y755523D2*
X2073228D1*
X2443307Y550776D2*
X2073228D1*
X2443307Y755523D2*
Y676783D1*
Y550776D2*
Y629516D1*
Y676783D2*
G03X2443307Y629516I22J-23633D01*
G01*
X5285444Y1200827D2*
X4881900D1*
Y1407088D1*
X5285444D1*
Y1200827D1*
X4318121Y2952795D2*
X3914577D1*
Y3159056D1*
X4318121D1*
Y2952795D1*
X5301969Y1112598D2*
X5124803D1*
Y718898D1*
X5301969D1*
Y1112598D1*
X5266535D2*
Y718898D1*
X5016142Y492126D2*
X4622441D1*
Y669291D1*
X5016142D1*
Y492126D1*
Y527559D2*
X4622441D1*
X4091339Y980315D2*
G02X4091339Y980315I206693J0D01*
G01*
X4137142Y968492D2*
Y992138D1*
X4125319Y980315D2*
X4148923D1*
X4564961Y905512D2*
G02X4564961Y905512I206693J0D01*
G01*
X4783476Y744622D2*
X4759831D1*
X4771654Y732799D2*
Y756404D1*
X3914173Y2724370D2*
X4317717D1*
Y2518109D1*
X3914173D1*
Y2724370D1*
X4380709Y1295276D2*
G02X4380709Y1295276I206693J0D01*
G01*
X4575579Y1456165D2*
X4599224D1*
X4587402Y1467988D2*
Y1444384D1*
X5286625Y1944921D2*
X4883081D1*
Y2151182D1*
X5286625D1*
Y1944921D1*
X2606288Y1024016D2*
Y1417717D1*
X2811035D2*
X2606288D1*
X2811035Y1024016D2*
Y1417717D1*
Y1024016D2*
X2732295D1*
X2606288D2*
X2685028D1*
X2732295D2*
G03X2685028Y1024016I-23633J-11D01*
G01*
X3777963Y3078436D2*
X3620483D1*
Y2684735D1*
X3777963D1*
Y3078436D1*
X2885079Y2753937D2*
X3091340D1*
Y3157481D1*
X2885079D1*
Y2753937D1*
X3269724D2*
X3475985D1*
Y3157481D1*
X3269724D1*
Y2753937D1*
X4522047Y488680D2*
X4211073D1*
Y610235D1*
X4522047D1*
Y488680D1*
X1171614Y3157885D2*
X965353D1*
Y2754341D1*
X1171614D1*
Y3157885D1*
X844449D2*
X638188D1*
Y2754341D1*
X844449D1*
Y3157885D1*
X1585472Y2753937D2*
X1791733D1*
Y3157481D1*
X1585472D1*
Y2753937D1*
X2631102Y602362D2*
X3040551D1*
Y484252D1*
X2631102D1*
Y602362D1*
X4177126Y1368722D2*
Y1648050D1*
X3991378Y1368722D2*
Y1648050D1*
Y1368722D2*
G03X4177126Y1368722I92874J8216D01*
G01*
Y1648050D2*
G03X3991378Y1648050I-92874J-8216D01*
G01*
X3701355Y1298511D2*
D119*
Y1324377D1*
X3698503Y1332933D1*
X3695585Y1335851D1*
X3689881Y1338703D1*
X3681259D1*
X3675555Y1335851D1*
X3672637Y1332933D1*
X3669785Y1324377D1*
Y1298511D1*
X3730073D1*
X3669785Y1357230D2*
X3730073D1*
Y1377326D1*
X3727154Y1385948D1*
X3721451Y1391718D1*
X3715681Y1394570D1*
X3707125Y1397422D1*
X3692733D1*
X3684111Y1394570D1*
X3678407Y1391718D1*
X3672637Y1385948D1*
X3669785Y1377326D1*
Y1357230D1*
Y1415949D2*
X3730073D1*
X3701355Y1434476D2*
Y1460342D1*
X3698503Y1468898D1*
X3695585Y1471816D1*
X3689881Y1474668D1*
X3681259D1*
X3675555Y1471816D1*
X3672637Y1468898D1*
X3669785Y1460342D1*
Y1434476D1*
X3730073D1*
X3684177Y1496114D2*
X3681325D1*
X3675555Y1498966D1*
X3672703Y1501817D1*
X3669851Y1507588D1*
Y1519062D1*
X3672703Y1524765D1*
X3675555Y1527617D1*
X3681325Y1530536D1*
X3687029D1*
X3692799Y1527617D1*
X3701355Y1521913D1*
X3730073Y1493195D1*
Y1533387D1*
X3669851Y1566240D2*
X3672703Y1557685D1*
X3678407Y1554766D1*
X3684177D1*
X3689881Y1557685D1*
X3692799Y1563388D1*
X3695651Y1574862D1*
X3698503Y1583484D1*
X3704273Y1589188D1*
X3709977Y1592040D1*
X3718599D1*
X3724303Y1589188D1*
X3727221Y1586336D1*
X3730073Y1577714D1*
Y1566240D1*
X3727221Y1557685D1*
X3724303Y1554766D1*
X3718599Y1551915D1*
X3709977D1*
X3704273Y1554766D1*
X3698503Y1560537D1*
X3695651Y1569092D1*
X3692799Y1580566D1*
X3689881Y1586336D1*
X3684177Y1589188D1*
X3678407D1*
X3672703Y1586336D1*
X3669851Y1577714D1*
Y1566240D1*
X5316124Y1454227D2*
Y1480027D1*
X5313206Y1488649D1*
X5310354Y1491567D1*
X5304650Y1494419D1*
X5298880D1*
X5293176Y1491567D1*
X5290258Y1488649D1*
X5287406Y1480027D1*
Y1454227D1*
X5347694D1*
X5316124Y1474323D2*
X5347694Y1494419D1*
X5287406Y1550220D2*
Y1512946D1*
X5347694D1*
Y1550220D1*
X5316124Y1512946D2*
Y1535894D1*
X5301732Y1611791D2*
X5296028Y1608939D1*
X5290258Y1603169D1*
X5287406Y1597465D1*
Y1585991D1*
X5290258Y1580221D1*
X5296028Y1574517D1*
X5301732Y1571599D1*
X5310354Y1568747D1*
X5324746D1*
X5333302Y1571599D1*
X5339072Y1574517D1*
X5344776Y1580221D1*
X5347694Y1585991D1*
Y1597465D1*
X5344776Y1603169D1*
X5339072Y1608939D1*
X5333302Y1611791D1*
X5287406Y1650414D2*
X5347694D1*
X5287406Y1630318D2*
Y1670510D1*
Y1689037D2*
X5347694D1*
X5287406Y1744904D2*
Y1707564D1*
X5347694D1*
X5316124D2*
Y1730512D1*
X5287406Y1763431D2*
X5347694D1*
X5287406Y1819232D2*
Y1781959D1*
X5347694D1*
Y1819232D1*
X5316124Y1781959D2*
Y1804906D1*
Y1837759D2*
Y1863559D1*
X5313206Y1872181D1*
X5310354Y1875100D1*
X5304650Y1877951D1*
X5298880D1*
X5293176Y1875100D1*
X5290258Y1872181D1*
X5287406Y1863559D1*
Y1837759D1*
X5347694D1*
X5316124Y1857855D2*
X5347694Y1877951D1*
X2456350Y2275787D2*
X2453432Y2281557D1*
X2444876Y2290180D1*
X2505098Y2290179D1*
X2444810Y2348899D2*
X2505098Y2348898D1*
X2444810Y2308707D1*
X2505098D1*
Y2396144D2*
X2444876D1*
X2485002Y2367426D1*
Y2410470D1*
X2444876Y2446241D2*
X2447728Y2437619D1*
X2456350Y2431849D1*
X2470676Y2428997D1*
X2479298D1*
X2493624Y2431849D1*
X2502246Y2437619D1*
X2505097Y2446241D1*
Y2451945D1*
X2502246Y2460567D1*
X2493624Y2466270D1*
X2479298Y2469189D1*
X2470676D1*
X2456350Y2466270D1*
X2447728Y2460567D1*
X2444876Y2451945D1*
Y2446241D1*
X2456350Y2466270D2*
X2493624Y2431849D1*
X2444876Y2504960D2*
X2447728Y2496338D1*
X2456350Y2490568D1*
X2470676Y2487716D1*
X2479298D1*
X2493624Y2490568D1*
X2502246Y2496338D1*
X2505097Y2504960D1*
Y2510664D1*
X2502246Y2519286D1*
X2493624Y2524989D1*
X2479298Y2527908D1*
X2470676D1*
X2456350Y2524989D1*
X2447728Y2519286D1*
X2444876Y2510664D1*
Y2504960D1*
X2456350Y2524989D2*
X2493624Y2490568D1*
X2456350Y2546435D2*
X2453432Y2552205D1*
X2444876Y2560827D1*
X2505097D1*
X3535636Y483587D2*
Y423299D1*
X3570058D1*
X3631629Y469261D2*
X3628777Y474965D1*
X3623007Y480735D1*
X3617303Y483587D1*
X3605829D1*
X3600059Y480735D1*
X3594355Y474965D1*
X3591437Y469261D1*
X3588585Y460639D1*
Y446246D1*
X3591437Y437691D1*
X3594355Y431921D1*
X3600059Y426217D1*
X3605829Y423299D1*
X3617303D1*
X3623007Y426217D1*
X3628777Y431921D1*
X3631629Y437691D1*
X3650156Y483587D2*
Y423299D1*
X3670252D1*
X3678874Y426217D1*
X3684644Y431921D1*
X3687496Y437691D1*
X3690348Y446246D1*
Y460639D1*
X3687496Y469261D1*
X3684644Y474965D1*
X3678874Y480735D1*
X3670252Y483587D1*
X3650156D1*
X4726453Y1835105D2*
X4786741D1*
Y1855201D1*
X4783823Y1863823D1*
X4778119Y1869593D1*
X4772349Y1872445D1*
X4763793Y1875297D1*
X4749401D1*
X4740779Y1872445D1*
X4735075Y1869593D1*
X4729305Y1863823D1*
X4726453Y1855201D1*
Y1835105D1*
Y1893824D2*
X4786741D1*
X4758023Y1912351D2*
Y1938217D1*
X4755171Y1946773D1*
X4752253Y1949691D1*
X4746549Y1952543D1*
X4737927D1*
X4732223Y1949691D1*
X4729305Y1946773D1*
X4726453Y1938217D1*
Y1912351D1*
X4786741D1*
X4735075Y2069583D2*
X4729305Y2063879D1*
X4726453Y2055257D1*
Y2043783D1*
X4729305Y2035161D1*
X4735075Y2029391D1*
X4740779D1*
X4746549Y2032309D1*
X4749401Y2035161D1*
X4752253Y2040865D1*
X4758023Y2058109D1*
X4760875Y2063879D1*
X4763793Y2066731D1*
X4769497Y2069583D1*
X4778119D1*
X4783823Y2063879D1*
X4786741Y2055257D1*
Y2043783D1*
X4783823Y2035161D1*
X4778119Y2029391D1*
X4726453Y2088110D2*
X4786741Y2102502D1*
X4726453Y2116828D1*
X4786741Y2131154D1*
X4726453Y2145546D1*
Y2164073D2*
X4786741D1*
Y2184169D1*
X4783823Y2192791D1*
X4778119Y2198562D1*
X4772349Y2201414D1*
X4763793Y2204265D1*
X4749401D1*
X4740779Y2201414D1*
X4735075Y2198562D1*
X4729305Y2192791D1*
X4726453Y2184169D1*
Y2164073D1*
X2020389Y1622480D2*
Y1562192D1*
X2046255D1*
X2054877Y1565111D1*
X2057729Y1567963D1*
X2060581Y1573666D1*
Y1582288D1*
X2057729Y1588059D1*
X2054877Y1590910D1*
X2046255Y1593762D1*
X2054877Y1596681D1*
X2057729Y1599533D1*
X2060581Y1605236D1*
Y1611006D1*
X2057729Y1616710D1*
X2054877Y1619629D1*
X2046255Y1622480D1*
X2020389D1*
Y1593762D2*
X2046255D1*
X2122152Y1608155D2*
X2119300Y1613858D1*
X2113530Y1619629D1*
X2107826Y1622480D1*
X2096352D1*
X2090582Y1619629D1*
X2084878Y1613858D1*
X2081960Y1608155D1*
X2079108Y1599533D1*
Y1585140D1*
X2081960Y1576585D1*
X2084878Y1570814D1*
X2090582Y1565111D1*
X2096352Y1562192D1*
X2107826D1*
X2113530Y1565111D1*
X2119300Y1570814D1*
X2122152Y1576585D1*
X2146449Y1622414D2*
X2177953D1*
X2160775Y1599466D1*
X2169397D1*
X2175101Y1596614D1*
X2177953Y1593762D1*
X2180871Y1585140D1*
Y1579437D1*
X2177953Y1570814D1*
X2172249Y1565044D1*
X2163627Y1562192D1*
X2155005D1*
X2146449Y1565044D1*
X2143597Y1567963D1*
X2140679Y1573666D1*
X2205168Y1622414D2*
X2236672D1*
X2219494Y1599466D1*
X2228116D1*
X2233820Y1596614D1*
X2236672Y1593762D1*
X2239590Y1585140D1*
Y1579437D1*
X2236672Y1570814D1*
X2230968Y1565044D1*
X2222346Y1562192D1*
X2213724D1*
X2205168Y1565044D1*
X2202316Y1567963D1*
X2199398Y1573666D1*
X2269591Y1562192D2*
X2298309Y1622414D1*
X2258117D1*
X1167239Y715009D2*
Y654721D1*
X1193105D1*
X1201728Y657639D1*
X1204579Y660491D1*
X1207431Y666195D1*
Y674817D1*
X1204579Y680587D1*
X1201728Y683439D1*
X1193105Y686291D1*
X1201728Y689209D1*
X1204579Y692061D1*
X1207431Y697765D1*
Y703535D1*
X1204579Y709239D1*
X1201728Y712157D1*
X1193105Y715009D1*
X1167239D1*
Y686291D2*
X1193105D1*
X1269002Y700683D2*
X1266150Y706387D1*
X1260380Y712157D1*
X1254676Y715009D1*
X1243203D1*
X1237432Y712157D1*
X1231729Y706387D1*
X1228810Y700683D1*
X1225958Y692061D1*
Y677669D1*
X1228810Y669113D1*
X1231729Y663343D1*
X1237432Y657639D1*
X1243203Y654721D1*
X1254676D1*
X1260380Y657639D1*
X1266150Y663343D1*
X1269002Y669113D1*
X1293300Y714943D2*
X1324803D1*
X1307625Y691995D1*
X1316247D1*
X1321951Y689143D1*
X1324803Y686291D1*
X1327721Y677669D1*
Y671965D1*
X1324803Y663343D1*
X1319099Y657573D1*
X1310477Y654721D1*
X1301855D1*
X1293300Y657573D1*
X1290448Y660491D1*
X1287529Y666195D1*
X1352019Y714943D2*
X1383522D1*
X1366345Y691995D1*
X1374967D1*
X1380670Y689143D1*
X1383522Y686291D1*
X1386441Y677669D1*
Y671965D1*
X1383522Y663343D1*
X1377818Y657573D1*
X1369196Y654721D1*
X1360574D1*
X1352019Y657573D1*
X1349167Y660491D1*
X1346249Y666195D1*
X1416442Y654721D2*
X1445160Y714943D1*
X1404968D1*
X1289295Y1672135D2*
X1286443D1*
X1280673Y1674987D1*
X1277821Y1677839D1*
X1274969Y1683609D1*
Y1695083D1*
X1277821Y1700786D1*
X1280673Y1703638D1*
X1286443Y1706557D1*
X1292147D1*
X1297917Y1703638D1*
X1306473Y1697935D1*
X1335191Y1669217D1*
Y1709408D1*
X1289295Y1730854D2*
X1286443D1*
X1280673Y1733706D1*
X1277821Y1736558D1*
X1274969Y1742328D1*
Y1753802D1*
X1277821Y1759506D1*
X1280673Y1762357D1*
X1286443Y1765276D1*
X1292147D1*
X1297917Y1762357D1*
X1306473Y1756654D1*
X1335191Y1727936D1*
Y1768128D1*
X1274903Y1786655D2*
X1335191D1*
X1274903Y1826847D2*
X1315095Y1786655D1*
X1300703Y1800980D2*
X1335191Y1826847D1*
X2191397Y1845053D2*
X2197167Y1847971D1*
X2205789Y1856527D1*
Y1796305D1*
X2224316Y1856593D2*
Y1796305D1*
X2264508Y1856593D2*
X2224316Y1816401D1*
X2238642Y1830793D2*
X2264508Y1796305D1*
X1190476Y1404418D2*
X1187624D1*
X1181854Y1407270D1*
X1179002Y1410122D1*
X1176150Y1415892D1*
Y1427366D1*
X1179002Y1433070D1*
X1181854Y1435922D1*
X1187624Y1438840D1*
X1193328D1*
X1199098Y1435922D1*
X1207654Y1430218D1*
X1236372Y1401500D1*
Y1441692D1*
X1176084Y1460219D2*
X1236372D1*
X1176084Y1500411D2*
X1216276Y1460219D1*
X1201884Y1474545D2*
X1236372Y1500411D1*
X1190476Y1521856D2*
X1187624D1*
X1181854Y1524708D1*
X1179002Y1527560D1*
X1176150Y1533330D1*
Y1544804D1*
X1179002Y1550508D1*
X1181854Y1553360D1*
X1187624Y1556278D1*
X1193328D1*
X1199098Y1553360D1*
X1207654Y1547656D1*
X1236372Y1518938D1*
Y1559130D1*
X774242Y908045D2*
X780012Y910963D1*
X788634Y919519D1*
Y859297D1*
X824406Y919519D2*
X815784Y916667D1*
X810013Y908045D1*
X807162Y893719D1*
Y885097D1*
X810013Y870771D1*
X815784Y862149D1*
X824406Y859297D1*
X830109D1*
X838732Y862149D1*
X844435Y870771D1*
X847354Y885097D1*
Y893719D1*
X844435Y908045D1*
X838732Y916667D1*
X830109Y919519D1*
X824406D1*
X844435Y908045D2*
X810013Y870771D1*
X865881Y919585D2*
Y859297D1*
X906073Y919585D2*
X865881Y879393D1*
X880207Y893786D2*
X906073Y859297D1*
X1082208Y1144576D2*
X1079356D1*
X1073586Y1147428D1*
X1070734Y1150280D1*
X1067883Y1156050D1*
Y1167524D1*
X1070734Y1173227D1*
X1073586Y1176079D1*
X1079357Y1178998D1*
X1085060D1*
X1090830Y1176079D1*
X1099386Y1170375D1*
X1128104Y1141657D1*
Y1181849D1*
X1067816Y1200377D2*
X1128104Y1200376D1*
X1067816Y1240568D2*
X1108008Y1200376D1*
X1093616Y1214702D2*
X1128104Y1240568D1*
X1082208Y1262014D2*
X1079357D1*
X1073586Y1264866D1*
X1070734Y1267718D1*
X1067883Y1273488D1*
Y1284962D1*
X1070734Y1290666D1*
X1073586Y1293517D1*
X1079357Y1296436D1*
X1085060D1*
X1090830Y1293517D1*
X1099386Y1287814D1*
X1128104Y1259096D1*
Y1299288D1*
X2131948Y1514344D2*
X2137718Y1517263D1*
X2146340Y1525818D1*
Y1465597D1*
X2164868Y1525885D2*
Y1465597D1*
X2205060Y1525885D2*
X2164868Y1485693D1*
X2179193Y1500085D2*
X2205060Y1465597D1*
X2133523Y1415919D2*
X2139293Y1418837D1*
X2147915Y1427393D1*
Y1367171D1*
X2166442Y1427459D2*
Y1367171D1*
X2206634Y1427459D2*
X2166442Y1387267D1*
X2180768Y1401660D2*
X2206634Y1367171D1*
X1356224Y1164261D2*
X1353372D1*
X1347602Y1167113D1*
X1344750Y1169965D1*
X1341898Y1175735D1*
Y1187209D1*
X1344750Y1192912D1*
X1347602Y1195764D1*
X1353372Y1198683D1*
X1359076D1*
X1364846Y1195764D1*
X1373402Y1190061D1*
X1402120Y1161343D1*
Y1201534D1*
X1356224Y1222980D2*
X1353372D1*
X1347602Y1225832D1*
X1344750Y1228684D1*
X1341898Y1234454D1*
Y1245928D1*
X1344750Y1251631D1*
X1347602Y1254483D1*
X1353372Y1257402D1*
X1359076D1*
X1364846Y1254483D1*
X1373402Y1248780D1*
X1402120Y1220061D1*
Y1260253D1*
X1341832Y1278781D2*
X1402120D1*
X1341832Y1318973D2*
X1382024Y1278781D1*
X1367632Y1293106D2*
X1402120Y1318973D1*
X783297Y758439D2*
X789068Y761357D1*
X797690Y769913D1*
Y709691D1*
X833461Y769913D2*
X824839Y767061D1*
X819069Y758439D1*
X816217Y744113D1*
Y735491D1*
X819069Y721165D1*
X824839Y712543D1*
X833461Y709691D1*
X839165D1*
X847787Y712543D1*
X853490Y721165D1*
X856409Y735491D1*
Y744113D1*
X853490Y758439D1*
X847787Y767061D1*
X839165Y769913D1*
X833461D1*
X853490Y758439D2*
X819069Y721165D1*
X874936Y769979D2*
Y709691D1*
X915128Y769979D2*
X874936Y729787D1*
X889262Y744179D2*
X915128Y709691D1*
X2738248Y892297D2*
X2744018Y895215D1*
X2752640Y903771D1*
Y843549D1*
X2771167Y903837D2*
Y843549D1*
X2811359Y903837D2*
X2771167Y863645D1*
X2785493Y878038D2*
X2811359Y843549D1*
X919350Y541903D2*
X925120Y544822D1*
X933742Y553377D1*
Y493156D1*
X952269Y553444D2*
Y493156D1*
X992461Y553444D2*
X952269Y513252D1*
X966595Y527644D2*
X992461Y493156D1*
X3389457Y2306768D2*
Y2309620D1*
X3392309Y2315390D1*
X3395161Y2318242D1*
X3400931Y2321094D1*
X3412405D1*
X3418109Y2318242D1*
X3420961Y2315390D1*
X3423879Y2309620D1*
Y2303916D1*
X3420961Y2298146D1*
X3415257Y2289590D1*
X3386539Y2260872D1*
X3426731D1*
X3448177Y2306768D2*
Y2309620D1*
X3451028Y2315390D1*
X3453880Y2318242D1*
X3459651Y2321094D1*
X3471124D1*
X3476828Y2318242D1*
X3479680Y2315390D1*
X3482598Y2309620D1*
Y2303916D1*
X3479680Y2298146D1*
X3473976Y2289590D1*
X3445258Y2260872D1*
X3485450D1*
X3503977Y2321160D2*
Y2260872D1*
X3544169Y2321160D2*
X3503977Y2280968D1*
X3518303Y2295360D2*
X3544169Y2260872D1*
X3551931Y2632455D2*
X3557701Y2635373D1*
X3566323Y2643929D1*
Y2583707D1*
X3630746D2*
Y2643995D1*
X3607798Y2583707D1*
X3584850Y2643995D1*
Y2583707D1*
X3551537Y2526155D2*
X3557307Y2529074D1*
X3565930Y2537629D1*
Y2477408D1*
X3630352D2*
Y2537696D1*
X3607405Y2477408D1*
X3584457Y2537696D1*
Y2477408D1*
X3244576Y2428815D2*
Y2431667D1*
X3247427Y2437437D1*
X3250279Y2440289D1*
X3256050Y2443141D1*
X3267523D1*
X3273227Y2440289D1*
X3276079Y2437437D1*
X3278997Y2431667D1*
Y2425963D1*
X3276079Y2420193D1*
X3270375Y2411637D1*
X3241657Y2382919D1*
X3281849D1*
X3300376Y2443207D2*
Y2382919D1*
X3340568Y2443207D2*
X3300376Y2403015D1*
X3314702Y2417408D2*
X3340568Y2382919D1*
X3362014Y2428815D2*
Y2431667D1*
X3364866Y2437437D1*
X3367718Y2440289D1*
X3373488Y2443141D1*
X3384962D1*
X3390665Y2440289D1*
X3393517Y2437437D1*
X3396436Y2431667D1*
Y2425963D1*
X3393517Y2420193D1*
X3387814Y2411637D1*
X3359096Y2382919D1*
X3399288D1*
X3166368Y1116707D2*
X3172138Y1119625D1*
X3180760Y1128180D1*
Y1067959D1*
X3216532Y1128180D2*
X3207910Y1125329D1*
X3202139Y1116707D1*
X3199288Y1102381D1*
Y1093759D1*
X3202139Y1079433D1*
X3207910Y1070811D1*
X3216532Y1067959D1*
X3222235D1*
X3230858Y1070811D1*
X3236561Y1079433D1*
X3239480Y1093759D1*
Y1102381D1*
X3236561Y1116707D1*
X3230858Y1125329D1*
X3222235Y1128180D1*
X3216532D1*
X3236561Y1116707D2*
X3202139Y1079433D1*
X3258007Y1128247D2*
Y1067959D1*
X3298199Y1128247D2*
X3258007Y1088055D1*
X3272333Y1102447D2*
X3298199Y1067959D1*
X2973978Y2663951D2*
X2979748Y2666869D1*
X2988370Y2675425D1*
Y2615203D1*
X3052793D2*
Y2675491D1*
X3029845Y2615203D1*
X3006898Y2675491D1*
Y2615203D1*
X2975159Y2557651D2*
X2980930Y2560570D1*
X2989552Y2569125D1*
Y2508904D1*
X3053974D2*
Y2569192D1*
X3031027Y2508904D1*
X3008079Y2569192D1*
Y2508904D1*
X2978271Y2152450D2*
X2975419D1*
X2969649Y2155302D1*
X2966797Y2158154D1*
X2963946Y2163924D1*
Y2175398D1*
X2966797Y2181101D1*
X2969649Y2183953D1*
X2975419Y2186872D1*
X2981123D1*
X2986893Y2183953D1*
X2995449Y2178250D1*
X3024167Y2149531D1*
Y2189723D1*
X2963879Y2208251D2*
X3024167Y2208250D1*
X2963879Y2248443D2*
X3004071Y2208251D1*
X2989679Y2222576D2*
X3024167Y2248442D1*
X2978271Y2269888D2*
X2975420D1*
X2969649Y2272740D1*
X2966797Y2275592D1*
X2963946Y2281362D1*
Y2292836D1*
X2966797Y2298540D1*
X2969649Y2301391D1*
X2975419Y2304310D1*
X2981123D1*
X2986893Y2301391D1*
X2995449Y2295688D1*
X3024167Y2266970D1*
Y2307162D1*
X3157961Y1216217D2*
Y1219069D1*
X3160813Y1224839D1*
X3163665Y1227691D1*
X3169435Y1230543D1*
X3180909D1*
X3186613Y1227691D1*
X3189465Y1224839D1*
X3192383Y1219069D1*
Y1213365D1*
X3189465Y1207595D1*
X3183761Y1199039D1*
X3155043Y1170321D1*
X3195235D1*
X3216680Y1216217D2*
Y1219069D1*
X3219532Y1224839D1*
X3222384Y1227691D1*
X3228154Y1230543D1*
X3239628D1*
X3245332Y1227691D1*
X3248184Y1224839D1*
X3251102Y1219069D1*
Y1213365D1*
X3248184Y1207595D1*
X3242480Y1199039D1*
X3213762Y1170321D1*
X3253954D1*
X3272481Y1230609D2*
Y1170321D1*
X3312673Y1230609D2*
X3272481Y1190417D1*
X3286807Y1204809D2*
X3312673Y1170321D1*
X3267939Y662431D2*
X3265021Y668202D1*
X3256465Y676824D1*
X3316687D1*
X3256465Y712595D2*
X3259317Y703973D1*
X3267939Y698203D1*
X3282265Y695351D1*
X3290887D1*
X3305213Y698203D1*
X3313835Y703973D1*
X3316687Y712595D1*
Y718298D1*
X3313835Y726921D1*
X3305213Y732624D1*
X3290887Y735543D1*
X3282265D1*
X3267939Y732624D1*
X3259317Y726921D1*
X3256465Y718299D1*
Y712595D1*
X3267939Y732624D2*
X3305213Y698203D1*
X3256399Y754070D2*
X3316687D1*
X3256399Y794262D2*
X3296591Y754070D1*
X3282199Y768396D2*
X3316687Y794262D1*
X4100223Y1975256D2*
X4097304Y1981026D1*
X4088749Y1989648D1*
X4148970D1*
X4088682Y2008175D2*
X4148970D1*
X4088682Y2048367D2*
X4128874Y2008175D1*
X4114482Y2022501D2*
X4148970Y2048367D1*
X4205734Y1975256D2*
X4202816Y1981026D1*
X4194260Y1989648D1*
X4254482D1*
X4194194Y2008175D2*
X4254482D1*
X4194194Y2048367D2*
X4234386Y2008175D1*
X4219994Y2022501D2*
X4254482Y2048367D1*
X4312034Y1975256D2*
X4309115Y1981026D1*
X4300560Y1989648D1*
X4360781D1*
X4300493Y2008175D2*
X4360781D1*
X4300493Y2048367D2*
X4340685Y2008175D1*
X4326293Y2022501D2*
X4360781Y2048367D1*
X4418333Y1975256D2*
X4415415Y1981026D1*
X4406859Y1989648D1*
X4467081D1*
X4406793Y2008175D2*
X4467081D1*
X4406793Y2048367D2*
X4446985Y2008175D1*
X4432592Y2022501D2*
X4467081Y2048367D1*
X1567804Y1956374D2*
Y1959226D1*
X1570656Y1964996D1*
X1573508Y1967848D1*
X1579278Y1970700D1*
X1590752D1*
X1596456Y1967848D1*
X1599308Y1964996D1*
X1602226Y1959226D1*
Y1953522D1*
X1599308Y1947752D1*
X1593604Y1939197D1*
X1564886Y1910478D1*
X1605078D1*
X1626523Y1956374D2*
Y1959226D1*
X1629375Y1964996D1*
X1632227Y1967848D1*
X1637997Y1970700D1*
X1649471D1*
X1655175Y1967848D1*
X1658027Y1964996D1*
X1660945Y1959226D1*
Y1953522D1*
X1658027Y1947752D1*
X1652323Y1939197D1*
X1623605Y1910478D1*
X1663797D1*
X1682324Y1970767D2*
Y1910478D1*
X1722516Y1970767D2*
X1682324Y1930575D1*
X1696650Y1944967D2*
X1722516Y1910478D1*
X1110065Y2322797D2*
X1107147Y2328567D1*
X1098591Y2337189D1*
X1158813D1*
Y2401612D2*
X1098525D1*
X1158813Y2378664D1*
X1098525Y2355717D1*
X1158813Y2355716D1*
X1273191Y2077336D2*
X1278961Y2080255D1*
X1287583Y2088810D1*
Y2028589D1*
X1352006D2*
Y2088877D1*
X1329058Y2028589D1*
X1306110Y2088877D1*
Y2028589D1*
X1734339Y2078422D2*
Y2081273D1*
X1737191Y2087044D1*
X1740043Y2089896D1*
X1745813Y2092747D1*
X1757287D1*
X1762991Y2089896D1*
X1765843Y2087044D1*
X1768761Y2081273D1*
Y2075570D1*
X1765843Y2069800D1*
X1760139Y2061244D1*
X1731421Y2032526D1*
X1771613D1*
X1790140Y2092814D2*
Y2032526D1*
X1830332Y2092814D2*
X1790140Y2052622D1*
X1804466Y2067014D2*
X1830332Y2032526D1*
X1851778Y2078422D2*
Y2081273D1*
X1854629Y2087044D1*
X1857481Y2089896D1*
X1863252Y2092747D1*
X1874725D1*
X1880429Y2089896D1*
X1883281Y2087044D1*
X1886199Y2081273D1*
Y2075570D1*
X1883281Y2069800D1*
X1877577Y2061244D1*
X1848859Y2032526D1*
X1889051D1*
X2715183Y2083691D2*
X2712265Y2089461D1*
X2703709Y2098083D1*
X2763931D1*
X2703709Y2133855D2*
X2706561Y2125233D1*
X2715183Y2119462D1*
X2729509Y2116610D1*
X2738131D1*
X2752457Y2119462D1*
X2761079Y2125232D1*
X2763931Y2133855D1*
Y2139558D1*
X2761079Y2148180D1*
X2752457Y2153884D1*
X2738131Y2156802D1*
X2729509D1*
X2715183Y2153884D1*
X2706561Y2148180D1*
X2703709Y2139558D1*
Y2133855D1*
X2715183Y2153884D2*
X2752457Y2119462D1*
X2703643Y2175330D2*
X2763931Y2175329D1*
X2703643Y2215522D2*
X2743835Y2175330D1*
X2729443Y2189655D2*
X2763931Y2215521D1*
X2289333Y2097022D2*
X2295103Y2099940D1*
X2303725Y2108495D1*
Y2048274D1*
X2368148D2*
Y2108562D1*
X2345200Y2048274D1*
X2322252Y2108562D1*
Y2048274D1*
X2123585Y1974974D2*
X2129355Y1977892D1*
X2137977Y1986448D1*
Y1926227D1*
X2202400D2*
Y1986515D1*
X2179452Y1926227D1*
X2156504Y1986515D1*
Y1926227D1*
X2524334Y1640639D2*
X2521482D1*
X2515712Y1643491D1*
X2512860Y1646343D1*
X2510009Y1652113D1*
Y1663587D1*
X2512860Y1669290D1*
X2515712Y1672142D1*
X2521482Y1675061D1*
X2527186D1*
X2532956Y1672142D1*
X2541512Y1666438D1*
X2570230Y1637720D1*
Y1677912D1*
X2509942Y1696440D2*
X2570230Y1696439D1*
X2509942Y1736631D2*
X2550134Y1696439D1*
X2535742Y1710765D2*
X2570230Y1736631D1*
X2524334Y1758077D2*
X2521482D1*
X2515712Y1760929D1*
X2512860Y1763781D1*
X2510009Y1769551D1*
Y1781025D1*
X2512860Y1786729D1*
X2515712Y1789580D1*
X2521482Y1792499D1*
X2527186D1*
X2532956Y1789580D1*
X2541512Y1783877D1*
X2570230Y1755159D1*
Y1795351D1*
X2640870Y1640639D2*
X2638018D1*
X2632248Y1643491D1*
X2629396Y1646343D1*
X2626544Y1652113D1*
Y1663587D1*
X2629396Y1669290D1*
X2632248Y1672142D1*
X2638018Y1675061D1*
X2643722D1*
X2649492Y1672142D1*
X2658048Y1666438D1*
X2686766Y1637720D1*
Y1677912D1*
X2640870Y1699358D2*
X2638018D1*
X2632248Y1702210D1*
X2629396Y1705062D1*
X2626544Y1710832D1*
Y1722306D1*
X2629396Y1728009D1*
X2632248Y1730861D1*
X2638018Y1733780D1*
X2643722D1*
X2649492Y1730861D1*
X2658048Y1725158D1*
X2686766Y1696439D1*
Y1736631D1*
X2626478Y1755159D2*
X2686766D1*
X2626478Y1795351D2*
X2666670Y1755159D1*
X2652277Y1769484D2*
X2686766Y1795351D1*
X2823057Y2079754D2*
X2820139Y2085524D1*
X2811583Y2094146D1*
X2871805D1*
X2811583Y2129918D2*
X2814435Y2121296D1*
X2823057Y2115525D1*
X2837383Y2112673D1*
X2846005D1*
X2860331Y2115525D1*
X2868953Y2121295D1*
X2871805Y2129917D1*
Y2135621D1*
X2868953Y2144243D1*
X2860331Y2149947D1*
X2846005Y2152865D1*
X2837383D1*
X2823057Y2149947D1*
X2814435Y2144243D1*
X2811583Y2135621D1*
Y2129918D1*
X2823057Y2149947D2*
X2860331Y2115525D1*
X2811517Y2171393D2*
X2871805Y2171392D1*
X2811517Y2211585D2*
X2851709Y2171393D1*
X2837317Y2185718D2*
X2871805Y2211584D1*
X879980Y648203D2*
X885750Y651121D1*
X894372Y659677D1*
Y599455D1*
X912899Y659743D2*
Y599455D1*
X953091Y659743D2*
X912899Y619551D1*
X927225Y633943D2*
X953091Y599455D1*
X2168936Y982848D2*
X2174707Y985767D1*
X2183329Y994322D1*
Y934101D1*
X2201856Y994389D2*
Y934101D1*
X2230574Y974293D2*
X2201856Y945575D1*
X2213330Y957048D2*
X2233426Y934101D1*
X2757913Y734817D2*
X2763683Y737735D1*
X2772305Y746291D1*
Y686069D1*
X2790832Y746357D2*
Y686069D1*
X2819550Y726261D2*
X2790832Y697543D1*
X2802306Y709017D2*
X2822402Y686069D1*
X2140384Y1187573D2*
X2146154Y1190491D1*
X2154776Y1199047D1*
Y1138825D1*
X2190547Y1199047D2*
X2181925Y1196195D1*
X2176155Y1187573D1*
X2173303Y1173247D1*
Y1164625D1*
X2176155Y1150299D1*
X2181925Y1141677D1*
X2190547Y1138825D1*
X2196251D1*
X2204873Y1141677D1*
X2210577Y1150299D1*
X2213495Y1164625D1*
Y1173247D1*
X2210577Y1187573D1*
X2204873Y1196195D1*
X2196251Y1199047D1*
X2190547D1*
X2210577Y1187573D2*
X2176155Y1150299D1*
X2232022Y1199113D2*
Y1138825D1*
X2272214Y1199113D2*
X2232022Y1158921D1*
X2246348Y1173313D2*
X2272214Y1138825D1*
X2137628Y1089147D2*
X2143398Y1092066D1*
X2152020Y1100621D1*
Y1040400D1*
X2187791Y1100621D2*
X2179169Y1097770D1*
X2173399Y1089147D1*
X2170547Y1074822D1*
Y1066200D1*
X2173399Y1051874D1*
X2179169Y1043252D1*
X2187791Y1040400D1*
X2193495D1*
X2202117Y1043252D1*
X2207821Y1051874D1*
X2210739Y1066200D1*
Y1074822D1*
X2207821Y1089147D1*
X2202117Y1097770D1*
X2193495Y1100621D1*
X2187791D1*
X2207821Y1089147D2*
X2173399Y1051874D1*
X2229266Y1100688D2*
Y1040400D1*
X2269459Y1100688D2*
X2229266Y1060496D1*
X2243592Y1074888D2*
X2269459Y1040400D1*
X4618442Y2817914D2*
X4678730D1*
X4618442Y2777722D1*
X4678730D1*
X4618442Y2856537D2*
X4678730D1*
X4618442Y2836441D2*
Y2876633D1*
X4632768Y2938204D2*
X4627064Y2935352D1*
X4621294Y2929582D1*
X4618442Y2923878D1*
Y2912405D1*
X4621294Y2906634D1*
X4627064Y2900931D1*
X4632768Y2898012D1*
X4641390Y2895160D1*
X4655782D1*
X4664338Y2898012D1*
X4670108Y2900931D1*
X4675812Y2906634D1*
X4678730Y2912404D1*
Y2923878D1*
X4675812Y2929582D1*
X4670108Y2935352D1*
X4664338Y2938204D1*
X3146286Y629135D2*
X3143367Y634905D1*
X3134812Y643527D1*
X3195033D1*
X3134812Y679298D2*
X3137664Y670676D1*
X3146286Y664906D1*
X3160612Y662054D1*
X3169234D1*
X3183559Y664906D1*
X3192181Y670676D1*
X3195033Y679298D1*
Y685002D1*
X3192181Y693624D1*
X3183559Y699328D1*
X3169234Y702246D1*
X3160612D1*
X3146286Y699328D1*
X3137664Y693624D1*
X3134812Y685002D1*
Y679298D1*
X3146286Y699328D2*
X3183559Y664906D1*
X3134812Y738017D2*
X3137664Y729395D1*
X3146286Y723625D1*
X3160612Y720773D1*
X3169234D1*
X3183559Y723625D1*
X3192181Y729395D1*
X3195033Y738017D1*
Y743721D1*
X3192181Y752343D1*
X3183559Y758047D1*
X3169234Y760965D1*
X3160611D1*
X3146286Y758047D1*
X3137664Y752343D1*
X3134812Y743721D1*
Y738017D1*
X3146286Y758047D2*
X3183559Y723625D1*
X3134745Y779492D2*
X3195033D1*
X3134745Y819684D2*
X3174937Y779492D1*
X3160545Y793818D2*
X3195033Y819684D1*
X1543987Y2422363D2*
X1569786D1*
X1578408Y2425282D1*
X1581327Y2428134D1*
X1584179Y2433837D1*
Y2439608D1*
X1581327Y2445311D1*
X1578408Y2448230D1*
X1569786Y2451081D1*
X1543987D1*
Y2390793D1*
X1564083Y2422363D2*
X1584179Y2390793D1*
X1602706Y2413741D2*
X1637127D1*
Y2419512D1*
X1634276Y2425282D1*
X1631424Y2428134D1*
X1625654Y2430985D1*
X1617031D1*
X1611328Y2428134D1*
X1605558Y2422363D1*
X1602706Y2413741D1*
Y2408038D1*
X1605558Y2399416D1*
X1611328Y2393712D1*
X1617031Y2390793D1*
X1625654D1*
X1631424Y2393712D1*
X1637127Y2399416D1*
X1655655Y2451081D2*
Y2390793D1*
X1708604Y2430985D2*
Y2390793D1*
Y2422363D2*
X1702900Y2428134D1*
X1697130Y2430985D1*
X1688574D1*
X1682804Y2428134D1*
X1677100Y2422363D1*
X1674182Y2413741D1*
Y2408038D1*
X1677100Y2399416D1*
X1682804Y2393712D1*
X1688574Y2390793D1*
X1697130D1*
X1702900Y2393712D1*
X1708604Y2399416D1*
X1730049Y2430985D2*
X1747227Y2390793D1*
X1741523Y2379320D1*
X1735753Y2373549D1*
X1730049Y2370697D1*
X1727131D1*
X1764471Y2430985D2*
X1747227Y2390793D1*
X1782998Y2380845D2*
X1837516D1*
X1902005Y2390793D2*
X1878991Y2451081D1*
X1856043Y2390793D1*
X1864665Y2410889D2*
X1893383D1*
X1920532Y2451081D2*
Y2390793D1*
X1984955D2*
Y2451081D1*
X1962007Y2390793D1*
X1939059Y2451081D1*
Y2390793D1*
X2049444D2*
X2026430Y2451081D1*
X2003482Y2390793D1*
X2012104Y2410889D2*
X2040822D1*
X2111015Y2436756D2*
X2108163Y2442459D1*
X2102393Y2448230D1*
X2096689Y2451081D1*
X2085215D1*
X2079445Y2448230D1*
X2073741Y2442459D1*
X2070823Y2436756D1*
X2067971Y2428134D1*
Y2413741D1*
X2070823Y2405186D1*
X2073741Y2399416D1*
X2079445Y2393712D1*
X2085215Y2390793D1*
X2096689D1*
X2102393Y2393712D1*
X2108163Y2399416D1*
X2111015Y2405186D1*
X2129542Y2380845D2*
X2184060D1*
X2202587Y2439541D2*
X2208357Y2442459D1*
X2216979Y2451015D1*
Y2390793D1*
X2235507Y2419512D2*
X2261373D1*
X2269928Y2422363D1*
X2272847Y2425282D1*
X2275699Y2430985D1*
Y2439608D1*
X2272847Y2445311D1*
X2269928Y2448230D1*
X2261373Y2451081D1*
X2235507D1*
Y2390793D1*
X1494327Y2867832D2*
X1554615D1*
X1494327Y2847736D2*
Y2887928D1*
X1514423Y2920781D2*
X1517275Y2915077D1*
X1523045Y2909307D1*
X1531667Y2906455D1*
X1537371D1*
X1545993Y2909307D1*
X1551697Y2915077D1*
X1554615Y2920781D1*
Y2929403D1*
X1551697Y2935173D1*
X1545993Y2940877D1*
X1537371Y2943795D1*
X1531667D1*
X1523045Y2940877D1*
X1517275Y2935173D1*
X1514423Y2929403D1*
Y2920781D1*
X1508653Y3005366D2*
X1502949Y3002514D1*
X1497179Y2996744D1*
X1494327Y2991040D1*
Y2979567D1*
X1497179Y2973796D1*
X1502949Y2968093D1*
X1508653Y2965174D1*
X1517275Y2962322D1*
X1531667D1*
X1540223Y2965174D1*
X1545993Y2968093D1*
X1551697Y2973796D1*
X1554615Y2979566D1*
Y2991040D1*
X1551697Y2996744D1*
X1545993Y3002514D1*
X1540223Y3005366D1*
X1494327Y3043989D2*
X1554615D1*
X1494327Y3023893D2*
Y3064085D1*
X702212Y1535457D2*
X696508Y1532605D1*
X690738Y1526835D1*
X687886Y1521131D1*
Y1509657D1*
X690738Y1503887D1*
X696508Y1498183D1*
X702212Y1495265D1*
X710834Y1492413D1*
X725226D1*
X733782Y1495265D1*
X739552Y1498183D1*
X745256Y1503887D1*
X748174Y1509657D1*
Y1521131D1*
X745256Y1526835D1*
X739552Y1532605D1*
X733782Y1535457D1*
X687886Y1574080D2*
X748174D1*
X687886Y1553984D2*
Y1594176D1*
X758122Y1612703D2*
Y1667221D1*
X687886Y1685748D2*
X748174D1*
X707982Y1704275D2*
X748174D1*
X719456D2*
X710834Y1712897D1*
X707982Y1718667D1*
Y1727223D1*
X710834Y1732993D1*
X719456Y1735845D1*
X748174D1*
X687886Y1788794D2*
X748174D1*
X716604D2*
X710834Y1783090D1*
X707982Y1777320D1*
Y1768698D1*
X710834Y1762994D1*
X716604Y1757224D1*
X725226Y1754372D1*
X730930D1*
X739552Y1757224D1*
X745256Y1762994D1*
X748174Y1768698D1*
Y1777320D1*
X745256Y1783090D1*
X739552Y1788794D1*
X707982Y1807321D2*
X748174D1*
X725226D2*
X716604Y1810239D1*
X710834Y1815943D1*
X707982Y1821713D1*
Y1830335D1*
Y1883284D2*
X748174D1*
X716604D2*
X710834Y1877580D1*
X707982Y1871810D1*
Y1863254D1*
X710834Y1857484D1*
X716604Y1851781D1*
X725226Y1848862D1*
X730930D1*
X739552Y1851780D1*
X745256Y1857484D1*
X748174Y1863254D1*
Y1871810D1*
X745256Y1877580D1*
X739552Y1883284D1*
X687952Y1907581D2*
Y1939085D1*
X710900Y1921907D1*
Y1930529D1*
X713752Y1936233D1*
X716604Y1939085D1*
X725226Y1942003D1*
X730930D1*
X739552Y1939085D1*
X745322Y1933381D1*
X748174Y1924759D1*
Y1916137D1*
X745322Y1907581D1*
X742404Y1904729D1*
X736700Y1901811D1*
X687952Y1977774D2*
X690804Y1969152D1*
X699426Y1963382D1*
X713752Y1960530D1*
X722374D1*
X736700Y1963382D1*
X745322Y1969152D1*
X748174Y1977774D1*
Y1983478D1*
X745322Y1992100D1*
X736700Y1997804D1*
X722374Y2000722D1*
X713752D1*
X699426Y1997804D1*
X690804Y1992100D1*
X687952Y1983478D1*
Y1977774D1*
X699426Y1997804D2*
X736700Y1963382D1*
X748174Y2065212D2*
X687886Y2042197D1*
X748174Y2019249D1*
X728078Y2027871D2*
Y2056590D1*
X687886Y2083739D2*
X748174Y2106687D1*
X687886Y2129634D1*
X1504039Y1230215D2*
Y1169927D1*
X1538461D1*
X1602883D2*
Y1230215D1*
X1579936Y1169927D1*
X1556988Y1230215D1*
Y1169927D1*
X1627181Y1230149D2*
X1658684D1*
X1641507Y1207201D1*
X1650129D1*
X1655832Y1204349D1*
X1658684Y1201497D1*
X1661603Y1192875D1*
Y1187171D1*
X1658684Y1178549D1*
X1652981Y1172779D1*
X1644358Y1169927D1*
X1635736D1*
X1627181Y1172779D1*
X1624329Y1175697D1*
X1621411Y1181401D1*
X1714552Y1230149D2*
X1685900D1*
X1683048Y1204349D1*
X1685900Y1207201D1*
X1694522Y1210119D1*
X1703078D1*
X1711700Y1207201D1*
X1717470Y1201497D1*
X1720322Y1192875D1*
Y1187171D1*
X1717470Y1178549D1*
X1711700Y1172779D1*
X1703078Y1169927D1*
X1694522D1*
X1685900Y1172779D1*
X1683048Y1175697D1*
X1680130Y1181401D1*
X1753175Y1230149D2*
X1744619Y1227297D1*
X1741701Y1221593D1*
Y1215823D1*
X1744619Y1210119D1*
X1750323Y1207201D1*
X1761797Y1204349D1*
X1770419Y1201497D1*
X1776123Y1195727D1*
X1778974Y1190023D1*
Y1181401D1*
X1776123Y1175697D1*
X1773271Y1172779D1*
X1764649Y1169927D1*
X1753175D1*
X1744619Y1172779D1*
X1741701Y1175697D1*
X1738849Y1181401D1*
Y1190023D1*
X1741701Y1195727D1*
X1747471Y1201497D1*
X1756027Y1204349D1*
X1767501Y1207201D1*
X1773271Y1210119D1*
X1776123Y1215823D1*
Y1221593D1*
X1773271Y1227297D1*
X1764649Y1230149D1*
X1753175D1*
X1837694Y1230215D2*
Y1169927D1*
X1797502Y1230215D1*
Y1169927D1*
X1714325Y1606278D2*
X1654037D1*
X1714325Y1583330D1*
X1654037Y1560382D1*
X1714325D1*
X1668363Y1667849D2*
X1662659Y1664997D1*
X1656889Y1659227D1*
X1654037Y1653523D1*
Y1642049D1*
X1656889Y1636279D1*
X1662659Y1630575D1*
X1668363Y1627657D1*
X1676985Y1624805D1*
X1691377D1*
X1699933Y1627657D1*
X1705703Y1630575D1*
X1711406Y1636279D1*
X1714325Y1642049D1*
Y1653523D1*
X1711406Y1659227D1*
X1705703Y1664997D1*
X1699933Y1667849D1*
X1654037Y1706472D2*
X1714325D1*
X1654037Y1686376D2*
Y1726568D1*
X1668429Y1748013D2*
X1665577D1*
X1659807Y1750865D1*
X1656955Y1753717D1*
X1654103Y1759487D1*
Y1770961D1*
X1656955Y1776665D1*
X1659807Y1779517D1*
X1665577Y1782435D1*
X1671281D1*
X1677051Y1779517D1*
X1685607Y1773813D1*
X1714325Y1745095D1*
Y1785287D1*
X2610075Y2824865D2*
Y2787525D1*
X2670363D1*
X2638793D2*
Y2810473D1*
X2630171Y2843392D2*
X2670363D1*
X2647415D2*
X2638793Y2846310D1*
X2633023Y2852014D1*
X2630171Y2857784D1*
Y2866406D1*
Y2899259D2*
X2633023Y2893555D1*
X2638793Y2887785D1*
X2647415Y2884933D1*
X2653119D1*
X2661741Y2887785D1*
X2667445Y2893555D1*
X2670363Y2899259D1*
Y2907881D1*
X2667445Y2913651D1*
X2661741Y2919355D1*
X2653119Y2922273D1*
X2647415D1*
X2638793Y2919355D1*
X2633023Y2913651D1*
X2630171Y2907881D1*
Y2899259D1*
Y2940800D2*
X2670363D1*
X2641645D2*
X2633023Y2949423D1*
X2630171Y2955193D1*
Y2963748D1*
X2633023Y2969519D1*
X2641645Y2972370D1*
X2670363D1*
X2641645D2*
X2633023Y2980992D1*
X2630171Y2986763D1*
Y2995318D1*
X2633023Y3001088D1*
X2641645Y3004007D1*
X2670363D1*
X2624401Y3065578D2*
X2618697Y3062726D1*
X2612927Y3056956D1*
X2610075Y3051252D1*
Y3039778D1*
X2612927Y3034008D1*
X2618697Y3028304D1*
X2624401Y3025386D1*
X2633023Y3022534D1*
X2647415D1*
X2655971Y3025386D1*
X2661741Y3028304D1*
X2667445Y3034008D1*
X2670363Y3039778D1*
Y3051252D1*
X2667445Y3056956D1*
X2661741Y3062726D1*
X2655971Y3065578D1*
X2610075Y3104201D2*
X2670363D1*
X2610075Y3084105D2*
Y3124297D1*
X2259287Y2738300D2*
X2319576D1*
X2259287Y2718204D2*
Y2758396D1*
X2279384Y2791249D2*
X2282235Y2785545D1*
X2288006Y2779775D1*
X2296628Y2776923D1*
X2302331D1*
X2310953Y2779775D1*
X2316657Y2785545D1*
X2319575Y2791249D1*
Y2799871D1*
X2316657Y2805641D1*
X2310953Y2811345D1*
X2302331Y2814263D1*
X2296628D1*
X2288006Y2811345D1*
X2282235Y2805641D1*
X2279384Y2799871D1*
Y2791249D1*
X2259287Y2850035D2*
X2262139Y2844264D1*
X2267910Y2838561D1*
X2273613Y2835642D1*
X2282235Y2832791D1*
X2296628Y2832790D1*
X2305183Y2835642D1*
X2310953Y2838561D1*
X2316657Y2844264D1*
X2319575Y2850035D1*
Y2861509D1*
X2316657Y2867212D1*
X2310953Y2872982D1*
X2305183Y2875834D1*
X2296628Y2878686D1*
X2282235D1*
X2273613Y2875834D1*
X2267910Y2872983D1*
X2262139Y2867212D1*
X2259287Y2861509D1*
Y2850035D1*
X2279383Y2897213D2*
X2308102D1*
X2316657Y2900065D1*
X2319575Y2905835D1*
Y2914457D1*
X2316657Y2920161D1*
X2308102Y2928783D1*
X2279383D2*
X2319575D1*
X2259287Y2955933D2*
X2308102Y2955932D1*
X2316657Y2958784D1*
X2319575Y2964555D1*
Y2970258D1*
X2279383Y2947310D2*
Y2967406D1*
X2259287Y2988785D2*
X2319575D1*
X2296628Y3007313D2*
Y3041734D1*
X2290857D1*
X2285087Y3038883D1*
X2282235Y3036031D1*
X2279383Y3030260D1*
Y3021638D1*
X2282235Y3015935D1*
X2288006Y3010164D1*
X2296628Y3007313D1*
X2302331D1*
X2310953Y3010164D1*
X2316657Y3015935D1*
X2319575Y3021638D1*
Y3030260D1*
X2316657Y3036031D1*
X2310953Y3041734D1*
X2259287Y3068884D2*
X2308102D1*
X2316657Y3071735D1*
X2319575Y3077506D1*
Y3083209D1*
X2279383Y3060262D2*
Y3080358D1*
X2289465Y3101737D2*
Y3134898D1*
X2273680Y3156344D2*
X2270828D1*
X2265058Y3159195D1*
X2262206Y3162047D1*
X2259354Y3167818D1*
Y3179291D1*
X2262206Y3184995D1*
X2265058Y3187847D1*
X2270828Y3190765D1*
X2276532D1*
X2282302Y3187847D1*
X2290857Y3182143D1*
X2319575Y3153425D1*
Y3193617D1*
X2191711Y619362D2*
Y679650D1*
X2168763Y619362D1*
X2145815Y679650D1*
Y619362D1*
X2253282Y665324D2*
X2250430Y671028D1*
X2244660Y676798D1*
X2238956Y679650D1*
X2227482D1*
X2221712Y676798D1*
X2216008Y671028D1*
X2213090Y665324D1*
X2210238Y656702D1*
Y642309D1*
X2213090Y633754D1*
X2216008Y627984D1*
X2221712Y622280D1*
X2227482Y619362D1*
X2238956D1*
X2244660Y622280D1*
X2250430Y627984D1*
X2253282Y633754D1*
X2291905Y679650D2*
Y619362D1*
X2271809Y679650D2*
X2312001D1*
X2333446Y665257D2*
Y668109D1*
X2336298Y673879D1*
X2339150Y676731D1*
X2344920Y679583D1*
X2356394D1*
X2362098Y676731D1*
X2364950Y673879D1*
X2367868Y668109D1*
Y662405D1*
X2364950Y656635D1*
X2359246Y648080D1*
X2330528Y619362D1*
X2370720D1*
X4923402Y1468060D2*
X4929172Y1470978D1*
X4937794Y1479534D1*
Y1419312D1*
X4959239Y1465208D2*
Y1468060D1*
X4962091Y1473830D1*
X4964943Y1476682D1*
X4970713Y1479534D1*
X4982187D1*
X4987891Y1476682D1*
X4990743Y1473830D1*
X4993661Y1468060D1*
Y1462356D1*
X4990743Y1456586D1*
X4985039Y1448030D1*
X4956321Y1419312D1*
X4996513D1*
X5015040Y1479600D2*
X5037988Y1419312D1*
X5060936Y1479600D1*
X5125425Y1419312D2*
X5102411Y1479600D1*
X5079463Y1419312D1*
X5088085Y1439408D2*
X5116803D1*
X5186996Y1465274D2*
X5184144Y1470978D1*
X5178374Y1476748D1*
X5172671Y1479600D1*
X5161197D1*
X5155426Y1476748D1*
X5149723Y1470978D1*
X5146804Y1465274D1*
X5143952Y1456652D1*
Y1442260D1*
X5146804Y1433704D1*
X5149723Y1427934D1*
X5155426Y1422230D1*
X5161197Y1419312D1*
X5172671D1*
X5178374Y1422230D1*
X5184144Y1427934D1*
X5186996Y1433704D1*
X5205523Y1468060D2*
X5211294Y1470978D1*
X5219916Y1479534D1*
Y1419312D1*
X3992319Y2932445D2*
Y2872157D1*
X4010846Y2912349D2*
Y2872157D1*
Y2900875D2*
X4019468Y2909497D1*
X4025238Y2912349D1*
X4033794D1*
X4039564Y2909497D1*
X4042416Y2900875D1*
Y2872157D1*
X4060943Y2932445D2*
Y2872157D1*
X4079470Y2895105D2*
X4113892D1*
Y2900875D1*
X4111040Y2906645D1*
X4108188Y2909497D1*
X4102418Y2912349D1*
X4093796D1*
X4088092Y2909497D1*
X4082322Y2903727D1*
X4079470Y2895105D1*
Y2889401D1*
X4082322Y2880779D1*
X4088092Y2875075D1*
X4093796Y2872157D1*
X4102418D1*
X4108188Y2875075D1*
X4113892Y2880779D1*
X4141041Y2932445D2*
Y2883631D1*
X4143893Y2875075D1*
X4149663Y2872157D1*
X4155367D1*
X4132419Y2912349D2*
X4152515D1*
X4173894Y2902268D2*
X4207056D1*
X4225583Y2920905D2*
X4231353Y2923823D1*
X4239975Y2932379D1*
Y2872157D1*
X5059458Y698547D2*
Y638259D1*
X5093880D1*
X5158303D2*
Y698547D1*
X5135355Y638259D1*
X5112407Y698547D1*
Y638259D1*
X5188304D2*
X5217022Y698481D1*
X5176830D1*
X5249875D2*
X5241319Y695629D1*
X5238401Y689925D1*
Y684155D1*
X5241319Y678451D1*
X5247023Y675533D1*
X5258497Y672681D1*
X5267119Y669829D1*
X5272823Y664059D1*
X5275675Y658355D1*
Y649733D1*
X5272823Y644029D1*
X5269971Y641111D1*
X5261349Y638259D1*
X5249875D1*
X5241319Y641111D1*
X5238401Y644029D1*
X5235549Y649733D1*
Y658355D1*
X5238401Y664059D1*
X5244171Y669829D1*
X5252727Y672681D1*
X5264201Y675533D1*
X5269971Y678451D1*
X5272823Y684155D1*
Y689925D1*
X5269971Y695629D1*
X5261349Y698481D1*
X5249875D1*
X5294202Y687007D2*
X5299972Y689925D1*
X5308594Y698481D1*
Y638259D1*
X5330040Y684155D2*
Y687007D1*
X5332891Y692777D1*
X5335743Y695629D1*
X5341514Y698481D1*
X5352987D1*
X5358691Y695629D1*
X5361543Y692777D1*
X5364461Y687007D1*
Y681303D1*
X5361543Y675533D1*
X5355839Y666977D1*
X5327121Y638259D1*
X5367313D1*
X4722624Y411488D2*
X4751342Y471709D1*
X4711150D1*
X4784195D2*
X4775639Y468857D1*
X4772721Y463154D1*
Y457383D1*
X4775639Y451680D1*
X4781343Y448761D1*
X4792817Y445909D1*
X4801439Y443058D1*
X4807143Y437287D1*
X4809995Y431584D1*
Y422962D1*
X4807143Y417258D1*
X4804291Y414339D1*
X4795669Y411488D1*
X4784195D1*
X4775639Y414339D1*
X4772721Y417258D1*
X4769869Y422962D1*
Y431584D1*
X4772721Y437287D1*
X4778491Y443058D1*
X4787047Y445909D1*
X4798521Y448761D1*
X4804291Y451680D1*
X4807143Y457383D1*
Y463154D1*
X4804291Y468857D1*
X4795669Y471709D1*
X4784195D1*
X4845766D2*
X4837144Y468857D1*
X4831374Y460235D1*
X4828522Y445909D1*
Y437287D1*
X4831374Y422962D1*
X4837144Y414339D1*
X4845766Y411488D1*
X4851470D1*
X4860092Y414339D1*
X4865795Y422962D1*
X4868714Y437287D1*
Y445909D1*
X4865795Y460235D1*
X4860092Y468857D1*
X4851470Y471709D1*
X4845766D1*
X4865795Y460235D2*
X4831374Y422962D1*
X4921663Y471709D2*
X4893011D1*
X4890159Y445909D1*
X4893011Y448761D1*
X4901633Y451680D1*
X4910189D1*
X4918811Y448761D1*
X4924581Y443058D1*
X4927433Y434435D1*
Y428732D1*
X4924581Y420110D1*
X4918811Y414339D1*
X4910189Y411488D1*
X4901633D1*
X4893011Y414339D1*
X4890159Y417258D1*
X4887241Y422962D1*
X4200722Y953786D2*
Y1014007D1*
X4172004Y973882D1*
X4215048D1*
X4245049Y953786D2*
X4273767Y1014007D1*
X4233575D1*
X4309539D2*
X4300917Y1011155D1*
X4295146Y1002533D1*
X4292295Y988207D1*
Y979585D1*
X4295146Y965260D1*
X4300917Y956637D1*
X4309539Y953786D1*
X4315242D1*
X4323864Y956637D1*
X4329568Y965260D1*
X4332487Y979585D1*
Y988207D1*
X4329568Y1002533D1*
X4323864Y1011155D1*
X4315242Y1014007D1*
X4309539D1*
X4329568Y1002533D2*
X4295146Y965260D1*
X4351014Y993978D2*
Y965260D1*
X4353866Y956704D1*
X4359636Y953786D1*
X4368258D1*
X4373962Y956704D1*
X4382584Y965260D1*
Y993978D2*
Y953786D1*
X4424059Y1014074D2*
X4418355D1*
X4412585Y1011222D1*
X4409733Y1002600D1*
Y953786D1*
X4401111Y993978D2*
X4421207D1*
X4674345Y878982D2*
Y939204D1*
X4645626Y899078D1*
X4688670D1*
X4718671Y878982D2*
X4747389Y939204D1*
X4707197D1*
X4783161D2*
X4774539Y936352D1*
X4768768Y927730D1*
X4765917Y913404D1*
Y904782D1*
X4768768Y890456D1*
X4774539Y881834D1*
X4783161Y878982D1*
X4788864D1*
X4797487Y881834D1*
X4803190Y890456D1*
X4806109Y904782D1*
Y913404D1*
X4803190Y927730D1*
X4797487Y936352D1*
X4788864Y939204D1*
X4783161D1*
X4803190Y927730D2*
X4768768Y890456D1*
X4824636Y919174D2*
Y890456D1*
X4827488Y881901D1*
X4833258Y878982D1*
X4841880D1*
X4847584Y881901D1*
X4856206Y890456D1*
Y919174D2*
Y878982D1*
X4897681Y939270D2*
X4891977D1*
X4886207Y936419D1*
X4883355Y927796D1*
Y878982D1*
X4874733Y919174D2*
X4894829D1*
X3925729Y2497366D2*
Y2437078D1*
X3905633Y2497366D2*
X3945825D1*
X3964352Y2477270D2*
Y2437078D1*
Y2460026D2*
X3967270Y2468648D1*
X3972974Y2474418D1*
X3978744Y2477270D1*
X3987366D1*
X4028841Y2497366D2*
X4023138D1*
X4017367Y2494514D1*
X4014515Y2485892D1*
Y2437078D1*
X4005893Y2477270D2*
X4025989D1*
X4047368Y2497366D2*
Y2437078D1*
X4065896Y2477270D2*
Y2437078D1*
Y2465796D2*
X4074518Y2474418D1*
X4080288Y2477270D1*
X4088843D1*
X4094614Y2474418D1*
X4097466Y2465796D1*
Y2437078D1*
X4115993Y2477270D2*
Y2416982D1*
Y2468648D2*
X4121763Y2474352D1*
X4127467Y2477270D1*
X4136089D1*
X4141859Y2474352D1*
X4147563Y2468648D1*
X4150481Y2460026D1*
Y2454256D1*
X4147563Y2445700D1*
X4141859Y2439930D1*
X4136089Y2437078D1*
X4127467D1*
X4121763Y2439930D1*
X4115993Y2445700D1*
X4169008Y2477270D2*
Y2448552D1*
X4171860Y2439996D1*
X4177630Y2437078D1*
X4186252D1*
X4191956Y2439996D1*
X4200578Y2448552D1*
Y2477270D2*
Y2437078D1*
X4227727Y2497366D2*
Y2448552D1*
X4230579Y2439996D1*
X4236349Y2437078D1*
X4242053D1*
X4219105Y2477270D2*
X4239201D1*
X4260580Y2467189D2*
X4293742D1*
X4312269Y2485826D2*
X4318039Y2488744D1*
X4326661Y2497300D1*
Y2437078D1*
X4490093Y1268746D2*
Y1328968D1*
X4461374Y1288842D1*
X4504418D1*
X4534419Y1268746D2*
X4563138Y1328968D1*
X4522945D1*
X4598909D2*
X4590287Y1326116D1*
X4584517Y1317494D1*
X4581665Y1303168D1*
Y1294546D1*
X4584517Y1280220D1*
X4590287Y1271598D1*
X4598909Y1268746D1*
X4604613D1*
X4613235Y1271598D1*
X4618938Y1280220D1*
X4621857Y1294546D1*
Y1303168D1*
X4618938Y1317494D1*
X4613235Y1326116D1*
X4604613Y1328968D1*
X4598909D1*
X4618938Y1317494D2*
X4584517Y1280220D1*
X4640384Y1308938D2*
Y1280220D1*
X4643236Y1271664D1*
X4649006Y1268746D1*
X4657628D1*
X4663332Y1271664D1*
X4671954Y1280220D1*
Y1308938D2*
Y1268746D1*
X4713429Y1329034D2*
X4707725D1*
X4701955Y1326182D1*
X4699103Y1317560D1*
Y1268746D1*
X4690481Y1308938D2*
X4710577D1*
X4923494Y2227902D2*
X4929264Y2230820D1*
X4937886Y2239376D1*
Y2179154D1*
X4959332Y2225050D2*
Y2227902D1*
X4962184Y2233672D1*
X4965035Y2236524D1*
X4970806Y2239376D1*
X4982280D1*
X4987983Y2236524D1*
X4990835Y2233672D1*
X4993754Y2227902D1*
Y2222198D1*
X4990835Y2216428D1*
X4985131Y2207873D1*
X4956413Y2179154D1*
X4996605D1*
X5015133Y2239442D2*
X5038080Y2179154D1*
X5061028Y2239442D1*
X5125518Y2179154D2*
X5102503Y2239442D1*
X5079555Y2179154D1*
X5088177Y2199250D2*
X5116896D1*
X5187089Y2225117D2*
X5184237Y2230820D1*
X5178467Y2236591D1*
X5172763Y2239442D1*
X5161289D1*
X5155519Y2236591D1*
X5149815Y2230820D1*
X5146897Y2225117D1*
X5144045Y2216495D1*
Y2202102D1*
X5146897Y2193547D1*
X5149815Y2187777D1*
X5155519Y2182073D1*
X5161289Y2179154D1*
X5172763D1*
X5178467Y2182073D1*
X5184237Y2187777D1*
X5187089Y2193547D1*
X5208534Y2225050D2*
Y2227902D1*
X5211386Y2233672D1*
X5214238Y2236524D1*
X5220008Y2239376D1*
X5231482D1*
X5237186Y2236524D1*
X5240038Y2233672D1*
X5242956Y2227902D1*
Y2222198D1*
X5240038Y2216428D1*
X5234334Y2207873D1*
X5205616Y2179154D1*
X5245808D1*
X2674903Y1054039D2*
X2735191D1*
Y1088461D1*
Y1152883D2*
X2674903Y1152884D1*
X2735191Y1129936D1*
X2674903Y1106988D1*
X2735191D1*
X2674969Y1177181D2*
Y1208684D1*
X2697917Y1191507D1*
Y1200129D1*
X2700769Y1205832D1*
X2703621Y1208684D1*
X2712243Y1211603D1*
X2717947D1*
X2726569Y1208684D1*
X2732339Y1202981D1*
X2735191Y1194359D1*
Y1185736D1*
X2732339Y1177181D1*
X2729421Y1174329D1*
X2723717Y1171411D1*
X2674969Y1264552D2*
Y1235900D1*
X2700769Y1233048D1*
X2697917Y1235900D1*
X2694999Y1244522D1*
Y1253078D1*
X2697917Y1261700D1*
X2703621Y1267470D1*
X2712243Y1270322D1*
X2717947D1*
X2726569Y1267470D1*
X2732339Y1261700D1*
X2735191Y1253078D1*
Y1244522D1*
X2732339Y1235900D1*
X2729421Y1233048D1*
X2723717Y1230130D1*
X2674969Y1303175D2*
X2677821Y1294619D1*
X2683525Y1291701D1*
X2689295D1*
X2694999Y1294619D1*
X2697917Y1300323D1*
X2700769Y1311797D1*
X2703621Y1320419D1*
X2709391Y1326123D1*
X2715095Y1328974D1*
X2723717D1*
X2729421Y1326123D1*
X2732339Y1323271D1*
X2735191Y1314649D1*
Y1303175D1*
X2732339Y1294619D1*
X2729421Y1291701D1*
X2723717Y1288849D1*
X2715095D1*
X2709391Y1291701D1*
X2703621Y1297471D1*
X2700769Y1306027D1*
X2697917Y1317501D1*
X2694999Y1323271D1*
X2689295Y1326123D1*
X2683525D1*
X2677821Y1323271D1*
X2674969Y1314649D1*
Y1303175D1*
X2674903Y1387694D2*
X2735191D1*
X2674903Y1347502D1*
X2735191D1*
X3725753Y2840110D2*
X3665465D1*
X3725753Y2817162D1*
X3665464Y2794215D1*
X3725752D1*
X3665465Y2875882D2*
X3668316Y2870111D1*
X3674087Y2864408D1*
X3679790Y2861489D1*
X3688412Y2858637D1*
X3702805D1*
X3711360Y2861489D1*
X3717130Y2864408D1*
X3722834Y2870111D1*
X3725753Y2875881D1*
Y2887355D1*
X3722834Y2893059D1*
X3717130Y2898829D1*
X3711360Y2901681D1*
X3702805Y2904533D1*
X3688412D1*
X3679790Y2901681D1*
X3674087Y2898829D1*
X3668316Y2893059D1*
X3665465Y2887355D1*
Y2875882D1*
Y2923060D2*
X3725752Y2946008D1*
X3665465Y2968956D1*
X3112083Y2752593D2*
X3172371D1*
X3112083Y2732497D2*
Y2772689D1*
X3132179Y2791216D2*
X3172371D1*
X3149423D2*
X3140801Y2794134D1*
X3135031Y2799838D1*
X3132179Y2805608D1*
Y2814230D1*
X3112083Y2855705D2*
Y2850001D1*
X3114935Y2844231D1*
X3123557Y2841379D1*
X3172371D1*
X3132179Y2832757D2*
Y2852853D1*
X3112083Y2874232D2*
X3172371D1*
X3132179Y2892759D2*
X3172371D1*
X3143653D2*
X3135031Y2901381D1*
X3132179Y2907152D1*
Y2915707D1*
X3135031Y2921477D1*
X3143653Y2924329D1*
X3172371D1*
X3132179Y2942856D2*
X3192467D1*
X3140801D2*
X3135097Y2948627D1*
X3132179Y2954330D1*
Y2962952D1*
X3135097Y2968723D1*
X3140801Y2974426D1*
X3149423Y2977345D1*
X3155193D1*
X3163749Y2974426D1*
X3169519Y2968723D1*
X3172371Y2962952D1*
Y2954330D1*
X3169519Y2948627D1*
X3163749Y2942856D1*
X3132179Y2995872D2*
X3160897D1*
X3169453Y2998724D1*
X3172371Y3004494D1*
Y3013116D1*
X3169453Y3018820D1*
X3160897Y3027442D1*
X3132179D2*
X3172371D1*
X3112083Y3054591D2*
X3160897D1*
X3169452Y3057443D1*
X3172371Y3063213D1*
Y3068917D1*
X3132179Y3045969D2*
Y3066065D1*
X3142260Y3087444D2*
Y3120606D1*
X3126475Y3142051D2*
X3123623D1*
X3117853Y3144903D1*
X3115001Y3147755D1*
X3112149Y3153525D1*
Y3164999D1*
X3115001Y3170703D1*
X3117853Y3173555D1*
X3123623Y3176473D1*
X3129327D1*
X3135097Y3173554D1*
X3143653Y3167851D1*
X3172371Y3139133D1*
Y3179325D1*
X3496728Y2819183D2*
X3557016D1*
X3516824Y2837710D2*
X3557016D1*
X3528298D2*
X3519676Y2846332D1*
X3516824Y2852102D1*
Y2860658D1*
X3519676Y2866428D1*
X3528298Y2869280D1*
X3557016D1*
X3496728Y2887807D2*
X3557016D1*
X3534069Y2906334D2*
Y2940756D1*
X3528298D1*
X3522528Y2937904D1*
X3519676Y2935052D1*
X3516824Y2929282D1*
Y2920660D1*
X3519676Y2914956D1*
X3525446Y2909186D1*
X3534069Y2906334D1*
X3539772D1*
X3548394Y2909186D1*
X3554098Y2914956D1*
X3557016Y2920660D1*
Y2929282D1*
X3554098Y2935052D1*
X3548394Y2940756D1*
X3496728Y2967905D2*
X3545542D1*
X3554098Y2970757D1*
X3557016Y2976527D1*
Y2982231D1*
X3516824Y2959283D2*
Y2979379D1*
X3526906Y3000758D2*
Y3033920D1*
X3511121Y3055365D2*
X3508269D1*
X3502499Y3058217D1*
X3499647Y3061069D1*
X3496795Y3066839D1*
Y3078313D1*
X3499647Y3084017D1*
X3502499Y3086869D1*
X3508269Y3089787D1*
X3513973D1*
X3519743Y3086869D1*
X3528298Y3081165D1*
X3557016Y3052447D1*
Y3092639D1*
X4292089Y468330D2*
Y408042D1*
X4326511D1*
X4382312Y468330D2*
X4345038D1*
Y408042D1*
X4382312D1*
X4345038Y439612D2*
X4367986D1*
X4400839Y468330D2*
Y408042D1*
X4420935D1*
X4429557Y410960D1*
X4435327Y416664D1*
X4438179Y422434D1*
X4441031Y430990D1*
Y445382D1*
X4438179Y454004D1*
X4435327Y459708D1*
X4429557Y465478D1*
X4420935Y468330D1*
X4400839D1*
X1191965Y2751200D2*
X1252253D1*
X1191965Y2731104D2*
Y2771296D1*
X1212061Y2804149D2*
X1214913Y2798445D1*
X1220683Y2792675D1*
X1229305Y2789823D1*
X1235009D1*
X1243631Y2792675D1*
X1249334Y2798445D1*
X1252253Y2804149D1*
Y2812771D1*
X1249334Y2818541D1*
X1243631Y2824245D1*
X1235009Y2827163D1*
X1229305D1*
X1220683Y2824245D1*
X1214913Y2818541D1*
X1212061Y2812771D1*
Y2804149D1*
X1191965Y2862935D2*
X1194817Y2857164D1*
X1200587Y2851461D1*
X1206291Y2848542D1*
X1214913Y2845690D1*
X1229305D1*
X1237860Y2848542D1*
X1243631Y2851461D1*
X1249334Y2857164D1*
X1252253Y2862934D1*
Y2874408D1*
X1249334Y2880112D1*
X1243631Y2885882D1*
X1237860Y2888734D1*
X1229305Y2891586D1*
X1214913D1*
X1206291Y2888734D1*
X1200587Y2885882D1*
X1194817Y2880112D1*
X1191965Y2874408D1*
Y2862935D1*
X1212061Y2910113D2*
X1240779D1*
X1249334Y2912965D1*
X1252253Y2918735D1*
Y2927357D1*
X1249334Y2933061D1*
X1240779Y2941683D1*
X1212061D2*
X1252253D1*
X1191965Y2968832D2*
X1240779D1*
X1249334Y2971684D1*
X1252253Y2977454D1*
Y2983158D1*
X1212061Y2960210D2*
Y2980306D1*
X1191965Y3001685D2*
X1252253D1*
X1229305Y3020212D2*
Y3054634D1*
X1223535D1*
X1217764Y3051782D1*
X1214913Y3048931D1*
X1212061Y3043160D1*
Y3034538D1*
X1214913Y3028835D1*
X1220683Y3023064D1*
X1229305Y3020212D1*
X1235009D1*
X1243631Y3023064D1*
X1249334Y3028835D1*
X1252253Y3034538D1*
Y3043160D1*
X1249334Y3048931D1*
X1243631Y3054634D1*
X1191965Y3081783D2*
X1240779D1*
X1249334Y3084635D1*
X1252253Y3090406D1*
Y3096109D1*
X1212061Y3073161D2*
Y3093257D1*
X1222142Y3114636D2*
Y3147798D1*
X1203505Y3166325D2*
X1200587Y3172095D1*
X1192031Y3180717D1*
X1252253D1*
X864799Y2792576D2*
Y2786872D1*
X867651Y2781102D1*
X876273Y2778250D1*
X925087D1*
X884895Y2769628D2*
Y2789724D1*
Y2811103D2*
X925087D1*
X902139D2*
X893517Y2814021D1*
X887747Y2819725D1*
X884895Y2825495D1*
Y2834117D1*
Y2852644D2*
X925087D1*
X896369D2*
X887747Y2861266D1*
X884895Y2867036D1*
Y2875592D1*
X887747Y2881362D1*
X896369Y2884214D1*
X925087D1*
X896369D2*
X887747Y2892836D1*
X884895Y2898606D1*
Y2907162D1*
X887747Y2912932D1*
X896369Y2915850D1*
X925087D1*
X864799Y2954473D2*
X925087D1*
X864799Y2934377D2*
Y2974569D1*
X884895Y2993096D2*
X925087D1*
X902139D2*
X893517Y2996015D1*
X887747Y3001719D1*
X884895Y3007489D1*
Y3016111D1*
X864799Y3057586D2*
Y3051882D1*
X867651Y3046112D1*
X876273Y3043260D1*
X925087D1*
X884895Y3034638D2*
Y3054734D1*
X894976Y3076113D2*
Y3109275D1*
X876340Y3127802D2*
X873421Y3133572D1*
X864866Y3142194D1*
X925087D1*
X1812476Y2786872D2*
Y2749532D1*
X1872764D1*
X1841194D2*
X1841195Y2772480D1*
X1832572Y2805399D2*
X1872764D1*
X1849817D2*
X1841195Y2808317D1*
X1835424Y2814021D1*
X1832572Y2819791D1*
Y2828413D1*
Y2846940D2*
X1872764D1*
X1844046D2*
X1835424Y2855562D1*
X1832572Y2861332D1*
Y2869888D1*
X1835424Y2875658D1*
X1844046Y2878510D1*
X1872764D1*
X1844046D2*
X1835424Y2887132D1*
X1832572Y2892902D1*
Y2901458D1*
X1835424Y2907228D1*
X1844046Y2910146D1*
X1872764D1*
X1812476Y2948770D2*
X1872764D1*
X1812476Y2928674D2*
Y2968866D1*
X1832572Y2987393D2*
X1872764D1*
X1849817D2*
X1841194Y2990311D1*
X1835424Y2996015D1*
X1832572Y3001785D1*
Y3010407D1*
X1812476Y3051882D2*
Y3046178D1*
X1815328Y3040408D1*
X1823950Y3037556D1*
X1872764D1*
X1832572Y3028934D2*
Y3049030D1*
X1842654Y3070409D2*
Y3103571D1*
X1826869Y3125016D2*
X1824017D1*
X1818247Y3127868D1*
X1815395Y3130720D1*
X1812543Y3136490D1*
Y3147964D1*
X1815395Y3153668D1*
X1818247Y3156520D1*
X1824017Y3159438D1*
X1829721D1*
X1835491Y3156520D1*
X1844046Y3150816D1*
X1872764Y3122098D1*
Y3162290D1*
X2806467Y463902D2*
Y403614D1*
X2824994Y435183D2*
X2850794D1*
X2859416Y438102D1*
X2862334Y440954D1*
X2865186Y446657D1*
Y452428D1*
X2862334Y458131D1*
X2859416Y461050D1*
X2850794Y463902D1*
X2824994D1*
Y403614D1*
X2845090Y435183D2*
X2865186Y403614D1*
X1526191Y734526D2*
D120*
Y654142D1*
X1560680D1*
X1572176Y658033D1*
X1575978Y661836D1*
X1579781Y669441D1*
Y680937D1*
X1575978Y688630D1*
X1572176Y692433D1*
X1560680Y696236D1*
X1572176Y700127D1*
X1575978Y703929D1*
X1579781Y711534D1*
Y719228D1*
X1575978Y726833D1*
X1572176Y730724D1*
X1560680Y734526D1*
X1526191D1*
Y696236D2*
X1560680D1*
X1604484Y707732D2*
Y669441D1*
X1608286Y658033D1*
X1615980Y654142D1*
X1627476D1*
X1635081Y658033D1*
X1646577Y669441D1*
Y707732D2*
Y654142D1*
X1671280Y707732D2*
X1713373D1*
X1671280Y654142D1*
X1713373D1*
X1738076Y707732D2*
X1780169D1*
X1738076Y654142D1*
X1780169D1*
X1804872Y684739D2*
X1850768D1*
Y692433D1*
X1846965Y700127D1*
X1843163Y703929D1*
X1835469Y707732D1*
X1823973D1*
X1816368Y703929D1*
X1808674Y696236D1*
X1804872Y684739D1*
Y677134D1*
X1808674Y665638D1*
X1816368Y658033D1*
X1823973Y654142D1*
X1835469D1*
X1843163Y658033D1*
X1850768Y665638D1*
X1875470Y707732D2*
Y654142D1*
Y684739D2*
X1879361Y696236D1*
X1886966Y703929D1*
X1894660Y707732D1*
X1906156D1*
M02*
