G04 DipTrace 3.3.1.0*
G04 BoardOutline.gbr*
%MOIN*%
G04 #@! TF.FileFunction,Profile*
G04 #@! TF.Part,Single*
%ADD11C,0.005512*%
%FSLAX26Y26*%
G04*
G70*
G90*
G75*
G01*
G04 BoardOutline*
%LPD*%
X393701Y1181102D2*
D11*
X1574803D1*
Y393701D1*
X393701D1*
Y1181102D1*
X1574803D2*
X2755906D1*
Y393701D1*
X1574803D1*
Y1181102D1*
X2755906D2*
X3937008D1*
Y393701D1*
X2755906D1*
Y1181102D1*
X3937008D2*
X5118110D1*
Y393701D1*
X3937008D1*
Y1181102D1*
X5118110D2*
X6299213D1*
Y393701D1*
X5118110D1*
Y1181102D1*
X393701Y1968504D2*
X1574803D1*
Y1181102D1*
X393701D1*
Y1968504D1*
X1574803D2*
X2755906D1*
Y1181102D1*
X1574803D1*
Y1968504D1*
X2755906D2*
X3937008D1*
Y1181102D1*
X2755906D1*
Y1968504D1*
X3937008D2*
X5118110D1*
Y1181102D1*
X3937008D1*
Y1968504D1*
X5118110D2*
X6299213D1*
Y1181102D1*
X5118110D1*
Y1968504D1*
X393701Y2755906D2*
X1574803D1*
Y1968504D1*
X393701D1*
Y2755906D1*
X1574803D2*
X2755906D1*
Y1968504D1*
X1574803D1*
Y2755906D1*
X2755906D2*
X3937008D1*
Y1968504D1*
X2755906D1*
Y2755906D1*
X3937008D2*
X5118110D1*
Y1968504D1*
X3937008D1*
Y2755906D1*
X5118110D2*
X6299213D1*
Y1968504D1*
X5118110D1*
Y2755906D1*
X393701Y3543307D2*
X1574803D1*
Y2755906D1*
X393701D1*
Y3543307D1*
X1574803D2*
X2755906D1*
Y2755906D1*
X1574803D1*
Y3543307D1*
X2755906D2*
X3937008D1*
Y2755906D1*
X2755906D1*
Y3543307D1*
X3937008D2*
X5118110D1*
Y2755906D1*
X3937008D1*
Y3543307D1*
X5118110D2*
X6299213D1*
Y2755906D1*
X5118110D1*
Y3543307D1*
X393701Y4330709D2*
X1574803D1*
Y3543307D1*
X393701D1*
Y4330709D1*
X1574803D2*
X2755906D1*
Y3543307D1*
X1574803D1*
Y4330709D1*
X2755906D2*
X3937008D1*
Y3543307D1*
X2755906D1*
Y4330709D1*
X3937008D2*
X5118110D1*
Y3543307D1*
X3937008D1*
Y4330709D1*
X5118110D2*
X6299213D1*
Y3543307D1*
X5118110D1*
Y4330709D1*
M02*
