G04 DipTrace 3.3.1.0*
G04 Top.gbr*
%MOIN*%
G04 #@! TF.FileFunction,Copper,L1,Top*
G04 #@! TF.Part,Single*
%AMOUTLINE0*
4,1,20,
0.029528,0.0,
0.028082,-0.012166,
0.023888,-0.023141,
0.017356,-0.031851,
0.009125,-0.037443,
0.0,-0.03937,
-0.009125,-0.037443,
-0.017356,-0.031851,
-0.023888,-0.023141,
-0.028082,-0.012166,
-0.029528,0.0,
-0.028082,0.012166,
-0.023888,0.023141,
-0.017356,0.031851,
-0.009125,0.037443,
0.0,0.03937,
0.009125,0.037443,
0.017356,0.031851,
0.023888,0.023141,
0.028082,0.012166,
0.029528,0.0,
0*%
G04 #@! TA.AperFunction,ComponentPad*
%ADD16R,0.07874X0.07874*%
%ADD17O,0.059055X0.086614*%
%ADD18O,0.23622X0.137795*%
%ADD31OUTLINE0*%
%FSLAX26Y26*%
G04*
G70*
G90*
G75*
G01*
G04 Top*
%LPD*%
D31*
X781201Y1081201D3*
X881201D3*
X981201D3*
X1081201D3*
X1181201D3*
D16*
X834252Y637402D3*
D17*
X934252D3*
X1034252D3*
X1134252D3*
Y937402D3*
X1034252D3*
X934252D3*
X834252D3*
D18*
X551181Y1082677D3*
X1417323D3*
X551181Y492126D3*
X1417323D3*
D31*
X1962303Y1081201D3*
X2062303D3*
X2162303D3*
X2262303D3*
X2362303D3*
D16*
X2015354Y637402D3*
D17*
X2115354D3*
X2215354D3*
X2315354D3*
Y937402D3*
X2215354D3*
X2115354D3*
X2015354D3*
D18*
X1732283Y1082677D3*
X2598425D3*
X1732283Y492126D3*
X2598425D3*
D31*
X3143406Y1081201D3*
X3243406D3*
X3343406D3*
X3443406D3*
X3543406D3*
D16*
X3196457Y637402D3*
D17*
X3296457D3*
X3396457D3*
X3496457D3*
Y937402D3*
X3396457D3*
X3296457D3*
X3196457D3*
D18*
X2913386Y1082677D3*
X3779528D3*
X2913386Y492126D3*
X3779528D3*
D31*
X4324508Y1081201D3*
X4424508D3*
X4524508D3*
X4624508D3*
X4724508D3*
D16*
X4377559Y637402D3*
D17*
X4477559D3*
X4577559D3*
X4677559D3*
Y937402D3*
X4577559D3*
X4477559D3*
X4377559D3*
D18*
X4094488Y1082677D3*
X4960630D3*
X4094488Y492126D3*
X4960630D3*
D31*
X5505610Y1081201D3*
X5605610D3*
X5705610D3*
X5805610D3*
X5905610D3*
D16*
X5558661Y637402D3*
D17*
X5658661D3*
X5758661D3*
X5858661D3*
Y937402D3*
X5758661D3*
X5658661D3*
X5558661D3*
D18*
X5275591Y1082677D3*
X6141732D3*
X5275591Y492126D3*
X6141732D3*
D31*
X781201Y1868602D3*
X881201D3*
X981201D3*
X1081201D3*
X1181201D3*
D16*
X834252Y1424803D3*
D17*
X934252D3*
X1034252D3*
X1134252D3*
Y1724803D3*
X1034252D3*
X934252D3*
X834252D3*
D18*
X551181Y1870079D3*
X1417323D3*
X551181Y1279528D3*
X1417323D3*
D31*
X1962303Y1868602D3*
X2062303D3*
X2162303D3*
X2262303D3*
X2362303D3*
D16*
X2015354Y1424803D3*
D17*
X2115354D3*
X2215354D3*
X2315354D3*
Y1724803D3*
X2215354D3*
X2115354D3*
X2015354D3*
D18*
X1732283Y1870079D3*
X2598425D3*
X1732283Y1279528D3*
X2598425D3*
D31*
X3143406Y1868602D3*
X3243406D3*
X3343406D3*
X3443406D3*
X3543406D3*
D16*
X3196457Y1424803D3*
D17*
X3296457D3*
X3396457D3*
X3496457D3*
Y1724803D3*
X3396457D3*
X3296457D3*
X3196457D3*
D18*
X2913386Y1870079D3*
X3779528D3*
X2913386Y1279528D3*
X3779528D3*
D31*
X4324508Y1868602D3*
X4424508D3*
X4524508D3*
X4624508D3*
X4724508D3*
D16*
X4377559Y1424803D3*
D17*
X4477559D3*
X4577559D3*
X4677559D3*
Y1724803D3*
X4577559D3*
X4477559D3*
X4377559D3*
D18*
X4094488Y1870079D3*
X4960630D3*
X4094488Y1279528D3*
X4960630D3*
D31*
X5505610Y1868602D3*
X5605610D3*
X5705610D3*
X5805610D3*
X5905610D3*
D16*
X5558661Y1424803D3*
D17*
X5658661D3*
X5758661D3*
X5858661D3*
Y1724803D3*
X5758661D3*
X5658661D3*
X5558661D3*
D18*
X5275591Y1870079D3*
X6141732D3*
X5275591Y1279528D3*
X6141732D3*
D31*
X781201Y2656004D3*
X881201D3*
X981201D3*
X1081201D3*
X1181201D3*
D16*
X834252Y2212205D3*
D17*
X934252D3*
X1034252D3*
X1134252D3*
Y2512205D3*
X1034252D3*
X934252D3*
X834252D3*
D18*
X551181Y2657480D3*
X1417323D3*
X551181Y2066929D3*
X1417323D3*
D31*
X1962303Y2656004D3*
X2062303D3*
X2162303D3*
X2262303D3*
X2362303D3*
D16*
X2015354Y2212205D3*
D17*
X2115354D3*
X2215354D3*
X2315354D3*
Y2512205D3*
X2215354D3*
X2115354D3*
X2015354D3*
D18*
X1732283Y2657480D3*
X2598425D3*
X1732283Y2066929D3*
X2598425D3*
D31*
X3143406Y2656004D3*
X3243406D3*
X3343406D3*
X3443406D3*
X3543406D3*
D16*
X3196457Y2212205D3*
D17*
X3296457D3*
X3396457D3*
X3496457D3*
Y2512205D3*
X3396457D3*
X3296457D3*
X3196457D3*
D18*
X2913386Y2657480D3*
X3779528D3*
X2913386Y2066929D3*
X3779528D3*
D31*
X4324508Y2656004D3*
X4424508D3*
X4524508D3*
X4624508D3*
X4724508D3*
D16*
X4377559Y2212205D3*
D17*
X4477559D3*
X4577559D3*
X4677559D3*
Y2512205D3*
X4577559D3*
X4477559D3*
X4377559D3*
D18*
X4094488Y2657480D3*
X4960630D3*
X4094488Y2066929D3*
X4960630D3*
D31*
X5505610Y2656004D3*
X5605610D3*
X5705610D3*
X5805610D3*
X5905610D3*
D16*
X5558661Y2212205D3*
D17*
X5658661D3*
X5758661D3*
X5858661D3*
Y2512205D3*
X5758661D3*
X5658661D3*
X5558661D3*
D18*
X5275591Y2657480D3*
X6141732D3*
X5275591Y2066929D3*
X6141732D3*
D31*
X781201Y3443406D3*
X881201D3*
X981201D3*
X1081201D3*
X1181201D3*
D16*
X834252Y2999606D3*
D17*
X934252D3*
X1034252D3*
X1134252D3*
Y3299606D3*
X1034252D3*
X934252D3*
X834252D3*
D18*
X551181Y3444882D3*
X1417323D3*
X551181Y2854331D3*
X1417323D3*
D31*
X1962303Y3443406D3*
X2062303D3*
X2162303D3*
X2262303D3*
X2362303D3*
D16*
X2015354Y2999606D3*
D17*
X2115354D3*
X2215354D3*
X2315354D3*
Y3299606D3*
X2215354D3*
X2115354D3*
X2015354D3*
D18*
X1732283Y3444882D3*
X2598425D3*
X1732283Y2854331D3*
X2598425D3*
D31*
X3143406Y3443406D3*
X3243406D3*
X3343406D3*
X3443406D3*
X3543406D3*
D16*
X3196457Y2999606D3*
D17*
X3296457D3*
X3396457D3*
X3496457D3*
Y3299606D3*
X3396457D3*
X3296457D3*
X3196457D3*
D18*
X2913386Y3444882D3*
X3779528D3*
X2913386Y2854331D3*
X3779528D3*
D31*
X4324508Y3443406D3*
X4424508D3*
X4524508D3*
X4624508D3*
X4724508D3*
D16*
X4377559Y2999606D3*
D17*
X4477559D3*
X4577559D3*
X4677559D3*
Y3299606D3*
X4577559D3*
X4477559D3*
X4377559D3*
D18*
X4094488Y3444882D3*
X4960630D3*
X4094488Y2854331D3*
X4960630D3*
D31*
X5505610Y3443406D3*
X5605610D3*
X5705610D3*
X5805610D3*
X5905610D3*
D16*
X5558661Y2999606D3*
D17*
X5658661D3*
X5758661D3*
X5858661D3*
Y3299606D3*
X5758661D3*
X5658661D3*
X5558661D3*
D18*
X5275591Y3444882D3*
X6141732D3*
X5275591Y2854331D3*
X6141732D3*
D31*
X781201Y4230807D3*
X881201D3*
X981201D3*
X1081201D3*
X1181201D3*
D16*
X834252Y3787008D3*
D17*
X934252D3*
X1034252D3*
X1134252D3*
Y4087008D3*
X1034252D3*
X934252D3*
X834252D3*
D18*
X551181Y4232283D3*
X1417323D3*
X551181Y3641732D3*
X1417323D3*
D31*
X1962303Y4230807D3*
X2062303D3*
X2162303D3*
X2262303D3*
X2362303D3*
D16*
X2015354Y3787008D3*
D17*
X2115354D3*
X2215354D3*
X2315354D3*
Y4087008D3*
X2215354D3*
X2115354D3*
X2015354D3*
D18*
X1732283Y4232283D3*
X2598425D3*
X1732283Y3641732D3*
X2598425D3*
D31*
X3143406Y4230807D3*
X3243406D3*
X3343406D3*
X3443406D3*
X3543406D3*
D16*
X3196457Y3787008D3*
D17*
X3296457D3*
X3396457D3*
X3496457D3*
Y4087008D3*
X3396457D3*
X3296457D3*
X3196457D3*
D18*
X2913386Y4232283D3*
X3779528D3*
X2913386Y3641732D3*
X3779528D3*
D31*
X4324508Y4230807D3*
X4424508D3*
X4524508D3*
X4624508D3*
X4724508D3*
D16*
X4377559Y3787008D3*
D17*
X4477559D3*
X4577559D3*
X4677559D3*
Y4087008D3*
X4577559D3*
X4477559D3*
X4377559D3*
D18*
X4094488Y4232283D3*
X4960630D3*
X4094488Y3641732D3*
X4960630D3*
D31*
X5505610Y4230807D3*
X5605610D3*
X5705610D3*
X5805610D3*
X5905610D3*
D16*
X5558661Y3787008D3*
D17*
X5658661D3*
X5758661D3*
X5858661D3*
Y4087008D3*
X5758661D3*
X5658661D3*
X5558661D3*
D18*
X5275591Y4232283D3*
X6141732D3*
X5275591Y3641732D3*
X6141732D3*
M02*
