G04 DipTrace 3.3.1.0*
G04 TopSilk.gbr*
%MOIN*%
G04 #@! TF.FileFunction,Legend,Top*
G04 #@! TF.Part,Single*
%ADD10C,0.009843*%
%ADD28C,0.00772*%
%ADD29C,0.004632*%
%ADD30C,0.006176*%
%FSLAX26Y26*%
G04*
G70*
G90*
G75*
G01*
G04 TopSilk*
%LPD*%
X699802Y981201D2*
D10*
X1262302D1*
Y1174951D1*
X699802D1*
Y981201D1*
X787402Y889777D2*
X1181102D1*
Y685026D2*
Y889777D1*
X787402Y685026D2*
X1181102D1*
X787402D2*
Y763779D1*
Y889777D2*
Y811024D1*
Y763779D2*
G03X787402Y811024I0J23622D01*
G01*
X626579Y929503D2*
D28*
X676819D1*
X626579Y962996D2*
X676819D1*
X650511Y929503D2*
Y962996D1*
X636196Y978436D2*
X633765Y983244D1*
X626635Y990429D1*
X676819D1*
X987282Y808349D2*
X982529Y813157D1*
X975344Y815534D1*
X965782D1*
X958597Y813157D1*
X953789Y808349D1*
Y803596D1*
X956221Y798787D1*
X958597Y796411D1*
X963351Y794034D1*
X977721Y789225D1*
X982529Y786849D1*
X984906Y784417D1*
X987282Y779664D1*
Y772479D1*
X982529Y767726D1*
X975344Y765294D1*
X965782D1*
X958597Y767726D1*
X953789Y772479D1*
X1002722Y805917D2*
X1007530Y808349D1*
X1014715Y815478D1*
Y765294D1*
X1237049Y954220D2*
D29*
X1235623Y957072D1*
X1232738Y959957D1*
X1229886Y961383D1*
X1224149D1*
X1221264Y959957D1*
X1218412Y957072D1*
X1216953Y954220D1*
X1215527Y949909D1*
Y942712D1*
X1216953Y938435D1*
X1218412Y935550D1*
X1221264Y932698D1*
X1224149Y931239D1*
X1229886D1*
X1232738Y932698D1*
X1235623Y935550D1*
X1237049Y938435D1*
Y942712D1*
X1229886D1*
X1266409Y961383D2*
Y931239D1*
X1246313Y961383D1*
Y931239D1*
X1275672Y961383D2*
Y931239D1*
X1285720D1*
X1290031Y932698D1*
X1292916Y935550D1*
X1294342Y938435D1*
X1295768Y942712D1*
Y949909D1*
X1294342Y954220D1*
X1292916Y957072D1*
X1290031Y959957D1*
X1285720Y961383D1*
X1275672D1*
X741478Y502957D2*
D30*
X758722D1*
X764426Y504859D1*
X766371Y506804D1*
X768272Y510607D1*
Y516355D1*
X766371Y520157D1*
X764426Y522103D1*
X758722Y524004D1*
X741478D1*
Y483812D1*
X807418Y518256D2*
X803616Y522103D1*
X797868Y524004D1*
X790218D1*
X784470Y522103D1*
X780624Y518256D1*
Y514453D1*
X782569Y510607D1*
X784470Y508705D1*
X788273Y506804D1*
X799769Y502957D1*
X803616Y501056D1*
X805517Y499111D1*
X807418Y495308D1*
Y489560D1*
X803616Y485757D1*
X797868Y483812D1*
X790218D1*
X784470Y485757D1*
X780624Y489560D1*
X819770Y516310D2*
X823617Y518256D1*
X829365Y523960D1*
Y483812D1*
X843617Y487659D2*
X841716Y485713D1*
X843617Y483812D1*
X845563Y485713D1*
X843617Y487659D1*
X880862Y523960D2*
X861761D1*
X859860Y506760D1*
X861761Y508661D1*
X867509Y510607D1*
X873213D1*
X878961Y508661D1*
X882807Y504859D1*
X884709Y499111D1*
Y495308D1*
X882807Y489560D1*
X878961Y485713D1*
X873213Y483812D1*
X867509D1*
X861761Y485713D1*
X859860Y487659D1*
X857914Y491461D1*
X897060Y524004D2*
Y483812D1*
X923855Y524004D2*
X897060Y497209D1*
X906611Y506804D2*
X923855Y483812D1*
X975087Y524004D2*
Y483812D1*
X988484D1*
X994232Y485757D1*
X998079Y489560D1*
X999980Y493407D1*
X1001882Y499111D1*
Y508705D1*
X999980Y514453D1*
X998079Y518256D1*
X994232Y522103D1*
X988484Y524004D1*
X975087D1*
X1014233D2*
Y483812D1*
X1026584Y502957D2*
X1043829D1*
X1049532Y504859D1*
X1051478Y506804D1*
X1053379Y510607D1*
Y516355D1*
X1051478Y520157D1*
X1049532Y522103D1*
X1043829Y524004D1*
X1026584D1*
Y483812D1*
X1131406Y518256D2*
X1127603Y522103D1*
X1121855Y524004D1*
X1114206D1*
X1108458Y522103D1*
X1104611Y518256D1*
Y514453D1*
X1106557Y510607D1*
X1108458Y508705D1*
X1112261Y506804D1*
X1123757Y502957D1*
X1127603Y501056D1*
X1129505Y499111D1*
X1131406Y495308D1*
Y489560D1*
X1127603Y485757D1*
X1121855Y483812D1*
X1114206D1*
X1108458Y485757D1*
X1104611Y489560D1*
X1143757Y524004D2*
X1153352Y483812D1*
X1162903Y524004D1*
X1172453Y483812D1*
X1182048Y524004D1*
X1194400D2*
Y483812D1*
X1207797D1*
X1213545Y485757D1*
X1217392Y489560D1*
X1219293Y493407D1*
X1221194Y499111D1*
Y508705D1*
X1219293Y514453D1*
X1217392Y518256D1*
X1213545Y522103D1*
X1207797Y524004D1*
X1194400D1*
X1880905Y981201D2*
D10*
X2443405D1*
Y1174951D1*
X1880905D1*
Y981201D1*
X1968504Y889777D2*
X2362205D1*
Y685026D2*
Y889777D1*
X1968504Y685026D2*
X2362205D1*
X1968504D2*
Y763779D1*
Y889777D2*
Y811024D1*
Y763779D2*
G03X1968504Y811024I0J23622D01*
G01*
X1807682Y929503D2*
D28*
X1857922D1*
X1807682Y962996D2*
X1857922D1*
X1831613Y929503D2*
X1831614Y962996D1*
X1817299Y978436D2*
X1814867Y983244D1*
X1807737Y990429D1*
X1857922D1*
X2168385Y808349D2*
X2163631Y813157D1*
X2156446Y815534D1*
X2146885D1*
X2139700Y813157D1*
X2134891Y808349D1*
Y803596D1*
X2137323Y798787D1*
X2139700Y796411D1*
X2144453Y794034D1*
X2158823Y789225D1*
X2163631Y786849D1*
X2166008Y784417D1*
X2168385Y779664D1*
Y772479D1*
X2163631Y767726D1*
X2156446Y765294D1*
X2146885D1*
X2139700Y767726D1*
X2134891Y772479D1*
X2183824Y805917D2*
X2188632Y808349D1*
X2195817Y815478D1*
Y765294D1*
X2418151Y954220D2*
D29*
X2416726Y957072D1*
X2413840Y959957D1*
X2410989Y961383D1*
X2405252D1*
X2402367Y959957D1*
X2399515Y957072D1*
X2398055Y954220D1*
X2396630Y949909D1*
Y942712D1*
X2398055Y938435D1*
X2399515Y935550D1*
X2402367Y932698D1*
X2405252Y931239D1*
X2410989D1*
X2413840Y932698D1*
X2416726Y935550D1*
X2418151Y938435D1*
Y942712D1*
X2410989D1*
X2447511Y961383D2*
Y931239D1*
X2427415Y961383D1*
Y931239D1*
X2456775Y961383D2*
Y931239D1*
X2466823D1*
X2471134Y932698D1*
X2474019Y935550D1*
X2475445Y938435D1*
X2476871Y942712D1*
Y949909D1*
X2475445Y954220D1*
X2474019Y957072D1*
X2471134Y959957D1*
X2466823Y961383D1*
X2456775D1*
X1922580Y502957D2*
D30*
X1939824D1*
X1945528Y504859D1*
X1947473Y506804D1*
X1949375Y510607D1*
Y516355D1*
X1947473Y520157D1*
X1945528Y522103D1*
X1939824Y524004D1*
X1922580D1*
Y483812D1*
X1988521Y518256D2*
X1984718Y522103D1*
X1978970Y524004D1*
X1971321D1*
X1965573Y522103D1*
X1961726Y518256D1*
Y514453D1*
X1963672Y510607D1*
X1965573Y508705D1*
X1969375Y506804D1*
X1980871Y502957D1*
X1984718Y501056D1*
X1986619Y499111D1*
X1988521Y495308D1*
Y489560D1*
X1984718Y485757D1*
X1978970Y483812D1*
X1971321D1*
X1965573Y485757D1*
X1961726Y489560D1*
X2000872Y516310D2*
X2004719Y518256D1*
X2010467Y523960D1*
Y483812D1*
X2024720Y487659D2*
X2022818Y485713D1*
X2024720Y483812D1*
X2026665Y485713D1*
X2024720Y487659D1*
X2061964Y523960D2*
X2042863D1*
X2040962Y506760D1*
X2042863Y508661D1*
X2048611Y510607D1*
X2054315D1*
X2060063Y508661D1*
X2063910Y504859D1*
X2065811Y499111D1*
Y495308D1*
X2063910Y489560D1*
X2060063Y485713D1*
X2054315Y483812D1*
X2048611D1*
X2042863Y485713D1*
X2040962Y487659D1*
X2039016Y491461D1*
X2078163Y524004D2*
Y483812D1*
X2104957Y524004D2*
X2078163Y497209D1*
X2087713Y506804D2*
X2104957Y483812D1*
X2156189Y524004D2*
Y483812D1*
X2169587D1*
X2175335Y485757D1*
X2179181Y489560D1*
X2181083Y493407D1*
X2182984Y499111D1*
Y508705D1*
X2181083Y514453D1*
X2179181Y518256D1*
X2175335Y522103D1*
X2169587Y524004D1*
X2156189D1*
X2195335D2*
Y483812D1*
X2207687Y502957D2*
X2224931D1*
X2230635Y504859D1*
X2232580Y506804D1*
X2234481Y510607D1*
Y516355D1*
X2232580Y520157D1*
X2230635Y522103D1*
X2224931Y524004D1*
X2207687D1*
Y483812D1*
X2312508Y518256D2*
X2308706Y522103D1*
X2302958Y524004D1*
X2295308D1*
X2289560Y522103D1*
X2285714Y518256D1*
Y514453D1*
X2287659Y510607D1*
X2289560Y508705D1*
X2293363Y506804D1*
X2304859Y502957D1*
X2308706Y501056D1*
X2310607Y499111D1*
X2312508Y495308D1*
Y489560D1*
X2308706Y485757D1*
X2302958Y483812D1*
X2295308D1*
X2289560Y485757D1*
X2285714Y489560D1*
X2324860Y524004D2*
X2334455Y483812D1*
X2344005Y524004D1*
X2353556Y483812D1*
X2363150Y524004D1*
X2375502D2*
Y483812D1*
X2388899D1*
X2394647Y485757D1*
X2398494Y489560D1*
X2400395Y493407D1*
X2402297Y499111D1*
Y508705D1*
X2400395Y514453D1*
X2398494Y518256D1*
X2394647Y522103D1*
X2388899Y524004D1*
X2375502D1*
X3062007Y981201D2*
D10*
X3624507D1*
Y1174951D1*
X3062007D1*
Y981201D1*
X3149606Y889777D2*
X3543307D1*
Y685026D2*
Y889777D1*
X3149606Y685026D2*
X3543307D1*
X3149606D2*
Y763779D1*
Y889777D2*
Y811024D1*
Y763779D2*
G03X3149606Y811024I0J23622D01*
G01*
X2988784Y929503D2*
D28*
X3039024D1*
X2988784Y962996D2*
X3039024D1*
X3012716Y929503D2*
Y962996D1*
X2998401Y978436D2*
X2995969Y983244D1*
X2988839Y990429D1*
X3039024D1*
X3349487Y808349D2*
X3344734Y813157D1*
X3337549Y815534D1*
X3327987D1*
X3320802Y813157D1*
X3315994Y808349D1*
Y803596D1*
X3318426Y798787D1*
X3320802Y796411D1*
X3325555Y794034D1*
X3339925Y789225D1*
X3344734Y786849D1*
X3347110Y784417D1*
X3349487Y779664D1*
Y772479D1*
X3344734Y767726D1*
X3337549Y765294D1*
X3327987D1*
X3320802Y767726D1*
X3315994Y772479D1*
X3364926Y805917D2*
X3369735Y808349D1*
X3376920Y815478D1*
Y765294D1*
X3599254Y954220D2*
D29*
X3597828Y957072D1*
X3594943Y959957D1*
X3592091Y961383D1*
X3586354D1*
X3583469Y959957D1*
X3580617Y957072D1*
X3579158Y954220D1*
X3577732Y949909D1*
Y942712D1*
X3579158Y938435D1*
X3580617Y935550D1*
X3583469Y932698D1*
X3586354Y931239D1*
X3592091D1*
X3594943Y932698D1*
X3597828Y935550D1*
X3599254Y938435D1*
Y942712D1*
X3592091D1*
X3628613Y961383D2*
Y931239D1*
X3608517Y961383D1*
Y931239D1*
X3637877Y961383D2*
Y931239D1*
X3647925D1*
X3652236Y932698D1*
X3655121Y935550D1*
X3656547Y938435D1*
X3657973Y942712D1*
Y949909D1*
X3656547Y954220D1*
X3655121Y957072D1*
X3652236Y959957D1*
X3647925Y961383D1*
X3637877D1*
X3103682Y502957D2*
D30*
X3120926D1*
X3126630Y504859D1*
X3128576Y506804D1*
X3130477Y510607D1*
Y516355D1*
X3128576Y520157D1*
X3126630Y522103D1*
X3120926Y524004D1*
X3103682D1*
Y483812D1*
X3169623Y518256D2*
X3165821Y522103D1*
X3160072Y524004D1*
X3152423D1*
X3146675Y522103D1*
X3142828Y518256D1*
Y514453D1*
X3144774Y510607D1*
X3146675Y508705D1*
X3150478Y506804D1*
X3161974Y502957D1*
X3165821Y501056D1*
X3167722Y499111D1*
X3169623Y495308D1*
Y489560D1*
X3165821Y485757D1*
X3160072Y483812D1*
X3152423D1*
X3146675Y485757D1*
X3142828Y489560D1*
X3181974Y516310D2*
X3185821Y518256D1*
X3191569Y523960D1*
Y483812D1*
X3205822Y487659D2*
X3203921Y485713D1*
X3205822Y483812D1*
X3207767Y485713D1*
X3205822Y487659D1*
X3243067Y523960D2*
X3223966D1*
X3222064Y506760D1*
X3223966Y508661D1*
X3229714Y510607D1*
X3235417D1*
X3241165Y508661D1*
X3245012Y504859D1*
X3246913Y499111D1*
Y495308D1*
X3245012Y489560D1*
X3241165Y485713D1*
X3235417Y483812D1*
X3229714D1*
X3223966Y485713D1*
X3222064Y487659D1*
X3220119Y491461D1*
X3259265Y524004D2*
Y483812D1*
X3286060Y524004D2*
X3259265Y497209D1*
X3268815Y506804D2*
X3286060Y483812D1*
X3337292Y524004D2*
Y483812D1*
X3350689D1*
X3356437Y485757D1*
X3360284Y489560D1*
X3362185Y493407D1*
X3364086Y499111D1*
Y508705D1*
X3362185Y514453D1*
X3360284Y518256D1*
X3356437Y522103D1*
X3350689Y524004D1*
X3337292D1*
X3376438D2*
Y483812D1*
X3388789Y502957D2*
X3406033D1*
X3411737Y504859D1*
X3413683Y506804D1*
X3415584Y510607D1*
Y516355D1*
X3413683Y520157D1*
X3411737Y522103D1*
X3406033Y524004D1*
X3388789D1*
Y483812D1*
X3493611Y518256D2*
X3489808Y522103D1*
X3484060Y524004D1*
X3476411D1*
X3470663Y522103D1*
X3466816Y518256D1*
Y514453D1*
X3468762Y510607D1*
X3470663Y508705D1*
X3474465Y506804D1*
X3485961Y502957D1*
X3489808Y501056D1*
X3491709Y499111D1*
X3493611Y495308D1*
Y489560D1*
X3489808Y485757D1*
X3484060Y483812D1*
X3476411D1*
X3470663Y485757D1*
X3466816Y489560D1*
X3505962Y524004D2*
X3515557Y483812D1*
X3525107Y524004D1*
X3534658Y483812D1*
X3544253Y524004D1*
X3556604D2*
Y483812D1*
X3570002D1*
X3575750Y485757D1*
X3579596Y489560D1*
X3581498Y493407D1*
X3583399Y499111D1*
Y508705D1*
X3581498Y514453D1*
X3579596Y518256D1*
X3575750Y522103D1*
X3570002Y524004D1*
X3556604D1*
X4243110Y981201D2*
D10*
X4805610D1*
Y1174951D1*
X4243110D1*
Y981201D1*
X4330709Y889777D2*
X4724409D1*
Y685026D2*
Y889777D1*
X4330709Y685026D2*
X4724409D1*
X4330709D2*
Y763779D1*
Y889777D2*
Y811024D1*
Y763779D2*
G03X4330709Y811024I0J23622D01*
G01*
X4169887Y929503D2*
D28*
X4220127D1*
X4169887Y962996D2*
X4220127D1*
X4193818Y929503D2*
Y962996D1*
X4179503Y978436D2*
X4177072Y983244D1*
X4169942Y990429D1*
X4220127D1*
X4530589Y808349D2*
X4525836Y813157D1*
X4518651Y815534D1*
X4509090D1*
X4501904Y813157D1*
X4497096Y808349D1*
Y803596D1*
X4499528Y798787D1*
X4501904Y796411D1*
X4506658Y794034D1*
X4521028Y789225D1*
X4525836Y786849D1*
X4528213Y784417D1*
X4530589Y779664D1*
Y772479D1*
X4525836Y767726D1*
X4518651Y765294D1*
X4509090D1*
X4501904Y767726D1*
X4497096Y772479D1*
X4546029Y805917D2*
X4550837Y808349D1*
X4558022Y815478D1*
Y765294D1*
X4780356Y954220D2*
D29*
X4778930Y957072D1*
X4776045Y959957D1*
X4773193Y961383D1*
X4767456D1*
X4764571Y959957D1*
X4761719Y957072D1*
X4760260Y954220D1*
X4758834Y949909D1*
Y942712D1*
X4760260Y938435D1*
X4761719Y935550D1*
X4764571Y932698D1*
X4767456Y931239D1*
X4773193D1*
X4776045Y932698D1*
X4778930Y935550D1*
X4780356Y938435D1*
Y942712D1*
X4773193D1*
X4809716Y961383D2*
Y931239D1*
X4789620Y961383D1*
Y931239D1*
X4818979Y961383D2*
Y931239D1*
X4829027D1*
X4833338Y932698D1*
X4836223Y935550D1*
X4837649Y938435D1*
X4839075Y942712D1*
Y949909D1*
X4837649Y954220D1*
X4836223Y957072D1*
X4833338Y959957D1*
X4829027Y961383D1*
X4818979D1*
X4284785Y502957D2*
D30*
X4302029D1*
X4307733Y504859D1*
X4309678Y506804D1*
X4311579Y510607D1*
Y516355D1*
X4309678Y520157D1*
X4307733Y522103D1*
X4302029Y524004D1*
X4284785D1*
Y483812D1*
X4350725Y518256D2*
X4346923Y522103D1*
X4341175Y524004D1*
X4333526D1*
X4327778Y522103D1*
X4323931Y518256D1*
Y514453D1*
X4325876Y510607D1*
X4327778Y508705D1*
X4331580Y506804D1*
X4343076Y502957D1*
X4346923Y501056D1*
X4348824Y499111D1*
X4350725Y495308D1*
Y489560D1*
X4346923Y485757D1*
X4341175Y483812D1*
X4333526D1*
X4327778Y485757D1*
X4323931Y489560D1*
X4363077Y516310D2*
X4366924Y518256D1*
X4372672Y523960D1*
Y483812D1*
X4386924Y487659D2*
X4385023Y485713D1*
X4386924Y483812D1*
X4388870Y485713D1*
X4386924Y487659D1*
X4424169Y523960D2*
X4405068D1*
X4403167Y506760D1*
X4405068Y508661D1*
X4410816Y510607D1*
X4416520D1*
X4422268Y508661D1*
X4426115Y504859D1*
X4428016Y499111D1*
Y495308D1*
X4426115Y489560D1*
X4422268Y485713D1*
X4416520Y483812D1*
X4410816D1*
X4405068Y485713D1*
X4403167Y487659D1*
X4401221Y491461D1*
X4440367Y524004D2*
Y483812D1*
X4467162Y524004D2*
X4440367Y497209D1*
X4449918Y506804D2*
X4467162Y483812D1*
X4518394Y524004D2*
Y483812D1*
X4531791D1*
X4537539Y485757D1*
X4541386Y489560D1*
X4543287Y493407D1*
X4545189Y499111D1*
Y508705D1*
X4543287Y514453D1*
X4541386Y518256D1*
X4537539Y522103D1*
X4531791Y524004D1*
X4518394D1*
X4557540D2*
Y483812D1*
X4569892Y502957D2*
X4587136D1*
X4592839Y504859D1*
X4594785Y506804D1*
X4596686Y510607D1*
Y516355D1*
X4594785Y520157D1*
X4592839Y522103D1*
X4587136Y524004D1*
X4569892D1*
Y483812D1*
X4674713Y518256D2*
X4670911Y522103D1*
X4665162Y524004D1*
X4657513D1*
X4651765Y522103D1*
X4647918Y518256D1*
Y514453D1*
X4649864Y510607D1*
X4651765Y508705D1*
X4655568Y506804D1*
X4667064Y502957D1*
X4670911Y501056D1*
X4672812Y499111D1*
X4674713Y495308D1*
Y489560D1*
X4670911Y485757D1*
X4665162Y483812D1*
X4657513D1*
X4651765Y485757D1*
X4647918Y489560D1*
X4687064Y524004D2*
X4696659Y483812D1*
X4706210Y524004D1*
X4715760Y483812D1*
X4725355Y524004D1*
X4737707D2*
Y483812D1*
X4751104D1*
X4756852Y485757D1*
X4760699Y489560D1*
X4762600Y493407D1*
X4764501Y499111D1*
Y508705D1*
X4762600Y514453D1*
X4760699Y518256D1*
X4756852Y522103D1*
X4751104Y524004D1*
X4737707D1*
X5424212Y981201D2*
D10*
X5986712D1*
Y1174951D1*
X5424212D1*
Y981201D1*
X5511811Y889777D2*
X5905512D1*
Y685026D2*
Y889777D1*
X5511811Y685026D2*
X5905512D1*
X5511811D2*
Y763779D1*
Y889777D2*
Y811024D1*
Y763779D2*
G03X5511811Y811024I0J23622D01*
G01*
X5350989Y929503D2*
D28*
X5401229D1*
X5350989Y962996D2*
X5401229D1*
X5374921Y929503D2*
Y962996D1*
X5360606Y978436D2*
X5358174Y983244D1*
X5351044Y990429D1*
X5401229D1*
X5711692Y808349D2*
X5706939Y813157D1*
X5699753Y815534D1*
X5690192D1*
X5683007Y813157D1*
X5678198Y808349D1*
Y803596D1*
X5680630Y798787D1*
X5683007Y796411D1*
X5687760Y794034D1*
X5702130Y789225D1*
X5706939Y786849D1*
X5709315Y784417D1*
X5711692Y779664D1*
Y772479D1*
X5706939Y767726D1*
X5699753Y765294D1*
X5690192D1*
X5683007Y767726D1*
X5678198Y772479D1*
X5727131Y805917D2*
X5731939Y808349D1*
X5739124Y815478D1*
Y765294D1*
X5961459Y954220D2*
D29*
X5960033Y957072D1*
X5957148Y959957D1*
X5954296Y961383D1*
X5948559D1*
X5945674Y959957D1*
X5942822Y957072D1*
X5941363Y954220D1*
X5939937Y949909D1*
Y942712D1*
X5941363Y938435D1*
X5942822Y935550D1*
X5945674Y932698D1*
X5948559Y931239D1*
X5954296D1*
X5957148Y932698D1*
X5960033Y935550D1*
X5961459Y938435D1*
Y942712D1*
X5954296D1*
X5990818Y961383D2*
Y931239D1*
X5970722Y961383D1*
Y931239D1*
X6000082Y961383D2*
Y931239D1*
X6010130D1*
X6014441Y932698D1*
X6017326Y935550D1*
X6018752Y938435D1*
X6020178Y942712D1*
Y949909D1*
X6018752Y954220D1*
X6017326Y957072D1*
X6014441Y959957D1*
X6010130Y961383D1*
X6000082D1*
X5465887Y502957D2*
D30*
X5483131D1*
X5488835Y504859D1*
X5490780Y506804D1*
X5492682Y510607D1*
Y516355D1*
X5490780Y520157D1*
X5488835Y522103D1*
X5483131Y524004D1*
X5465887D1*
Y483812D1*
X5531828Y518256D2*
X5528025Y522103D1*
X5522277Y524004D1*
X5514628D1*
X5508880Y522103D1*
X5505033Y518256D1*
Y514453D1*
X5506979Y510607D1*
X5508880Y508705D1*
X5512682Y506804D1*
X5524178Y502957D1*
X5528025Y501056D1*
X5529927Y499111D1*
X5531828Y495308D1*
Y489560D1*
X5528025Y485757D1*
X5522277Y483812D1*
X5514628D1*
X5508880Y485757D1*
X5505033Y489560D1*
X5544179Y516310D2*
X5548026Y518256D1*
X5553774Y523960D1*
Y483812D1*
X5568027Y487659D2*
X5566125Y485713D1*
X5568027Y483812D1*
X5569972Y485713D1*
X5568027Y487659D1*
X5605271Y523960D2*
X5586170D1*
X5584269Y506760D1*
X5586170Y508661D1*
X5591918Y510607D1*
X5597622D1*
X5603370Y508661D1*
X5607217Y504859D1*
X5609118Y499111D1*
Y495308D1*
X5607217Y489560D1*
X5603370Y485713D1*
X5597622Y483812D1*
X5591918D1*
X5586170Y485713D1*
X5584269Y487659D1*
X5582324Y491461D1*
X5621470Y524004D2*
Y483812D1*
X5648264Y524004D2*
X5621470Y497209D1*
X5631020Y506804D2*
X5648264Y483812D1*
X5699496Y524004D2*
Y483812D1*
X5712894D1*
X5718642Y485757D1*
X5722489Y489560D1*
X5724390Y493407D1*
X5726291Y499111D1*
Y508705D1*
X5724390Y514453D1*
X5722489Y518256D1*
X5718642Y522103D1*
X5712894Y524004D1*
X5699496D1*
X5738643D2*
Y483812D1*
X5750994Y502957D2*
X5768238D1*
X5773942Y504859D1*
X5775887Y506804D1*
X5777789Y510607D1*
Y516355D1*
X5775887Y520157D1*
X5773942Y522103D1*
X5768238Y524004D1*
X5750994D1*
Y483812D1*
X5855815Y518256D2*
X5852013Y522103D1*
X5846265Y524004D1*
X5838616D1*
X5832868Y522103D1*
X5829021Y518256D1*
Y514453D1*
X5830966Y510607D1*
X5832868Y508705D1*
X5836670Y506804D1*
X5848166Y502957D1*
X5852013Y501056D1*
X5853914Y499111D1*
X5855815Y495308D1*
Y489560D1*
X5852013Y485757D1*
X5846265Y483812D1*
X5838616D1*
X5832868Y485757D1*
X5829021Y489560D1*
X5868167Y524004D2*
X5877762Y483812D1*
X5887312Y524004D1*
X5896863Y483812D1*
X5906458Y524004D1*
X5918809D2*
Y483812D1*
X5932206D1*
X5937954Y485757D1*
X5941801Y489560D1*
X5943702Y493407D1*
X5945604Y499111D1*
Y508705D1*
X5943702Y514453D1*
X5941801Y518256D1*
X5937954Y522103D1*
X5932206Y524004D1*
X5918809D1*
X699802Y1768602D2*
D10*
X1262302D1*
Y1962353D1*
X699802D1*
Y1768602D1*
X787402Y1677179D2*
X1181102D1*
Y1472428D2*
Y1677179D1*
X787402Y1472428D2*
X1181102D1*
X787402D2*
Y1551181D1*
Y1677179D2*
Y1598425D1*
Y1551181D2*
G03X787402Y1598425I0J23622D01*
G01*
X626579Y1716905D2*
D28*
X676819D1*
X626579Y1750398D2*
X676819D1*
X650511Y1716905D2*
Y1750398D1*
X636196Y1765837D2*
X633765Y1770646D1*
X626635Y1777831D1*
X676819D1*
X987282Y1595750D2*
X982529Y1600559D1*
X975344Y1602935D1*
X965782D1*
X958597Y1600559D1*
X953789Y1595750D1*
Y1590997D1*
X956221Y1586189D1*
X958597Y1583812D1*
X963351Y1581435D1*
X977721Y1576627D1*
X982529Y1574250D1*
X984906Y1571819D1*
X987282Y1567065D1*
Y1559880D1*
X982529Y1555127D1*
X975344Y1552695D1*
X965782D1*
X958597Y1555127D1*
X953789Y1559880D1*
X1002722Y1593318D2*
X1007530Y1595750D1*
X1014715Y1602880D1*
Y1552695D1*
X1237049Y1741621D2*
D29*
X1235623Y1744473D1*
X1232738Y1747358D1*
X1229886Y1748784D1*
X1224149D1*
X1221264Y1747358D1*
X1218412Y1744473D1*
X1216953Y1741621D1*
X1215527Y1737310D1*
Y1730114D1*
X1216953Y1725836D1*
X1218412Y1722951D1*
X1221264Y1720099D1*
X1224149Y1718640D1*
X1229886D1*
X1232738Y1720099D1*
X1235623Y1722951D1*
X1237049Y1725836D1*
Y1730114D1*
X1229886D1*
X1266409Y1748784D2*
Y1718640D1*
X1246313Y1748784D1*
Y1718640D1*
X1275672Y1748784D2*
Y1718640D1*
X1285720D1*
X1290031Y1720099D1*
X1292916Y1722951D1*
X1294342Y1725836D1*
X1295768Y1730114D1*
Y1737310D1*
X1294342Y1741621D1*
X1292916Y1744473D1*
X1290031Y1747358D1*
X1285720Y1748784D1*
X1275672D1*
X741478Y1290359D2*
D30*
X758722D1*
X764426Y1292260D1*
X766371Y1294206D1*
X768272Y1298008D1*
Y1303756D1*
X766371Y1307559D1*
X764426Y1309504D1*
X758722Y1311405D1*
X741478D1*
Y1271213D1*
X807418Y1305657D2*
X803616Y1309504D1*
X797868Y1311405D1*
X790218D1*
X784470Y1309504D1*
X780624Y1305657D1*
Y1301855D1*
X782569Y1298008D1*
X784470Y1296107D1*
X788273Y1294206D1*
X799769Y1290359D1*
X803616Y1288458D1*
X805517Y1286512D1*
X807418Y1282710D1*
Y1276962D1*
X803616Y1273159D1*
X797868Y1271213D1*
X790218D1*
X784470Y1273159D1*
X780624Y1276962D1*
X819770Y1303712D2*
X823617Y1305657D1*
X829365Y1311361D1*
Y1271213D1*
X843617Y1275060D2*
X841716Y1273115D1*
X843617Y1271213D1*
X845563Y1273115D1*
X843617Y1275060D1*
X880862Y1311361D2*
X861761D1*
X859860Y1294161D1*
X861761Y1296063D1*
X867509Y1298008D1*
X873213D1*
X878961Y1296063D1*
X882807Y1292260D1*
X884709Y1286512D1*
Y1282710D1*
X882807Y1276962D1*
X878961Y1273115D1*
X873213Y1271213D1*
X867509D1*
X861761Y1273115D1*
X859860Y1275060D1*
X857914Y1278863D1*
X897060Y1311405D2*
Y1271213D1*
X923855Y1311405D2*
X897060Y1284611D1*
X906611Y1294206D2*
X923855Y1271213D1*
X975087Y1311405D2*
Y1271213D1*
X988484D1*
X994232Y1273159D1*
X998079Y1276962D1*
X999980Y1280808D1*
X1001882Y1286512D1*
Y1296107D1*
X999980Y1301855D1*
X998079Y1305657D1*
X994232Y1309504D1*
X988484Y1311405D1*
X975087D1*
X1014233D2*
Y1271213D1*
X1026584Y1290359D2*
X1043829D1*
X1049532Y1292260D1*
X1051478Y1294206D1*
X1053379Y1298008D1*
Y1303756D1*
X1051478Y1307559D1*
X1049532Y1309504D1*
X1043829Y1311405D1*
X1026584D1*
Y1271213D1*
X1131406Y1305657D2*
X1127603Y1309504D1*
X1121855Y1311405D1*
X1114206D1*
X1108458Y1309504D1*
X1104611Y1305657D1*
Y1301855D1*
X1106557Y1298008D1*
X1108458Y1296107D1*
X1112261Y1294206D1*
X1123757Y1290359D1*
X1127603Y1288458D1*
X1129505Y1286512D1*
X1131406Y1282710D1*
Y1276962D1*
X1127603Y1273159D1*
X1121855Y1271213D1*
X1114206D1*
X1108458Y1273159D1*
X1104611Y1276962D1*
X1143757Y1311405D2*
X1153352Y1271213D1*
X1162903Y1311405D1*
X1172453Y1271213D1*
X1182048Y1311405D1*
X1194400D2*
Y1271213D1*
X1207797D1*
X1213545Y1273159D1*
X1217392Y1276962D1*
X1219293Y1280808D1*
X1221194Y1286512D1*
Y1296107D1*
X1219293Y1301855D1*
X1217392Y1305657D1*
X1213545Y1309504D1*
X1207797Y1311405D1*
X1194400D1*
X1880905Y1768602D2*
D10*
X2443405D1*
Y1962353D1*
X1880905D1*
Y1768602D1*
X1968504Y1677179D2*
X2362205D1*
Y1472428D2*
Y1677179D1*
X1968504Y1472428D2*
X2362205D1*
X1968504D2*
Y1551181D1*
Y1677179D2*
Y1598425D1*
Y1551181D2*
G03X1968504Y1598425I0J23622D01*
G01*
X1807682Y1716905D2*
D28*
X1857922D1*
X1807682Y1750398D2*
X1857922D1*
X1831613Y1716905D2*
X1831614Y1750398D1*
X1817299Y1765837D2*
X1814867Y1770646D1*
X1807737Y1777831D1*
X1857922D1*
X2168385Y1595750D2*
X2163631Y1600559D1*
X2156446Y1602935D1*
X2146885D1*
X2139700Y1600559D1*
X2134891Y1595750D1*
Y1590997D1*
X2137323Y1586189D1*
X2139700Y1583812D1*
X2144453Y1581435D1*
X2158823Y1576627D1*
X2163631Y1574250D1*
X2166008Y1571819D1*
X2168385Y1567065D1*
Y1559880D1*
X2163631Y1555127D1*
X2156446Y1552695D1*
X2146885D1*
X2139700Y1555127D1*
X2134891Y1559880D1*
X2183824Y1593318D2*
X2188632Y1595750D1*
X2195817Y1602880D1*
Y1552695D1*
X2418151Y1741621D2*
D29*
X2416726Y1744473D1*
X2413840Y1747358D1*
X2410989Y1748784D1*
X2405252D1*
X2402367Y1747358D1*
X2399515Y1744473D1*
X2398055Y1741621D1*
X2396630Y1737310D1*
Y1730114D1*
X2398055Y1725836D1*
X2399515Y1722951D1*
X2402367Y1720099D1*
X2405252Y1718640D1*
X2410989D1*
X2413840Y1720099D1*
X2416726Y1722951D1*
X2418151Y1725836D1*
Y1730114D1*
X2410989D1*
X2447511Y1748784D2*
Y1718640D1*
X2427415Y1748784D1*
Y1718640D1*
X2456775Y1748784D2*
Y1718640D1*
X2466823D1*
X2471134Y1720099D1*
X2474019Y1722951D1*
X2475445Y1725836D1*
X2476871Y1730114D1*
Y1737310D1*
X2475445Y1741621D1*
X2474019Y1744473D1*
X2471134Y1747358D1*
X2466823Y1748784D1*
X2456775D1*
X1922580Y1290359D2*
D30*
X1939824D1*
X1945528Y1292260D1*
X1947473Y1294206D1*
X1949375Y1298008D1*
Y1303756D1*
X1947473Y1307559D1*
X1945528Y1309504D1*
X1939824Y1311405D1*
X1922580D1*
Y1271213D1*
X1988521Y1305657D2*
X1984718Y1309504D1*
X1978970Y1311405D1*
X1971321D1*
X1965573Y1309504D1*
X1961726Y1305657D1*
Y1301855D1*
X1963672Y1298008D1*
X1965573Y1296107D1*
X1969375Y1294206D1*
X1980871Y1290359D1*
X1984718Y1288458D1*
X1986619Y1286512D1*
X1988521Y1282710D1*
Y1276962D1*
X1984718Y1273159D1*
X1978970Y1271213D1*
X1971321D1*
X1965573Y1273159D1*
X1961726Y1276962D1*
X2000872Y1303712D2*
X2004719Y1305657D1*
X2010467Y1311361D1*
Y1271213D1*
X2024720Y1275060D2*
X2022818Y1273115D1*
X2024720Y1271213D1*
X2026665Y1273115D1*
X2024720Y1275060D1*
X2061964Y1311361D2*
X2042863D1*
X2040962Y1294161D1*
X2042863Y1296063D1*
X2048611Y1298008D1*
X2054315D1*
X2060063Y1296063D1*
X2063910Y1292260D1*
X2065811Y1286512D1*
Y1282710D1*
X2063910Y1276962D1*
X2060063Y1273115D1*
X2054315Y1271213D1*
X2048611D1*
X2042863Y1273115D1*
X2040962Y1275060D1*
X2039016Y1278863D1*
X2078163Y1311405D2*
Y1271213D1*
X2104957Y1311405D2*
X2078163Y1284611D1*
X2087713Y1294206D2*
X2104957Y1271213D1*
X2156189Y1311405D2*
Y1271213D1*
X2169587D1*
X2175335Y1273159D1*
X2179181Y1276962D1*
X2181083Y1280808D1*
X2182984Y1286512D1*
Y1296107D1*
X2181083Y1301855D1*
X2179181Y1305657D1*
X2175335Y1309504D1*
X2169587Y1311405D1*
X2156189D1*
X2195335D2*
Y1271213D1*
X2207687Y1290359D2*
X2224931D1*
X2230635Y1292260D1*
X2232580Y1294206D1*
X2234481Y1298008D1*
Y1303756D1*
X2232580Y1307559D1*
X2230635Y1309504D1*
X2224931Y1311405D1*
X2207687D1*
Y1271213D1*
X2312508Y1305657D2*
X2308706Y1309504D1*
X2302958Y1311405D1*
X2295308D1*
X2289560Y1309504D1*
X2285714Y1305657D1*
Y1301855D1*
X2287659Y1298008D1*
X2289560Y1296107D1*
X2293363Y1294206D1*
X2304859Y1290359D1*
X2308706Y1288458D1*
X2310607Y1286512D1*
X2312508Y1282710D1*
Y1276962D1*
X2308706Y1273159D1*
X2302958Y1271213D1*
X2295308D1*
X2289560Y1273159D1*
X2285714Y1276962D1*
X2324860Y1311405D2*
X2334455Y1271213D1*
X2344005Y1311405D1*
X2353556Y1271213D1*
X2363150Y1311405D1*
X2375502D2*
Y1271213D1*
X2388899D1*
X2394647Y1273159D1*
X2398494Y1276962D1*
X2400395Y1280808D1*
X2402297Y1286512D1*
Y1296107D1*
X2400395Y1301855D1*
X2398494Y1305657D1*
X2394647Y1309504D1*
X2388899Y1311405D1*
X2375502D1*
X3062007Y1768602D2*
D10*
X3624507D1*
Y1962353D1*
X3062007D1*
Y1768602D1*
X3149606Y1677179D2*
X3543307D1*
Y1472428D2*
Y1677179D1*
X3149606Y1472428D2*
X3543307D1*
X3149606D2*
Y1551181D1*
Y1677179D2*
Y1598425D1*
Y1551181D2*
G03X3149606Y1598425I0J23622D01*
G01*
X2988784Y1716905D2*
D28*
X3039024D1*
X2988784Y1750398D2*
X3039024D1*
X3012716Y1716905D2*
Y1750398D1*
X2998401Y1765837D2*
X2995969Y1770646D1*
X2988839Y1777831D1*
X3039024D1*
X3349487Y1595750D2*
X3344734Y1600559D1*
X3337549Y1602935D1*
X3327987D1*
X3320802Y1600559D1*
X3315994Y1595750D1*
Y1590997D1*
X3318426Y1586189D1*
X3320802Y1583812D1*
X3325555Y1581435D1*
X3339925Y1576627D1*
X3344734Y1574250D1*
X3347110Y1571819D1*
X3349487Y1567065D1*
Y1559880D1*
X3344734Y1555127D1*
X3337549Y1552695D1*
X3327987D1*
X3320802Y1555127D1*
X3315994Y1559880D1*
X3364926Y1593318D2*
X3369735Y1595750D1*
X3376920Y1602880D1*
Y1552695D1*
X3599254Y1741621D2*
D29*
X3597828Y1744473D1*
X3594943Y1747358D1*
X3592091Y1748784D1*
X3586354D1*
X3583469Y1747358D1*
X3580617Y1744473D1*
X3579158Y1741621D1*
X3577732Y1737310D1*
Y1730114D1*
X3579158Y1725836D1*
X3580617Y1722951D1*
X3583469Y1720099D1*
X3586354Y1718640D1*
X3592091D1*
X3594943Y1720099D1*
X3597828Y1722951D1*
X3599254Y1725836D1*
Y1730114D1*
X3592091D1*
X3628613Y1748784D2*
Y1718640D1*
X3608517Y1748784D1*
Y1718640D1*
X3637877Y1748784D2*
Y1718640D1*
X3647925D1*
X3652236Y1720099D1*
X3655121Y1722951D1*
X3656547Y1725836D1*
X3657973Y1730114D1*
Y1737310D1*
X3656547Y1741621D1*
X3655121Y1744473D1*
X3652236Y1747358D1*
X3647925Y1748784D1*
X3637877D1*
X3103682Y1290359D2*
D30*
X3120926D1*
X3126630Y1292260D1*
X3128576Y1294206D1*
X3130477Y1298008D1*
Y1303756D1*
X3128576Y1307559D1*
X3126630Y1309504D1*
X3120926Y1311405D1*
X3103682D1*
Y1271213D1*
X3169623Y1305657D2*
X3165821Y1309504D1*
X3160072Y1311405D1*
X3152423D1*
X3146675Y1309504D1*
X3142828Y1305657D1*
Y1301855D1*
X3144774Y1298008D1*
X3146675Y1296107D1*
X3150478Y1294206D1*
X3161974Y1290359D1*
X3165821Y1288458D1*
X3167722Y1286512D1*
X3169623Y1282710D1*
Y1276962D1*
X3165821Y1273159D1*
X3160072Y1271213D1*
X3152423D1*
X3146675Y1273159D1*
X3142828Y1276962D1*
X3181974Y1303712D2*
X3185821Y1305657D1*
X3191569Y1311361D1*
Y1271213D1*
X3205822Y1275060D2*
X3203921Y1273115D1*
X3205822Y1271213D1*
X3207767Y1273115D1*
X3205822Y1275060D1*
X3243067Y1311361D2*
X3223966D1*
X3222064Y1294161D1*
X3223966Y1296063D1*
X3229714Y1298008D1*
X3235417D1*
X3241165Y1296063D1*
X3245012Y1292260D1*
X3246913Y1286512D1*
Y1282710D1*
X3245012Y1276962D1*
X3241165Y1273115D1*
X3235417Y1271213D1*
X3229714D1*
X3223966Y1273115D1*
X3222064Y1275060D1*
X3220119Y1278863D1*
X3259265Y1311405D2*
Y1271213D1*
X3286060Y1311405D2*
X3259265Y1284611D1*
X3268815Y1294206D2*
X3286060Y1271213D1*
X3337292Y1311405D2*
Y1271213D1*
X3350689D1*
X3356437Y1273159D1*
X3360284Y1276962D1*
X3362185Y1280808D1*
X3364086Y1286512D1*
Y1296107D1*
X3362185Y1301855D1*
X3360284Y1305657D1*
X3356437Y1309504D1*
X3350689Y1311405D1*
X3337292D1*
X3376438D2*
Y1271213D1*
X3388789Y1290359D2*
X3406033D1*
X3411737Y1292260D1*
X3413683Y1294206D1*
X3415584Y1298008D1*
Y1303756D1*
X3413683Y1307559D1*
X3411737Y1309504D1*
X3406033Y1311405D1*
X3388789D1*
Y1271213D1*
X3493611Y1305657D2*
X3489808Y1309504D1*
X3484060Y1311405D1*
X3476411D1*
X3470663Y1309504D1*
X3466816Y1305657D1*
Y1301855D1*
X3468762Y1298008D1*
X3470663Y1296107D1*
X3474465Y1294206D1*
X3485961Y1290359D1*
X3489808Y1288458D1*
X3491709Y1286512D1*
X3493611Y1282710D1*
Y1276962D1*
X3489808Y1273159D1*
X3484060Y1271213D1*
X3476411D1*
X3470663Y1273159D1*
X3466816Y1276962D1*
X3505962Y1311405D2*
X3515557Y1271213D1*
X3525107Y1311405D1*
X3534658Y1271213D1*
X3544253Y1311405D1*
X3556604D2*
Y1271213D1*
X3570002D1*
X3575750Y1273159D1*
X3579596Y1276962D1*
X3581498Y1280808D1*
X3583399Y1286512D1*
Y1296107D1*
X3581498Y1301855D1*
X3579596Y1305657D1*
X3575750Y1309504D1*
X3570002Y1311405D1*
X3556604D1*
X4243110Y1768602D2*
D10*
X4805610D1*
Y1962353D1*
X4243110D1*
Y1768602D1*
X4330709Y1677179D2*
X4724409D1*
Y1472428D2*
Y1677179D1*
X4330709Y1472428D2*
X4724409D1*
X4330709D2*
Y1551181D1*
Y1677179D2*
Y1598425D1*
Y1551181D2*
G03X4330709Y1598425I0J23622D01*
G01*
X4169887Y1716905D2*
D28*
X4220127D1*
X4169887Y1750398D2*
X4220127D1*
X4193818Y1716905D2*
Y1750398D1*
X4179503Y1765837D2*
X4177072Y1770646D1*
X4169942Y1777831D1*
X4220127D1*
X4530589Y1595750D2*
X4525836Y1600559D1*
X4518651Y1602935D1*
X4509090D1*
X4501904Y1600559D1*
X4497096Y1595750D1*
Y1590997D1*
X4499528Y1586189D1*
X4501904Y1583812D1*
X4506658Y1581435D1*
X4521028Y1576627D1*
X4525836Y1574250D1*
X4528213Y1571819D1*
X4530589Y1567065D1*
Y1559880D1*
X4525836Y1555127D1*
X4518651Y1552695D1*
X4509090D1*
X4501904Y1555127D1*
X4497096Y1559880D1*
X4546029Y1593318D2*
X4550837Y1595750D1*
X4558022Y1602880D1*
Y1552695D1*
X4780356Y1741621D2*
D29*
X4778930Y1744473D1*
X4776045Y1747358D1*
X4773193Y1748784D1*
X4767456D1*
X4764571Y1747358D1*
X4761719Y1744473D1*
X4760260Y1741621D1*
X4758834Y1737310D1*
Y1730114D1*
X4760260Y1725836D1*
X4761719Y1722951D1*
X4764571Y1720099D1*
X4767456Y1718640D1*
X4773193D1*
X4776045Y1720099D1*
X4778930Y1722951D1*
X4780356Y1725836D1*
Y1730114D1*
X4773193D1*
X4809716Y1748784D2*
Y1718640D1*
X4789620Y1748784D1*
Y1718640D1*
X4818979Y1748784D2*
Y1718640D1*
X4829027D1*
X4833338Y1720099D1*
X4836223Y1722951D1*
X4837649Y1725836D1*
X4839075Y1730114D1*
Y1737310D1*
X4837649Y1741621D1*
X4836223Y1744473D1*
X4833338Y1747358D1*
X4829027Y1748784D1*
X4818979D1*
X4284785Y1290359D2*
D30*
X4302029D1*
X4307733Y1292260D1*
X4309678Y1294206D1*
X4311579Y1298008D1*
Y1303756D1*
X4309678Y1307559D1*
X4307733Y1309504D1*
X4302029Y1311405D1*
X4284785D1*
Y1271213D1*
X4350725Y1305657D2*
X4346923Y1309504D1*
X4341175Y1311405D1*
X4333526D1*
X4327778Y1309504D1*
X4323931Y1305657D1*
Y1301855D1*
X4325876Y1298008D1*
X4327778Y1296107D1*
X4331580Y1294206D1*
X4343076Y1290359D1*
X4346923Y1288458D1*
X4348824Y1286512D1*
X4350725Y1282710D1*
Y1276962D1*
X4346923Y1273159D1*
X4341175Y1271213D1*
X4333526D1*
X4327778Y1273159D1*
X4323931Y1276962D1*
X4363077Y1303712D2*
X4366924Y1305657D1*
X4372672Y1311361D1*
Y1271213D1*
X4386924Y1275060D2*
X4385023Y1273115D1*
X4386924Y1271213D1*
X4388870Y1273115D1*
X4386924Y1275060D1*
X4424169Y1311361D2*
X4405068D1*
X4403167Y1294161D1*
X4405068Y1296063D1*
X4410816Y1298008D1*
X4416520D1*
X4422268Y1296063D1*
X4426115Y1292260D1*
X4428016Y1286512D1*
Y1282710D1*
X4426115Y1276962D1*
X4422268Y1273115D1*
X4416520Y1271213D1*
X4410816D1*
X4405068Y1273115D1*
X4403167Y1275060D1*
X4401221Y1278863D1*
X4440367Y1311405D2*
Y1271213D1*
X4467162Y1311405D2*
X4440367Y1284611D1*
X4449918Y1294206D2*
X4467162Y1271213D1*
X4518394Y1311405D2*
Y1271213D1*
X4531791D1*
X4537539Y1273159D1*
X4541386Y1276962D1*
X4543287Y1280808D1*
X4545189Y1286512D1*
Y1296107D1*
X4543287Y1301855D1*
X4541386Y1305657D1*
X4537539Y1309504D1*
X4531791Y1311405D1*
X4518394D1*
X4557540D2*
Y1271213D1*
X4569892Y1290359D2*
X4587136D1*
X4592839Y1292260D1*
X4594785Y1294206D1*
X4596686Y1298008D1*
Y1303756D1*
X4594785Y1307559D1*
X4592839Y1309504D1*
X4587136Y1311405D1*
X4569892D1*
Y1271213D1*
X4674713Y1305657D2*
X4670911Y1309504D1*
X4665162Y1311405D1*
X4657513D1*
X4651765Y1309504D1*
X4647918Y1305657D1*
Y1301855D1*
X4649864Y1298008D1*
X4651765Y1296107D1*
X4655568Y1294206D1*
X4667064Y1290359D1*
X4670911Y1288458D1*
X4672812Y1286512D1*
X4674713Y1282710D1*
Y1276962D1*
X4670911Y1273159D1*
X4665162Y1271213D1*
X4657513D1*
X4651765Y1273159D1*
X4647918Y1276962D1*
X4687064Y1311405D2*
X4696659Y1271213D1*
X4706210Y1311405D1*
X4715760Y1271213D1*
X4725355Y1311405D1*
X4737707D2*
Y1271213D1*
X4751104D1*
X4756852Y1273159D1*
X4760699Y1276962D1*
X4762600Y1280808D1*
X4764501Y1286512D1*
Y1296107D1*
X4762600Y1301855D1*
X4760699Y1305657D1*
X4756852Y1309504D1*
X4751104Y1311405D1*
X4737707D1*
X5424212Y1768602D2*
D10*
X5986712D1*
Y1962353D1*
X5424212D1*
Y1768602D1*
X5511811Y1677179D2*
X5905512D1*
Y1472428D2*
Y1677179D1*
X5511811Y1472428D2*
X5905512D1*
X5511811D2*
Y1551181D1*
Y1677179D2*
Y1598425D1*
Y1551181D2*
G03X5511811Y1598425I0J23622D01*
G01*
X5350989Y1716905D2*
D28*
X5401229D1*
X5350989Y1750398D2*
X5401229D1*
X5374921Y1716905D2*
Y1750398D1*
X5360606Y1765837D2*
X5358174Y1770646D1*
X5351044Y1777831D1*
X5401229D1*
X5711692Y1595750D2*
X5706939Y1600559D1*
X5699753Y1602935D1*
X5690192D1*
X5683007Y1600559D1*
X5678198Y1595750D1*
Y1590997D1*
X5680630Y1586189D1*
X5683007Y1583812D1*
X5687760Y1581435D1*
X5702130Y1576627D1*
X5706939Y1574250D1*
X5709315Y1571819D1*
X5711692Y1567065D1*
Y1559880D1*
X5706939Y1555127D1*
X5699753Y1552695D1*
X5690192D1*
X5683007Y1555127D1*
X5678198Y1559880D1*
X5727131Y1593318D2*
X5731939Y1595750D1*
X5739124Y1602880D1*
Y1552695D1*
X5961459Y1741621D2*
D29*
X5960033Y1744473D1*
X5957148Y1747358D1*
X5954296Y1748784D1*
X5948559D1*
X5945674Y1747358D1*
X5942822Y1744473D1*
X5941363Y1741621D1*
X5939937Y1737310D1*
Y1730114D1*
X5941363Y1725836D1*
X5942822Y1722951D1*
X5945674Y1720099D1*
X5948559Y1718640D1*
X5954296D1*
X5957148Y1720099D1*
X5960033Y1722951D1*
X5961459Y1725836D1*
Y1730114D1*
X5954296D1*
X5990818Y1748784D2*
Y1718640D1*
X5970722Y1748784D1*
Y1718640D1*
X6000082Y1748784D2*
Y1718640D1*
X6010130D1*
X6014441Y1720099D1*
X6017326Y1722951D1*
X6018752Y1725836D1*
X6020178Y1730114D1*
Y1737310D1*
X6018752Y1741621D1*
X6017326Y1744473D1*
X6014441Y1747358D1*
X6010130Y1748784D1*
X6000082D1*
X5465887Y1290359D2*
D30*
X5483131D1*
X5488835Y1292260D1*
X5490780Y1294206D1*
X5492682Y1298008D1*
Y1303756D1*
X5490780Y1307559D1*
X5488835Y1309504D1*
X5483131Y1311405D1*
X5465887D1*
Y1271213D1*
X5531828Y1305657D2*
X5528025Y1309504D1*
X5522277Y1311405D1*
X5514628D1*
X5508880Y1309504D1*
X5505033Y1305657D1*
Y1301855D1*
X5506979Y1298008D1*
X5508880Y1296107D1*
X5512682Y1294206D1*
X5524178Y1290359D1*
X5528025Y1288458D1*
X5529927Y1286512D1*
X5531828Y1282710D1*
Y1276962D1*
X5528025Y1273159D1*
X5522277Y1271213D1*
X5514628D1*
X5508880Y1273159D1*
X5505033Y1276962D1*
X5544179Y1303712D2*
X5548026Y1305657D1*
X5553774Y1311361D1*
Y1271213D1*
X5568027Y1275060D2*
X5566125Y1273115D1*
X5568027Y1271213D1*
X5569972Y1273115D1*
X5568027Y1275060D1*
X5605271Y1311361D2*
X5586170D1*
X5584269Y1294161D1*
X5586170Y1296063D1*
X5591918Y1298008D1*
X5597622D1*
X5603370Y1296063D1*
X5607217Y1292260D1*
X5609118Y1286512D1*
Y1282710D1*
X5607217Y1276962D1*
X5603370Y1273115D1*
X5597622Y1271213D1*
X5591918D1*
X5586170Y1273115D1*
X5584269Y1275060D1*
X5582324Y1278863D1*
X5621470Y1311405D2*
Y1271213D1*
X5648264Y1311405D2*
X5621470Y1284611D1*
X5631020Y1294206D2*
X5648264Y1271213D1*
X5699496Y1311405D2*
Y1271213D1*
X5712894D1*
X5718642Y1273159D1*
X5722489Y1276962D1*
X5724390Y1280808D1*
X5726291Y1286512D1*
Y1296107D1*
X5724390Y1301855D1*
X5722489Y1305657D1*
X5718642Y1309504D1*
X5712894Y1311405D1*
X5699496D1*
X5738643D2*
Y1271213D1*
X5750994Y1290359D2*
X5768238D1*
X5773942Y1292260D1*
X5775887Y1294206D1*
X5777789Y1298008D1*
Y1303756D1*
X5775887Y1307559D1*
X5773942Y1309504D1*
X5768238Y1311405D1*
X5750994D1*
Y1271213D1*
X5855815Y1305657D2*
X5852013Y1309504D1*
X5846265Y1311405D1*
X5838616D1*
X5832868Y1309504D1*
X5829021Y1305657D1*
Y1301855D1*
X5830966Y1298008D1*
X5832868Y1296107D1*
X5836670Y1294206D1*
X5848166Y1290359D1*
X5852013Y1288458D1*
X5853914Y1286512D1*
X5855815Y1282710D1*
Y1276962D1*
X5852013Y1273159D1*
X5846265Y1271213D1*
X5838616D1*
X5832868Y1273159D1*
X5829021Y1276962D1*
X5868167Y1311405D2*
X5877762Y1271213D1*
X5887312Y1311405D1*
X5896863Y1271213D1*
X5906458Y1311405D1*
X5918809D2*
Y1271213D1*
X5932206D1*
X5937954Y1273159D1*
X5941801Y1276962D1*
X5943702Y1280808D1*
X5945604Y1286512D1*
Y1296107D1*
X5943702Y1301855D1*
X5941801Y1305657D1*
X5937954Y1309504D1*
X5932206Y1311405D1*
X5918809D1*
X699802Y2556004D2*
D10*
X1262302D1*
Y2749755D1*
X699802D1*
Y2556004D1*
X787402Y2464580D2*
X1181102D1*
Y2259829D2*
Y2464580D1*
X787402Y2259829D2*
X1181102D1*
X787402D2*
Y2338583D1*
Y2464580D2*
Y2385827D1*
Y2338583D2*
G03X787402Y2385827I0J23622D01*
G01*
X626579Y2504306D2*
D28*
X676819D1*
X626579Y2537799D2*
X676819D1*
X650511Y2504306D2*
Y2537799D1*
X636196Y2553239D2*
X633765Y2558047D1*
X626635Y2565232D1*
X676819D1*
X987282Y2383152D2*
X982529Y2387960D1*
X975344Y2390337D1*
X965782D1*
X958597Y2387960D1*
X953789Y2383152D1*
Y2378399D1*
X956221Y2373590D1*
X958597Y2371214D1*
X963351Y2368837D1*
X977721Y2364029D1*
X982529Y2361652D1*
X984906Y2359220D1*
X987282Y2354467D1*
Y2347282D1*
X982529Y2342529D1*
X975344Y2340097D1*
X965782D1*
X958597Y2342529D1*
X953789Y2347282D1*
X1002722Y2380720D2*
X1007530Y2383152D1*
X1014715Y2390282D1*
Y2340097D1*
X1237049Y2529023D2*
D29*
X1235623Y2531875D1*
X1232738Y2534760D1*
X1229886Y2536186D1*
X1224149D1*
X1221264Y2534760D1*
X1218412Y2531875D1*
X1216953Y2529023D1*
X1215527Y2524712D1*
Y2517516D1*
X1216953Y2513238D1*
X1218412Y2510353D1*
X1221264Y2507501D1*
X1224149Y2506042D1*
X1229886D1*
X1232738Y2507501D1*
X1235623Y2510353D1*
X1237049Y2513238D1*
Y2517516D1*
X1229886D1*
X1266409Y2536186D2*
Y2506042D1*
X1246313Y2536186D1*
Y2506042D1*
X1275672Y2536186D2*
Y2506042D1*
X1285720D1*
X1290031Y2507501D1*
X1292916Y2510353D1*
X1294342Y2513238D1*
X1295768Y2517516D1*
Y2524712D1*
X1294342Y2529023D1*
X1292916Y2531875D1*
X1290031Y2534760D1*
X1285720Y2536186D1*
X1275672D1*
X741478Y2077760D2*
D30*
X758722D1*
X764426Y2079662D1*
X766371Y2081607D1*
X768272Y2085410D1*
Y2091158D1*
X766371Y2094960D1*
X764426Y2096906D1*
X758722Y2098807D1*
X741478D1*
Y2058615D1*
X807418Y2093059D2*
X803616Y2096906D1*
X797868Y2098807D1*
X790218D1*
X784470Y2096906D1*
X780624Y2093059D1*
Y2089256D1*
X782569Y2085410D1*
X784470Y2083508D1*
X788273Y2081607D1*
X799769Y2077760D1*
X803616Y2075859D1*
X805517Y2073914D1*
X807418Y2070111D1*
Y2064363D1*
X803616Y2060561D1*
X797868Y2058615D1*
X790218D1*
X784470Y2060561D1*
X780624Y2064363D1*
X819770Y2091114D2*
X823617Y2093059D1*
X829365Y2098763D1*
Y2058615D1*
X843617Y2062462D2*
X841716Y2060516D1*
X843617Y2058615D1*
X845563Y2060516D1*
X843617Y2062462D1*
X880862Y2098763D2*
X861761D1*
X859860Y2081563D1*
X861761Y2083464D1*
X867509Y2085410D1*
X873213D1*
X878961Y2083464D1*
X882807Y2079662D1*
X884709Y2073914D1*
Y2070111D1*
X882807Y2064363D1*
X878961Y2060516D1*
X873213Y2058615D1*
X867509D1*
X861761Y2060516D1*
X859860Y2062462D1*
X857914Y2066264D1*
X897060Y2098807D2*
Y2058615D1*
X923855Y2098807D2*
X897060Y2072012D1*
X906611Y2081607D2*
X923855Y2058615D1*
X975087Y2098807D2*
Y2058615D1*
X988484D1*
X994232Y2060561D1*
X998079Y2064363D1*
X999980Y2068210D1*
X1001882Y2073914D1*
Y2083508D1*
X999980Y2089256D1*
X998079Y2093059D1*
X994232Y2096906D1*
X988484Y2098807D1*
X975087D1*
X1014233D2*
Y2058615D1*
X1026584Y2077760D2*
X1043829D1*
X1049532Y2079662D1*
X1051478Y2081607D1*
X1053379Y2085410D1*
Y2091158D1*
X1051478Y2094960D1*
X1049532Y2096906D1*
X1043829Y2098807D1*
X1026584D1*
Y2058615D1*
X1131406Y2093059D2*
X1127603Y2096906D1*
X1121855Y2098807D1*
X1114206D1*
X1108458Y2096906D1*
X1104611Y2093059D1*
Y2089256D1*
X1106557Y2085410D1*
X1108458Y2083508D1*
X1112261Y2081607D1*
X1123757Y2077760D1*
X1127603Y2075859D1*
X1129505Y2073914D1*
X1131406Y2070111D1*
Y2064363D1*
X1127603Y2060561D1*
X1121855Y2058615D1*
X1114206D1*
X1108458Y2060561D1*
X1104611Y2064363D1*
X1143757Y2098807D2*
X1153352Y2058615D1*
X1162903Y2098807D1*
X1172453Y2058615D1*
X1182048Y2098807D1*
X1194400D2*
Y2058615D1*
X1207797D1*
X1213545Y2060561D1*
X1217392Y2064363D1*
X1219293Y2068210D1*
X1221194Y2073914D1*
Y2083508D1*
X1219293Y2089256D1*
X1217392Y2093059D1*
X1213545Y2096906D1*
X1207797Y2098807D1*
X1194400D1*
X1880905Y2556004D2*
D10*
X2443405D1*
Y2749755D1*
X1880905D1*
Y2556004D1*
X1968504Y2464580D2*
X2362205D1*
Y2259829D2*
Y2464580D1*
X1968504Y2259829D2*
X2362205D1*
X1968504D2*
Y2338583D1*
Y2464580D2*
Y2385827D1*
Y2338583D2*
G03X1968504Y2385827I0J23622D01*
G01*
X1807682Y2504306D2*
D28*
X1857922D1*
X1807682Y2537799D2*
X1857922D1*
X1831613Y2504306D2*
X1831614Y2537799D1*
X1817299Y2553239D2*
X1814867Y2558047D1*
X1807737Y2565232D1*
X1857922D1*
X2168385Y2383152D2*
X2163631Y2387960D1*
X2156446Y2390337D1*
X2146885D1*
X2139700Y2387960D1*
X2134891Y2383152D1*
Y2378399D1*
X2137323Y2373590D1*
X2139700Y2371214D1*
X2144453Y2368837D1*
X2158823Y2364029D1*
X2163631Y2361652D1*
X2166008Y2359220D1*
X2168385Y2354467D1*
Y2347282D1*
X2163631Y2342529D1*
X2156446Y2340097D1*
X2146885D1*
X2139700Y2342529D1*
X2134891Y2347282D1*
X2183824Y2380720D2*
X2188632Y2383152D1*
X2195817Y2390282D1*
Y2340097D1*
X2418151Y2529023D2*
D29*
X2416726Y2531875D1*
X2413840Y2534760D1*
X2410989Y2536186D1*
X2405252D1*
X2402367Y2534760D1*
X2399515Y2531875D1*
X2398055Y2529023D1*
X2396630Y2524712D1*
Y2517516D1*
X2398055Y2513238D1*
X2399515Y2510353D1*
X2402367Y2507501D1*
X2405252Y2506042D1*
X2410989D1*
X2413840Y2507501D1*
X2416726Y2510353D1*
X2418151Y2513238D1*
Y2517516D1*
X2410989D1*
X2447511Y2536186D2*
Y2506042D1*
X2427415Y2536186D1*
Y2506042D1*
X2456775Y2536186D2*
Y2506042D1*
X2466823D1*
X2471134Y2507501D1*
X2474019Y2510353D1*
X2475445Y2513238D1*
X2476871Y2517516D1*
Y2524712D1*
X2475445Y2529023D1*
X2474019Y2531875D1*
X2471134Y2534760D1*
X2466823Y2536186D1*
X2456775D1*
X1922580Y2077760D2*
D30*
X1939824D1*
X1945528Y2079662D1*
X1947473Y2081607D1*
X1949375Y2085410D1*
Y2091158D1*
X1947473Y2094960D1*
X1945528Y2096906D1*
X1939824Y2098807D1*
X1922580D1*
Y2058615D1*
X1988521Y2093059D2*
X1984718Y2096906D1*
X1978970Y2098807D1*
X1971321D1*
X1965573Y2096906D1*
X1961726Y2093059D1*
Y2089256D1*
X1963672Y2085410D1*
X1965573Y2083508D1*
X1969375Y2081607D1*
X1980871Y2077760D1*
X1984718Y2075859D1*
X1986619Y2073914D1*
X1988521Y2070111D1*
Y2064363D1*
X1984718Y2060561D1*
X1978970Y2058615D1*
X1971321D1*
X1965573Y2060561D1*
X1961726Y2064363D1*
X2000872Y2091114D2*
X2004719Y2093059D1*
X2010467Y2098763D1*
Y2058615D1*
X2024720Y2062462D2*
X2022818Y2060516D1*
X2024720Y2058615D1*
X2026665Y2060516D1*
X2024720Y2062462D1*
X2061964Y2098763D2*
X2042863D1*
X2040962Y2081563D1*
X2042863Y2083464D1*
X2048611Y2085410D1*
X2054315D1*
X2060063Y2083464D1*
X2063910Y2079662D1*
X2065811Y2073914D1*
Y2070111D1*
X2063910Y2064363D1*
X2060063Y2060516D1*
X2054315Y2058615D1*
X2048611D1*
X2042863Y2060516D1*
X2040962Y2062462D1*
X2039016Y2066264D1*
X2078163Y2098807D2*
Y2058615D1*
X2104957Y2098807D2*
X2078163Y2072012D1*
X2087713Y2081607D2*
X2104957Y2058615D1*
X2156189Y2098807D2*
Y2058615D1*
X2169587D1*
X2175335Y2060561D1*
X2179181Y2064363D1*
X2181083Y2068210D1*
X2182984Y2073914D1*
Y2083508D1*
X2181083Y2089256D1*
X2179181Y2093059D1*
X2175335Y2096906D1*
X2169587Y2098807D1*
X2156189D1*
X2195335D2*
Y2058615D1*
X2207687Y2077760D2*
X2224931D1*
X2230635Y2079662D1*
X2232580Y2081607D1*
X2234481Y2085410D1*
Y2091158D1*
X2232580Y2094960D1*
X2230635Y2096906D1*
X2224931Y2098807D1*
X2207687D1*
Y2058615D1*
X2312508Y2093059D2*
X2308706Y2096906D1*
X2302958Y2098807D1*
X2295308D1*
X2289560Y2096906D1*
X2285714Y2093059D1*
Y2089256D1*
X2287659Y2085410D1*
X2289560Y2083508D1*
X2293363Y2081607D1*
X2304859Y2077760D1*
X2308706Y2075859D1*
X2310607Y2073914D1*
X2312508Y2070111D1*
Y2064363D1*
X2308706Y2060561D1*
X2302958Y2058615D1*
X2295308D1*
X2289560Y2060561D1*
X2285714Y2064363D1*
X2324860Y2098807D2*
X2334455Y2058615D1*
X2344005Y2098807D1*
X2353556Y2058615D1*
X2363150Y2098807D1*
X2375502D2*
Y2058615D1*
X2388899D1*
X2394647Y2060561D1*
X2398494Y2064363D1*
X2400395Y2068210D1*
X2402297Y2073914D1*
Y2083508D1*
X2400395Y2089256D1*
X2398494Y2093059D1*
X2394647Y2096906D1*
X2388899Y2098807D1*
X2375502D1*
X3062007Y2556004D2*
D10*
X3624507D1*
Y2749755D1*
X3062007D1*
Y2556004D1*
X3149606Y2464580D2*
X3543307D1*
Y2259829D2*
Y2464580D1*
X3149606Y2259829D2*
X3543307D1*
X3149606D2*
Y2338583D1*
Y2464580D2*
Y2385827D1*
Y2338583D2*
G03X3149606Y2385827I0J23622D01*
G01*
X2988784Y2504306D2*
D28*
X3039024D1*
X2988784Y2537799D2*
X3039024D1*
X3012716Y2504306D2*
Y2537799D1*
X2998401Y2553239D2*
X2995969Y2558047D1*
X2988839Y2565232D1*
X3039024D1*
X3349487Y2383152D2*
X3344734Y2387960D1*
X3337549Y2390337D1*
X3327987D1*
X3320802Y2387960D1*
X3315994Y2383152D1*
Y2378399D1*
X3318426Y2373590D1*
X3320802Y2371214D1*
X3325555Y2368837D1*
X3339925Y2364029D1*
X3344734Y2361652D1*
X3347110Y2359220D1*
X3349487Y2354467D1*
Y2347282D1*
X3344734Y2342529D1*
X3337549Y2340097D1*
X3327987D1*
X3320802Y2342529D1*
X3315994Y2347282D1*
X3364926Y2380720D2*
X3369735Y2383152D1*
X3376920Y2390282D1*
Y2340097D1*
X3599254Y2529023D2*
D29*
X3597828Y2531875D1*
X3594943Y2534760D1*
X3592091Y2536186D1*
X3586354D1*
X3583469Y2534760D1*
X3580617Y2531875D1*
X3579158Y2529023D1*
X3577732Y2524712D1*
Y2517516D1*
X3579158Y2513238D1*
X3580617Y2510353D1*
X3583469Y2507501D1*
X3586354Y2506042D1*
X3592091D1*
X3594943Y2507501D1*
X3597828Y2510353D1*
X3599254Y2513238D1*
Y2517516D1*
X3592091D1*
X3628613Y2536186D2*
Y2506042D1*
X3608517Y2536186D1*
Y2506042D1*
X3637877Y2536186D2*
Y2506042D1*
X3647925D1*
X3652236Y2507501D1*
X3655121Y2510353D1*
X3656547Y2513238D1*
X3657973Y2517516D1*
Y2524712D1*
X3656547Y2529023D1*
X3655121Y2531875D1*
X3652236Y2534760D1*
X3647925Y2536186D1*
X3637877D1*
X3103682Y2077760D2*
D30*
X3120926D1*
X3126630Y2079662D1*
X3128576Y2081607D1*
X3130477Y2085410D1*
Y2091158D1*
X3128576Y2094960D1*
X3126630Y2096906D1*
X3120926Y2098807D1*
X3103682D1*
Y2058615D1*
X3169623Y2093059D2*
X3165821Y2096906D1*
X3160072Y2098807D1*
X3152423D1*
X3146675Y2096906D1*
X3142828Y2093059D1*
Y2089256D1*
X3144774Y2085410D1*
X3146675Y2083508D1*
X3150478Y2081607D1*
X3161974Y2077760D1*
X3165821Y2075859D1*
X3167722Y2073914D1*
X3169623Y2070111D1*
Y2064363D1*
X3165821Y2060561D1*
X3160072Y2058615D1*
X3152423D1*
X3146675Y2060561D1*
X3142828Y2064363D1*
X3181974Y2091114D2*
X3185821Y2093059D1*
X3191569Y2098763D1*
Y2058615D1*
X3205822Y2062462D2*
X3203921Y2060516D1*
X3205822Y2058615D1*
X3207767Y2060516D1*
X3205822Y2062462D1*
X3243067Y2098763D2*
X3223966D1*
X3222064Y2081563D1*
X3223966Y2083464D1*
X3229714Y2085410D1*
X3235417D1*
X3241165Y2083464D1*
X3245012Y2079662D1*
X3246913Y2073914D1*
Y2070111D1*
X3245012Y2064363D1*
X3241165Y2060516D1*
X3235417Y2058615D1*
X3229714D1*
X3223966Y2060516D1*
X3222064Y2062462D1*
X3220119Y2066264D1*
X3259265Y2098807D2*
Y2058615D1*
X3286060Y2098807D2*
X3259265Y2072012D1*
X3268815Y2081607D2*
X3286060Y2058615D1*
X3337292Y2098807D2*
Y2058615D1*
X3350689D1*
X3356437Y2060561D1*
X3360284Y2064363D1*
X3362185Y2068210D1*
X3364086Y2073914D1*
Y2083508D1*
X3362185Y2089256D1*
X3360284Y2093059D1*
X3356437Y2096906D1*
X3350689Y2098807D1*
X3337292D1*
X3376438D2*
Y2058615D1*
X3388789Y2077760D2*
X3406033D1*
X3411737Y2079662D1*
X3413683Y2081607D1*
X3415584Y2085410D1*
Y2091158D1*
X3413683Y2094960D1*
X3411737Y2096906D1*
X3406033Y2098807D1*
X3388789D1*
Y2058615D1*
X3493611Y2093059D2*
X3489808Y2096906D1*
X3484060Y2098807D1*
X3476411D1*
X3470663Y2096906D1*
X3466816Y2093059D1*
Y2089256D1*
X3468762Y2085410D1*
X3470663Y2083508D1*
X3474465Y2081607D1*
X3485961Y2077760D1*
X3489808Y2075859D1*
X3491709Y2073914D1*
X3493611Y2070111D1*
Y2064363D1*
X3489808Y2060561D1*
X3484060Y2058615D1*
X3476411D1*
X3470663Y2060561D1*
X3466816Y2064363D1*
X3505962Y2098807D2*
X3515557Y2058615D1*
X3525107Y2098807D1*
X3534658Y2058615D1*
X3544253Y2098807D1*
X3556604D2*
Y2058615D1*
X3570002D1*
X3575750Y2060561D1*
X3579596Y2064363D1*
X3581498Y2068210D1*
X3583399Y2073914D1*
Y2083508D1*
X3581498Y2089256D1*
X3579596Y2093059D1*
X3575750Y2096906D1*
X3570002Y2098807D1*
X3556604D1*
X4243110Y2556004D2*
D10*
X4805610D1*
Y2749755D1*
X4243110D1*
Y2556004D1*
X4330709Y2464580D2*
X4724409D1*
Y2259829D2*
Y2464580D1*
X4330709Y2259829D2*
X4724409D1*
X4330709D2*
Y2338583D1*
Y2464580D2*
Y2385827D1*
Y2338583D2*
G03X4330709Y2385827I0J23622D01*
G01*
X4169887Y2504306D2*
D28*
X4220127D1*
X4169887Y2537799D2*
X4220127D1*
X4193818Y2504306D2*
Y2537799D1*
X4179503Y2553239D2*
X4177072Y2558047D1*
X4169942Y2565232D1*
X4220127D1*
X4530589Y2383152D2*
X4525836Y2387960D1*
X4518651Y2390337D1*
X4509090D1*
X4501904Y2387960D1*
X4497096Y2383152D1*
Y2378399D1*
X4499528Y2373590D1*
X4501904Y2371214D1*
X4506658Y2368837D1*
X4521028Y2364029D1*
X4525836Y2361652D1*
X4528213Y2359220D1*
X4530589Y2354467D1*
Y2347282D1*
X4525836Y2342529D1*
X4518651Y2340097D1*
X4509090D1*
X4501904Y2342529D1*
X4497096Y2347282D1*
X4546029Y2380720D2*
X4550837Y2383152D1*
X4558022Y2390282D1*
Y2340097D1*
X4780356Y2529023D2*
D29*
X4778930Y2531875D1*
X4776045Y2534760D1*
X4773193Y2536186D1*
X4767456D1*
X4764571Y2534760D1*
X4761719Y2531875D1*
X4760260Y2529023D1*
X4758834Y2524712D1*
Y2517516D1*
X4760260Y2513238D1*
X4761719Y2510353D1*
X4764571Y2507501D1*
X4767456Y2506042D1*
X4773193D1*
X4776045Y2507501D1*
X4778930Y2510353D1*
X4780356Y2513238D1*
Y2517516D1*
X4773193D1*
X4809716Y2536186D2*
Y2506042D1*
X4789620Y2536186D1*
Y2506042D1*
X4818979Y2536186D2*
Y2506042D1*
X4829027D1*
X4833338Y2507501D1*
X4836223Y2510353D1*
X4837649Y2513238D1*
X4839075Y2517516D1*
Y2524712D1*
X4837649Y2529023D1*
X4836223Y2531875D1*
X4833338Y2534760D1*
X4829027Y2536186D1*
X4818979D1*
X4284785Y2077760D2*
D30*
X4302029D1*
X4307733Y2079662D1*
X4309678Y2081607D1*
X4311579Y2085410D1*
Y2091158D1*
X4309678Y2094960D1*
X4307733Y2096906D1*
X4302029Y2098807D1*
X4284785D1*
Y2058615D1*
X4350725Y2093059D2*
X4346923Y2096906D1*
X4341175Y2098807D1*
X4333526D1*
X4327778Y2096906D1*
X4323931Y2093059D1*
Y2089256D1*
X4325876Y2085410D1*
X4327778Y2083508D1*
X4331580Y2081607D1*
X4343076Y2077760D1*
X4346923Y2075859D1*
X4348824Y2073914D1*
X4350725Y2070111D1*
Y2064363D1*
X4346923Y2060561D1*
X4341175Y2058615D1*
X4333526D1*
X4327778Y2060561D1*
X4323931Y2064363D1*
X4363077Y2091114D2*
X4366924Y2093059D1*
X4372672Y2098763D1*
Y2058615D1*
X4386924Y2062462D2*
X4385023Y2060516D1*
X4386924Y2058615D1*
X4388870Y2060516D1*
X4386924Y2062462D1*
X4424169Y2098763D2*
X4405068D1*
X4403167Y2081563D1*
X4405068Y2083464D1*
X4410816Y2085410D1*
X4416520D1*
X4422268Y2083464D1*
X4426115Y2079662D1*
X4428016Y2073914D1*
Y2070111D1*
X4426115Y2064363D1*
X4422268Y2060516D1*
X4416520Y2058615D1*
X4410816D1*
X4405068Y2060516D1*
X4403167Y2062462D1*
X4401221Y2066264D1*
X4440367Y2098807D2*
Y2058615D1*
X4467162Y2098807D2*
X4440367Y2072012D1*
X4449918Y2081607D2*
X4467162Y2058615D1*
X4518394Y2098807D2*
Y2058615D1*
X4531791D1*
X4537539Y2060561D1*
X4541386Y2064363D1*
X4543287Y2068210D1*
X4545189Y2073914D1*
Y2083508D1*
X4543287Y2089256D1*
X4541386Y2093059D1*
X4537539Y2096906D1*
X4531791Y2098807D1*
X4518394D1*
X4557540D2*
Y2058615D1*
X4569892Y2077760D2*
X4587136D1*
X4592839Y2079662D1*
X4594785Y2081607D1*
X4596686Y2085410D1*
Y2091158D1*
X4594785Y2094960D1*
X4592839Y2096906D1*
X4587136Y2098807D1*
X4569892D1*
Y2058615D1*
X4674713Y2093059D2*
X4670911Y2096906D1*
X4665162Y2098807D1*
X4657513D1*
X4651765Y2096906D1*
X4647918Y2093059D1*
Y2089256D1*
X4649864Y2085410D1*
X4651765Y2083508D1*
X4655568Y2081607D1*
X4667064Y2077760D1*
X4670911Y2075859D1*
X4672812Y2073914D1*
X4674713Y2070111D1*
Y2064363D1*
X4670911Y2060561D1*
X4665162Y2058615D1*
X4657513D1*
X4651765Y2060561D1*
X4647918Y2064363D1*
X4687064Y2098807D2*
X4696659Y2058615D1*
X4706210Y2098807D1*
X4715760Y2058615D1*
X4725355Y2098807D1*
X4737707D2*
Y2058615D1*
X4751104D1*
X4756852Y2060561D1*
X4760699Y2064363D1*
X4762600Y2068210D1*
X4764501Y2073914D1*
Y2083508D1*
X4762600Y2089256D1*
X4760699Y2093059D1*
X4756852Y2096906D1*
X4751104Y2098807D1*
X4737707D1*
X5424212Y2556004D2*
D10*
X5986712D1*
Y2749755D1*
X5424212D1*
Y2556004D1*
X5511811Y2464580D2*
X5905512D1*
Y2259829D2*
Y2464580D1*
X5511811Y2259829D2*
X5905512D1*
X5511811D2*
Y2338583D1*
Y2464580D2*
Y2385827D1*
Y2338583D2*
G03X5511811Y2385827I0J23622D01*
G01*
X5350989Y2504306D2*
D28*
X5401229D1*
X5350989Y2537799D2*
X5401229D1*
X5374921Y2504306D2*
Y2537799D1*
X5360606Y2553239D2*
X5358174Y2558047D1*
X5351044Y2565232D1*
X5401229D1*
X5711692Y2383152D2*
X5706939Y2387960D1*
X5699753Y2390337D1*
X5690192D1*
X5683007Y2387960D1*
X5678198Y2383152D1*
Y2378399D1*
X5680630Y2373590D1*
X5683007Y2371214D1*
X5687760Y2368837D1*
X5702130Y2364029D1*
X5706939Y2361652D1*
X5709315Y2359220D1*
X5711692Y2354467D1*
Y2347282D1*
X5706939Y2342529D1*
X5699753Y2340097D1*
X5690192D1*
X5683007Y2342529D1*
X5678198Y2347282D1*
X5727131Y2380720D2*
X5731939Y2383152D1*
X5739124Y2390282D1*
Y2340097D1*
X5961459Y2529023D2*
D29*
X5960033Y2531875D1*
X5957148Y2534760D1*
X5954296Y2536186D1*
X5948559D1*
X5945674Y2534760D1*
X5942822Y2531875D1*
X5941363Y2529023D1*
X5939937Y2524712D1*
Y2517516D1*
X5941363Y2513238D1*
X5942822Y2510353D1*
X5945674Y2507501D1*
X5948559Y2506042D1*
X5954296D1*
X5957148Y2507501D1*
X5960033Y2510353D1*
X5961459Y2513238D1*
Y2517516D1*
X5954296D1*
X5990818Y2536186D2*
Y2506042D1*
X5970722Y2536186D1*
Y2506042D1*
X6000082Y2536186D2*
Y2506042D1*
X6010130D1*
X6014441Y2507501D1*
X6017326Y2510353D1*
X6018752Y2513238D1*
X6020178Y2517516D1*
Y2524712D1*
X6018752Y2529023D1*
X6017326Y2531875D1*
X6014441Y2534760D1*
X6010130Y2536186D1*
X6000082D1*
X5465887Y2077760D2*
D30*
X5483131D1*
X5488835Y2079662D1*
X5490780Y2081607D1*
X5492682Y2085410D1*
Y2091158D1*
X5490780Y2094960D1*
X5488835Y2096906D1*
X5483131Y2098807D1*
X5465887D1*
Y2058615D1*
X5531828Y2093059D2*
X5528025Y2096906D1*
X5522277Y2098807D1*
X5514628D1*
X5508880Y2096906D1*
X5505033Y2093059D1*
Y2089256D1*
X5506979Y2085410D1*
X5508880Y2083508D1*
X5512682Y2081607D1*
X5524178Y2077760D1*
X5528025Y2075859D1*
X5529927Y2073914D1*
X5531828Y2070111D1*
Y2064363D1*
X5528025Y2060561D1*
X5522277Y2058615D1*
X5514628D1*
X5508880Y2060561D1*
X5505033Y2064363D1*
X5544179Y2091114D2*
X5548026Y2093059D1*
X5553774Y2098763D1*
Y2058615D1*
X5568027Y2062462D2*
X5566125Y2060516D1*
X5568027Y2058615D1*
X5569972Y2060516D1*
X5568027Y2062462D1*
X5605271Y2098763D2*
X5586170D1*
X5584269Y2081563D1*
X5586170Y2083464D1*
X5591918Y2085410D1*
X5597622D1*
X5603370Y2083464D1*
X5607217Y2079662D1*
X5609118Y2073914D1*
Y2070111D1*
X5607217Y2064363D1*
X5603370Y2060516D1*
X5597622Y2058615D1*
X5591918D1*
X5586170Y2060516D1*
X5584269Y2062462D1*
X5582324Y2066264D1*
X5621470Y2098807D2*
Y2058615D1*
X5648264Y2098807D2*
X5621470Y2072012D1*
X5631020Y2081607D2*
X5648264Y2058615D1*
X5699496Y2098807D2*
Y2058615D1*
X5712894D1*
X5718642Y2060561D1*
X5722489Y2064363D1*
X5724390Y2068210D1*
X5726291Y2073914D1*
Y2083508D1*
X5724390Y2089256D1*
X5722489Y2093059D1*
X5718642Y2096906D1*
X5712894Y2098807D1*
X5699496D1*
X5738643D2*
Y2058615D1*
X5750994Y2077760D2*
X5768238D1*
X5773942Y2079662D1*
X5775887Y2081607D1*
X5777789Y2085410D1*
Y2091158D1*
X5775887Y2094960D1*
X5773942Y2096906D1*
X5768238Y2098807D1*
X5750994D1*
Y2058615D1*
X5855815Y2093059D2*
X5852013Y2096906D1*
X5846265Y2098807D1*
X5838616D1*
X5832868Y2096906D1*
X5829021Y2093059D1*
Y2089256D1*
X5830966Y2085410D1*
X5832868Y2083508D1*
X5836670Y2081607D1*
X5848166Y2077760D1*
X5852013Y2075859D1*
X5853914Y2073914D1*
X5855815Y2070111D1*
Y2064363D1*
X5852013Y2060561D1*
X5846265Y2058615D1*
X5838616D1*
X5832868Y2060561D1*
X5829021Y2064363D1*
X5868167Y2098807D2*
X5877762Y2058615D1*
X5887312Y2098807D1*
X5896863Y2058615D1*
X5906458Y2098807D1*
X5918809D2*
Y2058615D1*
X5932206D1*
X5937954Y2060561D1*
X5941801Y2064363D1*
X5943702Y2068210D1*
X5945604Y2073914D1*
Y2083508D1*
X5943702Y2089256D1*
X5941801Y2093059D1*
X5937954Y2096906D1*
X5932206Y2098807D1*
X5918809D1*
X699802Y3343406D2*
D10*
X1262302D1*
Y3537156D1*
X699802D1*
Y3343406D1*
X787402Y3251982D2*
X1181102D1*
Y3047231D2*
Y3251982D1*
X787402Y3047231D2*
X1181102D1*
X787402D2*
Y3125984D1*
Y3251982D2*
Y3173228D1*
Y3125984D2*
G03X787402Y3173228I0J23622D01*
G01*
X626579Y3291708D2*
D28*
X676819D1*
X626579Y3325201D2*
X676819D1*
X650511Y3291708D2*
Y3325201D1*
X636196Y3340640D2*
X633765Y3345449D1*
X626635Y3352634D1*
X676819D1*
X987282Y3170553D2*
X982529Y3175362D1*
X975344Y3177738D1*
X965782D1*
X958597Y3175362D1*
X953789Y3170553D1*
Y3165800D1*
X956221Y3160992D1*
X958597Y3158615D1*
X963351Y3156239D1*
X977721Y3151430D1*
X982529Y3149054D1*
X984906Y3146622D1*
X987282Y3141869D1*
Y3134684D1*
X982529Y3129930D1*
X975344Y3127498D1*
X965782D1*
X958597Y3129930D1*
X953789Y3134684D1*
X1002722Y3168122D2*
X1007530Y3170553D1*
X1014715Y3177683D1*
Y3127498D1*
X1237049Y3316424D2*
D29*
X1235623Y3319276D1*
X1232738Y3322161D1*
X1229886Y3323587D1*
X1224149D1*
X1221264Y3322161D1*
X1218412Y3319276D1*
X1216953Y3316424D1*
X1215527Y3312113D1*
Y3304917D1*
X1216953Y3300639D1*
X1218412Y3297754D1*
X1221264Y3294902D1*
X1224149Y3293443D1*
X1229886D1*
X1232738Y3294902D1*
X1235623Y3297754D1*
X1237049Y3300639D1*
Y3304917D1*
X1229886D1*
X1266409Y3323587D2*
Y3293443D1*
X1246313Y3323587D1*
Y3293443D1*
X1275672Y3323587D2*
Y3293443D1*
X1285720D1*
X1290031Y3294902D1*
X1292916Y3297754D1*
X1294342Y3300639D1*
X1295768Y3304917D1*
Y3312113D1*
X1294342Y3316424D1*
X1292916Y3319276D1*
X1290031Y3322161D1*
X1285720Y3323587D1*
X1275672D1*
X741478Y2865162D2*
D30*
X758722D1*
X764426Y2867063D1*
X766371Y2869009D1*
X768272Y2872811D1*
Y2878559D1*
X766371Y2882362D1*
X764426Y2884307D1*
X758722Y2886209D1*
X741478D1*
Y2846017D1*
X807418Y2880461D2*
X803616Y2884307D1*
X797868Y2886209D1*
X790218D1*
X784470Y2884307D1*
X780624Y2880461D1*
Y2876658D1*
X782569Y2872811D1*
X784470Y2870910D1*
X788273Y2869009D1*
X799769Y2865162D1*
X803616Y2863261D1*
X805517Y2861315D1*
X807418Y2857513D1*
Y2851765D1*
X803616Y2847962D1*
X797868Y2846017D1*
X790218D1*
X784470Y2847962D1*
X780624Y2851765D1*
X819770Y2878515D2*
X823617Y2880461D1*
X829365Y2886164D1*
Y2846017D1*
X843617Y2849863D2*
X841716Y2847918D1*
X843617Y2846017D1*
X845563Y2847918D1*
X843617Y2849863D1*
X880862Y2886164D2*
X861761D1*
X859860Y2868965D1*
X861761Y2870866D1*
X867509Y2872811D1*
X873213D1*
X878961Y2870866D1*
X882807Y2867063D1*
X884709Y2861315D1*
Y2857513D1*
X882807Y2851765D1*
X878961Y2847918D1*
X873213Y2846017D1*
X867509D1*
X861761Y2847918D1*
X859860Y2849863D1*
X857914Y2853666D1*
X897060Y2886209D2*
Y2846017D1*
X923855Y2886209D2*
X897060Y2859414D1*
X906611Y2869009D2*
X923855Y2846017D1*
X975087Y2886209D2*
Y2846017D1*
X988484D1*
X994232Y2847962D1*
X998079Y2851765D1*
X999980Y2855611D1*
X1001882Y2861315D1*
Y2870910D1*
X999980Y2876658D1*
X998079Y2880461D1*
X994232Y2884307D1*
X988484Y2886209D1*
X975087D1*
X1014233D2*
Y2846017D1*
X1026584Y2865162D2*
X1043829D1*
X1049532Y2867063D1*
X1051478Y2869009D1*
X1053379Y2872811D1*
Y2878559D1*
X1051478Y2882362D1*
X1049532Y2884307D1*
X1043829Y2886209D1*
X1026584D1*
Y2846017D1*
X1131406Y2880461D2*
X1127603Y2884307D1*
X1121855Y2886209D1*
X1114206D1*
X1108458Y2884307D1*
X1104611Y2880461D1*
Y2876658D1*
X1106557Y2872811D1*
X1108458Y2870910D1*
X1112261Y2869009D1*
X1123757Y2865162D1*
X1127603Y2863261D1*
X1129505Y2861315D1*
X1131406Y2857513D1*
Y2851765D1*
X1127603Y2847962D1*
X1121855Y2846017D1*
X1114206D1*
X1108458Y2847962D1*
X1104611Y2851765D1*
X1143757Y2886209D2*
X1153352Y2846017D1*
X1162903Y2886209D1*
X1172453Y2846017D1*
X1182048Y2886209D1*
X1194400D2*
Y2846017D1*
X1207797D1*
X1213545Y2847962D1*
X1217392Y2851765D1*
X1219293Y2855611D1*
X1221194Y2861315D1*
Y2870910D1*
X1219293Y2876658D1*
X1217392Y2880461D1*
X1213545Y2884307D1*
X1207797Y2886209D1*
X1194400D1*
X1880905Y3343406D2*
D10*
X2443405D1*
Y3537156D1*
X1880905D1*
Y3343406D1*
X1968504Y3251982D2*
X2362205D1*
Y3047231D2*
Y3251982D1*
X1968504Y3047231D2*
X2362205D1*
X1968504D2*
Y3125984D1*
Y3251982D2*
Y3173228D1*
Y3125984D2*
G03X1968504Y3173228I0J23622D01*
G01*
X1807682Y3291708D2*
D28*
X1857922D1*
X1807682Y3325201D2*
X1857922D1*
X1831613Y3291708D2*
X1831614Y3325201D1*
X1817299Y3340640D2*
X1814867Y3345449D1*
X1807737Y3352634D1*
X1857922D1*
X2168385Y3170553D2*
X2163631Y3175362D1*
X2156446Y3177738D1*
X2146885D1*
X2139700Y3175362D1*
X2134891Y3170553D1*
Y3165800D1*
X2137323Y3160992D1*
X2139700Y3158615D1*
X2144453Y3156239D1*
X2158823Y3151430D1*
X2163631Y3149054D1*
X2166008Y3146622D1*
X2168385Y3141869D1*
Y3134684D1*
X2163631Y3129930D1*
X2156446Y3127498D1*
X2146885D1*
X2139700Y3129930D1*
X2134891Y3134684D1*
X2183824Y3168122D2*
X2188632Y3170553D1*
X2195817Y3177683D1*
Y3127498D1*
X2418151Y3316424D2*
D29*
X2416726Y3319276D1*
X2413840Y3322161D1*
X2410989Y3323587D1*
X2405252D1*
X2402367Y3322161D1*
X2399515Y3319276D1*
X2398055Y3316424D1*
X2396630Y3312113D1*
Y3304917D1*
X2398055Y3300639D1*
X2399515Y3297754D1*
X2402367Y3294902D1*
X2405252Y3293443D1*
X2410989D1*
X2413840Y3294902D1*
X2416726Y3297754D1*
X2418151Y3300639D1*
Y3304917D1*
X2410989D1*
X2447511Y3323587D2*
Y3293443D1*
X2427415Y3323587D1*
Y3293443D1*
X2456775Y3323587D2*
Y3293443D1*
X2466823D1*
X2471134Y3294902D1*
X2474019Y3297754D1*
X2475445Y3300639D1*
X2476871Y3304917D1*
Y3312113D1*
X2475445Y3316424D1*
X2474019Y3319276D1*
X2471134Y3322161D1*
X2466823Y3323587D1*
X2456775D1*
X1922580Y2865162D2*
D30*
X1939824D1*
X1945528Y2867063D1*
X1947473Y2869009D1*
X1949375Y2872811D1*
Y2878559D1*
X1947473Y2882362D1*
X1945528Y2884307D1*
X1939824Y2886209D1*
X1922580D1*
Y2846017D1*
X1988521Y2880461D2*
X1984718Y2884307D1*
X1978970Y2886209D1*
X1971321D1*
X1965573Y2884307D1*
X1961726Y2880461D1*
Y2876658D1*
X1963672Y2872811D1*
X1965573Y2870910D1*
X1969375Y2869009D1*
X1980871Y2865162D1*
X1984718Y2863261D1*
X1986619Y2861315D1*
X1988521Y2857513D1*
Y2851765D1*
X1984718Y2847962D1*
X1978970Y2846017D1*
X1971321D1*
X1965573Y2847962D1*
X1961726Y2851765D1*
X2000872Y2878515D2*
X2004719Y2880461D1*
X2010467Y2886164D1*
Y2846017D1*
X2024720Y2849863D2*
X2022818Y2847918D1*
X2024720Y2846017D1*
X2026665Y2847918D1*
X2024720Y2849863D1*
X2061964Y2886164D2*
X2042863D1*
X2040962Y2868965D1*
X2042863Y2870866D1*
X2048611Y2872811D1*
X2054315D1*
X2060063Y2870866D1*
X2063910Y2867063D1*
X2065811Y2861315D1*
Y2857513D1*
X2063910Y2851765D1*
X2060063Y2847918D1*
X2054315Y2846017D1*
X2048611D1*
X2042863Y2847918D1*
X2040962Y2849863D1*
X2039016Y2853666D1*
X2078163Y2886209D2*
Y2846017D1*
X2104957Y2886209D2*
X2078163Y2859414D1*
X2087713Y2869009D2*
X2104957Y2846017D1*
X2156189Y2886209D2*
Y2846017D1*
X2169587D1*
X2175335Y2847962D1*
X2179181Y2851765D1*
X2181083Y2855611D1*
X2182984Y2861315D1*
Y2870910D1*
X2181083Y2876658D1*
X2179181Y2880461D1*
X2175335Y2884307D1*
X2169587Y2886209D1*
X2156189D1*
X2195335D2*
Y2846017D1*
X2207687Y2865162D2*
X2224931D1*
X2230635Y2867063D1*
X2232580Y2869009D1*
X2234481Y2872811D1*
Y2878559D1*
X2232580Y2882362D1*
X2230635Y2884307D1*
X2224931Y2886209D1*
X2207687D1*
Y2846017D1*
X2312508Y2880461D2*
X2308706Y2884307D1*
X2302958Y2886209D1*
X2295308D1*
X2289560Y2884307D1*
X2285714Y2880461D1*
Y2876658D1*
X2287659Y2872811D1*
X2289560Y2870910D1*
X2293363Y2869009D1*
X2304859Y2865162D1*
X2308706Y2863261D1*
X2310607Y2861315D1*
X2312508Y2857513D1*
Y2851765D1*
X2308706Y2847962D1*
X2302958Y2846017D1*
X2295308D1*
X2289560Y2847962D1*
X2285714Y2851765D1*
X2324860Y2886209D2*
X2334455Y2846017D1*
X2344005Y2886209D1*
X2353556Y2846017D1*
X2363150Y2886209D1*
X2375502D2*
Y2846017D1*
X2388899D1*
X2394647Y2847962D1*
X2398494Y2851765D1*
X2400395Y2855611D1*
X2402297Y2861315D1*
Y2870910D1*
X2400395Y2876658D1*
X2398494Y2880461D1*
X2394647Y2884307D1*
X2388899Y2886209D1*
X2375502D1*
X3062007Y3343406D2*
D10*
X3624507D1*
Y3537156D1*
X3062007D1*
Y3343406D1*
X3149606Y3251982D2*
X3543307D1*
Y3047231D2*
Y3251982D1*
X3149606Y3047231D2*
X3543307D1*
X3149606D2*
Y3125984D1*
Y3251982D2*
Y3173228D1*
Y3125984D2*
G03X3149606Y3173228I0J23622D01*
G01*
X2988784Y3291708D2*
D28*
X3039024D1*
X2988784Y3325201D2*
X3039024D1*
X3012716Y3291708D2*
Y3325201D1*
X2998401Y3340640D2*
X2995969Y3345449D1*
X2988839Y3352634D1*
X3039024D1*
X3349487Y3170553D2*
X3344734Y3175362D1*
X3337549Y3177738D1*
X3327987D1*
X3320802Y3175362D1*
X3315994Y3170553D1*
Y3165800D1*
X3318426Y3160992D1*
X3320802Y3158615D1*
X3325555Y3156239D1*
X3339925Y3151430D1*
X3344734Y3149054D1*
X3347110Y3146622D1*
X3349487Y3141869D1*
Y3134684D1*
X3344734Y3129930D1*
X3337549Y3127498D1*
X3327987D1*
X3320802Y3129930D1*
X3315994Y3134684D1*
X3364926Y3168122D2*
X3369735Y3170553D1*
X3376920Y3177683D1*
Y3127498D1*
X3599254Y3316424D2*
D29*
X3597828Y3319276D1*
X3594943Y3322161D1*
X3592091Y3323587D1*
X3586354D1*
X3583469Y3322161D1*
X3580617Y3319276D1*
X3579158Y3316424D1*
X3577732Y3312113D1*
Y3304917D1*
X3579158Y3300639D1*
X3580617Y3297754D1*
X3583469Y3294902D1*
X3586354Y3293443D1*
X3592091D1*
X3594943Y3294902D1*
X3597828Y3297754D1*
X3599254Y3300639D1*
Y3304917D1*
X3592091D1*
X3628613Y3323587D2*
Y3293443D1*
X3608517Y3323587D1*
Y3293443D1*
X3637877Y3323587D2*
Y3293443D1*
X3647925D1*
X3652236Y3294902D1*
X3655121Y3297754D1*
X3656547Y3300639D1*
X3657973Y3304917D1*
Y3312113D1*
X3656547Y3316424D1*
X3655121Y3319276D1*
X3652236Y3322161D1*
X3647925Y3323587D1*
X3637877D1*
X3103682Y2865162D2*
D30*
X3120926D1*
X3126630Y2867063D1*
X3128576Y2869009D1*
X3130477Y2872811D1*
Y2878559D1*
X3128576Y2882362D1*
X3126630Y2884307D1*
X3120926Y2886209D1*
X3103682D1*
Y2846017D1*
X3169623Y2880461D2*
X3165821Y2884307D1*
X3160072Y2886209D1*
X3152423D1*
X3146675Y2884307D1*
X3142828Y2880461D1*
Y2876658D1*
X3144774Y2872811D1*
X3146675Y2870910D1*
X3150478Y2869009D1*
X3161974Y2865162D1*
X3165821Y2863261D1*
X3167722Y2861315D1*
X3169623Y2857513D1*
Y2851765D1*
X3165821Y2847962D1*
X3160072Y2846017D1*
X3152423D1*
X3146675Y2847962D1*
X3142828Y2851765D1*
X3181974Y2878515D2*
X3185821Y2880461D1*
X3191569Y2886164D1*
Y2846017D1*
X3205822Y2849863D2*
X3203921Y2847918D1*
X3205822Y2846017D1*
X3207767Y2847918D1*
X3205822Y2849863D1*
X3243067Y2886164D2*
X3223966D1*
X3222064Y2868965D1*
X3223966Y2870866D1*
X3229714Y2872811D1*
X3235417D1*
X3241165Y2870866D1*
X3245012Y2867063D1*
X3246913Y2861315D1*
Y2857513D1*
X3245012Y2851765D1*
X3241165Y2847918D1*
X3235417Y2846017D1*
X3229714D1*
X3223966Y2847918D1*
X3222064Y2849863D1*
X3220119Y2853666D1*
X3259265Y2886209D2*
Y2846017D1*
X3286060Y2886209D2*
X3259265Y2859414D1*
X3268815Y2869009D2*
X3286060Y2846017D1*
X3337292Y2886209D2*
Y2846017D1*
X3350689D1*
X3356437Y2847962D1*
X3360284Y2851765D1*
X3362185Y2855611D1*
X3364086Y2861315D1*
Y2870910D1*
X3362185Y2876658D1*
X3360284Y2880461D1*
X3356437Y2884307D1*
X3350689Y2886209D1*
X3337292D1*
X3376438D2*
Y2846017D1*
X3388789Y2865162D2*
X3406033D1*
X3411737Y2867063D1*
X3413683Y2869009D1*
X3415584Y2872811D1*
Y2878559D1*
X3413683Y2882362D1*
X3411737Y2884307D1*
X3406033Y2886209D1*
X3388789D1*
Y2846017D1*
X3493611Y2880461D2*
X3489808Y2884307D1*
X3484060Y2886209D1*
X3476411D1*
X3470663Y2884307D1*
X3466816Y2880461D1*
Y2876658D1*
X3468762Y2872811D1*
X3470663Y2870910D1*
X3474465Y2869009D1*
X3485961Y2865162D1*
X3489808Y2863261D1*
X3491709Y2861315D1*
X3493611Y2857513D1*
Y2851765D1*
X3489808Y2847962D1*
X3484060Y2846017D1*
X3476411D1*
X3470663Y2847962D1*
X3466816Y2851765D1*
X3505962Y2886209D2*
X3515557Y2846017D1*
X3525107Y2886209D1*
X3534658Y2846017D1*
X3544253Y2886209D1*
X3556604D2*
Y2846017D1*
X3570002D1*
X3575750Y2847962D1*
X3579596Y2851765D1*
X3581498Y2855611D1*
X3583399Y2861315D1*
Y2870910D1*
X3581498Y2876658D1*
X3579596Y2880461D1*
X3575750Y2884307D1*
X3570002Y2886209D1*
X3556604D1*
X4243110Y3343406D2*
D10*
X4805610D1*
Y3537156D1*
X4243110D1*
Y3343406D1*
X4330709Y3251982D2*
X4724409D1*
Y3047231D2*
Y3251982D1*
X4330709Y3047231D2*
X4724409D1*
X4330709D2*
Y3125984D1*
Y3251982D2*
Y3173228D1*
Y3125984D2*
G03X4330709Y3173228I0J23622D01*
G01*
X4169887Y3291708D2*
D28*
X4220127D1*
X4169887Y3325201D2*
X4220127D1*
X4193818Y3291708D2*
Y3325201D1*
X4179503Y3340640D2*
X4177072Y3345449D1*
X4169942Y3352634D1*
X4220127D1*
X4530589Y3170553D2*
X4525836Y3175362D1*
X4518651Y3177738D1*
X4509090D1*
X4501904Y3175362D1*
X4497096Y3170553D1*
Y3165800D1*
X4499528Y3160992D1*
X4501904Y3158615D1*
X4506658Y3156239D1*
X4521028Y3151430D1*
X4525836Y3149054D1*
X4528213Y3146622D1*
X4530589Y3141869D1*
Y3134684D1*
X4525836Y3129930D1*
X4518651Y3127498D1*
X4509090D1*
X4501904Y3129930D1*
X4497096Y3134684D1*
X4546029Y3168122D2*
X4550837Y3170553D1*
X4558022Y3177683D1*
Y3127498D1*
X4780356Y3316424D2*
D29*
X4778930Y3319276D1*
X4776045Y3322161D1*
X4773193Y3323587D1*
X4767456D1*
X4764571Y3322161D1*
X4761719Y3319276D1*
X4760260Y3316424D1*
X4758834Y3312113D1*
Y3304917D1*
X4760260Y3300639D1*
X4761719Y3297754D1*
X4764571Y3294902D1*
X4767456Y3293443D1*
X4773193D1*
X4776045Y3294902D1*
X4778930Y3297754D1*
X4780356Y3300639D1*
Y3304917D1*
X4773193D1*
X4809716Y3323587D2*
Y3293443D1*
X4789620Y3323587D1*
Y3293443D1*
X4818979Y3323587D2*
Y3293443D1*
X4829027D1*
X4833338Y3294902D1*
X4836223Y3297754D1*
X4837649Y3300639D1*
X4839075Y3304917D1*
Y3312113D1*
X4837649Y3316424D1*
X4836223Y3319276D1*
X4833338Y3322161D1*
X4829027Y3323587D1*
X4818979D1*
X4284785Y2865162D2*
D30*
X4302029D1*
X4307733Y2867063D1*
X4309678Y2869009D1*
X4311579Y2872811D1*
Y2878559D1*
X4309678Y2882362D1*
X4307733Y2884307D1*
X4302029Y2886209D1*
X4284785D1*
Y2846017D1*
X4350725Y2880461D2*
X4346923Y2884307D1*
X4341175Y2886209D1*
X4333526D1*
X4327778Y2884307D1*
X4323931Y2880461D1*
Y2876658D1*
X4325876Y2872811D1*
X4327778Y2870910D1*
X4331580Y2869009D1*
X4343076Y2865162D1*
X4346923Y2863261D1*
X4348824Y2861315D1*
X4350725Y2857513D1*
Y2851765D1*
X4346923Y2847962D1*
X4341175Y2846017D1*
X4333526D1*
X4327778Y2847962D1*
X4323931Y2851765D1*
X4363077Y2878515D2*
X4366924Y2880461D1*
X4372672Y2886164D1*
Y2846017D1*
X4386924Y2849863D2*
X4385023Y2847918D1*
X4386924Y2846017D1*
X4388870Y2847918D1*
X4386924Y2849863D1*
X4424169Y2886164D2*
X4405068D1*
X4403167Y2868965D1*
X4405068Y2870866D1*
X4410816Y2872811D1*
X4416520D1*
X4422268Y2870866D1*
X4426115Y2867063D1*
X4428016Y2861315D1*
Y2857513D1*
X4426115Y2851765D1*
X4422268Y2847918D1*
X4416520Y2846017D1*
X4410816D1*
X4405068Y2847918D1*
X4403167Y2849863D1*
X4401221Y2853666D1*
X4440367Y2886209D2*
Y2846017D1*
X4467162Y2886209D2*
X4440367Y2859414D1*
X4449918Y2869009D2*
X4467162Y2846017D1*
X4518394Y2886209D2*
Y2846017D1*
X4531791D1*
X4537539Y2847962D1*
X4541386Y2851765D1*
X4543287Y2855611D1*
X4545189Y2861315D1*
Y2870910D1*
X4543287Y2876658D1*
X4541386Y2880461D1*
X4537539Y2884307D1*
X4531791Y2886209D1*
X4518394D1*
X4557540D2*
Y2846017D1*
X4569892Y2865162D2*
X4587136D1*
X4592839Y2867063D1*
X4594785Y2869009D1*
X4596686Y2872811D1*
Y2878559D1*
X4594785Y2882362D1*
X4592839Y2884307D1*
X4587136Y2886209D1*
X4569892D1*
Y2846017D1*
X4674713Y2880461D2*
X4670911Y2884307D1*
X4665162Y2886209D1*
X4657513D1*
X4651765Y2884307D1*
X4647918Y2880461D1*
Y2876658D1*
X4649864Y2872811D1*
X4651765Y2870910D1*
X4655568Y2869009D1*
X4667064Y2865162D1*
X4670911Y2863261D1*
X4672812Y2861315D1*
X4674713Y2857513D1*
Y2851765D1*
X4670911Y2847962D1*
X4665162Y2846017D1*
X4657513D1*
X4651765Y2847962D1*
X4647918Y2851765D1*
X4687064Y2886209D2*
X4696659Y2846017D1*
X4706210Y2886209D1*
X4715760Y2846017D1*
X4725355Y2886209D1*
X4737707D2*
Y2846017D1*
X4751104D1*
X4756852Y2847962D1*
X4760699Y2851765D1*
X4762600Y2855611D1*
X4764501Y2861315D1*
Y2870910D1*
X4762600Y2876658D1*
X4760699Y2880461D1*
X4756852Y2884307D1*
X4751104Y2886209D1*
X4737707D1*
X5424212Y3343406D2*
D10*
X5986712D1*
Y3537156D1*
X5424212D1*
Y3343406D1*
X5511811Y3251982D2*
X5905512D1*
Y3047231D2*
Y3251982D1*
X5511811Y3047231D2*
X5905512D1*
X5511811D2*
Y3125984D1*
Y3251982D2*
Y3173228D1*
Y3125984D2*
G03X5511811Y3173228I0J23622D01*
G01*
X5350989Y3291708D2*
D28*
X5401229D1*
X5350989Y3325201D2*
X5401229D1*
X5374921Y3291708D2*
Y3325201D1*
X5360606Y3340640D2*
X5358174Y3345449D1*
X5351044Y3352634D1*
X5401229D1*
X5711692Y3170553D2*
X5706939Y3175362D1*
X5699753Y3177738D1*
X5690192D1*
X5683007Y3175362D1*
X5678198Y3170553D1*
Y3165800D1*
X5680630Y3160992D1*
X5683007Y3158615D1*
X5687760Y3156239D1*
X5702130Y3151430D1*
X5706939Y3149054D1*
X5709315Y3146622D1*
X5711692Y3141869D1*
Y3134684D1*
X5706939Y3129930D1*
X5699753Y3127498D1*
X5690192D1*
X5683007Y3129930D1*
X5678198Y3134684D1*
X5727131Y3168122D2*
X5731939Y3170553D1*
X5739124Y3177683D1*
Y3127498D1*
X5961459Y3316424D2*
D29*
X5960033Y3319276D1*
X5957148Y3322161D1*
X5954296Y3323587D1*
X5948559D1*
X5945674Y3322161D1*
X5942822Y3319276D1*
X5941363Y3316424D1*
X5939937Y3312113D1*
Y3304917D1*
X5941363Y3300639D1*
X5942822Y3297754D1*
X5945674Y3294902D1*
X5948559Y3293443D1*
X5954296D1*
X5957148Y3294902D1*
X5960033Y3297754D1*
X5961459Y3300639D1*
Y3304917D1*
X5954296D1*
X5990818Y3323587D2*
Y3293443D1*
X5970722Y3323587D1*
Y3293443D1*
X6000082Y3323587D2*
Y3293443D1*
X6010130D1*
X6014441Y3294902D1*
X6017326Y3297754D1*
X6018752Y3300639D1*
X6020178Y3304917D1*
Y3312113D1*
X6018752Y3316424D1*
X6017326Y3319276D1*
X6014441Y3322161D1*
X6010130Y3323587D1*
X6000082D1*
X5465887Y2865162D2*
D30*
X5483131D1*
X5488835Y2867063D1*
X5490780Y2869009D1*
X5492682Y2872811D1*
Y2878559D1*
X5490780Y2882362D1*
X5488835Y2884307D1*
X5483131Y2886209D1*
X5465887D1*
Y2846017D1*
X5531828Y2880461D2*
X5528025Y2884307D1*
X5522277Y2886209D1*
X5514628D1*
X5508880Y2884307D1*
X5505033Y2880461D1*
Y2876658D1*
X5506979Y2872811D1*
X5508880Y2870910D1*
X5512682Y2869009D1*
X5524178Y2865162D1*
X5528025Y2863261D1*
X5529927Y2861315D1*
X5531828Y2857513D1*
Y2851765D1*
X5528025Y2847962D1*
X5522277Y2846017D1*
X5514628D1*
X5508880Y2847962D1*
X5505033Y2851765D1*
X5544179Y2878515D2*
X5548026Y2880461D1*
X5553774Y2886164D1*
Y2846017D1*
X5568027Y2849863D2*
X5566125Y2847918D1*
X5568027Y2846017D1*
X5569972Y2847918D1*
X5568027Y2849863D1*
X5605271Y2886164D2*
X5586170D1*
X5584269Y2868965D1*
X5586170Y2870866D1*
X5591918Y2872811D1*
X5597622D1*
X5603370Y2870866D1*
X5607217Y2867063D1*
X5609118Y2861315D1*
Y2857513D1*
X5607217Y2851765D1*
X5603370Y2847918D1*
X5597622Y2846017D1*
X5591918D1*
X5586170Y2847918D1*
X5584269Y2849863D1*
X5582324Y2853666D1*
X5621470Y2886209D2*
Y2846017D1*
X5648264Y2886209D2*
X5621470Y2859414D1*
X5631020Y2869009D2*
X5648264Y2846017D1*
X5699496Y2886209D2*
Y2846017D1*
X5712894D1*
X5718642Y2847962D1*
X5722489Y2851765D1*
X5724390Y2855611D1*
X5726291Y2861315D1*
Y2870910D1*
X5724390Y2876658D1*
X5722489Y2880461D1*
X5718642Y2884307D1*
X5712894Y2886209D1*
X5699496D1*
X5738643D2*
Y2846017D1*
X5750994Y2865162D2*
X5768238D1*
X5773942Y2867063D1*
X5775887Y2869009D1*
X5777789Y2872811D1*
Y2878559D1*
X5775887Y2882362D1*
X5773942Y2884307D1*
X5768238Y2886209D1*
X5750994D1*
Y2846017D1*
X5855815Y2880461D2*
X5852013Y2884307D1*
X5846265Y2886209D1*
X5838616D1*
X5832868Y2884307D1*
X5829021Y2880461D1*
Y2876658D1*
X5830966Y2872811D1*
X5832868Y2870910D1*
X5836670Y2869009D1*
X5848166Y2865162D1*
X5852013Y2863261D1*
X5853914Y2861315D1*
X5855815Y2857513D1*
Y2851765D1*
X5852013Y2847962D1*
X5846265Y2846017D1*
X5838616D1*
X5832868Y2847962D1*
X5829021Y2851765D1*
X5868167Y2886209D2*
X5877762Y2846017D1*
X5887312Y2886209D1*
X5896863Y2846017D1*
X5906458Y2886209D1*
X5918809D2*
Y2846017D1*
X5932206D1*
X5937954Y2847962D1*
X5941801Y2851765D1*
X5943702Y2855611D1*
X5945604Y2861315D1*
Y2870910D1*
X5943702Y2876658D1*
X5941801Y2880461D1*
X5937954Y2884307D1*
X5932206Y2886209D1*
X5918809D1*
X699802Y4130807D2*
D10*
X1262302D1*
Y4324558D1*
X699802D1*
Y4130807D1*
X787402Y4039383D2*
X1181102D1*
Y3834632D2*
Y4039383D1*
X787402Y3834632D2*
X1181102D1*
X787402D2*
Y3913386D1*
Y4039383D2*
Y3960630D1*
Y3913386D2*
G03X787402Y3960630I0J23622D01*
G01*
X626579Y4079109D2*
D28*
X676819D1*
X626579Y4112603D2*
X676819D1*
X650511Y4079109D2*
Y4112603D1*
X636196Y4128042D2*
X633765Y4132850D1*
X626635Y4140035D1*
X676819D1*
X987282Y3957955D2*
X982529Y3962763D1*
X975344Y3965140D1*
X965782D1*
X958597Y3962763D1*
X953789Y3957955D1*
Y3953202D1*
X956221Y3948393D1*
X958597Y3946017D1*
X963351Y3943640D1*
X977721Y3938832D1*
X982529Y3936455D1*
X984906Y3934023D1*
X987282Y3929270D1*
Y3922085D1*
X982529Y3917332D1*
X975344Y3914900D1*
X965782D1*
X958597Y3917332D1*
X953789Y3922085D1*
X1002722Y3955523D2*
X1007530Y3957955D1*
X1014715Y3965085D1*
Y3914900D1*
X1237049Y4103826D2*
D29*
X1235623Y4106678D1*
X1232738Y4109563D1*
X1229886Y4110989D1*
X1224149D1*
X1221264Y4109563D1*
X1218412Y4106678D1*
X1216953Y4103826D1*
X1215527Y4099515D1*
Y4092319D1*
X1216953Y4088041D1*
X1218412Y4085156D1*
X1221264Y4082304D1*
X1224149Y4080845D1*
X1229886D1*
X1232738Y4082304D1*
X1235623Y4085156D1*
X1237049Y4088041D1*
Y4092319D1*
X1229886D1*
X1266409Y4110989D2*
Y4080845D1*
X1246313Y4110989D1*
Y4080845D1*
X1275672Y4110989D2*
Y4080845D1*
X1285720D1*
X1290031Y4082304D1*
X1292916Y4085156D1*
X1294342Y4088041D1*
X1295768Y4092319D1*
Y4099515D1*
X1294342Y4103826D1*
X1292916Y4106678D1*
X1290031Y4109563D1*
X1285720Y4110989D1*
X1275672D1*
X741478Y3652564D2*
D30*
X758722D1*
X764426Y3654465D1*
X766371Y3656410D1*
X768272Y3660213D1*
Y3665961D1*
X766371Y3669763D1*
X764426Y3671709D1*
X758722Y3673610D1*
X741478D1*
Y3633418D1*
X807418Y3667862D2*
X803616Y3671709D1*
X797868Y3673610D1*
X790218D1*
X784470Y3671709D1*
X780624Y3667862D1*
Y3664060D1*
X782569Y3660213D1*
X784470Y3658312D1*
X788273Y3656410D1*
X799769Y3652564D1*
X803616Y3650662D1*
X805517Y3648717D1*
X807418Y3644914D1*
Y3639166D1*
X803616Y3635364D1*
X797868Y3633418D1*
X790218D1*
X784470Y3635364D1*
X780624Y3639166D1*
X819770Y3665917D2*
X823617Y3667862D1*
X829365Y3673566D1*
Y3633418D1*
X843617Y3637265D2*
X841716Y3635319D1*
X843617Y3633418D1*
X845563Y3635319D1*
X843617Y3637265D1*
X880862Y3673566D2*
X861761D1*
X859860Y3656366D1*
X861761Y3658267D1*
X867509Y3660213D1*
X873213D1*
X878961Y3658267D1*
X882807Y3654465D1*
X884709Y3648717D1*
Y3644914D1*
X882807Y3639166D1*
X878961Y3635319D1*
X873213Y3633418D1*
X867509D1*
X861761Y3635319D1*
X859860Y3637265D1*
X857914Y3641068D1*
X897060Y3673610D2*
Y3633418D1*
X923855Y3673610D2*
X897060Y3646816D1*
X906611Y3656410D2*
X923855Y3633418D1*
X975087Y3673610D2*
Y3633418D1*
X988484D1*
X994232Y3635364D1*
X998079Y3639166D1*
X999980Y3643013D1*
X1001882Y3648717D1*
Y3658312D1*
X999980Y3664060D1*
X998079Y3667862D1*
X994232Y3671709D1*
X988484Y3673610D1*
X975087D1*
X1014233D2*
Y3633418D1*
X1026584Y3652564D2*
X1043829D1*
X1049532Y3654465D1*
X1051478Y3656410D1*
X1053379Y3660213D1*
Y3665961D1*
X1051478Y3669763D1*
X1049532Y3671709D1*
X1043829Y3673610D1*
X1026584D1*
Y3633418D1*
X1131406Y3667862D2*
X1127603Y3671709D1*
X1121855Y3673610D1*
X1114206D1*
X1108458Y3671709D1*
X1104611Y3667862D1*
Y3664060D1*
X1106557Y3660213D1*
X1108458Y3658312D1*
X1112261Y3656410D1*
X1123757Y3652564D1*
X1127603Y3650662D1*
X1129505Y3648717D1*
X1131406Y3644914D1*
Y3639166D1*
X1127603Y3635364D1*
X1121855Y3633418D1*
X1114206D1*
X1108458Y3635364D1*
X1104611Y3639166D1*
X1143757Y3673610D2*
X1153352Y3633418D1*
X1162903Y3673610D1*
X1172453Y3633418D1*
X1182048Y3673610D1*
X1194400D2*
Y3633418D1*
X1207797D1*
X1213545Y3635364D1*
X1217392Y3639166D1*
X1219293Y3643013D1*
X1221194Y3648717D1*
Y3658312D1*
X1219293Y3664060D1*
X1217392Y3667862D1*
X1213545Y3671709D1*
X1207797Y3673610D1*
X1194400D1*
X1880905Y4130807D2*
D10*
X2443405D1*
Y4324558D1*
X1880905D1*
Y4130807D1*
X1968504Y4039383D2*
X2362205D1*
Y3834632D2*
Y4039383D1*
X1968504Y3834632D2*
X2362205D1*
X1968504D2*
Y3913386D1*
Y4039383D2*
Y3960630D1*
Y3913386D2*
G03X1968504Y3960630I0J23622D01*
G01*
X1807682Y4079109D2*
D28*
X1857922D1*
X1807682Y4112603D2*
X1857922D1*
X1831613Y4079109D2*
X1831614Y4112603D1*
X1817299Y4128042D2*
X1814867Y4132850D1*
X1807737Y4140035D1*
X1857922D1*
X2168385Y3957955D2*
X2163631Y3962763D1*
X2156446Y3965140D1*
X2146885D1*
X2139700Y3962763D1*
X2134891Y3957955D1*
Y3953202D1*
X2137323Y3948393D1*
X2139700Y3946017D1*
X2144453Y3943640D1*
X2158823Y3938832D1*
X2163631Y3936455D1*
X2166008Y3934023D1*
X2168385Y3929270D1*
Y3922085D1*
X2163631Y3917332D1*
X2156446Y3914900D1*
X2146885D1*
X2139700Y3917332D1*
X2134891Y3922085D1*
X2183824Y3955523D2*
X2188632Y3957955D1*
X2195817Y3965085D1*
Y3914900D1*
X2418151Y4103826D2*
D29*
X2416726Y4106678D1*
X2413840Y4109563D1*
X2410989Y4110989D1*
X2405252D1*
X2402367Y4109563D1*
X2399515Y4106678D1*
X2398055Y4103826D1*
X2396630Y4099515D1*
Y4092319D1*
X2398055Y4088041D1*
X2399515Y4085156D1*
X2402367Y4082304D1*
X2405252Y4080845D1*
X2410989D1*
X2413840Y4082304D1*
X2416726Y4085156D1*
X2418151Y4088041D1*
Y4092319D1*
X2410989D1*
X2447511Y4110989D2*
Y4080845D1*
X2427415Y4110989D1*
Y4080845D1*
X2456775Y4110989D2*
Y4080845D1*
X2466823D1*
X2471134Y4082304D1*
X2474019Y4085156D1*
X2475445Y4088041D1*
X2476871Y4092319D1*
Y4099515D1*
X2475445Y4103826D1*
X2474019Y4106678D1*
X2471134Y4109563D1*
X2466823Y4110989D1*
X2456775D1*
X1922580Y3652564D2*
D30*
X1939824D1*
X1945528Y3654465D1*
X1947473Y3656410D1*
X1949375Y3660213D1*
Y3665961D1*
X1947473Y3669763D1*
X1945528Y3671709D1*
X1939824Y3673610D1*
X1922580D1*
Y3633418D1*
X1988521Y3667862D2*
X1984718Y3671709D1*
X1978970Y3673610D1*
X1971321D1*
X1965573Y3671709D1*
X1961726Y3667862D1*
Y3664060D1*
X1963672Y3660213D1*
X1965573Y3658312D1*
X1969375Y3656410D1*
X1980871Y3652564D1*
X1984718Y3650662D1*
X1986619Y3648717D1*
X1988521Y3644914D1*
Y3639166D1*
X1984718Y3635364D1*
X1978970Y3633418D1*
X1971321D1*
X1965573Y3635364D1*
X1961726Y3639166D1*
X2000872Y3665917D2*
X2004719Y3667862D1*
X2010467Y3673566D1*
Y3633418D1*
X2024720Y3637265D2*
X2022818Y3635319D1*
X2024720Y3633418D1*
X2026665Y3635319D1*
X2024720Y3637265D1*
X2061964Y3673566D2*
X2042863D1*
X2040962Y3656366D1*
X2042863Y3658267D1*
X2048611Y3660213D1*
X2054315D1*
X2060063Y3658267D1*
X2063910Y3654465D1*
X2065811Y3648717D1*
Y3644914D1*
X2063910Y3639166D1*
X2060063Y3635319D1*
X2054315Y3633418D1*
X2048611D1*
X2042863Y3635319D1*
X2040962Y3637265D1*
X2039016Y3641068D1*
X2078163Y3673610D2*
Y3633418D1*
X2104957Y3673610D2*
X2078163Y3646816D1*
X2087713Y3656410D2*
X2104957Y3633418D1*
X2156189Y3673610D2*
Y3633418D1*
X2169587D1*
X2175335Y3635364D1*
X2179181Y3639166D1*
X2181083Y3643013D1*
X2182984Y3648717D1*
Y3658312D1*
X2181083Y3664060D1*
X2179181Y3667862D1*
X2175335Y3671709D1*
X2169587Y3673610D1*
X2156189D1*
X2195335D2*
Y3633418D1*
X2207687Y3652564D2*
X2224931D1*
X2230635Y3654465D1*
X2232580Y3656410D1*
X2234481Y3660213D1*
Y3665961D1*
X2232580Y3669763D1*
X2230635Y3671709D1*
X2224931Y3673610D1*
X2207687D1*
Y3633418D1*
X2312508Y3667862D2*
X2308706Y3671709D1*
X2302958Y3673610D1*
X2295308D1*
X2289560Y3671709D1*
X2285714Y3667862D1*
Y3664060D1*
X2287659Y3660213D1*
X2289560Y3658312D1*
X2293363Y3656410D1*
X2304859Y3652564D1*
X2308706Y3650662D1*
X2310607Y3648717D1*
X2312508Y3644914D1*
Y3639166D1*
X2308706Y3635364D1*
X2302958Y3633418D1*
X2295308D1*
X2289560Y3635364D1*
X2285714Y3639166D1*
X2324860Y3673610D2*
X2334455Y3633418D1*
X2344005Y3673610D1*
X2353556Y3633418D1*
X2363150Y3673610D1*
X2375502D2*
Y3633418D1*
X2388899D1*
X2394647Y3635364D1*
X2398494Y3639166D1*
X2400395Y3643013D1*
X2402297Y3648717D1*
Y3658312D1*
X2400395Y3664060D1*
X2398494Y3667862D1*
X2394647Y3671709D1*
X2388899Y3673610D1*
X2375502D1*
X3062007Y4130807D2*
D10*
X3624507D1*
Y4324558D1*
X3062007D1*
Y4130807D1*
X3149606Y4039383D2*
X3543307D1*
Y3834632D2*
Y4039383D1*
X3149606Y3834632D2*
X3543307D1*
X3149606D2*
Y3913386D1*
Y4039383D2*
Y3960630D1*
Y3913386D2*
G03X3149606Y3960630I0J23622D01*
G01*
X2988784Y4079109D2*
D28*
X3039024D1*
X2988784Y4112603D2*
X3039024D1*
X3012716Y4079109D2*
Y4112603D1*
X2998401Y4128042D2*
X2995969Y4132850D1*
X2988839Y4140035D1*
X3039024D1*
X3349487Y3957955D2*
X3344734Y3962763D1*
X3337549Y3965140D1*
X3327987D1*
X3320802Y3962763D1*
X3315994Y3957955D1*
Y3953202D1*
X3318426Y3948393D1*
X3320802Y3946017D1*
X3325555Y3943640D1*
X3339925Y3938832D1*
X3344734Y3936455D1*
X3347110Y3934023D1*
X3349487Y3929270D1*
Y3922085D1*
X3344734Y3917332D1*
X3337549Y3914900D1*
X3327987D1*
X3320802Y3917332D1*
X3315994Y3922085D1*
X3364926Y3955523D2*
X3369735Y3957955D1*
X3376920Y3965085D1*
Y3914900D1*
X3599254Y4103826D2*
D29*
X3597828Y4106678D1*
X3594943Y4109563D1*
X3592091Y4110989D1*
X3586354D1*
X3583469Y4109563D1*
X3580617Y4106678D1*
X3579158Y4103826D1*
X3577732Y4099515D1*
Y4092319D1*
X3579158Y4088041D1*
X3580617Y4085156D1*
X3583469Y4082304D1*
X3586354Y4080845D1*
X3592091D1*
X3594943Y4082304D1*
X3597828Y4085156D1*
X3599254Y4088041D1*
Y4092319D1*
X3592091D1*
X3628613Y4110989D2*
Y4080845D1*
X3608517Y4110989D1*
Y4080845D1*
X3637877Y4110989D2*
Y4080845D1*
X3647925D1*
X3652236Y4082304D1*
X3655121Y4085156D1*
X3656547Y4088041D1*
X3657973Y4092319D1*
Y4099515D1*
X3656547Y4103826D1*
X3655121Y4106678D1*
X3652236Y4109563D1*
X3647925Y4110989D1*
X3637877D1*
X3103682Y3652564D2*
D30*
X3120926D1*
X3126630Y3654465D1*
X3128576Y3656410D1*
X3130477Y3660213D1*
Y3665961D1*
X3128576Y3669763D1*
X3126630Y3671709D1*
X3120926Y3673610D1*
X3103682D1*
Y3633418D1*
X3169623Y3667862D2*
X3165821Y3671709D1*
X3160072Y3673610D1*
X3152423D1*
X3146675Y3671709D1*
X3142828Y3667862D1*
Y3664060D1*
X3144774Y3660213D1*
X3146675Y3658312D1*
X3150478Y3656410D1*
X3161974Y3652564D1*
X3165821Y3650662D1*
X3167722Y3648717D1*
X3169623Y3644914D1*
Y3639166D1*
X3165821Y3635364D1*
X3160072Y3633418D1*
X3152423D1*
X3146675Y3635364D1*
X3142828Y3639166D1*
X3181974Y3665917D2*
X3185821Y3667862D1*
X3191569Y3673566D1*
Y3633418D1*
X3205822Y3637265D2*
X3203921Y3635319D1*
X3205822Y3633418D1*
X3207767Y3635319D1*
X3205822Y3637265D1*
X3243067Y3673566D2*
X3223966D1*
X3222064Y3656366D1*
X3223966Y3658267D1*
X3229714Y3660213D1*
X3235417D1*
X3241165Y3658267D1*
X3245012Y3654465D1*
X3246913Y3648717D1*
Y3644914D1*
X3245012Y3639166D1*
X3241165Y3635319D1*
X3235417Y3633418D1*
X3229714D1*
X3223966Y3635319D1*
X3222064Y3637265D1*
X3220119Y3641068D1*
X3259265Y3673610D2*
Y3633418D1*
X3286060Y3673610D2*
X3259265Y3646816D1*
X3268815Y3656410D2*
X3286060Y3633418D1*
X3337292Y3673610D2*
Y3633418D1*
X3350689D1*
X3356437Y3635364D1*
X3360284Y3639166D1*
X3362185Y3643013D1*
X3364086Y3648717D1*
Y3658312D1*
X3362185Y3664060D1*
X3360284Y3667862D1*
X3356437Y3671709D1*
X3350689Y3673610D1*
X3337292D1*
X3376438D2*
Y3633418D1*
X3388789Y3652564D2*
X3406033D1*
X3411737Y3654465D1*
X3413683Y3656410D1*
X3415584Y3660213D1*
Y3665961D1*
X3413683Y3669763D1*
X3411737Y3671709D1*
X3406033Y3673610D1*
X3388789D1*
Y3633418D1*
X3493611Y3667862D2*
X3489808Y3671709D1*
X3484060Y3673610D1*
X3476411D1*
X3470663Y3671709D1*
X3466816Y3667862D1*
Y3664060D1*
X3468762Y3660213D1*
X3470663Y3658312D1*
X3474465Y3656410D1*
X3485961Y3652564D1*
X3489808Y3650662D1*
X3491709Y3648717D1*
X3493611Y3644914D1*
Y3639166D1*
X3489808Y3635364D1*
X3484060Y3633418D1*
X3476411D1*
X3470663Y3635364D1*
X3466816Y3639166D1*
X3505962Y3673610D2*
X3515557Y3633418D1*
X3525107Y3673610D1*
X3534658Y3633418D1*
X3544253Y3673610D1*
X3556604D2*
Y3633418D1*
X3570002D1*
X3575750Y3635364D1*
X3579596Y3639166D1*
X3581498Y3643013D1*
X3583399Y3648717D1*
Y3658312D1*
X3581498Y3664060D1*
X3579596Y3667862D1*
X3575750Y3671709D1*
X3570002Y3673610D1*
X3556604D1*
X4243110Y4130807D2*
D10*
X4805610D1*
Y4324558D1*
X4243110D1*
Y4130807D1*
X4330709Y4039383D2*
X4724409D1*
Y3834632D2*
Y4039383D1*
X4330709Y3834632D2*
X4724409D1*
X4330709D2*
Y3913386D1*
Y4039383D2*
Y3960630D1*
Y3913386D2*
G03X4330709Y3960630I0J23622D01*
G01*
X4169887Y4079109D2*
D28*
X4220127D1*
X4169887Y4112603D2*
X4220127D1*
X4193818Y4079109D2*
Y4112603D1*
X4179503Y4128042D2*
X4177072Y4132850D1*
X4169942Y4140035D1*
X4220127D1*
X4530589Y3957955D2*
X4525836Y3962763D1*
X4518651Y3965140D1*
X4509090D1*
X4501904Y3962763D1*
X4497096Y3957955D1*
Y3953202D1*
X4499528Y3948393D1*
X4501904Y3946017D1*
X4506658Y3943640D1*
X4521028Y3938832D1*
X4525836Y3936455D1*
X4528213Y3934023D1*
X4530589Y3929270D1*
Y3922085D1*
X4525836Y3917332D1*
X4518651Y3914900D1*
X4509090D1*
X4501904Y3917332D1*
X4497096Y3922085D1*
X4546029Y3955523D2*
X4550837Y3957955D1*
X4558022Y3965085D1*
Y3914900D1*
X4780356Y4103826D2*
D29*
X4778930Y4106678D1*
X4776045Y4109563D1*
X4773193Y4110989D1*
X4767456D1*
X4764571Y4109563D1*
X4761719Y4106678D1*
X4760260Y4103826D1*
X4758834Y4099515D1*
Y4092319D1*
X4760260Y4088041D1*
X4761719Y4085156D1*
X4764571Y4082304D1*
X4767456Y4080845D1*
X4773193D1*
X4776045Y4082304D1*
X4778930Y4085156D1*
X4780356Y4088041D1*
Y4092319D1*
X4773193D1*
X4809716Y4110989D2*
Y4080845D1*
X4789620Y4110989D1*
Y4080845D1*
X4818979Y4110989D2*
Y4080845D1*
X4829027D1*
X4833338Y4082304D1*
X4836223Y4085156D1*
X4837649Y4088041D1*
X4839075Y4092319D1*
Y4099515D1*
X4837649Y4103826D1*
X4836223Y4106678D1*
X4833338Y4109563D1*
X4829027Y4110989D1*
X4818979D1*
X4284785Y3652564D2*
D30*
X4302029D1*
X4307733Y3654465D1*
X4309678Y3656410D1*
X4311579Y3660213D1*
Y3665961D1*
X4309678Y3669763D1*
X4307733Y3671709D1*
X4302029Y3673610D1*
X4284785D1*
Y3633418D1*
X4350725Y3667862D2*
X4346923Y3671709D1*
X4341175Y3673610D1*
X4333526D1*
X4327778Y3671709D1*
X4323931Y3667862D1*
Y3664060D1*
X4325876Y3660213D1*
X4327778Y3658312D1*
X4331580Y3656410D1*
X4343076Y3652564D1*
X4346923Y3650662D1*
X4348824Y3648717D1*
X4350725Y3644914D1*
Y3639166D1*
X4346923Y3635364D1*
X4341175Y3633418D1*
X4333526D1*
X4327778Y3635364D1*
X4323931Y3639166D1*
X4363077Y3665917D2*
X4366924Y3667862D1*
X4372672Y3673566D1*
Y3633418D1*
X4386924Y3637265D2*
X4385023Y3635319D1*
X4386924Y3633418D1*
X4388870Y3635319D1*
X4386924Y3637265D1*
X4424169Y3673566D2*
X4405068D1*
X4403167Y3656366D1*
X4405068Y3658267D1*
X4410816Y3660213D1*
X4416520D1*
X4422268Y3658267D1*
X4426115Y3654465D1*
X4428016Y3648717D1*
Y3644914D1*
X4426115Y3639166D1*
X4422268Y3635319D1*
X4416520Y3633418D1*
X4410816D1*
X4405068Y3635319D1*
X4403167Y3637265D1*
X4401221Y3641068D1*
X4440367Y3673610D2*
Y3633418D1*
X4467162Y3673610D2*
X4440367Y3646816D1*
X4449918Y3656410D2*
X4467162Y3633418D1*
X4518394Y3673610D2*
Y3633418D1*
X4531791D1*
X4537539Y3635364D1*
X4541386Y3639166D1*
X4543287Y3643013D1*
X4545189Y3648717D1*
Y3658312D1*
X4543287Y3664060D1*
X4541386Y3667862D1*
X4537539Y3671709D1*
X4531791Y3673610D1*
X4518394D1*
X4557540D2*
Y3633418D1*
X4569892Y3652564D2*
X4587136D1*
X4592839Y3654465D1*
X4594785Y3656410D1*
X4596686Y3660213D1*
Y3665961D1*
X4594785Y3669763D1*
X4592839Y3671709D1*
X4587136Y3673610D1*
X4569892D1*
Y3633418D1*
X4674713Y3667862D2*
X4670911Y3671709D1*
X4665162Y3673610D1*
X4657513D1*
X4651765Y3671709D1*
X4647918Y3667862D1*
Y3664060D1*
X4649864Y3660213D1*
X4651765Y3658312D1*
X4655568Y3656410D1*
X4667064Y3652564D1*
X4670911Y3650662D1*
X4672812Y3648717D1*
X4674713Y3644914D1*
Y3639166D1*
X4670911Y3635364D1*
X4665162Y3633418D1*
X4657513D1*
X4651765Y3635364D1*
X4647918Y3639166D1*
X4687064Y3673610D2*
X4696659Y3633418D1*
X4706210Y3673610D1*
X4715760Y3633418D1*
X4725355Y3673610D1*
X4737707D2*
Y3633418D1*
X4751104D1*
X4756852Y3635364D1*
X4760699Y3639166D1*
X4762600Y3643013D1*
X4764501Y3648717D1*
Y3658312D1*
X4762600Y3664060D1*
X4760699Y3667862D1*
X4756852Y3671709D1*
X4751104Y3673610D1*
X4737707D1*
X5424212Y4130807D2*
D10*
X5986712D1*
Y4324558D1*
X5424212D1*
Y4130807D1*
X5511811Y4039383D2*
X5905512D1*
Y3834632D2*
Y4039383D1*
X5511811Y3834632D2*
X5905512D1*
X5511811D2*
Y3913386D1*
Y4039383D2*
Y3960630D1*
Y3913386D2*
G03X5511811Y3960630I0J23622D01*
G01*
X5350989Y4079109D2*
D28*
X5401229D1*
X5350989Y4112603D2*
X5401229D1*
X5374921Y4079109D2*
Y4112603D1*
X5360606Y4128042D2*
X5358174Y4132850D1*
X5351044Y4140035D1*
X5401229D1*
X5711692Y3957955D2*
X5706939Y3962763D1*
X5699753Y3965140D1*
X5690192D1*
X5683007Y3962763D1*
X5678198Y3957955D1*
Y3953202D1*
X5680630Y3948393D1*
X5683007Y3946017D1*
X5687760Y3943640D1*
X5702130Y3938832D1*
X5706939Y3936455D1*
X5709315Y3934023D1*
X5711692Y3929270D1*
Y3922085D1*
X5706939Y3917332D1*
X5699753Y3914900D1*
X5690192D1*
X5683007Y3917332D1*
X5678198Y3922085D1*
X5727131Y3955523D2*
X5731939Y3957955D1*
X5739124Y3965085D1*
Y3914900D1*
X5961459Y4103826D2*
D29*
X5960033Y4106678D1*
X5957148Y4109563D1*
X5954296Y4110989D1*
X5948559D1*
X5945674Y4109563D1*
X5942822Y4106678D1*
X5941363Y4103826D1*
X5939937Y4099515D1*
Y4092319D1*
X5941363Y4088041D1*
X5942822Y4085156D1*
X5945674Y4082304D1*
X5948559Y4080845D1*
X5954296D1*
X5957148Y4082304D1*
X5960033Y4085156D1*
X5961459Y4088041D1*
Y4092319D1*
X5954296D1*
X5990818Y4110989D2*
Y4080845D1*
X5970722Y4110989D1*
Y4080845D1*
X6000082Y4110989D2*
Y4080845D1*
X6010130D1*
X6014441Y4082304D1*
X6017326Y4085156D1*
X6018752Y4088041D1*
X6020178Y4092319D1*
Y4099515D1*
X6018752Y4103826D1*
X6017326Y4106678D1*
X6014441Y4109563D1*
X6010130Y4110989D1*
X6000082D1*
X5465887Y3652564D2*
D30*
X5483131D1*
X5488835Y3654465D1*
X5490780Y3656410D1*
X5492682Y3660213D1*
Y3665961D1*
X5490780Y3669763D1*
X5488835Y3671709D1*
X5483131Y3673610D1*
X5465887D1*
Y3633418D1*
X5531828Y3667862D2*
X5528025Y3671709D1*
X5522277Y3673610D1*
X5514628D1*
X5508880Y3671709D1*
X5505033Y3667862D1*
Y3664060D1*
X5506979Y3660213D1*
X5508880Y3658312D1*
X5512682Y3656410D1*
X5524178Y3652564D1*
X5528025Y3650662D1*
X5529927Y3648717D1*
X5531828Y3644914D1*
Y3639166D1*
X5528025Y3635364D1*
X5522277Y3633418D1*
X5514628D1*
X5508880Y3635364D1*
X5505033Y3639166D1*
X5544179Y3665917D2*
X5548026Y3667862D1*
X5553774Y3673566D1*
Y3633418D1*
X5568027Y3637265D2*
X5566125Y3635319D1*
X5568027Y3633418D1*
X5569972Y3635319D1*
X5568027Y3637265D1*
X5605271Y3673566D2*
X5586170D1*
X5584269Y3656366D1*
X5586170Y3658267D1*
X5591918Y3660213D1*
X5597622D1*
X5603370Y3658267D1*
X5607217Y3654465D1*
X5609118Y3648717D1*
Y3644914D1*
X5607217Y3639166D1*
X5603370Y3635319D1*
X5597622Y3633418D1*
X5591918D1*
X5586170Y3635319D1*
X5584269Y3637265D1*
X5582324Y3641068D1*
X5621470Y3673610D2*
Y3633418D1*
X5648264Y3673610D2*
X5621470Y3646816D1*
X5631020Y3656410D2*
X5648264Y3633418D1*
X5699496Y3673610D2*
Y3633418D1*
X5712894D1*
X5718642Y3635364D1*
X5722489Y3639166D1*
X5724390Y3643013D1*
X5726291Y3648717D1*
Y3658312D1*
X5724390Y3664060D1*
X5722489Y3667862D1*
X5718642Y3671709D1*
X5712894Y3673610D1*
X5699496D1*
X5738643D2*
Y3633418D1*
X5750994Y3652564D2*
X5768238D1*
X5773942Y3654465D1*
X5775887Y3656410D1*
X5777789Y3660213D1*
Y3665961D1*
X5775887Y3669763D1*
X5773942Y3671709D1*
X5768238Y3673610D1*
X5750994D1*
Y3633418D1*
X5855815Y3667862D2*
X5852013Y3671709D1*
X5846265Y3673610D1*
X5838616D1*
X5832868Y3671709D1*
X5829021Y3667862D1*
Y3664060D1*
X5830966Y3660213D1*
X5832868Y3658312D1*
X5836670Y3656410D1*
X5848166Y3652564D1*
X5852013Y3650662D1*
X5853914Y3648717D1*
X5855815Y3644914D1*
Y3639166D1*
X5852013Y3635364D1*
X5846265Y3633418D1*
X5838616D1*
X5832868Y3635364D1*
X5829021Y3639166D1*
X5868167Y3673610D2*
X5877762Y3633418D1*
X5887312Y3673610D1*
X5896863Y3633418D1*
X5906458Y3673610D1*
X5918809D2*
Y3633418D1*
X5932206D1*
X5937954Y3635364D1*
X5941801Y3639166D1*
X5943702Y3643013D1*
X5945604Y3648717D1*
Y3658312D1*
X5943702Y3664060D1*
X5941801Y3667862D1*
X5937954Y3671709D1*
X5932206Y3673610D1*
X5918809D1*
M02*
